<svg width="var(--footer-logo-size)" height="140" viewBox="0 0 200 140" fill="none" xmlns="http://www.w3.org/2000/svg">
<g clip-path="url(#clip0_36_1050)">
<path d="M76.838 77.3251C72.4281 77.3251 71.3882 74.2315 71.3882 69.9138V22.6815C71.375 10.9919 62.7526 0 38.2281 0C24.9194 0 4.62056 4.27829 4.72587 28.105H18.2189C19.2984 14.2039 29.3951 12.0055 37.7279 12.0055C49.8782 12.0055 57.6187 16.3233 57.4475 26.2753C57.3554 31.5935 55.2096 35.0161 49.1411 35.7796C37.2277 37.2803 36.0561 37.3066 26.5385 38.6099C8.68822 41.0189 0.171143 50.9313 0.171143 64.7667C0.171143 79.8394 11.5185 90.1336 28.1972 90.1336C39.7288 90.1336 50.6154 84.2888 57.7635 76.0613C58.1057 81.7613 61.818 89.0805 69.6242 89.0805C72.9941 89.0805 77.1935 89.0805 81.2085 89.0805V77.3251C79.2602 77.3777 78.2466 77.3251 76.838 77.3251ZM57.0526 55.1438C57.0526 72.744 40.2159 77.799 30.8958 77.799C21.3125 77.799 15.2834 72.2701 15.2834 64.4639C15.2834 57.7239 18.6007 51.8791 29.1055 50.1415C39.6104 48.4039 49.5228 48.3775 57.0394 44.0071V55.1438H57.0526Z" fill="var(--bs-dark)"/>
<path d="M81.1952 37.5041V55.9337C120.964 30.4351 147.581 68.0445 126.953 85.105C129.244 82.4985 130.639 79.0759 130.639 75.3373C130.639 67.1625 124.018 60.541 115.843 60.541C107.668 60.541 101.046 67.1625 101.046 75.3373C101.046 83.5121 107.668 90.1336 115.843 90.1336C151.965 90.1336 143.935 16.1653 81.1952 37.5041Z" fill="var(--bs-dark)"/>
<path d="M0.539674 114.434C0.605494 113.434 0.802954 112.828 1.2242 112.354C1.77709 111.736 2.79071 111.38 3.98863 111.38C6.10803 111.38 7.30595 112.381 7.30595 114.145V118.147C7.30595 118.818 7.3981 118.963 7.76669 118.963C7.91149 118.963 7.99047 118.95 8.18793 118.871V120.121C7.80618 120.213 7.46392 120.24 7.13482 120.24C6.35814 120.24 6.00272 119.91 5.87108 119.094C5.00225 119.963 4.06761 120.345 2.92235 120.345C1.26369 120.345 0.131592 119.318 0.131592 117.817C0.131592 116.435 0.974085 115.593 2.71173 115.237L4.59417 114.869C5.62096 114.671 5.83158 114.513 5.83158 113.987C5.83158 113.157 5.10757 112.644 3.9623 112.644C3.13297 112.644 2.47478 112.907 2.25099 113.368C2.13251 113.592 2.09302 113.789 2.05353 114.408H0.539674V114.434ZM5.87108 115.764C5.56831 115.882 5.29186 115.974 4.87062 116.08L3.21196 116.462C2.22466 116.685 1.77709 117.093 1.77709 117.765C1.77709 118.541 2.40896 119.068 3.36992 119.068C4.75214 119.068 5.87108 118.068 5.87108 116.843V115.764Z" fill="var(--bs-dark)"/>
<path d="M11.2683 111.617V112.947C11.5974 112.447 11.7422 112.262 11.9792 112.052C12.3609 111.644 12.9796 111.38 13.493 111.38C13.809 111.38 14.1117 111.446 14.3882 111.591V113.052C14.0591 112.986 13.8748 112.96 13.651 112.96C12.3478 112.96 11.3341 114.118 11.3341 115.645V120.121H9.71497V111.604H11.2683V111.617Z" fill="var(--bs-dark)"/>
<path d="M21.6021 114.5C21.352 113.342 20.6148 112.736 19.4563 112.736C17.903 112.736 16.863 113.974 16.863 115.843C16.863 117.765 17.8898 119.002 19.4563 119.002C20.7201 119.002 21.4836 118.318 21.7205 116.935H23.2607C23.0369 119.107 21.6416 120.358 19.43 120.358C16.8894 120.358 15.2307 118.581 15.2307 115.856C15.2307 113.131 16.9025 111.38 19.4827 111.38C21.5626 111.38 22.9185 112.526 23.1554 114.5H21.6021Z" fill="var(--bs-dark)"/>
<path d="M26.578 112.394C27.4074 111.67 28.0919 111.393 29.1187 111.393C30.1586 111.393 31.0011 111.749 31.5145 112.381C31.9226 112.881 32.0806 113.473 32.0806 114.447V120.147H30.4614V114.711C30.4614 113.987 30.3692 113.618 30.106 113.328C29.8295 113.013 29.3688 112.828 28.8027 112.828C27.3942 112.828 26.578 113.671 26.578 115.106V120.134H24.9589V108.366H26.578V112.394Z" fill="var(--bs-dark)"/>
<path d="M36.0297 110.248H34.4105V108.366H36.0297V110.248ZM36.0297 120.134H34.4105V111.617H36.0297V120.134Z" fill="var(--bs-dark)"/>
<path d="M40.229 120.134L37.3066 111.617H39.0311L40.4792 116.185C40.6503 116.738 40.9399 117.778 41.1505 118.568C41.1637 118.449 41.2032 118.304 41.2427 118.212L41.4006 117.58C41.4401 117.436 41.7166 116.488 41.7824 116.225L43.2304 111.617H44.9549L42.0062 120.134H40.229Z" fill="var(--bs-dark)"/>
<path d="M47.2454 116.264C47.3639 118.015 48.2459 119.002 49.7202 119.002C50.7207 119.002 51.3921 118.528 51.787 117.515H53.3403C52.9322 119.292 51.5764 120.358 49.6939 120.358C47.2981 120.358 45.6394 118.528 45.6394 115.856C45.6394 113.184 47.2586 111.38 49.6412 111.38C51.3394 111.38 52.5636 112.275 53.1297 113.921C53.3403 114.553 53.4456 115.237 53.4588 116.264H47.2454ZM51.7606 115.092C51.6948 113.539 50.9182 112.67 49.6281 112.67C48.2985 112.67 47.3507 113.658 47.2586 115.092H51.7606Z" fill="var(--bs-dark)"/>
<path d="M60.225 114.224C60.0012 113.171 59.4088 112.723 58.2899 112.723C57.3158 112.723 56.6707 113.131 56.6707 113.723C56.6707 114.145 56.9735 114.434 57.658 114.605L59.6326 115.119C61.4098 115.58 62.1601 116.317 62.1601 117.62C62.1601 119.292 60.7779 120.358 58.619 120.358C56.3021 120.358 54.9331 119.226 54.762 117.199H56.368C56.4601 118.331 57.3026 119.002 58.6585 119.002C59.8169 119.002 60.5804 118.489 60.5804 117.699C60.5804 117.133 60.2118 116.83 59.2245 116.567L57.5264 116.146C56.6312 115.922 56.0784 115.672 55.7229 115.356C55.3412 115.027 55.0911 114.461 55.0911 113.895C55.0911 112.433 56.4469 111.393 58.3689 111.393C59.58 111.393 60.5936 111.801 61.186 112.525C61.5546 112.986 61.7125 113.447 61.7915 114.237H60.225V114.224Z" fill="var(--bs-dark)"/>
<path d="M76.6669 120.134H75.0477V119.213C74.2315 120.029 73.4285 120.358 72.3491 120.358C70.0717 120.358 68.65 118.594 68.65 115.83C68.65 113.118 70.0981 111.38 72.3491 111.38C73.4417 111.38 74.2579 111.736 75.0477 112.525V108.366H76.6669V120.134ZM70.2824 115.869C70.2824 117.883 71.1643 119.015 72.7045 119.015C74.2579 119.015 75.1399 117.883 75.1399 115.922C75.1399 113.881 74.271 112.749 72.7045 112.749C71.1643 112.736 70.2824 113.868 70.2824 115.869Z" fill="var(--bs-dark)"/>
<path d="M80.1816 116.264C80.3 118.015 81.182 119.002 82.6564 119.002C83.6568 119.002 84.3282 118.528 84.7231 117.515H86.2765C85.8684 119.292 84.5125 120.358 82.6301 120.358C80.2342 120.358 78.5756 118.528 78.5756 115.856C78.5756 113.184 80.1947 111.38 82.5774 111.38C84.2756 111.38 85.4998 112.275 86.0659 113.921C86.2765 114.553 86.3818 115.237 86.395 116.264H80.1816ZM84.6968 115.092C84.631 113.539 83.8543 112.67 82.5642 112.67C81.2347 112.67 80.2869 113.658 80.1947 115.092H84.6968Z" fill="var(--bs-dark)"/>
<path d="M95.1227 120.134H93.5035V108.366H95.1227V120.134Z" fill="var(--bs-dark)"/>
<path d="M99.243 108.366V109.866C99.243 111.301 98.6111 112.236 97.4264 112.552V111.472C97.9266 111.222 98.1372 110.814 98.1372 110.13H97.4264V108.366H99.243Z" fill="var(--bs-dark)"/>
<path d="M102.771 116.264C102.889 118.015 103.771 119.002 105.246 119.002C106.246 119.002 106.918 118.528 107.312 117.515H108.866C108.458 119.292 107.102 120.358 105.219 120.358C102.824 120.358 101.165 118.528 101.165 115.856C101.165 113.184 102.784 111.38 105.167 111.38C106.865 111.38 108.089 112.275 108.655 113.921C108.866 114.553 108.971 115.237 108.984 116.264H102.771ZM107.286 115.092C107.22 113.539 106.444 112.67 105.154 112.67C103.824 112.67 102.876 113.658 102.784 115.092H107.286ZM105.562 110.84H104.272L105.048 108.905H107.036L105.562 110.84Z" fill="var(--bs-dark)"/>
<path d="M114.21 112.894H112.67V118.239C112.67 118.739 112.894 119.015 113.302 119.015C113.526 119.015 113.763 118.963 114.197 118.792V120.121C113.486 120.279 113.223 120.319 112.841 120.319C111.63 120.319 111.038 119.66 111.038 118.252V112.907H109.893V111.617H111.038V108.919H112.657V111.617H114.197V112.894H114.21Z" fill="var(--bs-dark)"/>
<path d="M115.685 114.434C115.751 113.434 115.948 112.828 116.369 112.354C116.922 111.736 117.936 111.38 119.134 111.38C121.253 111.38 122.451 112.381 122.451 114.145V118.147C122.451 118.818 122.543 118.963 122.912 118.963C123.057 118.963 123.136 118.95 123.333 118.871V120.121C122.951 120.213 122.609 120.24 122.28 120.24C121.503 120.24 121.148 119.91 121.016 119.094C120.147 119.963 119.213 120.345 118.067 120.345C116.409 120.345 115.277 119.318 115.277 117.817C115.277 116.435 116.119 115.593 117.857 115.237L119.739 114.869C120.766 114.671 120.977 114.513 120.977 113.987C120.977 113.157 120.253 112.644 119.107 112.644C118.278 112.644 117.62 112.907 117.396 113.368C117.278 113.592 117.238 113.789 117.199 114.408H115.685V114.434ZM121.016 115.764C120.713 115.882 120.437 115.974 120.016 116.08L118.357 116.462C117.37 116.685 116.922 117.093 116.922 117.765C116.922 118.541 117.554 119.068 118.515 119.068C119.897 119.068 121.016 118.068 121.016 116.843V115.764Z" fill="var(--bs-dark)"/>
<path d="M128.23 112.894H126.69V118.239C126.69 118.739 126.914 119.015 127.322 119.015C127.545 119.015 127.782 118.963 128.217 118.792V120.121C127.506 120.279 127.243 120.319 126.861 120.319C125.65 120.319 125.057 119.66 125.057 118.252V112.907H123.912V111.617H125.057V108.919H126.677V111.617H128.217V112.894H128.23Z" fill="var(--bs-dark)"/>
<path d="M142.408 120.134H140.788V119.213C139.972 120.029 139.169 120.358 138.09 120.358C135.812 120.358 134.391 118.594 134.391 115.83C134.391 113.118 135.839 111.38 138.09 111.38C139.182 111.38 139.999 111.736 140.788 112.525V108.366H142.408V120.134ZM136.023 115.869C136.023 117.883 136.905 119.015 138.445 119.015C139.999 119.015 140.881 117.883 140.881 115.922C140.881 113.881 140.012 112.749 138.445 112.749C136.905 112.736 136.023 113.868 136.023 115.869Z" fill="var(--bs-dark)"/>
<path d="M150.293 120.134V119.16C149.45 120.055 148.753 120.358 147.594 120.358C146.594 120.358 145.764 120.029 145.277 119.423C144.869 118.897 144.711 118.291 144.711 117.304V111.604H146.33V117.172C146.33 118.331 146.857 118.897 147.976 118.897C149.371 118.897 150.214 118.081 150.214 116.764V111.591H151.833V120.108H150.293V120.134Z" fill="var(--bs-dark)"/>
<path d="M161.219 120.134L158.297 111.617H160.021L161.469 116.185C161.64 116.738 161.93 117.778 162.14 118.568C162.154 118.449 162.193 118.304 162.233 118.212L162.391 117.58C162.43 117.436 162.706 116.488 162.772 116.225L164.22 111.617H165.945L162.996 120.134H161.219Z" fill="var(--bs-dark)"/>
<path d="M166.945 114.434C167.011 113.434 167.209 112.828 167.63 112.354C168.183 111.736 169.196 111.38 170.394 111.38C172.514 111.38 173.712 112.381 173.712 114.145V118.147C173.712 118.818 173.804 118.963 174.172 118.963C174.317 118.963 174.396 118.95 174.594 118.871V120.121C174.212 120.213 173.87 120.24 173.54 120.24C172.764 120.24 172.408 119.91 172.277 119.094C171.408 119.963 170.473 120.345 169.328 120.345C167.669 120.345 166.537 119.318 166.537 117.817C166.537 116.435 167.38 115.593 169.117 115.237L171 114.869C172.027 114.671 172.237 114.513 172.237 113.987C172.237 113.157 171.513 112.644 170.368 112.644C169.539 112.644 168.88 112.907 168.657 113.368C168.538 113.592 168.499 113.789 168.459 114.408H166.945V114.434ZM172.277 115.764C171.974 115.882 171.698 115.974 171.276 116.08L169.618 116.462C168.63 116.685 168.183 117.093 168.183 117.765C168.183 118.541 168.815 119.068 169.776 119.068C171.158 119.068 172.277 118.068 172.277 116.843V115.764Z" fill="var(--bs-dark)"/>
<path d="M177.74 120.134H176.12V108.366H177.74V120.134Z" fill="var(--bs-dark)"/>
<path d="M180.03 114.434C180.096 113.434 180.294 112.828 180.715 112.354C181.268 111.736 182.281 111.38 183.479 111.38C185.599 111.38 186.797 112.381 186.797 114.145V118.147C186.797 118.818 186.889 118.963 187.257 118.963C187.402 118.963 187.481 118.95 187.679 118.871V120.121C187.297 120.213 186.955 120.24 186.625 120.24C185.849 120.24 185.493 119.91 185.362 119.094C184.493 119.963 183.558 120.345 182.413 120.345C180.754 120.345 179.622 119.318 179.622 117.817C179.622 116.435 180.465 115.593 182.202 115.237L184.085 114.869C185.112 114.671 185.322 114.513 185.322 113.987C185.322 113.157 184.598 112.644 183.453 112.644C182.624 112.644 181.965 112.907 181.742 113.368C181.623 113.592 181.584 113.789 181.544 114.408H180.03V114.434ZM185.362 115.764C185.059 115.882 184.782 115.974 184.361 116.08L182.703 116.462C181.715 116.685 181.268 117.093 181.268 117.765C181.268 118.541 181.9 119.068 182.861 119.068C184.243 119.068 185.362 118.068 185.362 116.843V115.764Z" fill="var(--bs-dark)"/>
<path d="M190.838 110.248H189.219V108.366H190.838V110.248ZM190.838 120.134H189.219V111.617H190.838V120.134Z" fill="var(--bs-dark)"/>
<path d="M198.052 114.224C197.828 113.171 197.236 112.723 196.117 112.723C195.142 112.723 194.497 113.131 194.497 113.723C194.497 114.145 194.8 114.434 195.485 114.605L197.459 115.119C199.236 115.58 199.987 116.317 199.987 117.62C199.987 119.292 198.605 120.358 196.446 120.358C194.129 120.358 192.76 119.226 192.589 117.199H194.195C194.287 118.331 195.129 119.002 196.485 119.002C197.644 119.002 198.407 118.489 198.407 117.699C198.407 117.133 198.039 116.83 197.051 116.567L195.353 116.146C194.458 115.922 193.905 115.672 193.55 115.356C193.168 115.027 192.918 114.461 192.918 113.895C192.918 112.433 194.274 111.393 196.196 111.393C197.407 111.393 198.42 111.801 199.013 112.525C199.381 112.986 199.539 113.447 199.618 114.237H198.052V114.224Z" fill="var(--bs-dark)"/>
<path d="M5.46304 133.838C5.23925 132.785 4.64688 132.337 3.52794 132.337C2.55381 132.337 1.90877 132.745 1.90877 133.338C1.90877 133.759 2.21154 134.049 2.89607 134.22L4.87066 134.733C6.6478 135.194 7.39814 135.931 7.39814 137.234C7.39814 138.906 6.01593 139.972 3.85704 139.972C1.54018 139.972 0.171131 138.84 0 136.813H1.606C1.69815 137.945 2.54064 138.616 3.89653 138.616C5.05496 138.616 5.81847 138.103 5.81847 137.313C5.81847 136.747 5.44988 136.444 4.46258 136.181L2.76443 135.76C1.86928 135.536 1.3164 135.286 0.960969 134.97C0.579214 134.641 0.329099 134.075 0.329099 133.509C0.329099 132.048 1.68499 131.008 3.60692 131.008C4.81801 131.008 5.83163 131.416 6.42401 132.14C6.7926 132.601 6.95057 133.061 7.02955 133.851H5.46304V133.838Z" fill="var(--bs-dark)"/>
<path d="M12.5452 132.508H11.0182V137.853C11.0182 138.353 11.242 138.63 11.6501 138.63C11.8739 138.63 12.1108 138.577 12.5452 138.406V139.735C11.8344 139.893 11.5711 139.933 11.1893 139.933C9.97824 139.933 9.38586 139.275 9.38586 137.866V132.522H8.2406V131.231H9.38586V128.533H11.005V131.231H12.5452V132.508Z" fill="var(--bs-dark)"/>
<path d="M14.1249 134.049C14.1907 133.048 14.3882 132.443 14.8094 131.969C15.3623 131.35 16.3759 130.995 17.5738 130.995C19.6932 130.995 20.8912 131.995 20.8912 133.759V137.761C20.8912 138.432 20.9833 138.577 21.3519 138.577C21.4967 138.577 21.5757 138.564 21.7731 138.485V139.735C21.3914 139.828 21.0491 139.854 20.72 139.854C19.9433 139.854 19.5879 139.525 19.4563 138.709C18.5875 139.577 17.6528 139.959 16.5076 139.959C14.8489 139.959 13.7168 138.932 13.7168 137.432C13.7168 136.049 14.5593 135.207 16.2969 134.852L18.1794 134.483C19.2062 134.285 19.4168 134.128 19.4168 133.601C19.4168 132.772 18.6928 132.258 17.5475 132.258C16.7182 132.258 16.06 132.522 15.8362 132.982C15.7177 133.206 15.6782 133.404 15.6387 134.022H14.1249V134.049ZM19.4431 135.378C19.1403 135.497 18.8639 135.589 18.4427 135.694L16.784 136.076C15.7967 136.3 15.3491 136.708 15.3491 137.379C15.3491 138.156 15.981 138.682 16.942 138.682C18.3242 138.682 19.4431 137.682 19.4431 136.458V135.378Z" fill="var(--bs-dark)"/>
<path d="M23.366 134.049C23.4318 133.048 23.6292 132.443 24.0505 131.969C24.6034 131.35 25.617 130.995 26.8149 130.995C28.9343 130.995 30.1322 131.995 30.1322 133.759V137.761C30.1322 138.432 30.2244 138.577 30.593 138.577C30.7378 138.577 30.8168 138.564 31.0142 138.485V139.735C30.6325 139.828 30.2902 139.854 29.9611 139.854C29.1844 139.854 28.829 139.525 28.6974 138.709C27.8285 139.577 26.8939 139.959 25.7486 139.959C24.09 139.959 22.9579 138.932 22.9579 137.432C22.9579 136.049 23.8004 135.207 25.538 134.852L27.4205 134.483C28.4473 134.285 28.6579 134.128 28.6579 133.601C28.6579 132.772 27.9339 132.258 26.7886 132.258C25.9593 132.258 25.3011 132.522 25.0773 132.982C24.9588 133.206 24.9193 133.404 24.8798 134.022H23.366V134.049ZM28.6842 135.378C28.3814 135.497 28.105 135.589 27.6837 135.694L26.0251 136.076C25.0378 136.3 24.5902 136.708 24.5902 137.379C24.5902 138.156 25.2221 138.682 26.1831 138.682C27.5653 138.682 28.6842 137.682 28.6842 136.458V135.378Z" fill="var(--bs-dark)"/>
<path d="M35.9902 132.508H34.4631V137.853C34.4631 138.353 34.6869 138.63 35.095 138.63C35.3188 138.63 35.5558 138.577 35.9902 138.406V139.735C35.2793 139.893 35.016 139.933 34.6343 139.933C33.4232 139.933 32.8308 139.275 32.8308 137.866V132.522H31.6855V131.231H32.8308V128.533H34.4631V131.231H36.0033V132.508H35.9902Z" fill="var(--bs-dark)"/>
<path d="M42.401 133.838C42.1772 132.785 41.5849 132.337 40.4659 132.337C39.4918 132.337 38.8468 132.745 38.8468 133.338C38.8468 133.759 39.1495 134.049 39.8341 134.22L41.8087 134.733C43.5858 135.194 44.3361 135.931 44.3361 137.234C44.3361 138.906 42.9539 139.972 40.795 139.972C38.4782 139.972 37.1091 138.84 36.938 136.813H38.544C38.6361 137.945 39.4786 138.616 40.8345 138.616C41.9929 138.616 42.7565 138.103 42.7565 137.313C42.7565 136.747 42.3879 136.444 41.4006 136.181L39.7024 135.76C38.8073 135.536 38.2544 135.286 37.899 134.97C37.5172 134.641 37.2671 134.075 37.2671 133.509C37.2671 132.048 38.623 131.008 40.5449 131.008C41.756 131.008 42.7696 131.416 43.362 132.14C43.7306 132.601 43.8886 133.061 43.9675 133.851H42.401V133.838Z" fill="var(--bs-dark)"/>
<path d="M46.1528 134.049C46.2187 133.048 46.4161 132.443 46.8374 131.969C47.3902 131.35 48.4039 130.995 49.6018 130.995C51.7212 130.995 52.9191 131.995 52.9191 133.759V137.761C52.9191 138.432 53.0113 138.577 53.3798 138.577C53.5246 138.577 53.6036 138.564 53.8011 138.485V139.735C53.4193 139.828 53.0771 139.854 52.748 139.854C51.9713 139.854 51.6159 139.525 51.4842 138.709C50.6154 139.577 49.6808 139.959 48.5355 139.959C46.8768 139.959 45.7448 138.932 45.7448 137.432C45.7448 136.049 46.5872 135.207 48.3249 134.852L50.2073 134.483C51.2341 134.285 51.4447 134.128 51.4447 133.601C51.4447 132.772 50.7207 132.258 49.5755 132.258C48.7461 132.258 48.0879 132.522 47.8641 132.982C47.7457 133.206 47.7062 133.404 47.6667 134.022H46.1528V134.049ZM51.4842 135.378C51.1815 135.497 50.905 135.589 50.4838 135.694L48.8251 136.076C47.8378 136.3 47.3902 136.708 47.3902 137.379C47.3902 138.156 48.0221 138.682 48.9831 138.682C50.3653 138.682 51.4842 137.682 51.4842 136.458V135.378Z" fill="var(--bs-dark)"/>
<path d="M56.9604 131.231V132.574C57.2895 132.074 57.4344 131.89 57.6713 131.679C58.0531 131.271 58.6718 131.008 59.1852 131.008C59.5011 131.008 59.8039 131.074 60.0803 131.218V132.68C59.7512 132.614 59.5669 132.587 59.3431 132.587C58.0399 132.587 57.0263 133.746 57.0263 135.273V139.749H55.4071V131.231H56.9604Z" fill="var(--bs-dark)"/>
<path d="M67.3862 134.114C67.1361 132.956 66.3989 132.35 65.2405 132.35C63.6872 132.35 62.6472 133.588 62.6472 135.457C62.6472 137.379 63.674 138.616 65.2405 138.616C66.5043 138.616 67.2678 137.932 67.5047 136.55H69.0449C68.8211 138.722 67.4257 139.972 65.2142 139.972C62.6736 139.972 61.0149 138.195 61.0149 135.47C61.0149 132.745 62.6867 130.995 65.2668 130.995C67.3468 130.995 68.7026 132.14 68.9396 134.114H67.3862Z" fill="var(--bs-dark)"/>
<path d="M72.4544 132.008C73.2837 131.284 73.9682 131.008 74.995 131.008C76.035 131.008 76.8775 131.363 77.3909 131.995C77.7989 132.495 77.9569 133.088 77.9569 134.062V139.762H76.3377V134.325C76.3377 133.601 76.2456 133.232 75.9823 132.943C75.7059 132.627 75.2451 132.443 74.6791 132.443C73.2705 132.443 72.4544 133.285 72.4544 134.72V139.749H70.8352V127.98H72.4544V132.008Z" fill="var(--bs-dark)"/>
<path d="M81.9982 129.862H80.379V127.98H81.9982V129.862ZM81.9982 139.749H80.379V131.231H81.9982V139.749Z" fill="var(--bs-dark)"/>
<path d="M86.2765 139.749L83.3541 131.231H85.0786L86.5266 135.799C86.6978 136.352 86.9874 137.392 87.198 138.182C87.2112 138.064 87.2507 137.919 87.2901 137.827L87.4481 137.195C87.4876 137.05 87.7641 136.102 87.8299 135.839L89.2779 131.231H91.0024L88.0537 139.749H86.2765Z" fill="var(--bs-dark)"/>
<path d="M99.072 139.749L96.4918 131.231H98.1768L99.4274 135.655C99.4669 135.826 99.4932 135.918 99.7433 136.984C99.7828 137.155 99.796 137.287 99.9408 138.011C100.033 137.655 100.099 137.326 100.165 136.971C100.217 136.694 100.283 136.392 100.309 136.365L100.48 135.681L101.626 131.231H103.166L104.351 135.628C104.509 136.3 104.719 137.3 104.851 138.011C105.114 136.773 105.233 136.234 105.404 135.641L106.589 131.231H108.287L105.693 139.749H104.048L102.968 135.773C102.705 134.773 102.587 134.233 102.416 133.561L101.863 135.773L100.81 139.749H99.072Z" fill="var(--bs-dark)"/>
<path d="M109.432 134.049C109.498 133.048 109.695 132.443 110.116 131.969C110.669 131.35 111.683 130.995 112.881 130.995C115 130.995 116.198 131.995 116.198 133.759V137.761C116.198 138.432 116.29 138.577 116.659 138.577C116.804 138.577 116.883 138.564 117.08 138.485V139.735C116.698 139.828 116.356 139.854 116.027 139.854C115.25 139.854 114.895 139.525 114.763 138.709C113.894 139.577 112.96 139.959 111.815 139.959C110.156 139.959 109.024 138.932 109.024 137.432C109.024 136.049 109.866 135.207 111.604 134.852L113.486 134.483C114.513 134.285 114.724 134.128 114.724 133.601C114.724 132.772 114 132.258 112.855 132.258C112.025 132.258 111.367 132.522 111.143 132.982C111.025 133.206 110.985 133.404 110.946 134.022H109.432V134.049ZM114.75 135.378C114.447 135.497 114.171 135.589 113.75 135.694L112.091 136.076C111.104 136.3 110.656 136.708 110.656 137.379C110.656 138.156 111.288 138.682 112.249 138.682C113.631 138.682 114.75 137.682 114.75 136.458V135.378Z" fill="var(--bs-dark)"/>
<path d="M120.305 139.749H118.686V127.98H120.305V139.749Z" fill="var(--bs-dark)"/>
<path d="M124.334 139.749H122.714V127.98H124.334V139.749Z" fill="var(--bs-dark)"/>
<path d="M128.349 129.862H126.729V127.98H128.349V129.862ZM128.349 139.749H126.729V131.231H128.349V139.749Z" fill="var(--bs-dark)"/>
<path d="M135.655 133.838C135.431 132.785 134.838 132.337 133.719 132.337C132.745 132.337 132.1 132.745 132.1 133.338C132.1 133.759 132.403 134.049 133.088 134.22L135.062 134.733C136.839 135.194 137.59 135.931 137.59 137.234C137.59 138.906 136.207 139.972 134.049 139.972C131.732 139.972 130.363 138.84 130.192 136.813H131.798C131.89 137.945 132.732 138.616 134.088 138.616C135.246 138.616 136.01 138.103 136.01 137.313C136.01 136.747 135.641 136.444 134.654 136.181L132.956 135.76C132.061 135.536 131.508 135.286 131.152 134.97C130.771 134.641 130.521 134.075 130.521 133.509C130.521 132.048 131.877 131.008 133.798 131.008C135.01 131.008 136.023 131.416 136.616 132.14C136.984 132.601 137.142 133.061 137.221 133.851H135.655V133.838Z" fill="var(--bs-dark)"/>
</g>
<defs>
<clipPath id="clip0_36_1050">
<rect width="199.987" height="139.972" fill="white"/>
</clipPath>
</defs>
</svg>
