<svg id="BBC-logo" fill="var(--bs-dark)" xmlns="http://www.w3.org/2000/svg" viewBox="0 0 1000 285.01">
  <path id="BBC" d="m541.82,184.2c0,30.97-38.54,29.13-38.54,29.13h-38.54v-55.96h38.54c39.66-.27,38.54,26.83,38.54,26.83m-77.08-112.18h29.37c30.5,1.61,29.34,24.32,29.34,24.32,0,28.22-33.72,28.68-33.72,28.68h-24.99v-52.99Zm69.95,64s26.38-11.24,26.15-41.06c0,0,4.01-48.86-60.73-54.82h-71.84v204.85h82.34s68.8.21,68.8-57.8c0,0,1.63-39.47-44.72-51.17M348.77,0h302.45v285.01h-302.45V0Zm-155.73,184.2c0,30.97-38.54,29.13-38.54,29.13h-38.54v-55.96h38.54c39.67-.27,38.54,26.83,38.54,26.83m-77.08-112.18h29.37c30.5,1.61,29.34,24.32,29.34,24.32,0,28.22-33.72,28.68-33.72,28.68h-25v-52.99h0Zm69.96,64s26.38-11.24,26.15-41.06c0,0,4.01-48.86-60.73-54.82h-71.84v204.85h82.35s68.8.21,68.8-57.8c0,0,1.62-39.47-44.72-51.17M0,0h302.45v285.01H0V0Zm938.3,54.83v37.85s-36.94-22.7-77.76-23.16c0,0-76.16-1.5-79.59,73,0,0-2.75,68.51,78.68,72.42,0,0,34.16,4.12,80.51-25.44v39.19s-62.17,36.94-134.2,8.49c0,0-60.54-22.11-62.85-94.66,0,0-2.52-74.62,78.23-99.39,0,0,21.56-8.26,60.31-4.59,0,0,23.16,2.29,56.67,16.28m-240.75,230.19h302.45V0h-302.45v285.01Z" fill="var(--bs-dark)" stroke-width="0"/>
</svg>