<svg id="BNL-logo" xmlns="http://www.w3.org/2000/svg" viewBox="0 0 200 89.01">
  <path id="BNL" d="m45.03,41.85c4.05-1.25,5.59-2.22,8.2-4.63,3.95-3.95,6.08-9.35,5.98-14.95.19-6.17-2.51-11.96-7.33-15.91C46.58,1.64,40.89,0,30.09,0H0v89.01h28.06c4.82,0,8.58-.1,11.38-.29,15.62-1.06,23.24-12.25,23.24-24.59,0-11.57-5.79-18.71-17.65-22.28Zm-10.8,29.99h-16.49v-18.52h6.17v12.54h10.32v5.98Zm1.35-50.72v9.45h-6.17v-9.45c0-1.54-1.25-2.8-2.8-2.8h-2.8v12.25h-6.17V12.54h8.97c4.82-.19,8.78,3.57,8.97,8.39v.19Zm65.48,41.47h-1.74v9.26h4.53v-1.54h-2.8v-7.71Zm36.45-5.88c.67-.1,1.35-.39,1.83-.96v.77h1.54v-6.94h-1.54v5.21c-.39.29-.67.68-1.06.68s-.58-.29-.58-.77v-5.11h-1.64v5.3c0,1.25.48,1.83,1.45,1.83Zm-45.71-7.23h-1.64v6.94h1.64v-6.94Zm11.48,6.94h1.64v-6.94h-1.64v6.94Zm5.01,13.69c-.39.29-.68.58-1.06.58s-.58-.29-.58-.77v-5.11h-1.64v5.3c0,1.25.48,1.83,1.45,1.83.67-.1,1.35-.39,1.83-.96v.77h1.54v-6.94l-1.54.1v5.21Zm-5.01-21.79h1.64v-1.45h-1.64v1.45Zm-6.65.96c-.58.1-1.16.39-1.64.77v-2.89h-1.64v9.26h1.54v-.77c.39.58,1.06.96,1.74.96,1.25,0,1.74-.96,1.74-2.8v-1.74c0-1.83-.48-2.8-1.74-2.8Zm.19,4.44c0,1.35-.39,1.64-.77,1.64s-.77-.19-.96-.48v-3.76c.19-.29.58-.48.96-.48s.77.29.77,1.64v1.45Zm-5.01-6.85h-1.64v1.45h1.64v-1.45Zm-4.44,4.63c.67-.39,1.16-1.16,1.16-1.93,0-1.54-1.06-2.41-2.99-2.41h-2.51v9.35h2.6c1.83,0,3.09-.87,3.09-2.7.1-.96-.48-1.83-1.35-2.31Zm-2.51-2.8h.67c.87,0,1.25.48,1.25,1.16s-.58,1.16-1.25,1.06h-.67v-2.22Zm.96,6.36h-1.06v-2.7h.68c.87,0,1.54.48,1.54,1.35.1.68-.48,1.25-1.16,1.35Zm15.81-7.91h-1.64v9.26h1.64v-9.26Zm11.57,8c0,.96.67,1.35,1.74,1.35.29,0,.58,0,.87-.1v-1.35h-.29c-.39,0-.67-.19-.67-.48v-3.57h1.06v-1.35h-1.06v-1.93h-1.64v1.93h-.67v1.35l.67.1v4.05Zm-27,10.32c-.48-.39-.96-.67-1.64-.77-1.25,0-1.74.96-1.74,2.8v1.64c0,1.83.48,2.8,1.74,2.8.67-.1,1.35-.39,1.74-.96v.87h1.54v-9.26h-1.64v2.89Zm.1,4.73c-.19.29-.58.48-.96.48s-.77-.29-.77-1.64v-1.45c0-1.35.39-1.64.77-1.64s.77.19.96.48v3.76Zm40.5-21.6l-1.16-1.83h-1.93l1.83,1.83h1.25Zm-34.23,21.5c-.39.29-.67.58-1.06.58s-.58-.29-.58-.77v-5.11h-1.64v5.3c0,1.25.48,1.83,1.45,1.83.68-.1,1.35-.39,1.83-.96v.77h1.54v-6.94l-1.54.1v5.21Zm49.08-5.3c-1.54,0-2.51.77-2.51,2.6v1.93c0,1.83.97,2.6,2.51,2.6s2.51-.77,2.51-2.6v-1.93c0-1.83-.96-2.6-2.51-2.6Zm1.06,4.92c0,.58-.39.77-.96.77s-.96-.29-.96-.77v-2.8c0-.58.39-.77.96-.77s.96.29.96.77v2.8Zm28.06-22.85h-1.64v1.45h1.64v-1.45Zm-3.86.87h-1.64v1.93h-.67v1.35l.77.1v4.05c0,.96.68,1.35,1.74,1.35.29,0,.58,0,.87-.1v-1.35h-.29c-.39,0-.77-.19-.77-.48v-3.57h1.06v-1.35h-1.06v-1.93Zm2.31,8.68h1.64v-6.94h-1.64v6.94Zm-5.59-5.01c0-1.25-.67-2.12-2.31-2.12-.58,0-1.25.19-1.74.48-.48.39-.87.96-.87,1.64l1.54.1c0-.48.39-.87.87-.87.39,0,.77.29.87.68v.68c-2.02.58-3.47,1.25-3.47,2.89-.1.77.48,1.54,1.25,1.64h.29c.67,0,1.45-.29,1.93-.77.1.29.1.48.1.68h1.64c-.1-.19-.1-.39-.1-.58v-4.44Zm-1.64,3.38c-.29.39-.77.58-1.25.68-.39,0-.67-.29-.67-.58v-.1c0-.77.96-1.25,1.93-1.64v1.64Zm0,11.28l-.1-1.35c-.58,0-1.06.29-1.35.77-.48-.48-1.16-.77-1.83-.77-1.83,0-2.31,1.16-2.31,2.6-.1.96.29,1.83,1.06,2.41-.39.19-.96.58-.96,1.16,0,.39.29.77.67.96-.39.29-.96.58-.96,1.06,0,.77.96,1.25,2.6,1.25,1.83,0,3.08-.58,3.08-1.74,0-2.51-4.05-1.16-4.05-2.03,0-.19.19-.29.29-.39.19.1.48.1.68.1,1.54,0,2.31-.96,2.31-2.7,0-.39-.1-.87-.19-1.25.19-.1.39-.1.58-.19.19,0,.29.1.48.1Zm-2.32,6.27c.48,0,.58.1.58.39,0,.39-.48.58-1.25.58-.96,0-1.45-.19-1.45-.48s.19-.39.29-.58l1.83.1Zm-1.06-3.47c-.48,0-.77-.39-.77-1.35,0-1.06.19-1.54.87-1.54.48.1.77.48.77,1.45,0,1.25-.19,1.45-.87,1.45Zm37.71-15.53h3.66v-1.54c-.1-1.45-1.35-2.41-2.7-2.41-1.35.1-2.31,1.16-2.41,2.51v2.31c-.1,1.25.87,2.41,2.22,2.51h.29c1.25.19,2.32-.68,2.51-1.93v-.39h-1.64c.1.48-.29.87-.77.96h-.19c-.48,0-.87-.29-.96-.87v-1.16Zm.19-1.64c0-.58.29-.96.96-.96s.96.39.96.96v.39h-1.93v-.39Zm-4.73,4.73h1.64v-9.26h-1.64v9.26Zm-34.52,0v-5.3c0-1.25-.48-1.83-1.45-1.83-.67.1-1.35.39-1.83.96v-.77h-1.54v6.94h1.54v-5.3c.39-.29.67-.58,1.06-.58s.58.29.58.77v5.11h1.64Zm17.65-7.04c-1.54,0-2.51.77-2.51,2.6v1.93c0,1.83.97,2.6,2.51,2.6s2.51-.77,2.51-2.6v-1.93c0-1.83-.96-2.6-2.51-2.6Zm.96,5.01c0,.58-.39.87-.96.87s-.96-.29-.96-.87v-2.8c0-.58.39-.77.96-.77s.96.29.96.77v2.8Zm14.27-2.99c0-1.25-.67-2.12-2.31-2.12-.58,0-1.25.19-1.74.48-.48.39-.87.96-.87,1.64l1.54.1c0-.48.39-.87.87-.87.39,0,.77.29.87.68v.68c-2.03.58-3.47,1.25-3.47,2.89-.1.77.48,1.54,1.25,1.64h.29c.67,0,1.45-.29,1.93-.77.1.29.1.48.1.68h1.64c-.1-.19-.1-.39-.1-.58v-4.44Zm-1.64,3.38c-.29.39-.77.58-1.25.68-.39,0-.67-.29-.67-.58v-.1c0-.77.96-1.25,1.93-1.64v1.64Zm-6.17-5.5c-.68.1-1.35.39-1.83.96v-.77h-1.54v6.94h1.54v-5.3c.39-.29.67-.58,1.06-.58s.58.29.58.77v5.11h1.64v-5.3c0-1.25-.48-1.83-1.45-1.83Zm-33.46,20.83c-.29.29-.67.58-1.06.58s-.58-.29-.58-.77v-5.11h-1.64v5.3c0,1.25.48,1.83,1.45,1.83.67-.1,1.35-.39,1.83-.96v.77h1.54v-6.94l-1.54.1v5.21Zm-29.32-5.4c-1.35.1-2.32,1.16-2.41,2.51v2.31c-.1,1.25.87,2.41,2.22,2.51h.29c1.25.19,2.31-.67,2.51-1.93v-.39h-1.64c.1.48-.29.87-.77.96h-.19c-.48,0-.87-.29-.96-.87v-1.16l3.66.1v-1.64c-.1-1.45-1.35-2.41-2.7-2.41Zm1.16,2.7h-1.93v-.39c0-.58.29-.96.96-.96s.96.39.96.96v.39Zm4.72-10.7h.29c1.25.19,2.32-.68,2.51-1.93v-.39h-1.64c.1.48-.29.87-.77.96h-.19c-.48,0-.87-.29-.96-.87v-1.16h3.57v-1.54c-.1-1.45-1.35-2.41-2.7-2.31-1.25.1-2.31,1.16-2.31,2.41v2.31c-.1,1.25.87,2.41,2.22,2.51Zm-.67-5.01c0-.58.29-.96.96-.96s.96.39.96.96v.39h-1.93v-.39Zm-6.27-.48c.39-.29.67-.58,1.06-.58s.58.29.58.77v5.11h1.64v-5.3c0-1.25-.48-1.83-1.45-1.83-.67.1-1.25.39-1.74.96v-3.09h-1.64v9.26h1.54v-5.3Zm11.38,13.6c-.67.1-1.35.48-1.74,1.06-.1-.58-.58-1.06-1.25-1.06-.68.1-1.25.39-1.74.96v-.77h-1.54l.1,6.85h1.64v-5.3c.19-.29.58-.58.96-.58.29,0,.39.1.39.58v5.3h1.64v-5.3c.29-.29.58-.58.96-.58.29,0,.39.1.39.58v5.3h1.64v-5.21c0-1.25-.48-1.83-1.45-1.83Zm-13.4.1h-1.74l-.96,2.03-.87-2.03h-1.74l1.74,3.38-1.93,3.57h1.74l1.06-2.22,1.06,2.22h1.73l-1.83-3.57,1.74-3.38Zm19.58-.29c-.58.1-1.16.39-1.64.77v-2.89h-1.64v9.26h1.54v-.77c.39.58,1.06.96,1.74.96,1.25,0,1.74-.96,1.74-2.8v-1.74c0-1.83-.48-2.8-1.74-2.8Zm.19,4.44c0,1.35-.39,1.64-.77,1.64s-.77-.19-.96-.48v-3.76c.19-.29.58-.48.96-.48s.77.29.77,1.64v1.45Zm-3.28-10.03h1.64v-9.45l-1.54-.1v.87c-.39-.58-1.06-.96-1.74-.96-1.25,0-1.74.96-1.74,2.8v1.74c0,1.83.48,2.8,1.74,2.8.58-.1,1.16-.39,1.64-.77v3.09Zm-.96-3.66c-.39,0-.77-.29-.77-1.64v-1.45c0-1.35.39-1.64.77-1.64s.77.19.96.48v3.76c-.19.29-.58.48-.96.48Zm15.33-.58v-.39h-1.54c.1.48-.29.87-.77.96h-.19c-.48,0-.87-.29-.96-.87v-1.16h3.57v-1.54c-.1-1.45-1.35-2.41-2.7-2.41-1.35.1-2.31,1.16-2.41,2.51v2.31c-.1,1.25.87,2.41,2.22,2.51h.29c1.25.19,2.31-.68,2.51-1.93Zm-3.38-3.09c0-.58.29-.96.96-.96s.96.39.96.96v.39h-1.93v-.39Zm-32.5.29c0-1.83-.96-2.6-2.51-2.6s-2.51.77-2.51,2.6v1.93c0,1.83.96,2.6,2.51,2.6s2.51-.77,2.51-2.6v-1.93Zm-1.54,2.41c0,.58-.39.87-.96.87s-.96-.29-.96-.87v-2.8c0-.58.39-.77.96-.77s.96.29.96.77v2.8Zm43.68,11.48v-.96h-1.54v6.94h1.54v-4.73c0-.39.29-.77.77-.77.29,0,.58.1.87.19v-1.74c-.67,0-1.35.39-1.64,1.06Z" fill="var(--bs-dark)" stroke-width="0"/>
</svg>