<svg id="bnf_fr-logo" fill="var(--bs-dark)" xmlns="http://www.w3.org/2000/svg" viewBox="0 0 676.56 252.33">
  <path id="bnf_fr" d="m30.74,126.17l16.08-14.3c1.43-1.07,1.79-2.86,1.79-3.93,1.07-16.8,3.57-55.75,20.37-107.94h-33.24c-2.5,0-3.93,1.79-4.29,3.23,0,.36-20.02,55.39-21.09,112.93L0,126.17l10.36,10.01c1.07,57.54,21.09,112.58,21.09,112.93.36,1.43,1.79,3.22,4.29,3.22h33.24c-16.79-52.18-19.3-91.14-20.37-107.93,0-1.07-.36-2.85-1.79-3.93l-16.08-14.3Zm231.95,49.33c0,34.66-23.23,39.66-55.39,39.66h-28.95v-79.34h23.23c28.95,0,61.11,3.22,61.11,39.68m-84.34-69.71V37.17h25.73c21.8,0,45.04,5.01,45.04,32.88,0,30.74-22.52,35.74-52.54,35.74h-18.22ZM142.24,6.79v238.75h66.83c44.32,0,91.85-9.65,91.85-70.05,0-30.39-21.44-52.91-54.68-57.91,26.81-6.79,39.67-25.37,39.67-52.9,0-40.03-33.24-57.9-73.26-57.9h-70.41Zm191.56,50.75c5.72,11.44,6.43,37.9,6.43,56.12v131.89h36.1v-90.43c0-28.59,3.93-41.46,10.37-51.1,8.22-11.79,20.37-18.23,34.66-18.23,12.51,0,21.44,4.29,27.52,11.08,6.44,7.15,9.3,17.51,9.3,42.18v106.51h36.1v-114.01c0-32.17-5.36-47.54-15.38-58.97-10.36-11.79-25.73-18.59-46.11-18.59-26.45,0-47.53,10.72-58.96,30.02,0-11.79-1.44-20.37-3.93-26.45h-36.1,0Zm243.04,50.04V38.25h99.71V6.79h-136.53v238.75h37.89v-106.15h90.07v-31.81h-91.14" fill="var(--bs-dark)" stroke-width="0"/>
</svg>