<svg id="DLR_Logo" fill="var(--bs-dark)" data-name="DLR Logo" xmlns="http://www.w3.org/2000/svg" viewBox="0 0 314.35 44.91">
  <path id="DLR" d="m224.77,20.1c-2.58,0-4.08,1.79-4.08,5.06v.23c0,3.32,1.68,4.91,3.93,4.91,2.42,0,4.22-1.62,4.22-5v-.23c0-3.32-1.53-4.97-4.07-4.97Zm74.17,0c-2.6,0-4.19,1.88-4.19,5v.23c0,3.09,1.53,5.03,4.19,5.03s4.16-1.94,4.16-5.03h0v-.2c0-3.12-1.56-5.03-4.16-5.03Zm-110.43,0c-2.4,0-3.96,1.79-3.96,5.06v.23c0,3.32,1.67,4.91,3.79,4.91,2.25,0,4.07-1.62,4.07-5h0s0-.23,0-.23c0-3.35-1.56-4.97-3.9-4.97ZM48.73,0v44.91h265.63V0H48.73Zm26.84,22.5c0,6.01-3.49,10.28-10.75,10.28h-6.21V12.13h6.27c7.19,0,10.69,4.1,10.69,10.11v.26Zm17.31,3.49h-11.07c.12,2.86,1.56,4.48,4.16,4.48,2.11,0,3.21-.84,3.47-2.31h3.38c-.49,3.18-3.06,4.91-6.93,4.91-4.45,0-7.65-2.92-7.65-7.69h0s0-.22,0-.22c0-4.68,3.21-7.8,7.51-7.8,3.76,0,7.14,2.22,7.14,7.63v1Zm16.76,6.79h-3.5v-2.37c-.94,1.75-2.82,2.78-4.8,2.66-2.98,0-5.2-1.71-5.2-5.72h0v-9.68h3.5v9.27c0,2.28.95,3.32,2.97,3.32,1.86.09,3.44-1.34,3.53-3.2,0-.14,0-.27,0-.41v-8.99h3.49v15.11Zm11.77-.12c-.76.27-1.56.39-2.37.38-3,0-4.56-1.62-4.56-4.48h0s0-8.26,0-8.26h-2.02v-2.63h2.02v-3.32h3.5v3.32h3.32v2.63h-3.32v7.95c0,1.33.64,1.93,1.73,1.93.58.02,1.16-.08,1.7-.29v2.77Zm8.28.41c-3.9,0-6.18-1.79-6.33-5h0s3.29,0,3.29,0c.17,1.53.95,2.43,3.01,2.43,1.88,0,2.72-.66,2.72-1.94s-1.01-1.7-3.24-2.08c-3.99-.64-5.46-1.76-5.46-4.59,0-3.03,2.83-4.54,5.66-4.54,3.09,0,5.55,1.15,5.92,4.57h-3.24c-.29-1.39-1.07-2.02-2.69-2.02-1.5,0-2.4.72-2.4,1.79s.72,1.53,3.12,1.94c3.55.55,5.66,1.41,5.66,4.62s-2.17,4.83-6.04,4.83Zm16.01,0c-3.98.23-7.4-2.81-7.63-6.8-.02-.29-.02-.57,0-.86h0v-.23c-.21-4.11,2.94-7.61,7.05-7.82.19-.01.39-.01.58,0,3.35,0,6.5,1.5,6.9,5.66h-3.38c-.13-1.72-1.63-3-3.34-2.87-.04,0-.08,0-.12.01-2.4,0-4.1,1.85-4.1,4.97v.23c0,3.3,1.62,5.03,4.19,5.03,1.9.11,3.52-1.33,3.64-3.23h0s3.21,0,3.21,0c-.26,3.47-2.89,5.92-6.99,5.92Zm23.84-.29h-3.5v-9.19c0-2.28-.92-3.32-3.01-3.32-1.85-.12-3.44,1.28-3.56,3.13-.01.16,0,.32,0,.48v8.9h-3.5V10.68h3.5v9.39c.96-1.78,2.87-2.84,4.88-2.72,3.04,0,5.17,1.76,5.17,5.92v9.5Zm7.89,0h-3.5V10.68h3.5v22.1Zm18.37,0h-3.49v-2.48c-1.02,1.69-2.83,2.73-4.8,2.78-3.52,0-6.53-2.69-6.53-7.6h0v-.23c0-4.83,3.04-7.89,6.68-7.89,1.92-.09,3.72.92,4.65,2.6v-2.28h3.49v15.11Zm18.01,0h-3.5v-9.19c0-2.28-.92-3.32-3-3.32-1.84-.12-3.44,1.28-3.56,3.12-.01.16,0,.32,0,.49v8.9h-3.5v-15.11h3.5v2.4c.96-1.78,2.87-2.84,4.88-2.72,3.03,0,5.17,1.76,5.17,5.92v9.51Zm18.43,0h-3.5v-2.54c-1.04,1.75-2.93,2.83-4.97,2.83-3.79,0-6.64-2.69-6.64-7.6v-.23c0-4.83,2.86-7.89,6.79-7.89,1.98-.12,3.85.9,4.82,2.63v-9.3h3.5v22.1Zm12.85-12.07c-3.06.03-4.91,1.01-4.91,4.22v7.86h-3.5v-15.11h3.5v2.83c.83-1.95,2.79-3.18,4.91-3.06v3.27Zm15.96,12.08h-3.49v-2.48c-1.02,1.69-2.83,2.74-4.8,2.78-3.53,0-6.53-2.69-6.53-7.6h0v-.23c0-4.83,3.04-7.89,6.67-7.89,1.92-.09,3.72.92,4.65,2.6v-2.28h3.49v15.11Zm18.58,0h-3.49v-2.54c-1.04,1.75-2.93,2.83-4.97,2.83-3.79,0-6.65-2.69-6.65-7.6v-.23c0-4.83,2.86-7.89,6.79-7.89,1.98-.12,3.86.9,4.83,2.63v-9.3h3.49v22.1Zm8.03,0h-3.49v-15.11h3.49v15.11Zm-1.7-17.59s-.06,0-.09,0c-1.12.03-2.04-.85-2.08-1.97,0,0,0-.02,0-.03-.05-1.15.84-2.12,1.99-2.17s2.12.84,2.17,1.99-.84,2.12-1.99,2.17Zm20.74,10.11c.02,4.28-3.43,7.78-7.71,7.8-4.28.02-7.78-3.43-7.8-7.71v-.23c-.02-4.28,3.43-7.78,7.71-7.8s7.78,3.43,7.8,7.71v.23ZM64.68,15.16h-2.22v14.59h2.25c4.62,0,6.85-2.66,6.85-7.22v-.23c0-4.45-2.02-7.14-6.88-7.14Zm189.09,4.94c-2.4,0-3.96,1.79-3.96,5.06v.23c0,3.32,1.68,4.91,3.78,4.91,2.26,0,4.08-1.62,4.08-5h0s0-.23,0-.23c0-3.35-1.56-4.97-3.9-4.97Zm-168.03-.2c-2.11,0-3.53,1.42-3.87,3.76h7.54c-.17-2.6-1.5-3.76-3.67-3.76Zm186.43.2c-2.58,0-4.08,1.79-4.08,5.06v.23c0,3.32,1.67,4.91,3.93,4.91,2.42,0,4.22-1.62,4.22-5v-.23c0-3.32-1.53-4.97-4.07-4.97ZM0,44.91h44.91V0H0v44.91ZM9.88,8.08h17.72v2.5H9.88v-2.5Zm0,5.15h24.4v3.73H9.88v-3.73Zm0,6.66h26.95v5.8H9.88v-5.8Zm0,8.72h22.7v3.42H9.88v-3.42Zm0,6.07h17.72v2.13s-17.72,0-17.72,0v-2.13Z" fill="var(--bs-dark)" stroke-width="0"/>
</svg>