<svg width="200" height="59" viewBox="0 0 200 59" fill="none" xmlns="http://www.w3.org/2000/svg">
<g clip-path="url(#clip0_36_1001)">
<path d="M0 23.6842H12.5V10.7456H41.9956V0H0V23.6842Z" fill="var(--bs-dark)"/>
<path d="M0 58.114H41.9956V47.3684H12.5V34.4298H0V58.114Z" fill="var(--bs-dark)"/>
<path d="M39.4737 23.6842H12.5V34.4298H39.4737V23.6842Z" fill="var(--bs-dark)"/>
<path d="M94.2982 5.37276C92.5438 3.61837 90.3509 2.30258 88.0482 1.53504C85.0877 0.438548 81.9079 -4.80711e-05 78.7281 0.109601H52.7412V58.2236H65.2412V34.4298H78.6184C81.7982 34.5394 84.8684 33.9912 87.9386 33.0043C90.2412 32.1271 92.4342 30.8114 94.1886 29.1666C95.7237 27.6315 96.9298 25.7675 97.6973 23.6842C99.1228 19.5175 99.1228 15.0219 97.6973 10.9649C97.0395 8.77188 95.8333 6.90785 94.2982 5.37276ZM85.5263 20.5043C84.8684 21.3815 83.9912 22.0394 83.0044 22.478C81.9079 22.9166 80.7017 23.2456 79.386 23.4649C77.9605 23.6842 76.5351 23.6842 75.1096 23.6842H65.2412V10.7456H75.2193C76.6447 10.7456 78.0702 10.8552 79.4956 10.9649C80.7017 11.0745 81.9079 11.4035 83.114 11.9517C84.1009 12.3903 84.9781 13.0482 85.5263 13.9254C86.1842 14.9122 86.5131 16.0087 86.5131 17.2149C86.5131 18.421 86.1842 19.5175 85.5263 20.5043Z" fill="var(--bs-dark)"/>
<path d="M170.504 47.3684V0H157.895V58.114H200V47.3684H170.504Z" fill="var(--bs-dark)"/>
<path d="M106.798 23.6842H119.298V10.7456H148.903V0H106.798V23.6842Z" fill="var(--bs-dark)"/>
<path d="M119.298 34.4298H106.798V58.114H119.298V34.4298Z" fill="var(--bs-dark)"/>
<path d="M146.272 23.6842H119.298V34.4298H146.272V23.6842Z" fill="var(--bs-dark)"/>
</g>
<defs>
<clipPath id="clip0_36_1001">
<rect width="200" height="58.2236" fill="white"/>
</clipPath>
</defs>
</svg>
