<svg width="var(--footer-logo-size)" height="34" viewBox="0 0 200 34" fill="none" xmlns="http://www.w3.org/2000/svg">
<g clip-path="url(#clip0_44_1202)">
<mask id="mask0_44_1202" style="mask-type:luminance" maskUnits="userSpaceOnUse" x="0" y="0" width="200" height="34">
<path d="M200 0H0V33.9869H200V0Z" fill="white"/>
</mask>
<g mask="url(#mask0_44_1202)">
<path d="M117.974 0H119.346V6.86274H123.529V8.16993H117.974V0Z" fill="var(--bs-dark)"/>
</g>
<mask id="mask1_44_1202" style="mask-type:luminance" maskUnits="userSpaceOnUse" x="0" y="0" width="200" height="34">
<path d="M200 0H0V33.9869H200V0Z" fill="white"/>
</mask>
<g mask="url(#mask1_44_1202)">
<path d="M126.536 8.3006C125.817 8.3006 125.229 8.10452 124.771 7.647C124.379 7.25485 124.118 6.60125 124.118 5.75158V2.22217H125.36V5.68622C125.36 6.2091 125.49 6.60125 125.686 6.86269C125.948 7.12413 126.275 7.25485 126.732 7.25485C126.993 7.25485 127.19 7.18949 127.386 7.12413C127.582 7.05877 127.778 6.92805 127.909 6.79733C128.039 6.66661 128.17 6.47053 128.235 6.27446C128.301 6.07838 128.366 5.81694 128.366 5.5555V2.22217H129.608V8.16988H128.366V7.38557H128.301C128.17 7.58165 128.039 7.71236 127.843 7.84308C127.712 7.9738 127.516 8.03916 127.255 8.16988C127.19 8.23524 126.928 8.3006 126.536 8.3006Z" fill="var(--bs-dark)"/>
</g>
<mask id="mask2_44_1202" style="mask-type:luminance" maskUnits="userSpaceOnUse" x="0" y="0" width="200" height="34">
<path d="M200 0H0V33.9869H200V0Z" fill="white"/>
</mask>
<g mask="url(#mask2_44_1202)">
<path d="M132.353 5.2287L130.588 2.22217H132.026L133.399 4.64047H133.725L135.098 2.22217H136.536L134.641 5.2287L136.471 8.23524H135.033L133.595 5.81694H133.333L131.895 8.23524H130.458L132.353 5.2287Z" fill="var(--bs-dark)"/>
</g>
<mask id="mask3_44_1202" style="mask-type:luminance" maskUnits="userSpaceOnUse" x="0" y="0" width="200" height="34">
<path d="M200 0H0V33.9869H200V0Z" fill="white"/>
</mask>
<g mask="url(#mask3_44_1202)">
<path d="M139.739 8.30063C139.346 8.30063 138.889 8.23527 138.562 8.0392C138.17 7.90848 137.843 7.64704 137.582 7.3856C137.32 7.12416 137.059 6.79736 136.928 6.40521C136.797 6.01305 136.667 5.62089 136.667 5.16338C136.667 4.70586 136.732 4.3137 136.928 3.92155C137.059 3.52939 137.32 3.20259 137.582 2.94116C137.843 2.67972 138.17 2.41828 138.562 2.28756C138.954 2.15684 139.346 2.02612 139.739 2.02612C140.131 2.02612 140.588 2.09148 140.915 2.28756C141.307 2.41828 141.634 2.67972 141.895 2.94116C142.157 3.20259 142.418 3.52939 142.549 3.92155C142.68 4.3137 142.81 4.70586 142.81 5.16338V5.55553H137.908C137.974 5.81697 138.039 6.01305 138.17 6.20913C138.301 6.40521 138.431 6.60129 138.562 6.73201C138.758 6.86272 138.889 6.99344 139.085 7.0588C139.281 7.12416 139.477 7.18952 139.739 7.18952C140.065 7.18952 140.327 7.12416 140.523 7.0588C140.719 6.99344 140.915 6.86272 141.046 6.79736C141.176 6.66665 141.307 6.53593 141.438 6.40521H142.745C142.614 6.79736 142.418 7.12416 142.091 7.3856C141.961 7.51632 141.83 7.64704 141.699 7.7124C141.569 7.84312 141.373 7.90848 141.176 8.0392C140.98 8.10455 140.784 8.16991 140.523 8.23527C140.261 8.30063 140 8.30063 139.739 8.30063ZM141.503 4.6405C141.503 4.44442 141.438 4.3137 141.307 4.11763C141.242 3.92155 141.111 3.79083 140.98 3.66011C140.85 3.52939 140.654 3.39867 140.457 3.33331C140.196 3.26795 140 3.26795 139.739 3.26795C139.542 3.26795 139.346 3.26795 139.15 3.33331C138.954 3.39867 138.758 3.46403 138.627 3.59475C138.497 3.72547 138.301 3.85619 138.235 4.05227C138.105 4.24835 138.039 4.44442 137.974 4.6405H141.503Z" fill="var(--bs-dark)"/>
</g>
<mask id="mask4_44_1202" style="mask-type:luminance" maskUnits="userSpaceOnUse" x="0" y="0" width="200" height="34">
<path d="M200 0H0V33.9869H200V0Z" fill="white"/>
</mask>
<g mask="url(#mask4_44_1202)">
<path d="M143.856 2.22227H145.098V3.00659H145.163C145.294 2.81051 145.425 2.67979 145.556 2.54907C145.686 2.41835 145.882 2.35299 146.078 2.22227C146.275 2.15691 146.601 2.09155 146.928 2.09155C147.32 2.09155 147.647 2.15691 147.909 2.28763C148.17 2.41835 148.366 2.54907 148.497 2.67979C148.693 2.87587 148.824 3.00659 148.889 3.20266H148.954C149.085 3.00659 149.216 2.81051 149.412 2.67979C149.543 2.54907 149.804 2.41835 150.065 2.28763C150.327 2.15691 150.654 2.09155 151.046 2.09155C151.699 2.09155 152.288 2.28763 152.68 2.74515C153.072 3.1373 153.268 3.7909 153.268 4.64057V8.16998H152.026V4.70593C152.026 4.18306 151.895 3.85626 151.699 3.59482C151.503 3.33338 151.177 3.26802 150.719 3.26802C150.523 3.26802 150.327 3.33338 150.131 3.39874C149.935 3.4641 149.804 3.59482 149.673 3.72554C149.543 3.85626 149.412 4.05234 149.346 4.24842C149.281 4.44449 149.216 4.70593 149.216 4.90201V8.16998H147.974V4.70593C147.974 4.18306 147.843 3.85626 147.647 3.59482C147.386 3.33338 147.059 3.26802 146.601 3.26802C146.405 3.26802 146.209 3.33338 146.013 3.39874C145.817 3.4641 145.686 3.59482 145.49 3.72554C145.36 3.85626 145.229 4.05234 145.163 4.24842C145.098 4.44449 145.033 4.70593 145.033 4.90201V8.16998H143.791V2.22227H143.856Z" fill="var(--bs-dark)"/>
</g>
<mask id="mask5_44_1202" style="mask-type:luminance" maskUnits="userSpaceOnUse" x="0" y="0" width="200" height="34">
<path d="M200 0H0V33.9869H200V0Z" fill="white"/>
</mask>
<g mask="url(#mask5_44_1202)">
<path d="M157.778 8.30065C157.451 8.30065 157.19 8.23529 156.928 8.16994C156.667 8.10458 156.471 7.97386 156.34 7.84314C156.144 7.71242 156.013 7.5817 155.882 7.38562H155.817V8.16994H154.575V0H155.817V3.00654H155.882C156.013 2.87582 156.209 2.67974 156.34 2.54902C156.471 2.4183 156.667 2.35294 156.928 2.22222C157.19 2.15686 157.451 2.0915 157.778 2.0915C158.17 2.0915 158.562 2.15686 158.889 2.28758C159.216 2.4183 159.543 2.61438 159.804 2.94118C160.065 3.20261 160.261 3.52941 160.392 3.92157C160.523 4.31373 160.588 4.70588 160.588 5.1634C160.588 5.62092 160.523 6.07843 160.392 6.40523C160.261 6.79739 160.065 7.12418 159.804 7.38562C159.543 7.64706 159.281 7.84314 158.889 8.03922C158.562 8.23529 158.17 8.30065 157.778 8.30065ZM157.516 7.18954C158.039 7.18954 158.497 6.99346 158.824 6.66667C159.15 6.33987 159.281 5.81699 159.281 5.1634C159.281 4.5098 159.15 4.05229 158.824 3.66013C158.497 3.26797 158.039 3.26797 157.516 3.26797C156.993 3.26797 156.601 3.46405 156.275 3.79085C155.948 4.11765 155.817 4.64052 155.817 5.29412C155.817 5.94771 155.948 6.40523 156.275 6.79739C156.601 7.05882 157.059 7.18954 157.516 7.18954Z" fill="var(--bs-dark)"/>
</g>
<mask id="mask6_44_1202" style="mask-type:luminance" maskUnits="userSpaceOnUse" x="0" y="0" width="200" height="34">
<path d="M200 0H0V33.9869H200V0Z" fill="white"/>
</mask>
<g mask="url(#mask6_44_1202)">
<path d="M164.444 8.30063C163.987 8.30063 163.595 8.23527 163.203 8.0392C162.81 7.90848 162.484 7.64704 162.222 7.3856C161.961 7.12416 161.699 6.79736 161.569 6.40521C161.438 6.01305 161.307 5.62089 161.307 5.16338C161.307 4.70586 161.372 4.3137 161.569 3.92155C161.699 3.52939 161.961 3.20259 162.222 2.94116C162.484 2.67972 162.81 2.41828 163.203 2.28756C163.595 2.15684 163.987 2.02612 164.444 2.02612C164.902 2.02612 165.294 2.09148 165.686 2.28756C166.078 2.41828 166.405 2.67972 166.667 2.94116C166.928 3.20259 167.189 3.52939 167.32 3.92155C167.451 4.3137 167.582 4.70586 167.582 5.16338C167.582 5.62089 167.516 6.01305 167.32 6.40521C167.189 6.79736 166.928 7.12416 166.667 7.3856C166.405 7.64704 166.078 7.90848 165.686 8.0392C165.294 8.23527 164.902 8.30063 164.444 8.30063ZM164.444 7.18952C164.706 7.18952 164.967 7.12416 165.163 7.0588C165.359 6.99344 165.555 6.86272 165.752 6.66665C165.882 6.47057 166.013 6.27449 166.144 6.01305C166.209 5.75161 166.274 5.49018 166.274 5.16338C166.274 4.83658 166.209 4.57514 166.144 4.3137C166.078 4.05227 165.948 3.85619 165.752 3.66011C165.621 3.46403 165.425 3.33331 165.163 3.26795C164.967 3.26795 164.706 3.26795 164.444 3.26795C164.183 3.26795 163.922 3.33331 163.725 3.39867C163.529 3.46403 163.333 3.59475 163.137 3.79083C163.006 3.98691 162.876 4.18299 162.745 4.44442C162.68 4.70586 162.614 4.9673 162.614 5.2941C162.614 5.62089 162.68 5.88233 162.745 6.14377C162.81 6.40521 162.941 6.60129 163.137 6.79736C163.268 6.99344 163.464 7.12416 163.725 7.18952C163.922 7.18952 164.183 7.18952 164.444 7.18952Z" fill="var(--bs-dark)"/>
</g>
<mask id="mask7_44_1202" style="mask-type:luminance" maskUnits="userSpaceOnUse" x="0" y="0" width="200" height="34">
<path d="M200 0H0V33.9869H200V0Z" fill="white"/>
</mask>
<g mask="url(#mask7_44_1202)">
<path d="M170.98 8.3006C170.261 8.3006 169.673 8.10452 169.216 7.647C168.824 7.25485 168.562 6.60125 168.562 5.75158V2.22217H169.804V5.68622C169.804 6.2091 169.935 6.60125 170.131 6.86269C170.392 7.12413 170.719 7.25485 171.177 7.25485C171.438 7.25485 171.634 7.18949 171.83 7.12413C172.026 7.05877 172.222 6.92805 172.353 6.79733C172.484 6.66661 172.614 6.47053 172.68 6.27446C172.745 6.07838 172.81 5.81694 172.81 5.5555V2.22217H174.052V8.16988H172.81V7.38557H172.745C172.614 7.58165 172.484 7.71236 172.288 7.84308C172.157 7.9738 171.961 8.03916 171.699 8.16988C171.634 8.23524 171.307 8.3006 170.98 8.3006Z" fill="var(--bs-dark)"/>
</g>
<mask id="mask8_44_1202" style="mask-type:luminance" maskUnits="userSpaceOnUse" x="0" y="0" width="200" height="34">
<path d="M200 0H0V33.9869H200V0Z" fill="white"/>
</mask>
<g mask="url(#mask8_44_1202)">
<path d="M175.556 2.22227H176.797V3.07194H176.863C176.928 2.87587 177.059 2.74515 177.255 2.61443C177.386 2.48371 177.582 2.35299 177.778 2.28763C177.974 2.15691 178.235 2.09155 178.562 2.09155H179.281V3.26802H178.497C178.235 3.26802 178.039 3.33338 177.843 3.39874C177.647 3.4641 177.451 3.59482 177.32 3.72554C177.19 3.85626 177.059 4.05234 176.993 4.24842C176.928 4.44449 176.863 4.70593 176.863 4.90201V8.16998H175.621V2.22227H175.556Z" fill="var(--bs-dark)"/>
</g>
<mask id="mask9_44_1202" style="mask-type:luminance" maskUnits="userSpaceOnUse" x="0" y="0" width="200" height="34">
<path d="M200 0H0V33.9869H200V0Z" fill="white"/>
</mask>
<g mask="url(#mask9_44_1202)">
<path d="M180.719 9.28104H184.64V7.38562H184.575C184.444 7.51634 184.248 7.71242 184.118 7.84313C183.987 7.97385 183.791 8.03921 183.529 8.16993C183.268 8.23529 183.006 8.30065 182.745 8.30065C182.353 8.30065 181.961 8.23529 181.634 8.10457C181.307 7.97385 180.98 7.77777 180.719 7.45098C180.457 7.18954 180.261 6.86274 180.131 6.47059C180 6.07843 179.935 5.68627 179.935 5.22876C179.935 4.77124 180 4.31372 180.131 3.98693C180.261 3.59477 180.457 3.26797 180.719 3.00653C180.98 2.7451 181.242 2.54902 181.634 2.35294C181.961 2.22222 182.353 2.15686 182.745 2.15686C183.072 2.15686 183.333 2.22222 183.529 2.28758C183.791 2.35294 183.987 2.48366 184.118 2.61438C184.314 2.7451 184.444 2.87581 184.575 3.07189H184.64V2.22222H185.882V10.3922H180.719V9.28104ZM182.876 7.18954C183.399 7.18954 183.791 6.99346 184.118 6.66666C184.444 6.33987 184.575 5.81699 184.575 5.1634C184.575 4.5098 184.444 4.05229 184.118 3.66013C183.791 3.33333 183.399 3.13725 182.876 3.13725C182.353 3.13725 181.895 3.33333 181.569 3.66013C181.242 3.98693 181.111 4.5098 181.111 5.1634C181.111 5.81699 181.242 6.27451 181.569 6.66666C181.961 7.05882 182.353 7.18954 182.876 7.18954Z" fill="var(--bs-dark)"/>
</g>
<mask id="mask10_44_1202" style="mask-type:luminance" maskUnits="userSpaceOnUse" x="0" y="0" width="200" height="34">
<path d="M200 0H0V33.9869H200V0Z" fill="white"/>
</mask>
<g mask="url(#mask10_44_1202)">
<path d="M117.974 12.8759H119.935L123.529 19.3464H123.66L123.529 18.366V12.8759H124.902V21.0458H122.941L119.346 14.5752H119.216L119.346 15.5556V21.0458H117.974V12.8759Z" fill="var(--bs-dark)"/>
</g>
<mask id="mask11_44_1202" style="mask-type:luminance" maskUnits="userSpaceOnUse" x="0" y="0" width="200" height="34">
<path d="M200 0H0V33.9869H200V0Z" fill="white"/>
</mask>
<g mask="url(#mask11_44_1202)">
<path d="M128.889 21.1765C128.497 21.1765 128.105 21.1111 127.778 20.9804C127.451 20.8497 127.124 20.6536 126.863 20.3268C126.601 20.0654 126.405 19.7386 126.274 19.3464C126.144 18.9543 126.078 18.5621 126.078 18.1046C126.078 17.6471 126.144 17.1896 126.274 16.8628C126.405 16.4706 126.601 16.1438 126.863 15.8824C127.124 15.6209 127.386 15.4249 127.778 15.2288C128.105 15.0981 128.497 15.0327 128.889 15.0327C129.216 15.0327 129.477 15.0981 129.673 15.1634C129.935 15.2288 130.131 15.3595 130.261 15.4902C130.457 15.621 130.588 15.7517 130.719 15.9477H130.784V15.1634H132.026V21.1111H130.784V20.3268H130.719C130.588 20.5229 130.392 20.6536 130.261 20.7843C130.131 20.9151 129.935 20.9804 129.673 21.1111C129.477 21.1111 129.15 21.1765 128.889 21.1765ZM129.085 20.0654C129.608 20.0654 130 19.8693 130.327 19.5425C130.654 19.2157 130.784 18.6928 130.784 18.0393C130.784 17.3857 130.654 16.9281 130.327 16.536C130 16.2092 129.608 16.0131 129.085 16.0131C128.562 16.0131 128.105 16.2092 127.778 16.536C127.451 16.8628 127.32 17.3857 127.32 18.0393C127.32 18.6928 127.451 19.1504 127.778 19.5425C128.17 19.8693 128.562 20.0654 129.085 20.0654Z" fill="var(--bs-dark)"/>
</g>
<mask id="mask12_44_1202" style="mask-type:luminance" maskUnits="userSpaceOnUse" x="0" y="0" width="200" height="34">
<path d="M200 0H0V33.9869H200V0Z" fill="white"/>
</mask>
<g mask="url(#mask12_44_1202)">
<path d="M133.726 16.2092H133.007V15.0981H133.726V13.7909H134.967V15.0981H136.797V16.2092H134.967V19.9347H136.863V21.0458H133.726V16.2092Z" fill="var(--bs-dark)"/>
</g>
<mask id="mask13_44_1202" style="mask-type:luminance" maskUnits="userSpaceOnUse" x="0" y="0" width="200" height="34">
<path d="M200 0H0V33.9869H200V0Z" fill="white"/>
</mask>
<g mask="url(#mask13_44_1202)">
<path d="M138.497 14.183C138.301 14.183 138.105 14.1177 137.974 13.9869C137.843 13.8562 137.778 13.6602 137.778 13.4641C137.778 13.268 137.843 13.0719 137.974 12.9412C138.105 12.8105 138.301 12.7451 138.497 12.7451C138.693 12.7451 138.889 12.8105 139.02 12.9412C139.15 13.0719 139.216 13.268 139.216 13.4641C139.216 13.6602 139.15 13.8562 139.02 13.9869C138.889 14.1177 138.693 14.183 138.497 14.183ZM137.909 15.0981H139.15V21.0458H137.909V15.0981Z" fill="var(--bs-dark)"/>
</g>
<mask id="mask14_44_1202" style="mask-type:luminance" maskUnits="userSpaceOnUse" x="0" y="0" width="200" height="34">
<path d="M200 0H0V33.9869H200V0Z" fill="white"/>
</mask>
<g mask="url(#mask14_44_1202)">
<path d="M143.333 21.1765C142.876 21.1765 142.484 21.1111 142.091 20.9151C141.699 20.7843 141.373 20.5229 141.111 20.2615C140.85 20 140.588 19.6732 140.457 19.2811C140.327 18.8889 140.196 18.4967 140.196 18.0392C140.196 17.5817 140.261 17.1896 140.457 16.7974C140.588 16.4052 140.85 16.0784 141.111 15.817C141.373 15.5556 141.699 15.2941 142.091 15.1634C142.484 15.0327 142.876 14.902 143.333 14.902C143.791 14.902 144.183 14.9673 144.575 15.1634C144.967 15.2941 145.294 15.5556 145.556 15.817C145.817 16.0784 146.078 16.4052 146.209 16.7974C146.34 17.1896 146.471 17.5817 146.471 18.0392C146.471 18.4967 146.405 18.8889 146.209 19.2811C146.078 19.6732 145.817 20 145.556 20.2615C145.294 20.5229 144.967 20.7843 144.575 20.9151C144.183 21.0458 143.725 21.1765 143.333 21.1765ZM143.333 20.0654C143.595 20.0654 143.856 20 144.052 19.9347C144.248 19.8693 144.444 19.7386 144.64 19.5425C144.771 19.3464 144.902 19.1503 145.033 18.8889C145.098 18.6275 145.163 18.366 145.163 18.0392C145.163 17.7124 145.098 17.451 145.033 17.1896C144.967 16.9281 144.837 16.732 144.64 16.536C144.51 16.3399 144.314 16.2092 144.052 16.1438C143.856 16.0784 143.595 16.0131 143.333 16.0131C143.072 16.0131 142.81 16.0784 142.614 16.1438C142.418 16.2092 142.222 16.3399 142.026 16.536C141.895 16.732 141.765 16.9281 141.634 17.1896C141.569 17.451 141.503 17.7124 141.503 18.0392C141.503 18.366 141.569 18.6275 141.634 18.8889C141.699 19.1503 141.83 19.3464 142.026 19.5425C142.157 19.7386 142.353 19.8693 142.614 19.9347C142.81 20 143.072 20.0654 143.333 20.0654Z" fill="var(--bs-dark)"/>
</g>
<mask id="mask15_44_1202" style="mask-type:luminance" maskUnits="userSpaceOnUse" x="0" y="0" width="200" height="34">
<path d="M200 0H0V33.9869H200V0Z" fill="white"/>
</mask>
<g mask="url(#mask15_44_1202)">
<path d="M147.516 15.098H148.758V15.8823H148.824C148.954 15.6862 149.085 15.5555 149.281 15.4248C149.412 15.2941 149.608 15.2287 149.869 15.098C150.131 15.0326 150.392 14.9673 150.719 14.9673C151.438 14.9673 152.026 15.1634 152.484 15.6209C152.876 16.013 153.137 16.6666 153.137 17.5163V21.0457H151.895V17.5817C151.895 17.0588 151.765 16.6666 151.569 16.4052C151.307 16.1438 150.98 16.013 150.523 16.013C150.261 16.013 150.065 16.0784 149.869 16.1438C149.673 16.2091 149.477 16.3398 149.346 16.4706C149.216 16.6013 149.085 16.7974 149.02 16.9934C148.954 17.1895 148.889 17.4509 148.889 17.7124V20.915H147.647V15.098H147.516Z" fill="var(--bs-dark)"/>
</g>
<mask id="mask16_44_1202" style="mask-type:luminance" maskUnits="userSpaceOnUse" x="0" y="0" width="200" height="34">
<path d="M200 0H0V33.9869H200V0Z" fill="white"/>
</mask>
<g mask="url(#mask16_44_1202)">
<path d="M156.863 21.1765C156.471 21.1765 156.078 21.1111 155.752 20.9804C155.425 20.8497 155.098 20.6536 154.837 20.3268C154.575 20.0654 154.379 19.7386 154.248 19.3464C154.118 18.9543 154.052 18.5621 154.052 18.1046C154.052 17.6471 154.118 17.1896 154.248 16.8628C154.379 16.4706 154.575 16.1438 154.837 15.8824C155.098 15.6209 155.359 15.4249 155.752 15.2288C156.078 15.0981 156.471 15.0327 156.863 15.0327C157.19 15.0327 157.451 15.0981 157.647 15.1634C157.908 15.2288 158.105 15.3595 158.235 15.4902C158.431 15.621 158.562 15.7517 158.693 15.9477H158.758V15.1634H160V21.1111H158.823V20.3268H158.758C158.627 20.5229 158.431 20.6536 158.301 20.7843C158.17 20.9151 157.974 20.9804 157.712 21.1111C157.451 21.1111 157.19 21.1765 156.863 21.1765ZM157.124 20.0654C157.647 20.0654 158.039 19.8693 158.366 19.5425C158.693 19.2157 158.823 18.6928 158.823 18.0393C158.823 17.3857 158.693 16.9281 158.366 16.536C158.039 16.2092 157.647 16.0131 157.124 16.0131C156.601 16.0131 156.144 16.2092 155.817 16.536C155.49 16.8628 155.359 17.3857 155.359 18.0393C155.359 18.6928 155.49 19.1504 155.817 19.5425C156.144 19.8693 156.601 20.0654 157.124 20.0654Z" fill="var(--bs-dark)"/>
</g>
<mask id="mask17_44_1202" style="mask-type:luminance" maskUnits="userSpaceOnUse" x="0" y="0" width="200" height="34">
<path d="M200 0H0V33.9869H200V0Z" fill="white"/>
</mask>
<g mask="url(#mask17_44_1202)">
<path d="M161.503 12.8759H162.745V21.0458H161.503V12.8759Z" fill="var(--bs-dark)"/>
</g>
<mask id="mask18_44_1202" style="mask-type:luminance" maskUnits="userSpaceOnUse" x="0" y="0" width="200" height="34">
<path d="M200 0H0V33.9869H200V0Z" fill="white"/>
</mask>
<g mask="url(#mask18_44_1202)">
<path d="M117.974 25.6863H121.569C122.092 25.6863 122.549 25.7516 122.941 25.8824C123.333 26.0131 123.66 26.2092 123.922 26.4706C124.183 26.732 124.379 26.9935 124.575 27.3203C124.706 27.6471 124.771 27.9739 124.771 28.366C124.771 28.6928 124.706 28.9543 124.641 29.2157C124.575 29.4771 124.379 29.7386 124.248 29.9346C124.052 30.1307 123.856 30.3268 123.595 30.5229C123.333 30.719 123.007 30.7843 122.68 30.915L124.771 33.9216H123.203L121.242 30.9804H119.412V33.9216H118.039V25.6863H117.974ZM121.569 29.6732C122.157 29.6732 122.614 29.5425 122.941 29.2811C123.203 29.0196 123.333 28.6928 123.333 28.3007C123.333 27.9085 123.203 27.5817 122.941 27.3203C122.68 27.0588 122.222 26.9281 121.569 26.9281H119.346V29.6078H121.569V29.6732Z" fill="var(--bs-dark)"/>
</g>
<mask id="mask19_44_1202" style="mask-type:luminance" maskUnits="userSpaceOnUse" x="0" y="0" width="200" height="34">
<path d="M200 0H0V33.9869H200V0Z" fill="white"/>
</mask>
<g mask="url(#mask19_44_1202)">
<path d="M128.431 33.9869C128.039 33.9869 127.582 33.9216 127.255 33.7255C126.928 33.5294 126.536 33.3333 126.275 33.0719C126.013 32.8104 125.752 32.4836 125.621 32.0915C125.49 31.6993 125.359 31.3072 125.359 30.8497C125.359 30.3921 125.425 30 125.621 29.6078C125.752 29.2157 126.013 28.8889 126.275 28.6274C126.536 28.366 126.863 28.1046 127.255 27.9738C127.647 27.8431 128.039 27.7124 128.431 27.7124C128.824 27.7124 129.281 27.7778 129.608 27.9738C130 28.1046 130.327 28.366 130.588 28.6274C130.85 28.8889 131.111 29.2157 131.242 29.6078C131.373 30 131.503 30.3921 131.503 30.8497V31.2418H126.601C126.667 31.5033 126.732 31.6993 126.863 31.8954C126.993 32.0915 127.124 32.2876 127.255 32.4183C127.451 32.549 127.582 32.6797 127.778 32.7451C127.974 32.8104 128.17 32.8758 128.431 32.8758C128.758 32.8758 129.02 32.8104 129.216 32.7451C129.412 32.6797 129.608 32.549 129.739 32.4836C129.869 32.3529 130 32.2222 130.131 32.0915H131.438C131.307 32.4836 131.111 32.8104 130.784 33.0719C130.654 33.2026 130.523 33.3333 130.392 33.3987C130.261 33.5294 130.065 33.5948 129.869 33.7255C129.673 33.7908 129.477 33.8562 129.216 33.9216C129.02 33.9869 128.758 33.9869 128.431 33.9869ZM130.196 30.3268C130.196 30.1307 130.131 30 130 29.8039C129.935 29.6078 129.804 29.4771 129.673 29.3464C129.542 29.2157 129.346 29.085 129.15 29.0196C128.954 28.9542 128.693 28.8889 128.431 28.8889C128.235 28.8889 128.039 28.8889 127.843 28.9542C127.647 29.0196 127.451 29.085 127.32 29.2157C127.19 29.3464 126.993 29.4771 126.928 29.6732C126.797 29.8693 126.732 30.0653 126.667 30.2614L130.196 30.3268Z" fill="var(--bs-dark)"/>
</g>
<mask id="mask20_44_1202" style="mask-type:luminance" maskUnits="userSpaceOnUse" x="0" y="0" width="200" height="34">
<path d="M200 0H0V33.9869H200V0Z" fill="white"/>
</mask>
<g mask="url(#mask20_44_1202)">
<path d="M135.033 33.9869C134.706 33.9869 134.444 33.9869 134.183 33.9215C133.922 33.8562 133.725 33.7908 133.529 33.7254C133.333 33.6601 133.203 33.5294 133.007 33.3986C132.876 33.2679 132.745 33.1372 132.614 33.0065C132.353 32.745 132.222 32.4183 132.157 32.0261H133.529C133.595 32.2222 133.66 32.3529 133.856 32.4836C133.987 32.6143 134.118 32.6797 134.314 32.8104C134.51 32.8758 134.771 32.9411 135.033 32.9411C135.294 32.9411 135.49 32.9411 135.621 32.8758C135.752 32.8104 135.882 32.8104 136.013 32.745C136.144 32.6797 136.209 32.6143 136.209 32.549C136.275 32.4836 136.275 32.3529 136.275 32.2875C136.275 32.0915 136.209 31.9607 136.013 31.8954C135.817 31.83 135.621 31.6993 135.294 31.6339C135.033 31.5686 134.706 31.5032 134.379 31.4379C134.052 31.3725 133.725 31.2418 133.464 31.1111C133.203 30.9803 132.941 30.7843 132.745 30.5882C132.549 30.3267 132.484 30.0653 132.484 29.6732C132.484 29.4771 132.549 29.2156 132.614 29.0196C132.745 28.8235 132.876 28.6274 133.072 28.4313C133.268 28.2352 133.529 28.1045 133.791 28.0392C134.052 27.9084 134.444 27.9084 134.771 27.9084C135.359 27.9084 135.817 27.9738 136.209 28.1699C136.536 28.366 136.797 28.562 136.993 28.8235C137.19 29.0849 137.386 29.4117 137.451 29.7385H136.144C136.078 29.6078 136.013 29.4771 135.882 29.3464C135.752 29.281 135.621 29.1503 135.49 29.0849C135.294 29.0196 135.098 28.9542 134.837 28.9542C134.444 28.9542 134.183 29.0196 134.052 29.1503C133.856 29.281 133.791 29.4117 133.791 29.6078C133.791 29.8039 133.856 29.9346 134.052 30C134.248 30.0653 134.444 30.196 134.771 30.196C135.033 30.2614 135.359 30.3267 135.686 30.3921C136.013 30.4575 136.34 30.5882 136.601 30.7189C136.863 30.8496 137.124 31.0457 137.32 31.2418C137.516 31.5032 137.582 31.7647 137.582 32.1568C137.582 32.4183 137.516 32.6143 137.386 32.8104C137.255 33.0065 137.124 33.2026 136.928 33.3986C136.732 33.5947 136.471 33.7254 136.144 33.7908C135.752 33.9215 135.425 33.9869 135.033 33.9869Z" fill="var(--bs-dark)"/>
</g>
<mask id="mask21_44_1202" style="mask-type:luminance" maskUnits="userSpaceOnUse" x="0" y="0" width="200" height="34">
<path d="M200 0H0V33.9869H200V0Z" fill="white"/>
</mask>
<g mask="url(#mask21_44_1202)">
<path d="M141.307 33.9869C140.915 33.9869 140.458 33.9216 140.131 33.7255C139.739 33.5948 139.412 33.3333 139.15 33.0719C138.889 32.8104 138.628 32.4836 138.497 32.0915C138.366 31.6993 138.235 31.3072 138.235 30.8497C138.235 30.3921 138.301 30 138.497 29.6078C138.628 29.2157 138.889 28.8889 139.15 28.6274C139.412 28.366 139.739 28.1046 140.131 27.9738C140.523 27.8431 140.915 27.7124 141.307 27.7124C141.765 27.7124 142.157 27.7778 142.484 27.9738C142.876 28.1046 143.203 28.366 143.464 28.6274C143.726 28.8889 143.987 29.2157 144.118 29.6078C144.248 30 144.379 30.3921 144.379 30.8497V31.2418H139.477C139.543 31.5033 139.608 31.6993 139.739 31.8954C139.869 32.0915 140 32.2876 140.131 32.4183C140.327 32.549 140.458 32.6797 140.654 32.7451C140.85 32.8104 141.046 32.8758 141.307 32.8758C141.634 32.8758 141.895 32.8104 142.092 32.7451C142.288 32.6797 142.484 32.549 142.614 32.4836C142.745 32.3529 142.876 32.2222 143.007 32.0915H144.314C144.183 32.4836 143.987 32.8104 143.66 33.0719C143.529 33.2026 143.399 33.3333 143.268 33.3987C143.137 33.5294 142.941 33.5948 142.745 33.7255C142.549 33.7908 142.353 33.8562 142.092 33.9216C141.895 33.9869 141.634 33.9869 141.307 33.9869ZM143.072 30.3268C143.072 30.1307 143.007 30 142.876 29.8039C142.811 29.6078 142.68 29.4771 142.549 29.3464C142.418 29.2157 142.222 29.085 142.026 29.0196C141.83 28.9542 141.569 28.8889 141.307 28.8889C141.111 28.8889 140.915 28.8889 140.719 28.9542C140.523 29.0196 140.327 29.085 140.196 29.2157C140.065 29.3464 139.869 29.4771 139.804 29.6732C139.673 29.8693 139.608 30.0653 139.543 30.2614L143.072 30.3268Z" fill="var(--bs-dark)"/>
</g>
<mask id="mask22_44_1202" style="mask-type:luminance" maskUnits="userSpaceOnUse" x="0" y="0" width="200" height="34">
<path d="M200 0H0V33.9869H200V0Z" fill="white"/>
</mask>
<g mask="url(#mask22_44_1202)">
<path d="M147.908 33.9869C147.516 33.9869 147.124 33.9216 146.797 33.7909C146.471 33.6601 146.144 33.4641 145.882 33.1373C145.621 32.8758 145.425 32.549 145.294 32.1569C145.163 31.7647 145.098 31.3726 145.098 30.915C145.098 30.4575 145.163 30 145.294 29.6732C145.425 29.2811 145.621 28.9543 145.882 28.6928C146.144 28.4314 146.405 28.2353 146.797 28.0392C147.124 27.9085 147.516 27.8431 147.908 27.8431C148.235 27.8431 148.497 27.9085 148.693 27.9739C148.954 28.0392 149.15 28.1699 149.281 28.3007C149.477 28.4314 149.608 28.5621 149.739 28.7582H149.804V27.9739H151.046V33.9216H149.804V33.1373H149.739C149.608 33.3333 149.412 33.4641 149.281 33.5948C149.15 33.7255 148.954 33.7909 148.693 33.9216C148.497 33.9216 148.235 33.9869 147.908 33.9869ZM148.17 32.8758C148.693 32.8758 149.085 32.6797 149.412 32.3529C149.739 32.0261 149.869 31.5033 149.869 30.8497C149.869 30.1961 149.739 29.7386 149.412 29.3464C149.085 29.0196 148.693 28.8235 148.17 28.8235C147.647 28.8235 147.19 29.0196 146.863 29.3464C146.536 29.6732 146.405 30.1961 146.405 30.8497C146.405 31.5033 146.536 31.9608 146.863 32.3529C147.19 32.6797 147.647 32.8758 148.17 32.8758Z" fill="var(--bs-dark)"/>
</g>
<mask id="mask23_44_1202" style="mask-type:luminance" maskUnits="userSpaceOnUse" x="0" y="0" width="200" height="34">
<path d="M200 0H0V33.9869H200V0Z" fill="white"/>
</mask>
<g mask="url(#mask23_44_1202)">
<path d="M152.549 27.9086H153.791V28.7582H153.856C153.922 28.5621 154.052 28.4314 154.248 28.3007C154.379 28.17 154.575 28.0393 154.771 27.9739C154.967 27.8432 155.229 27.7778 155.556 27.7778H156.275V28.9543H155.49C155.229 28.9543 155.033 29.0197 154.837 29.085C154.641 29.1504 154.445 29.2811 154.314 29.4118C154.183 29.5425 154.052 29.7386 153.987 29.9347C153.922 30.1308 153.856 30.3922 153.856 30.5883V33.8563H152.614V27.9086H152.549Z" fill="var(--bs-dark)"/>
</g>
<mask id="mask24_44_1202" style="mask-type:luminance" maskUnits="userSpaceOnUse" x="0" y="0" width="200" height="34">
<path d="M200 0H0V33.9869H200V0Z" fill="white"/>
</mask>
<g mask="url(#mask24_44_1202)">
<path d="M159.804 33.9869C159.412 33.9869 158.954 33.9216 158.627 33.7909C158.235 33.6601 157.909 33.3987 157.647 33.1373C157.386 32.8758 157.19 32.549 156.993 32.1569C156.863 31.7647 156.732 31.3726 156.732 30.915C156.732 30.4575 156.797 30.0654 156.993 29.6732C157.124 29.2811 157.386 28.9543 157.647 28.6928C157.909 28.4314 158.235 28.2353 158.627 28.0392C159.02 27.9085 159.412 27.8431 159.804 27.8431C160.131 27.8431 160.392 27.8431 160.588 27.9085C160.85 27.9739 161.046 28.0392 161.242 28.1699C161.438 28.3007 161.634 28.366 161.765 28.4967C161.895 28.6275 162.026 28.7582 162.157 28.8889C162.418 29.2157 162.614 29.5425 162.68 29.9346H161.373C161.307 29.7386 161.176 29.5425 161.046 29.4118C160.915 29.281 160.784 29.1503 160.588 29.0196C160.392 28.8889 160.131 28.8235 159.804 28.8235C159.543 28.8235 159.346 28.8889 159.15 28.9543C158.954 29.0196 158.758 29.1503 158.627 29.3464C158.497 29.5425 158.366 29.7386 158.235 30C158.17 30.2614 158.105 30.5229 158.105 30.8497C158.105 31.1765 158.17 31.4379 158.235 31.6993C158.301 31.9608 158.431 32.1569 158.627 32.3529C158.824 32.549 158.954 32.6797 159.15 32.7451C159.346 32.8105 159.608 32.8758 159.804 32.8758C160.131 32.8758 160.392 32.8105 160.654 32.6797C160.85 32.549 161.046 32.4183 161.177 32.2876C161.307 32.1569 161.438 31.9608 161.503 31.7647H162.745C162.614 32.1569 162.484 32.549 162.222 32.8758C162.092 33.0065 161.961 33.1373 161.83 33.268C161.699 33.3987 161.503 33.5294 161.307 33.5948C161.111 33.7255 160.915 33.7909 160.654 33.8562C160.327 33.9869 160.065 33.9869 159.804 33.9869Z" fill="var(--bs-dark)"/>
</g>
<mask id="mask25_44_1202" style="mask-type:luminance" maskUnits="userSpaceOnUse" x="0" y="0" width="200" height="34">
<path d="M200 0H0V33.9869H200V0Z" fill="white"/>
</mask>
<g mask="url(#mask25_44_1202)">
<path d="M163.66 25.6863H164.902V28.7582H164.967C165.098 28.5621 165.229 28.4314 165.425 28.3007C165.556 28.1699 165.752 28.1046 166.013 27.9739C166.275 27.9085 166.536 27.8431 166.863 27.8431C167.582 27.8431 168.17 28.0392 168.627 28.4967C169.02 28.8889 169.281 29.5425 169.281 30.3922V33.9216H167.974V30.4575C167.974 29.9346 167.843 29.5425 167.647 29.2811C167.386 29.0196 167.059 28.8889 166.601 28.8889C166.34 28.8889 166.144 28.9543 165.948 29.0196C165.752 29.085 165.556 29.2157 165.425 29.3464C165.294 29.4771 165.163 29.6732 165.098 29.8693C165.033 30.0654 164.967 30.3268 164.967 30.5882V33.7909H163.726V25.6863H163.66Z" fill="var(--bs-dark)"/>
</g>
<mask id="mask26_44_1202" style="mask-type:luminance" maskUnits="userSpaceOnUse" x="0" y="0" width="200" height="34">
<path d="M200 0H0V33.9869H200V0Z" fill="white"/>
</mask>
<g mask="url(#mask26_44_1202)">
<path d="M173.987 25.6863H179.739V26.9935H175.294V29.3464H178.758V30.6536H175.294V33.9216H173.922V25.6863H173.987Z" fill="var(--bs-dark)"/>
</g>
<mask id="mask27_44_1202" style="mask-type:luminance" maskUnits="userSpaceOnUse" x="0" y="0" width="200" height="34">
<path d="M200 0H0V33.9869H200V0Z" fill="white"/>
</mask>
<g mask="url(#mask27_44_1202)">
<path d="M182.81 33.9869C182.091 33.9869 181.503 33.7908 181.046 33.3333C180.654 32.9411 180.392 32.2875 180.392 31.4379V27.9084H181.634V31.3725C181.634 31.8954 181.765 32.2875 181.961 32.549C182.222 32.8104 182.549 32.9411 183.006 32.9411C183.268 32.9411 183.464 32.8758 183.66 32.8104C183.856 32.745 184.052 32.6143 184.183 32.4836C184.314 32.3529 184.444 32.1568 184.51 31.9607C184.575 31.7647 184.64 31.5032 184.64 31.2418V28.0392H185.882V33.9869H184.64V33.2026H184.575C184.444 33.3986 184.314 33.5294 184.118 33.6601C183.987 33.7908 183.791 33.8562 183.529 33.9869C183.464 33.9215 183.203 33.9869 182.81 33.9869Z" fill="var(--bs-dark)"/>
</g>
<mask id="mask28_44_1202" style="mask-type:luminance" maskUnits="userSpaceOnUse" x="0" y="0" width="200" height="34">
<path d="M200 0H0V33.9869H200V0Z" fill="white"/>
</mask>
<g mask="url(#mask28_44_1202)">
<path d="M187.451 27.9085H188.693V28.7582H188.758C188.889 28.5621 189.02 28.4314 189.216 28.3007C189.346 28.1699 189.542 28.1046 189.804 27.9739C190.065 27.9085 190.327 27.8431 190.654 27.8431C191.373 27.8431 191.961 28.0392 192.418 28.4967C192.81 28.8889 193.072 29.5425 193.072 30.3922V33.9216H191.83V30.4575C191.83 29.9346 191.699 29.5425 191.503 29.281C191.242 29.0196 190.915 28.8889 190.457 28.8889C190.196 28.8889 190 28.9543 189.804 29.0196C189.608 29.085 189.412 29.2157 189.281 29.3464C189.15 29.4771 189.02 29.6732 188.954 29.8693C188.889 30.0654 188.823 30.3268 188.823 30.5882V33.7909H187.582V27.9085H187.451Z" fill="var(--bs-dark)"/>
</g>
<mask id="mask29_44_1202" style="mask-type:luminance" maskUnits="userSpaceOnUse" x="0" y="0" width="200" height="34">
<path d="M200 0H0V33.9869H200V0Z" fill="white"/>
</mask>
<g mask="url(#mask29_44_1202)">
<path d="M196.797 33.9869C196.405 33.9869 196.013 33.9215 195.686 33.7908C195.359 33.6601 195.033 33.464 194.771 33.1372C194.51 32.8758 194.314 32.549 194.183 32.1568C194.052 31.7647 193.987 31.3725 193.987 30.915C193.987 30.4575 194.052 30 194.183 29.6732C194.314 29.281 194.51 28.9542 194.771 28.6928C195.033 28.4313 195.294 28.2352 195.686 28.0392C196.013 27.9084 196.405 27.8431 196.797 27.8431C197.124 27.8431 197.386 27.9084 197.582 27.9738C197.843 28.0392 198.039 28.1699 198.17 28.3006C198.366 28.4313 198.497 28.562 198.627 28.7581H198.693V25.7516H199.935V33.9215H198.693V33.1372C198.562 33.2679 198.366 33.464 198.235 33.5947C198.105 33.7254 197.909 33.7908 197.647 33.9215C197.386 33.9215 197.124 33.9869 196.797 33.9869ZM197.059 32.8758C197.582 32.8758 197.974 32.6797 198.301 32.3529C198.627 32.0261 198.758 31.5032 198.758 30.8496C198.758 30.196 198.627 29.7385 198.301 29.3464C197.974 29.0196 197.582 28.8235 197.059 28.8235C196.536 28.8235 196.078 29.0196 195.752 29.3464C195.425 29.6732 195.294 30.196 195.294 30.8496C195.294 31.5032 195.425 31.9607 195.752 32.3529C196.078 32.6797 196.536 32.8758 197.059 32.8758Z" fill="var(--bs-dark)"/>
</g>
<mask id="mask30_44_1202" style="mask-type:luminance" maskUnits="userSpaceOnUse" x="0" y="0" width="200" height="34">
<path d="M200 0H0V33.9869H200V0Z" fill="white"/>
</mask>
<g mask="url(#mask30_44_1202)">
<path d="M42.1569 0L73.5948 31.1111V0H42.1569Z" fill="var(--bs-dark)"/>
</g>
<mask id="mask31_44_1202" style="mask-type:luminance" maskUnits="userSpaceOnUse" x="0" y="0" width="200" height="34">
<path d="M200 0H0V33.9869H200V0Z" fill="white"/>
</mask>
<g mask="url(#mask31_44_1202)">
<path d="M28.7582 0V4.96732H0V13.7909H20.1307V18.7582H0V33.8562H34.2484V0H28.7582Z" fill="var(--bs-dark)"/>
</g>
<mask id="mask32_44_1202" style="mask-type:luminance" maskUnits="userSpaceOnUse" x="0" y="0" width="200" height="34">
<path d="M200 0H0V33.9869H200V0Z" fill="white"/>
</mask>
<g mask="url(#mask32_44_1202)">
<path d="M39.3464 4.11768V33.8562H69.4118L39.3464 4.11768Z" fill="var(--bs-dark)"/>
</g>
<mask id="mask33_44_1202" style="mask-type:luminance" maskUnits="userSpaceOnUse" x="0" y="0" width="200" height="34">
<path d="M200 0H0V33.9869H200V0Z" fill="white"/>
</mask>
<g mask="url(#mask33_44_1202)">
<path d="M100.458 18.7582L112.876 31.0458V18.7582H100.458Z" fill="var(--bs-dark)"/>
</g>
<mask id="mask34_44_1202" style="mask-type:luminance" maskUnits="userSpaceOnUse" x="0" y="0" width="200" height="34">
<path d="M200 0H0V33.9869H200V0Z" fill="white"/>
</mask>
<g mask="url(#mask34_44_1202)">
<path d="M93.5295 18.7582L93.4641 13.7909H107.843V4.96732H84.1831V0H78.6929V4.11765V33.8562H108.758L93.5295 18.7582Z" fill="var(--bs-dark)"/>
</g>
</g>
<defs>
<clipPath id="clip0_44_1202">
<rect width="200" height="33.9869" fill="white"/>
</clipPath>
</defs>
</svg>
