<?xml version="1.0" encoding="UTF-8"?>
<svg id="Impresso_logo" data-name="Impresso Logo" xmlns="http://www.w3.org/2000/svg" viewBox="0 0 100 61.17">
  <path id="Yellow" d="M0,4.73v3.58h30.93v-3.58H0Z" fill="var(--bs-primary)"/>
  <path id="Black" d="M17.09,53.79c-.66,0-1.25.28-1.55.78l-.1-.63h-1.11v4.84h1.2v-2.61c0-.78.45-1.29,1.19-1.29.62,0,1.02.39,1.02,1.21v2.7h1.2v-2.98c0-1.26-.63-2.01-1.84-2.01ZM20.62,41.2c.39,0,.72-.32.72-.73s-.32-.72-.72-.72-.74.31-.74.72.32.73.74.73ZM17.6,46.26l.08.75h1.1v-7.3h-1.19v3.07c-.3-.48-.9-.77-1.58-.77-1.46,0-2.34,1.08-2.34,2.59s.87,2.53,2.27,2.53c.74,0,1.36-.32,1.66-.88ZM14.87,44.57c0-.86.51-1.48,1.34-1.48s1.37.61,1.37,1.48-.54,1.47-1.37,1.47-1.34-.61-1.34-1.47ZM36.39,7.41h63.61v-1.79h-63.61v1.79ZM6.88,13.04h93.12v-1.79H6.88v1.79ZM20.03,47.02h1.2v-4.84h-1.2v4.84ZM38.44,34.12h61.56v-1.79h-61.56v1.79ZM10.8,53.8c-1.5,0-2.59,1.04-2.59,2.55s1.09,2.55,2.59,2.55,2.59-1.04,2.59-2.55-1.09-2.55-2.59-2.55ZM10.8,57.83c-.82,0-1.39-.6-1.39-1.48s.57-1.48,1.39-1.48,1.39.6,1.39,1.48-.57,1.48-1.39,1.48ZM20.71,51.53c-.41,0-.74.31-.74.72s.32.73.74.73.72-.32.72-.73-.32-.72-.72-.72ZM20.11,58.79h1.2v-4.84h-1.2v4.84ZM91.6,0H28.99v1.79h62.61V0ZM27.52,32.33H0v1.79h27.52v-1.79ZM.93,12.02c0,1.2.97,2.17,2.17,2.17s2.17-.97,2.17-2.17-.97-2.17-2.17-2.17-2.17.97-2.17,2.17ZM1.43,27.35l-1.41.21v1.41h6.18v-1.41l-1.34-.2v-10.18l-.65-.46h-.05L0,17.24v1.61l1.42.43v8.07ZM24.33,0H0v1.79h24.32V0ZM26.66,47.02v-2.94c0-1.34-.8-2.05-2.11-2.05s-2.18.69-2.18,1.74h1.02c0-.51.39-.8,1.1-.8.61,0,1,.27,1,.92v.11l-1.45.11c-1.15.09-1.79.65-1.79,1.54s.63,1.51,1.66,1.51c.76,0,1.41-.34,1.62-.84l.09.72h1.05ZM25.5,45.06c0,.75-.47,1.19-1.21,1.19-.54,0-.83-.22-.83-.66,0-.39.28-.64,1.03-.71l1.01-.08v.25ZM3.53,45.56l-2.31-5.71H0v7.17h1.22v-2.57c0-.89,0-1.57-.08-2l1.81,4.57h1.16l1.82-4.58c-.07.51-.07.93-.07,2.37v2.21h1.22v-7.17h-1.24l-2.32,5.71ZM3.53,57.32l-2.31-5.71H0v7.17h1.22v-2.57c0-.89,0-1.57-.08-2l1.81,4.57h1.16l1.82-4.58c-.07.51-.07.93-.07,2.37v2.21h1.22v-7.17h-1.24l-2.32,5.71ZM93.74,0v1.79h6.26V0h-6.26ZM12.37,17.37l-.57-.47h-.05l-3.79.49v1.73l1.29.41v7.84l-1.17.19v1.35h5.83v-1.35l-1.21-.2v-7.51c.13-.12.27-.23.44-.34.17-.11.35-.21.54-.3.19-.09.4-.16.61-.22.21-.05.43-.08.65-.08.34,0,.61.05.83.15.21.1.38.26.51.47.13.22.21.5.26.84s.07.75.07,1.24v5.74l-1.11.2v1.35h5.86v-1.35l-1.28-.2v-5.74c0-.36-.01-.7-.03-1.02-.02-.32-.06-.62-.1-.9.13-.09.27-.18.44-.28.17-.1.34-.18.52-.25.18-.07.37-.13.56-.18.19-.05.38-.07.57-.07.34,0,.63.05.85.15.22.1.4.26.53.48s.23.51.28.86c.05.35.08.78.08,1.28v5.67l-.98.2v1.35h5.75v-1.35l-1.31-.19v-5.76c0-.8-.06-1.5-.18-2.09-.12-.59-.32-1.07-.59-1.45-.27-.38-.63-.66-1.08-.85-.45-.18-1-.27-1.65-.27-.39,0-.79.04-1.18.13-.4.09-.77.2-1.13.35-.36.15-.69.32-1,.51-.31.19-.57.39-.8.6-.25-.54-.61-.94-1.08-1.2-.48-.26-1.11-.39-1.89-.39-.31,0-.66.04-1.05.13-.39.09-.79.2-1.18.35-.4.15-.77.32-1.13.52-.36.2-.66.42-.9.65v-.48s.01-.74.01-.74ZM12.99,44.51c0-1.51-.92-2.48-2.37-2.48s-2.41,1.05-2.41,2.57,1.01,2.55,2.45,2.55c1.27,0,2.15-.64,2.35-1.7h-1.11c-.14.46-.57.72-1.23.72-.79,0-1.25-.43-1.33-1.29h3.65v-.37ZM9.38,44.11c.12-.73.55-1.11,1.26-1.11s1.18.44,1.18,1.11h-2.43ZM24.19,52.43h-1.2v1.51h-.93v1h.93v3.84h1.2v-3.84h.94v-1h-.94v-1.51ZM75.5,57.93c-.8,0-1.25-.43-1.33-1.29h3.65v-.37c0-1.51-.92-2.48-2.37-2.48s-2.41,1.05-2.41,2.57,1.01,2.55,2.45,2.55c1.26,0,2.15-.64,2.35-1.7h-1.11c-.14.46-.57.72-1.23.72ZM75.45,54.77c.72,0,1.18.44,1.18,1.11h-2.43c.12-.73.55-1.11,1.26-1.11ZM84.44,51.62h-2.83v7.17h1.26v-2.47h1.58c1.43,0,2.37-.97,2.37-2.35s-.93-2.34-2.37-2.34ZM84.17,55.2h-1.31v-2.46h1.33c.83,0,1.3.43,1.3,1.22s-.46,1.25-1.32,1.25ZM64.2,22.11c.02-.33.04-.72.04-1.16-.03-1.28-.44-2.26-1.22-2.96-.78-.7-1.92-1.04-3.41-1.04-.88,0-1.67.14-2.39.41-.72.28-1.33.67-1.85,1.19-.51.52-.91,1.15-1.19,1.89-.28.74-.42,1.59-.42,2.54,0,.87.11,1.67.33,2.4.22.73.56,1.36,1.02,1.88.47.53,1.06.94,1.78,1.23.72.29,1.59.44,2.59.44.5,0,.98-.06,1.46-.17.48-.11.92-.25,1.33-.42.41-.17.77-.35,1.09-.56.31-.2.56-.4.72-.58l-.61-1.3c-.16.1-.36.2-.58.3-.23.1-.48.2-.75.29-.27.09-.55.16-.85.22-.29.06-.58.08-.86.08-.44,0-.84-.07-1.21-.22-.36-.15-.68-.37-.96-.68s-.49-.7-.66-1.18c-.17-.48-.27-1.05-.32-1.72h6.79c.06-.26.1-.55.12-.88ZM60.89,21.17c0,.16,0,.28,0,.38h-3.63c.01-.64.07-1.16.18-1.57s.25-.72.42-.95c.17-.23.38-.39.61-.47.24-.08.49-.13.76-.13.31,0,.58.06.79.18.21.12.38.28.51.49s.22.46.27.75c.05.29.08.61.08.95,0,.1,0,.22,0,.38ZM65.85,52.43h-1.2v1.51h-.93v1h.93v3.84h1.2v-3.84h.94v-1h-.94v-1.51ZM70.32,53.79c-.7,0-1.27.3-1.57.78v-3.08h-1.21v7.3h1.2v-2.65c0-.73.44-1.26,1.2-1.26.61,0,1.01.39,1.01,1.21v2.7h1.2v-2.98c0-1.26-.63-2.01-1.82-2.01ZM99.06,52.43h-1.2v1.51h-.93v1h.93v3.84h1.2v-3.84h.94v-1h-.94v-1.51ZM58.45,53.35v.59h-.7v1h.7v3.84h1.19v-3.84h1.16v-1h-1.16v-.59c0-.48.15-.8.75-.8h.42v-1.02c-.21-.04-.43-.05-.62-.05-1.05,0-1.75.55-1.75,1.86ZM95.27,56.02l-.87-.21c-.41-.1-.63-.27-.63-.55,0-.36.27-.58.75-.58s.74.26.75.68h1.14c-.01-.94-.75-1.57-1.83-1.57s-1.92.57-1.92,1.52c0,.77.42,1.19,1.29,1.38l.87.21c.43.1.56.27.56.52,0,.35-.3.58-.86.58s-.86-.26-.87-.69h-1.14c0,.95.77,1.6,1.97,1.6s2.03-.61,2.03-1.59c0-.75-.41-1.12-1.23-1.3ZM98.49,18.52c-.49-.51-1.08-.9-1.79-1.17s-1.51-.41-2.42-.41c-.79,0-1.55.13-2.27.38-.73.25-1.37.63-1.92,1.13-.56.5-1,1.13-1.33,1.9-.33.76-.49,1.65-.49,2.66,0,.92.13,1.74.39,2.47.26.73.63,1.35,1.12,1.86.49.51,1.08.9,1.79,1.17s1.51.41,2.42.41c.79,0,1.55-.12,2.28-.36.73-.24,1.37-.61,1.92-1.11s.99-1.12,1.32-1.89c.33-.76.49-1.66.49-2.71,0-.92-.13-1.74-.39-2.47-.26-.73-.63-1.35-1.12-1.86ZM95.77,26.38c-.35.69-.88,1.04-1.6,1.04-.39,0-.73-.1-1.01-.31-.28-.2-.51-.5-.69-.9s-.31-.88-.39-1.46-.13-1.24-.13-2c0-1.49.18-2.58.53-3.27.36-.69.9-1.04,1.63-1.04.4,0,.74.1,1.01.31.27.2.5.5.67.9s.3.88.38,1.46c.08.58.12,1.24.12,2,0,1.49-.17,2.58-.52,3.27ZM89.59,53.79c-1.31,0-2.18.69-2.18,1.74h1.02c0-.51.39-.8,1.1-.8.61,0,1,.27,1,.92v.11l-1.45.11c-1.15.09-1.79.65-1.79,1.54s.63,1.51,1.66,1.51c.75,0,1.41-.34,1.62-.84l.09.72h1.05v-2.94c0-1.34-.8-2.05-2.11-2.05ZM90.54,56.82c0,.75-.47,1.19-1.21,1.19-.54,0-.83-.22-.83-.66,0-.39.28-.64,1.03-.71l1.01-.08v.25ZM43.7,27.57v1.34h7.27v-1.33l-2.48-.21v-6.48c.21-.18.53-.34.95-.47.42-.14.91-.21,1.47-.21.39,0,.7.05.96.14s.49.24.73.43v-3.67c-.08-.05-.19-.09-.33-.12-.14-.03-.31-.05-.49-.05-.35,0-.68.05-.99.15-.31.1-.6.23-.86.39-.27.16-.51.34-.72.54-.22.2-.41.4-.57.6-.16.2-.29.4-.4.59-.1.19-.18.35-.22.48h-.05l.05-1.66v-.61l-.62-.46h-.05l-3.52.48v1.66l1.27.42v7.85l-1.39.19ZM35.53,58.79h1.2v-4.84h-1.2v4.84ZM36.13,51.53c-.41,0-.74.31-.74.72s.32.73.74.73.72-.32.72-.73-.32-.72-.72-.72ZM54.71,53.8c-1.5,0-2.59,1.04-2.59,2.55s1.09,2.55,2.59,2.55,2.59-1.04,2.59-2.55-1.09-2.55-2.59-2.55ZM54.71,57.83c-.82,0-1.39-.6-1.39-1.48s.57-1.48,1.39-1.48,1.39.6,1.39,1.48-.57,1.48-1.39,1.48ZM29.62,32.74v1.39h6.59v-1.39l-1.87-.28v-1.9l-.06-1.83c.16.05.37.09.64.14.27.04.52.06.78.06,1.04,0,1.95-.17,2.74-.52.79-.35,1.45-.81,1.99-1.39.53-.58.94-1.25,1.22-2.02.28-.76.41-1.57.41-2.4,0-1.01-.12-1.87-.37-2.58-.25-.72-.59-1.3-1.01-1.75-.42-.45-.92-.78-1.48-1s-1.16-.32-1.8-.32c-.39,0-.76.05-1.1.14-.34.09-.65.21-.94.36-.28.15-.54.31-.76.5-.22.18-.41.37-.56.55v-1.05l-.57-.43h-.05l-3.73.45v1.69l1.28.39v12.94l-1.35.27ZM34.34,19.66c.08-.1.19-.2.31-.3.12-.1.26-.19.41-.27.15-.08.31-.14.49-.19.18-.05.36-.08.55-.08.34,0,.66.08.94.24.29.16.54.4.75.73.21.33.37.75.49,1.27s.17,1.14.16,1.86c0,.85-.08,1.57-.23,2.15-.14.58-.34,1.06-.58,1.41-.24.36-.53.62-.85.77-.32.16-.66.24-1.02.24s-.64-.05-.9-.14-.43-.2-.53-.32v-7.38ZM28.14,53.8c-1.5,0-2.59,1.04-2.59,2.55s1.09,2.55,2.59,2.55,2.59-1.04,2.59-2.55-1.09-2.55-2.59-2.55ZM28.14,57.83c-.82,0-1.39-.6-1.39-1.48s.57-1.48,1.39-1.48,1.39.6,1.39,1.48-.57,1.48-1.39,1.48ZM32.87,54.66l-.07-.71h-1.13v4.84h1.2v-2.35c0-.94.54-1.4,1.4-1.4h.44v-1.11c-.2-.05-.36-.07-.53-.07-.65,0-1.11.32-1.31.8ZM40.72,53.79c-.66,0-1.25.28-1.55.78l-.1-.63h-1.11v4.84h1.2v-2.61c0-.78.45-1.29,1.19-1.29.62,0,1.02.39,1.02,1.21v2.7h1.2v-2.98c0-1.26-.63-2.01-1.84-2.01ZM47.35,54.61c-.28-.52-.85-.82-1.58-.82-1.38,0-2.3,1.06-2.3,2.47s.9,2.43,2.27,2.43c.7,0,1.29-.28,1.6-.74v.8c0,.8-.53,1.32-1.35,1.32-.74,0-1.22-.37-1.29-1h-1.2c.15,1.29,1.1,2.09,2.49,2.09,1.57,0,2.54-1.01,2.54-2.63v-4.6h-1.11l-.07.67ZM45.97,57.65c-.78,0-1.3-.61-1.3-1.42s.51-1.39,1.3-1.39c.83,0,1.33.57,1.33,1.39s-.51,1.42-1.33,1.42ZM69.57,18.68c.29-.23.73-.35,1.31-.35.4,0,.73.06.99.18.26.12.42.25.49.38l.55,1.47h1.89v-2.76c-.18-.03-.39-.08-.64-.15s-.53-.14-.85-.22c-.33-.07-.7-.14-1.11-.2-.42-.06-.89-.09-1.42-.09-.75,0-1.42.08-2.01.25-.59.17-1.09.4-1.5.69-.41.29-.72.64-.94,1.04-.22.4-.33.84-.33,1.3s.06.85.19,1.21c.13.36.31.69.55.98.24.29.54.55.9.78s.78.45,1.25.65c.48.21.93.41,1.34.59.41.18.76.35,1.06.53.29.18.52.36.69.56.16.2.25.42.25.68,0,.17-.03.34-.1.5-.06.16-.16.3-.31.42-.14.12-.32.22-.55.29-.23.07-.5.11-.83.11-.2,0-.41-.02-.61-.06-.2-.04-.39-.09-.56-.15-.17-.06-.32-.13-.45-.21-.13-.08-.21-.16-.26-.24l-.53-1.56h-2.02v2.74c.2.05.44.12.75.22.3.1.65.19,1.03.29.39.09.82.18,1.29.25.47.07.98.11,1.53.11.85,0,1.58-.09,2.2-.27.62-.18,1.13-.43,1.53-.74.4-.31.7-.68.9-1.1.2-.42.29-.87.29-1.35,0-.53-.1-.99-.32-1.38s-.49-.73-.82-1.02c-.34-.29-.73-.55-1.17-.77-.44-.22-.89-.43-1.35-.62-.35-.15-.69-.29-1.02-.42s-.62-.28-.88-.44c-.26-.16-.46-.33-.62-.53-.15-.2-.23-.43-.23-.71,0-.35.14-.65.43-.88ZM80.92,18.68c.29-.23.72-.35,1.31-.35.4,0,.73.06.99.18.26.12.42.25.49.38l.55,1.47h1.89v-2.76c-.18-.03-.39-.08-.64-.15s-.53-.14-.85-.22c-.33-.07-.7-.14-1.11-.2-.42-.06-.89-.09-1.42-.09-.75,0-1.42.08-2.01.25-.59.17-1.09.4-1.5.69-.41.29-.72.64-.94,1.04-.22.4-.33.84-.33,1.3s.06.85.19,1.21c.13.36.31.69.55.98.24.29.54.55.9.78.36.23.78.45,1.24.65.48.21.93.41,1.34.59s.76.35,1.06.53c.29.18.52.36.69.56.16.2.25.42.25.68,0,.17-.03.34-.09.5s-.16.3-.3.42c-.14.12-.32.22-.55.29-.23.07-.5.11-.82.11-.2,0-.41-.02-.61-.06-.2-.04-.39-.09-.56-.15-.17-.06-.32-.13-.45-.21-.13-.08-.21-.16-.26-.24l-.54-1.56h-2.02v2.74c.2.05.44.12.75.22.3.1.65.19,1.03.29.39.09.82.18,1.29.25.47.07.98.11,1.53.11.85,0,1.58-.09,2.2-.27.62-.18,1.13-.43,1.53-.74.4-.31.7-.68.9-1.1s.29-.87.29-1.35c0-.53-.1-.99-.31-1.38s-.49-.73-.83-1.02c-.34-.29-.73-.55-1.17-.77-.44-.22-.89-.43-1.35-.62-.35-.15-.69-.29-1.02-.42-.33-.13-.62-.28-.88-.44s-.46-.33-.61-.53c-.15-.2-.23-.43-.23-.71,0-.35.14-.65.43-.88Z" fill="var(--bs-dark)"/>
</svg>