<?xml version="1.0" encoding="UTF-8"?>
<svg id="Impresso_logo" xmlns="http://www.w3.org/2000/svg" viewBox="0 0 111.71 123.92">
  <path id="Black" style="fill: var(--bs-dark); stroke-width: 0px;" d="m54.45,31.4c3.79,0,7.27-1.35,9.99-3.59l3.93,3.93h0s.01.02.02.03c.59.59,1.54.59,2.12,0,.59-.59.59-1.54,0-2.12,0,0-.02-.02-.03-.02h0s-3.93-3.93-3.93-3.93c2.24-2.72,3.59-6.2,3.59-9.99,0-8.66-7.04-15.7-15.7-15.7s-15.7,7.04-15.7,15.7,7.04,15.7,15.7,15.7Zm0-29c7.33,0,13.3,5.97,13.3,13.3s-5.97,13.3-13.3,13.3-13.3-5.97-13.3-13.3,5.97-13.3,13.3-13.3Zm20.12,40.92c.27.33.61.62,1.01.88s.87.5,1.39.72c.54.24,1.04.46,1.5.66.46.2.85.4,1.18.59.33.2.58.41.77.63.18.22.28.47.28.76,0,.19-.04.38-.11.56-.07.18-.18.34-.34.47-.16.13-.36.24-.62.32-.25.08-.56.12-.92.12-.23,0-.45-.02-.68-.06-.23-.04-.44-.1-.63-.17-.19-.07-.36-.15-.5-.24-.14-.09-.24-.18-.29-.27l-.6-1.74h-2.25v3.06c.22.06.5.14.83.25.34.11.72.22,1.16.32.43.11.92.2,1.44.28.53.08,1.1.12,1.71.12.95,0,1.77-.1,2.45-.3.69-.2,1.26-.48,1.71-.83.45-.35.78-.76,1-1.23.22-.47.33-.97.33-1.5,0-.59-.12-1.1-.35-1.54s-.54-.82-.92-1.14c-.38-.33-.81-.61-1.3-.86-.49-.25-.99-.48-1.51-.7-.39-.16-.77-.32-1.14-.47s-.69-.31-.98-.49c-.29-.18-.52-.37-.69-.59-.17-.22-.26-.48-.26-.79,0-.4.16-.73.48-.99.32-.26.81-.39,1.47-.39.45,0,.81.07,1.1.2.29.13.47.27.55.42l.61,1.64h2.11v-3.08c-.2-.03-.44-.09-.71-.16s-.59-.16-.95-.24c-.36-.08-.78-.16-1.24-.22-.47-.07-1-.1-1.59-.1-.84,0-1.58.09-2.24.28-.66.19-1.21.44-1.67.77-.46.33-.81.71-1.05,1.16-.24.45-.36.93-.36,1.46s.07.95.21,1.36c.14.4.35.77.62,1.09Zm-57.27,5.74v1.51h6.55v-1.51l-1.43-.23v-6.41c0-.41-.01-.79-.04-1.14-.02-.35-.06-.69-.12-1,.14-.1.3-.2.49-.31.18-.11.38-.2.58-.28.2-.08.41-.15.63-.2.22-.05.43-.08.64-.08.38,0,.7.06.94.17.25.11.44.29.59.54s.25.57.31.96c.06.4.09.87.09,1.44v6.33l-1.09.23v1.51h6.42v-1.51l-1.47-.22v-6.43c0-.9-.07-1.68-.21-2.33-.14-.66-.36-1.2-.66-1.63-.31-.43-.71-.74-1.21-.94-.5-.2-1.12-.31-1.84-.31-.44,0-.88.05-1.32.14-.44.1-.86.23-1.26.39-.4.17-.77.36-1.12.57-.34.22-.64.44-.89.67-.27-.61-.68-1.06-1.21-1.34-.53-.29-1.24-.43-2.11-.43-.34,0-.74.05-1.17.14-.44.1-.88.23-1.32.39-.44.17-.87.36-1.27.58-.4.22-.74.46-1,.73v-.53s.01-.83.01-.83l-.63-.53h-.06l-4.24.55v1.93l1.44.45v8.76l-1.3.22v1.51h6.51v-1.51l-1.35-.23v-8.39c.14-.13.31-.26.49-.38.19-.12.39-.23.6-.33.21-.1.44-.18.68-.24.24-.06.48-.09.72-.09.38,0,.68.06.92.17.24.11.43.29.57.53.14.24.24.55.29.93s.08.84.08,1.39v6.41l-1.24.23Zm31.51.01v1.5h8.12v-1.49l-2.77-.23v-7.24c.23-.2.59-.37,1.06-.53.47-.15,1.02-.23,1.64-.23.43,0,.79.05,1.07.16s.55.27.81.48v-4.1c-.09-.06-.21-.1-.37-.14-.16-.04-.34-.05-.55-.05-.39,0-.76.05-1.1.16-.34.11-.67.25-.96.43-.3.18-.57.38-.81.6-.24.22-.45.45-.63.67-.18.23-.33.45-.45.66-.12.21-.2.39-.25.54h-.06l.06-1.85v-.68l-.69-.52h-.06l-3.93.54v1.85l1.42.47v8.77l-1.55.21Zm22.91-6.1c.03-.37.04-.8.04-1.3-.04-1.43-.5-2.53-1.37-3.3-.87-.78-2.14-1.17-3.81-1.17-.98,0-1.87.15-2.67.46-.8.31-1.49.75-2.07,1.33-.57.58-1.02,1.28-1.33,2.11-.31.83-.47,1.78-.47,2.83,0,.97.12,1.87.36,2.68.24.81.62,1.51,1.14,2.1.52.59,1.18,1.05,1.99,1.37.8.33,1.77.49,2.9.49.56,0,1.1-.06,1.63-.19.53-.12,1.03-.28,1.49-.47.46-.19.86-.4,1.21-.62.35-.23.62-.44.81-.65l-.68-1.46c-.18.11-.4.22-.65.34-.25.12-.53.23-.83.32-.3.1-.62.18-.94.24-.33.06-.65.09-.96.09-.49,0-.94-.08-1.35-.25-.41-.16-.76-.42-1.07-.76s-.55-.78-.74-1.32c-.19-.54-.31-1.18-.35-1.92h7.58c.06-.29.11-.62.14-.98Zm-3.7-1.05c0,.17,0,.31,0,.42h-4.05c.02-.72.08-1.3.2-1.75s.27-.81.47-1.06c.2-.26.42-.43.69-.53.26-.09.55-.14.85-.14.35,0,.65.06.89.2.24.13.43.31.57.55s.25.51.3.83c.06.32.09.68.09,1.06,0,.11,0,.25,0,.42Zm-27.58,12.92l-2.09-.31v-2.12l-.07-2.05c.18.05.42.11.72.15.3.05.59.07.87.07,1.16,0,2.18-.19,3.06-.58.88-.39,1.62-.9,2.22-1.55.6-.65,1.05-1.4,1.36-2.25.31-.85.46-1.75.46-2.69,0-1.12-.14-2.09-.42-2.89-.28-.8-.65-1.46-1.13-1.96-.47-.51-1.03-.88-1.66-1.11s-1.3-.35-2.01-.35c-.44,0-.85.05-1.23.15-.38.1-.73.23-1.04.4-.32.16-.6.35-.85.55-.25.21-.46.41-.63.61v-1.18l-.63-.48h-.06l-4.17.51v1.88l1.43.44v14.46l-1.51.3v1.55h7.36v-1.55Zm-2.09-14.6c.09-.11.21-.23.35-.34.14-.11.29-.21.46-.3.17-.09.35-.16.55-.21.2-.06.41-.08.62-.08.38,0,.73.09,1.06.26.32.17.6.45.83.82.24.37.42.84.55,1.42s.19,1.27.18,2.08c0,.95-.09,1.76-.25,2.41-.16.65-.38,1.18-.65,1.58-.27.4-.59.69-.95.87-.36.18-.74.26-1.14.26s-.72-.05-1.01-.16-.49-.23-.59-.36v-8.24ZM1.58,48.83l-1.57.23v1.57h6.9v-1.57l-1.5-.22v-11.37l-.73-.52h-.06l-4.62.59v1.8l1.58.48v9.01Zm1.87-14.71c1.34,0,2.42-1.09,2.42-2.42s-1.09-2.42-2.42-2.42-2.42,1.09-2.42,2.42,1.09,2.42,2.42,2.42Zm107.83,6.92c-.29-.82-.71-1.51-1.25-2.08-.54-.57-1.21-1.01-2-1.31s-1.69-.46-2.7-.46c-.88,0-1.73.14-2.54.42-.81.28-1.53.7-2.15,1.26-.62.56-1.12,1.27-1.48,2.12-.37.85-.55,1.84-.55,2.97,0,1.03.15,1.95.44,2.76.29.82.71,1.51,1.25,2.08.54.57,1.21,1.01,2,1.31s1.69.46,2.7.46c.88,0,1.73-.13,2.55-.4.81-.27,1.53-.68,2.15-1.24s1.11-1.26,1.48-2.11c.37-.85.55-1.86.55-3.03,0-1.03-.14-1.95-.43-2.76Zm-4.29,6.7c-.39.78-.98,1.16-1.79,1.16-.44,0-.81-.11-1.13-.34-.31-.23-.57-.56-.77-1s-.35-.98-.44-1.63-.14-1.39-.14-2.23c0-1.66.2-2.88.6-3.65.4-.78,1.01-1.16,1.82-1.16.45,0,.82.11,1.13.34.3.23.55.56.75,1s.34.98.42,1.63c.09.65.13,1.39.13,2.23,0,1.66-.19,2.88-.58,3.66Zm-11.2-3.71c-.38-.33-.81-.61-1.3-.86-.49-.25-.99-.48-1.51-.7-.39-.16-.77-.32-1.14-.47-.37-.15-.7-.31-.98-.49s-.51-.37-.69-.59c-.17-.22-.26-.48-.26-.79,0-.4.16-.73.48-.99.32-.26.81-.39,1.47-.39.45,0,.81.07,1.1.2.29.13.47.27.55.42l.61,1.64h2.11v-3.08c-.2-.03-.44-.09-.71-.16s-.59-.16-.95-.24c-.36-.08-.78-.16-1.24-.22-.46-.07-1-.1-1.59-.1-.84,0-1.58.09-2.24.28-.66.19-1.21.44-1.67.77-.46.33-.81.71-1.05,1.16-.24.45-.36.93-.36,1.46s.07.95.21,1.36c.14.4.35.77.62,1.09.27.33.61.62,1.01.88.4.26.87.5,1.39.72.54.24,1.04.46,1.5.66s.85.4,1.18.59c.33.2.59.41.77.63.18.22.28.47.28.76,0,.19-.04.38-.11.56s-.18.34-.34.47c-.16.13-.36.24-.62.32-.25.08-.56.12-.92.12-.23,0-.45-.02-.68-.06-.23-.04-.44-.1-.63-.17-.19-.07-.36-.15-.5-.24-.14-.09-.24-.18-.29-.27l-.6-1.74h-2.25v3.06c.22.06.5.14.83.25.34.11.72.22,1.16.32.43.11.92.2,1.44.28.53.08,1.1.12,1.71.12.95,0,1.76-.1,2.45-.3.69-.2,1.26-.48,1.71-.83.45-.35.79-.76,1-1.23s.33-.97.33-1.5c0-.59-.12-1.1-.35-1.54s-.54-.82-.92-1.14Zm-58.17,22.88c0-.4-.31-.88-.94-.88-.72,0-1.1.49-1.1.94,0,.58.59.94.99.94.72,0,1.04-.52,1.04-.99Zm26.79,55.65c-.07-.05-.11-.02-.18.07-.09.13-.34.27-.63.27-.32,0-.54-.32-.54-1.35v-3.82c0-.49-.02-.9-.4-1.28-.25-.23-.59-.49-1.44-.49s-1.44.18-2.2.63c-.74.43-1.24,1.12-1.24,1.69,0,.41.14.58.43.58.74,0,.96-.4.96-1.03,0-.32-.16-.59.09-.83.25-.23.81-.38,1.17-.38.52,0,.88.16,1.08.4.2.23.22.7.25,1.01v1.15c-.29.25-1.22.68-2.03,1.04-1.42.63-1.8,1.35-1.8,2.18,0,1.13.65,1.49,1.08,1.49.4,0,.72,0,1.06-.11.81-.27,1.41-.65,1.78-1.1h.04c.16.74.63,1.21,1.28,1.21.92,0,1.26-.61,1.4-.88.11-.18.07-.27.02-.32l-.18-.14Zm-2.67-.61c0,.49-.95,1.12-1.48,1.12s-.94-.32-.94-.99c0-1.5,1.76-1.85,2.41-2.34v2.21Zm-10.87-21.04c2.21,0,3.98-2,3.98-3.96,0-1.17-.41-2.11-1.22-2.93-.54-.54-1.53-1.04-2.52-1.04-.59,0-1.48.14-2.41.86-1.06.83-1.55,1.98-1.55,2.9,0,1.28.16,1.94.99,2.93.76.9,1.87,1.24,2.74,1.24Zm-1.3-6.82c.43-.47.9-.58,1.39-.58.92,0,2.38,1.26,2.38,3.26s-.88,3.6-2.25,3.6c-.85,0-1.37-.34-1.78-.94-.58-.83-.68-1.51-.68-2.52,0-1.37.25-2.11.95-2.83Zm6.3,17.71c-1.03-.7-1.98-.9-4.02-.9-.59,0-1.66.05-1.98.05-1.71,0-2.36-.05-2.56-.05-.09,0-.11.04-.11.13v.43c0,.11.02.14.11.14h1.03c.49,0,.67.04.7.4.02.18.04,2.14.04,3.33v2.07c0,2.09-.05,4.9-.07,5.08-.05.49-.18.58-.79.58h-.77c-.09,0-.11.04-.11.13v.45c0,.07.02.13.14.13.2,0,.9-.05,2.48-.05,1.69,0,2.25.05,2.5.05.14,0,.16-.05.16-.14v-.43c0-.07-.02-.13-.14-.13h-1.15c-.38,0-.56-.18-.59-.58-.02-.25-.04-2.7-.04-3.55v-.94c.58.07,1.3.09,1.96.09,2.86,0,4.57-1.41,4.57-3.67,0-1.03-.52-2.03-1.37-2.61Zm-.97,4.48c-.47.63-1.44,1.22-2.54,1.22-.7,0-1.3-.05-1.66-.16v-5.74c.36-.13,1.1-.13,1.41-.13,1.06,0,3.26.63,3.26,2.99,0,.63-.07,1.3-.47,1.82Zm-16.06-38.53c.13,0,.16-.05.16-.18v-.31c0-.11-.04-.16-.18-.16h-.83c-.2,0-.25-.13-.29-.47-.02-.2-.02-.85-.02-1.55v-1.96c0-1.49,0-2.63.04-2.94.02-.13,0-.22-.09-.22-.11,0-.2.04-.34.11-.68.38-1.37.67-1.94.88-.09.04-.13.07-.13.13v.16c0,.07.04.11.16.13.9.14,1.01.47,1.01,1.08v2.65c0,.54,0,1.1-.02,1.64-.02.29-.09.36-.29.36h-.88c-.13,0-.18.04-.18.14v.36c0,.11.05.14.14.14.2,0,.9-.05,1.94-.05.76,0,1.58.05,1.73.05Zm-5.72,21.94c-.02.32-.16.41-.36.41h-.52c-.18,0-.23.04-.23.16v.29c0,.14.04.2.14.2.13,0,.7-.05,1.62-.05,1.03,0,1.58.05,1.71.05.11,0,.14-.07.14-.2v-.29c0-.11-.04-.16-.2-.16h-.58c-.23,0-.4-.09-.4-.38v-4.64c0-.45-.45-1.35-.99-1.71-.43-.29-.99-.4-1.53-.4-.9,0-1.94.67-2.47,1.31h-.04l-.13-1.1c-.02-.14-.05-.22-.14-.22-.07,0-.18.05-.32.13l-1.55.86c-.09.04-.16.09-.16.18v.09c0,.05.02.11.14.16l.14.07c.45.22.74.52.74,1.06v4.21c0,.31-.13.36-.36.36h-.52c-.14,0-.18.05-.18.16v.32c0,.11.04.16.13.16.11,0,.68-.05,1.6-.05s1.44.05,1.57.05c.09,0,.13-.05.13-.16v-.31c0-.13-.04-.18-.18-.18h-.45c-.38,0-.43-.11-.43-.59v-3.73c0-.34.05-.83.41-1.22.54-.58,1.17-.7,1.46-.7.45,0,.88,0,1.31.32.52.38.52.9.52,1.62v2.38c0,.47-.02,1.04-.04,1.51Zm35.13,19.54c-.88-.25-1.73-.45-1.73-1.5,0-.77.7-1.19,1.39-1.19s1.04.36,1.26.7l.61.83c.05.09.09.11.16.09l.22-.07c.09-.04.13-.09.13-.16l-.27-1.26c-.02-.11-.05-.2-.32-.32-.32-.16-.79-.38-1.66-.38-1.35,0-2.52.96-2.52,2.2,0,1.42,1.06,1.98,2.12,2.29,1.35.38,1.75.85,1.75,1.66s-.79,1.22-1.42,1.22c-.96,0-1.21-.45-1.57-1.12l-.45-.88c-.04-.09-.09-.13-.16-.11l-.23.05c-.07.02-.13.05-.11.14l.31,1.71c.02.09.02.2.11.25.22.16.94.52,1.82.52,1.53,0,2.72-.92,2.74-2.38-.02-1.39-.85-1.93-2.16-2.3Zm8.48-3.04h-2.5l.09-1.78c0-.14-.04-.27-.18-.27-.11,0-.2.04-.25.18-.23.61-1.62,2.02-2.05,2.27-.22.13-.32.18-.32.32s.11.22.27.22h1.1c-.02.76-.04,1.96-.04,2.29v.4c0,.25-.05,1.84-.05,2.57,0,.68.86,1.53,1.75,1.53,1.08,0,1.82-.54,2-.72.05-.05.09-.13.04-.2l-.09-.16c-.05-.07-.13-.09-.22-.04-.25.16-.77.23-1.19.23-.32,0-.94-.23-.94-1.58v-1.8c0-.83.02-1.69.05-2.52h2.32c.11,0,.14-.05.16-.14l.18-.63c.04-.07-.02-.16-.13-.16Zm7.36-22.87c-.59,0-1.21.36-1.69.7-.18-.22-.9-1.04-2.27-1.04-2.03,0-3.08,1.44-3.08,2.61,0,1.6.97,2.43,1.67,2.74v.04c-.63.23-1.62.85-1.62,1.71,0,.54.45,1.1,1.21,1.26v.07c-.86.38-1.89,1.15-1.89,2.16,0,.59.27,1.06.92,1.46.86.49,1.89.58,2.75.58,1.53,0,2.61-.5,3.08-.85.9-.67,1.21-1.37,1.21-2.21-.02-.43-.11-1.15-.88-1.73-.72-.56-1.62-.72-3.1-.65-1.21.07-2.11.13-2.11-.61,0-.5.59-.86.95-1.01.27.07.52.09.92.09.59,0,1.62-.38,2.09-.9.47-.56.67-1.24.67-1.94,0-.61-.13-1.01-.27-1.37.23-.11.45-.11.58-.11.14,0,.27.09.38.16.14.13.32.27.63.27.41,0,.7-.32.7-.67.04-.36-.25-.76-.85-.76Zm-5.15,8.23l1.73-.13c1.8-.13,2.61.68,2.61,1.75.09,1.39-1.89,1.85-2.56,1.85-1.28,0-1.93-.09-2.52-.5-.36-.25-.7-.79-.7-1.24,0-.97.88-1.58,1.44-1.73Zm1.04-3.42c-.43,0-.76-.14-1.08-.45-.38-.4-.58-.95-.58-1.57,0-.68.07-1.51.65-2.12.43-.43.86-.5,1.28-.5.27,0,.63.16.86.4.32.36.49.83.49,1.62,0,1.13-.4,2.63-1.62,2.63Zm-9.45,1.98h-.45c-.38,0-.43-.11-.43-.59v-3.73c0-.34.05-.83.41-1.22.54-.58,1.17-.7,1.46-.7.45,0,.88,0,1.31.32.52.38.52.9.52,1.62v2.38c0,.47-.02,1.04-.04,1.51-.02.32-.16.41-.36.41h-.52c-.18,0-.23.04-.23.16v.29c0,.14.04.2.14.2.13,0,.7-.05,1.62-.05,1.03,0,1.58.05,1.71.05.11,0,.14-.07.14-.2v-.29c0-.11-.04-.16-.2-.16h-.58c-.23,0-.4-.09-.4-.38v-4.64c0-.45-.45-1.35-.99-1.71-.43-.29-.99-.4-1.53-.4-.9,0-1.95.67-2.47,1.31h-.04l-.13-1.1c-.02-.14-.05-.22-.14-.22-.07,0-.18.05-.32.13l-1.55.86c-.09.04-.16.09-.16.18v.09c0,.05.02.11.14.16l.14.07c.45.22.74.52.74,1.06v4.21c0,.31-.13.36-.36.36h-.52c-.14,0-.18.05-.18.16v.32c0,.11.04.16.13.16.11,0,.68-.05,1.6-.05s1.44.05,1.57.05c.09,0,.13-.05.13-.16v-.31c0-.13-.04-.18-.18-.18Zm-6.93-.36c-.02.29-.09.36-.29.36h-.88c-.13,0-.18.04-.18.14v.36c0,.11.05.14.14.14.2,0,.9-.05,1.94-.05.76,0,1.58.05,1.73.05.13,0,.16-.05.16-.18v-.31c0-.11-.04-.16-.18-.16h-.83c-.2,0-.25-.13-.29-.47-.02-.2-.02-.85-.02-1.55v-1.96c0-1.49,0-2.63.04-2.93.02-.13,0-.22-.09-.22-.11,0-.2.04-.34.11-.68.38-1.37.67-1.95.88-.09.04-.13.07-.13.13v.16c0,.07.04.11.16.13.9.14,1.01.47,1.01,1.08v2.65c0,.54,0,1.1-.02,1.64Zm1.24-9.83c0-.4-.31-.88-.94-.88-.72,0-1.1.49-1.1.94,0,.58.59.94.99.94.72,0,1.04-.52,1.04-.99Zm-6.16,5.1c.31-.58.77-.76,1.06-.76.23,0,.45.05.59.14.14.07.32.14.52.14.32,0,.76-.36.76-.88,0-.41-.31-.79-.92-.79-.77,0-1.62.74-2.16,1.57h-.07l-.09-1.24c0-.11-.02-.22-.13-.22-.07,0-.14.02-.25.07l-1.78.92c-.11.05-.14.09-.14.16v.11c0,.07.04.09.14.13l.34.18c.5.27.65.45.65,1.37v1.69c0,.94,0,1.57-.02,2.16,0,.23-.13.34-.4.34h-.7c-.16,0-.2.04-.2.16v.31c0,.14.04.18.11.18.11,0,.86-.05,1.98-.05.97,0,1.8.05,1.91.05.07,0,.09-.05.09-.16v-.32c0-.11-.02-.16-.13-.16h-.85c-.38,0-.5-.18-.5-.74v-3.78c0-.05.07-.38.18-.58Zm-20.61-5.98c-.72,0-1.1.49-1.1.94,0,.58.59.94.99.94.72,0,1.04-.52,1.04-.99,0-.4-.31-.88-.94-.88Zm-21.25,11.02h-1.06c-.45,0-.61-.29-.61-.97,0-.36-.05-3.28-.05-4.18v-1.26c0-1.21.05-3.78.05-4.3,0-.41.05-.74.59-.74h.79c.13,0,.14-.05.14-.16v-.41c0-.07-.02-.13-.11-.13-.2,0-.81.05-3.2.05-.18,0-.38.02-.42.22-.05.36-2.02,4.59-2.14,4.84-.14.23-1.94,4.54-2.2,4.81l-4-9.62c-.09-.23-.2-.31-.47-.31-.22,0-.68.05-1.53.05-1.53,0-2.02-.05-2.2-.05-.11,0-.13.05-.13.11v.47c0,.07.02.13.13.13h1.1c.74,0,.72.25.74.67.02.52.02,3.24.02,3.49,0,.32-.05,4.93-.27,6.21-.11.61-.27,1.08-.95,1.08H.11c-.09,0-.11.05-.11.11v.43c0,.14.02.16.16.16.16,0,.79-.05,2.32-.05s1.98.05,2.18.05c.14,0,.16-.05.16-.13v-.45c0-.07-.02-.13-.13-.13h-.9c-.58,0-.74-.29-.83-1.31-.05-.63-.04-4.43-.04-4.65s.04-4.77.11-5.02c.25.22,1.89,4.25,2.23,5.08.09.22,2.39,5.91,2.45,6.03.07.18.16.32.27.32.14,0,.29-.27.36-.43.07-.16,2.07-4.75,2.18-4.97.09-.18,2.65-5.85,2.83-6.09h.04c.05.16.05,3.37.05,4.56v1.15c0,1.33-.02,4.46-.04,4.68-.04.54-.2.65-.5.65h-1.22c-.13,0-.14.04-.14.13v.41c0,.11.02.16.14.16.23,0,.94-.05,2.59-.05,1.98,0,2.3.05,2.52.05.14,0,.16-.05.16-.16v-.41c0-.07-.02-.13-.13-.13Zm-12.39,15.92c-.59,0-1.48.14-2.41.86-1.06.83-1.55,1.98-1.55,2.9,0,1.28.16,1.94.99,2.93.76.9,1.87,1.24,2.74,1.24,2.21,0,3.98-2,3.98-3.96,0-1.17-.42-2.11-1.22-2.93-.54-.54-1.53-1.04-2.52-1.04Zm-.02,7.4c-.85,0-1.37-.34-1.78-.94-.58-.83-.68-1.51-.68-2.52,0-1.37.25-2.11.95-2.83.43-.47.9-.58,1.39-.58.92,0,2.38,1.26,2.38,3.26s-.88,3.6-2.25,3.6Zm10.48-12.69c-1.01,0-2,.38-2.95,1.42-.7.79-1.21,1.96-1.21,3.75v.34h-1.04c-.14,0-.2.02-.22.13l-.07.54c-.04.16,0,.2.09.2h1.24v5.42c-.02.41-.09.63-.43.63h-.86c-.14,0-.18.04-.18.13v.4c0,.09.04.13.14.13.14,0,1.06-.05,2.05-.05,1.39,0,2.05.05,2.16.05.09,0,.13-.07.13-.22v-.29c0-.11-.04-.14-.2-.14h-1.03c-.38,0-.43-.16-.47-.47-.02-.2-.02-1.85-.02-3.98v-1.6h1.98c.14,0,.22-.02.23-.09l.09-.59c.02-.07,0-.18-.13-.18h-2.18v-.36c0-1.26-.04-2.83.63-3.67.4-.5.88-.63,1.35-.63.34,0,.59.13.83.41.07.09.27.32.43.41.14.07.32.11.5.11.29,0,.76-.34.76-.77,0-.68-.79-1.01-1.64-1.01Zm1.93-33.63h-1.06c-.45,0-.61-.29-.61-.97,0-.36-.05-3.28-.05-4.18v-1.26c0-1.21.05-3.78.05-4.3,0-.41.05-.74.59-.74h.79c.13,0,.14-.05.14-.16v-.41c0-.07-.02-.13-.11-.13-.2,0-.81.05-3.2.05-.18,0-.38.02-.42.22-.05.36-2.02,4.59-2.14,4.84-.14.23-1.94,4.54-2.2,4.81l-4-9.61c-.09-.23-.2-.31-.47-.31-.22,0-.68.05-1.53.05-1.53,0-2.02-.05-2.2-.05-.11,0-.13.05-.13.11v.47c0,.07.02.13.13.13h1.1c.74,0,.72.25.74.67.02.52.02,3.24.02,3.49,0,.32-.05,4.93-.27,6.21-.11.61-.27,1.08-.95,1.08H.11c-.09,0-.11.05-.11.11v.43c0,.14.02.16.16.16.16,0,.79-.05,2.32-.05s1.98.05,2.18.05c.14,0,.16-.05.16-.13v-.45c0-.07-.02-.13-.13-.13h-.9c-.58,0-.74-.29-.83-1.31-.05-.63-.04-4.43-.04-4.65s.04-4.77.11-5.02c.25.22,1.89,4.25,2.23,5.08.09.22,2.39,5.91,2.45,6.03.07.18.16.32.27.32.14,0,.29-.27.36-.43.07-.16,2.07-4.75,2.18-4.97.09-.18,2.65-5.85,2.83-6.09h.04c.05.16.05,3.37.05,4.56v1.15c0,1.33-.02,4.46-.04,4.68-.04.54-.2.65-.5.65h-1.22c-.13,0-.14.04-.14.13v.41c0,.11.02.16.14.16.23,0,.94-.05,2.59-.05,1.98,0,2.3.05,2.52.05.14,0,.16-.05.16-.16v-.41c0-.07-.02-.13-.13-.13Zm7.2-4.14c.29,0,.5-.04.5-.29,0-.7-.58-2.65-2.65-2.65-.9,0-1.8.16-2.57.95-.95.95-1.13,2.16-1.13,2.86,0,1.26.16,1.93.79,2.84.67.97,1.8,1.28,2.83,1.28,1.6,0,2.54-1.24,2.86-1.96.09-.2.05-.25,0-.27l-.23-.13c-.05-.02-.13.02-.16.09-.31.59-1.08,1.22-2.18,1.22-1.44,0-2.56-1.33-2.56-3.1,0-.41.02-.7.05-.86h4.45Zm-2.48-2.39c1.17,0,1.39,1.19,1.39,1.6,0,.16-.14.25-.49.25h-2.79c.34-1.33,1.1-1.85,1.89-1.85Zm4.3,26.44c0-1.17-.42-2.11-1.22-2.93-.54-.54-1.53-1.04-2.52-1.04-.59,0-1.48.14-2.41.86-1.06.83-1.55,1.98-1.55,2.9,0,1.28.16,1.94.99,2.93.76.9,1.87,1.24,2.74,1.24,2.21,0,3.98-2,3.98-3.96Zm-5.55,2.48c-.58-.83-.68-1.51-.68-2.52,0-1.37.25-2.11.95-2.83.43-.47.9-.58,1.39-.58.92,0,2.38,1.26,2.38,3.26s-.88,3.6-2.25,3.6c-.85,0-1.37-.34-1.78-.94Zm4.3,16.75h-2.5l.09-1.78c0-.14-.04-.27-.18-.27-.11,0-.2.04-.25.18-.23.61-1.62,2.02-2.05,2.27-.22.13-.32.18-.32.32s.11.22.27.22h1.1c-.02.76-.04,1.96-.04,2.29v.4c0,.25-.05,1.84-.05,2.57,0,.68.86,1.53,1.75,1.53,1.08,0,1.82-.54,2-.72.05-.05.09-.13.04-.2l-.09-.16c-.05-.07-.13-.09-.22-.04-.25.16-.77.23-1.19.23-.32,0-.94-.23-.94-1.58v-1.8c0-.83.02-1.69.05-2.52h2.32c.11,0,.14-.05.16-.14l.18-.63c.04-.07-.02-.16-.13-.16Zm9.29,6.91h-.31c-.38,0-.67-.05-.67-.27,0-.34-.04-1.46-.04-2.47v-1.03c0-.97.04-1.89-.77-2.65-.5-.49-1.03-.72-1.78-.72s-1.84.41-2.47,1.17h-.09v-1.15c0-.9.02-4.56.05-4.86.04-.31-.04-.45-.14-.45-.14,0-.27.07-.41.14l-1.87.99c-.16.09-.22.11-.22.18v.16c0,.05.02.07.13.11l.31.11c.65.22.86.41.86,1.51v5.44c0,1.17,0,3.15-.05,3.49-.04.22-.31.29-.59.29h-.38c-.2,0-.27.02-.27.14v.32c0,.13.05.18.13.18.16,0,.85-.05,1.75-.05.83,0,1.57.05,1.71.05.11,0,.14-.07.14-.2v-.31c0-.11-.07-.14-.2-.14h-.54c-.34,0-.4-.16-.4-.74v-3.93c0-.32.2-.68.36-.88.5-.58,1.15-.76,1.67-.76.45,0,.83.16,1.19.5.52.49.59,1.21.59,2.21v1.46c0,.58.02,1.53,0,1.78-.02.31-.38.34-.68.34h-.41c-.11,0-.13.05-.13.14v.31c0,.14.04.2.16.2.16,0,.81-.05,1.69-.05,1.03,0,1.6.05,1.73.05.11,0,.14-.07.14-.22v-.27c0-.13-.05-.16-.2-.16Zm-3.44-57.87v.31c0,.07.02.11.13.13,1.01.16,1.13.38,1.13,1.06v3.51c-.54-.16-1.19-.27-1.93-.27-1.01,0-1.98.38-2.68,1.13-.85.85-1.26,1.94-1.26,3.06,0,1.21.22,2.02,1.13,2.92.85.86,1.53.83,2.12.83.92,0,2.07-.4,2.65-.97l.23.79c.04.13.13.18.23.14l2.03-.68c.11-.04.14-.09.13-.2l-.04-.14c-.04-.09-.11-.11-.36-.13s-.63-.13-.79-.31c-.14-.18-.18-.97-.18-1.64v-3.98c0-2.29.02-4.9.07-5.8.02-.2,0-.32-.09-.32-.13,0-.25.04-.41.05-.34.07-1.28.23-1.98.38-.11.02-.14.05-.14.13Zm1.26,10.3c0,.2-.02.34-.11.61-.18.47-.95.99-1.96.99s-2.45-1.48-2.45-3.51c0-.68.13-1.64.83-2.39.47-.49,1.08-.65,1.64-.65,1.06,0,1.64.49,1.89.97.16.29.16.63.16.88v3.1Zm4.86,25.21c.2,0,.9-.05,1.94-.05.76,0,1.58.05,1.73.05.13,0,.16-.05.16-.18v-.31c0-.11-.04-.16-.18-.16h-.83c-.2,0-.25-.13-.29-.47-.02-.2-.02-.85-.02-1.55v-1.96c0-1.49,0-2.63.04-2.93.02-.13,0-.22-.09-.22-.11,0-.2.04-.34.11-.68.38-1.37.67-1.94.88-.09.04-.13.07-.13.13v.16c0,.07.04.11.16.13.9.14,1.01.47,1.01,1.08v2.65c0,.54,0,1.1-.02,1.64-.02.29-.09.36-.29.36h-.88c-.13,0-.18.04-.18.14v.36c0,.11.05.14.14.14Zm10.19-24.19c-.07-.05-.11-.02-.18.07-.09.13-.34.27-.63.27-.32,0-.54-.32-.54-1.35v-3.82c0-.49-.02-.9-.4-1.28-.25-.23-.59-.49-1.44-.49s-1.44.18-2.2.63c-.74.43-1.24,1.12-1.24,1.69,0,.41.14.58.43.58.74,0,.95-.4.95-1.03,0-.32-.16-.59.09-.83.25-.23.81-.38,1.17-.38.52,0,.88.16,1.08.4.2.23.22.7.25,1.01v1.15c-.29.25-1.22.68-2.04,1.04-1.42.63-1.8,1.35-1.8,2.18,0,1.13.65,1.49,1.08,1.49.4,0,.72,0,1.06-.11.81-.27,1.4-.65,1.78-1.1h.04c.16.74.63,1.21,1.28,1.21.92,0,1.26-.61,1.4-.88.11-.18.07-.27.02-.32l-.18-.14Zm-2.67-.61c0,.49-.95,1.12-1.48,1.12s-.94-.32-.94-.99c0-1.49,1.76-1.85,2.41-2.34v2.21Zm-2.77,45.6c-.05-.02-.13.02-.16.09-.31.59-1.08,1.22-2.18,1.22-1.44,0-2.56-1.33-2.56-3.1,0-.41.02-.7.05-.86h4.45c.29,0,.5-.04.5-.29,0-.7-.58-2.65-2.65-2.65-.9,0-1.8.16-2.57.96-.95.95-1.13,2.16-1.13,2.86,0,1.26.16,1.93.79,2.84.67.97,1.8,1.28,2.83,1.28,1.6,0,2.54-1.24,2.86-1.96.09-.2.05-.25,0-.27l-.23-.13Zm-2.88-5.04c1.17,0,1.39,1.19,1.39,1.6,0,.16-.14.25-.49.25h-2.79c.34-1.33,1.1-1.85,1.89-1.85Zm7.96-23.32h-2.5l.09-1.78c0-.14-.04-.27-.18-.27-.11,0-.2.04-.25.18-.23.61-1.62,2.02-2.05,2.27-.22.13-.32.18-.32.32s.11.22.27.22h1.1c-.02.76-.04,1.96-.04,2.29v.4c0,.25-.05,1.84-.05,2.57,0,.68.86,1.53,1.75,1.53,1.08,0,1.82-.54,2-.72.05-.05.09-.13.04-.2l-.09-.16c-.05-.07-.13-.09-.22-.04-.25.16-.77.23-1.19.23-.32,0-.94-.23-.94-1.58v-1.8c0-.83.02-1.69.05-2.52h2.32c.11,0,.14-.05.16-.14l.18-.63c.04-.07-.02-.16-.13-.16Z" style="stroke-width: 0px;"/>
  <path id="Yellow" d="m52.45,11.7v8h13.51c.44-1.26.69-2.6.69-4s-.25-2.74-.69-4h-13.51Zm18.67,2c.08.66.13,1.32.13,2s-.05,1.34-.13,2h40.59v-4h-40.59Z" style="fill: var(--bs-primary); stroke-width: 0px;"/>
  <path id="Gray" d="m16.95,14.7H0v2h16.95v-2ZM0,22.7v2h40.29c-.41-.64-.77-1.31-1.09-2H0Zm31.95-14h7.25c.32-.69.68-1.36,1.09-2h-8.34v2Zm69.5-2h-18v2h18v-2Zm-74.5,0H0v2h26.95v-2Zm51.5,2v-2h-9.84c.41.64.77,1.31,1.09,2h8.75Zm-56.5,6v2h15.75c-.02-.33-.05-.66-.05-1s.03-.67.05-1h-15.75Zm72.5,10h17.26v-2h-17.26v2Zm-25.84,0h20.84v-2h-19.75c-.32.69-.68,1.36-1.09,2ZM106.45,6.7v2h5.26v-2h-5.26Zm-44,18.19c1.04-.91,1.93-1.98,2.61-3.19h-2.61v3.19Zm-15-11.19h-5.02c-.11.65-.18,1.32-.18,2s.07,1.35.18,2h5.02v-4Zm.03,12h4.97v-4h-8.61c.9,1.59,2.15,2.96,3.64,4Zm-3.64-16h15.61v-4h-11.97c-1.49,1.04-2.74,2.41-3.64,4Z" style="fill: var(--bs-gray); stroke-width: 0px;"/>
</svg>