<svg width="200" height="31" viewBox="0 0 200 31" fill="none" xmlns="http://www.w3.org/2000/svg">
<g clip-path="url(#clip0_36_1000)">
<path d="M6.25525 8.00543H0.0753174V29.5033H6.25525V8.00543Z" fill="var(--bs-dark)"/>
<path d="M6.33066 0.563171H0V5.49958H6.33066V0.563171Z" fill="var(--bs-dark)"/>
<path d="M25.53 7.51556C22.6849 7.51556 20.5747 8.36342 19.35 10.0968H19.2747V8.00544H13.0947V29.5033H19.2747V16.2014C19.2747 13.9216 20.5559 12.6215 22.5342 12.6215C24.6067 12.6215 25.7749 13.6767 25.7749 15.4289V29.5222L31.9548 29.4845V14.6564C31.9548 10.191 30.4098 7.51556 25.53 7.51556Z" fill="var(--bs-dark)"/>
<path d="M45.9539 7.23295C45.9539 5.40534 46.9336 4.80242 50.0424 5.0662V0.355886C41.1305 -1.1891 39.7739 2.52263 39.7739 7.1199V8.58952H36.4579V13.394H39.7739V29.4845H45.9539V13.394H50.2497V8.58952H45.9539V7.23295Z" fill="var(--bs-dark)"/>
<path d="M64.6443 7.42139C57.1644 7.42139 53.1888 12.339 53.1888 18.8392C53.1888 25.3017 57.1644 30.1251 64.6443 30.1251C72.1243 30.1251 76.0998 25.2075 76.0998 18.745C76.0998 12.2636 72.1243 7.42139 64.6443 7.42139ZM64.6066 25.1699C61.1775 25.1699 59.5007 22.4002 59.5007 18.8015C59.5007 15.1463 61.1775 12.3766 64.7009 12.3766C68.13 12.3766 69.8068 15.1463 69.8068 18.8015C69.788 22.419 68.13 25.1699 64.6066 25.1699Z" fill="var(--bs-dark)"/>
<path d="M130.118 7.42139C122.638 7.42139 118.662 12.339 118.662 18.8392C118.662 25.3017 122.638 30.1251 130.118 30.1251C137.598 30.1251 141.573 25.2075 141.573 18.745C141.554 12.2636 137.579 7.42139 130.118 7.42139ZM130.061 25.1699C126.632 25.1699 124.955 22.4002 124.955 18.8015C124.955 15.1463 126.632 12.3766 130.155 12.3766C133.585 12.3766 135.261 15.1463 135.261 18.8015C135.261 22.419 133.585 25.1699 130.061 25.1699Z" fill="var(--bs-dark)"/>
<path d="M100.349 0.412415H94.1686V29.4845H100.349V0.412415Z" fill="var(--bs-dark)"/>
<path d="M81.1117 25.1699C78.2101 25.1699 76.3448 22.419 76.3448 18.8015C76.3448 15.184 77.9652 12.2636 80.8667 12.2636C82.8074 12.2636 84.2958 13.6013 85.0683 15.2782L89.7033 12.6216C88.0453 10.078 85.0872 7.47791 80.6218 7.47791C73.7071 7.47791 69.9011 12.2259 69.9011 18.7261C69.9011 18.745 69.9011 18.7827 69.9011 18.8015C69.9011 18.8203 69.9011 18.858 69.9011 18.8769C69.9011 25.3771 73.7071 30.1251 80.6218 30.1251C85.351 30.1251 88.3844 27.2047 89.9859 24.5292L85.2379 21.9292C84.3712 23.9075 83.1842 25.1699 81.1117 25.1699Z" fill="var(--bs-dark)"/>
<path d="M113.311 8.00543H107.131V29.5033H113.311V8.00543Z" fill="var(--bs-dark)"/>
<path d="M113.311 0.412415H107.131V5.40535H113.311V0.412415Z" fill="var(--bs-dark)"/>
<path d="M193.575 7.51561C190.73 7.51561 188.62 8.36347 187.395 10.0969H187.32V0.393616H181.14V29.4845H187.32V16.2014C187.32 13.9216 188.601 12.6216 190.579 12.6216C192.652 12.6216 193.82 13.6767 193.82 15.4289V29.5222L200 29.4845V14.6565C200 10.1911 198.455 7.51561 193.575 7.51561Z" fill="var(--bs-dark)"/>
<path d="M167.97 25.1698C165.068 25.1698 163.203 22.419 163.203 18.8015C163.203 15.184 164.823 12.2636 167.725 12.2636C169.666 12.2636 171.154 13.6013 171.927 15.2782L176.543 12.6027C174.885 10.0591 171.927 7.45905 167.461 7.45905C160.546 7.45905 156.74 12.207 156.74 18.7073C156.74 18.7261 156.74 18.7638 156.74 18.7826C156.74 18.8015 156.74 18.8392 156.74 18.858C156.74 25.3582 160.546 30.1062 167.461 30.1062C172.19 30.1062 175.224 27.1859 176.825 24.5104L172.077 21.9103C171.229 23.9075 170.042 25.1698 167.97 25.1698Z" fill="var(--bs-dark)"/>
<path d="M152.35 22.6263H145.982V29.4845H152.35V22.6263Z" fill="var(--bs-dark)"/>
</g>
<defs>
<clipPath id="clip0_36_1000">
<rect width="200" height="30.1251" fill="white"/>
</clipPath>
</defs>
</svg>
