<svg width="var(--footer-logo-size)" height="43px" viewBox="0 0 146 43" version="1.1" xmlns="http://www.w3.org/2000/svg" xmlns:xlink="http://www.w3.org/1999/xlink">
  <title>kb-logo</title>
  <g class="kb-logo" transform="translate(-168.000000, -97.000000)">
    <g transform="translate(168.000000, 97.000000)">
      <path d="M46.4197081,17.1902829 C46.7080739,17.1902829 46.9631471,17.0463561 47.0850496,16.8466 C47.1961959,16.6581122 47.2294886,16.5029171 47.2294886,16.1039171 L47.2294886,10.4036976 C47.2294886,8.48501463 48.29383,7.49852683 49.9569276,7.49852683 C51.6205374,7.49852683 52.6295617,8.46299024 52.6295617,10.4036976 L52.6295617,16.1039171 C52.6295617,16.5029171 52.6628544,16.6581122 52.7740008,16.8466 C52.8846349,17.0463561 53.1509764,17.1902829 53.43883,17.1902829 C53.7277081,17.1902829 53.9822691,17.0463561 54.1041715,16.8466 C54.2153178,16.6581122 54.2486105,16.5029171 54.2486105,16.1039171 L54.2486105,10.1266 C54.2486105,8.86250244 53.8936593,7.83094146 53.1171715,7.07699024 C52.4410739,6.41164878 51.4760983,6.05669756 50.2898544,6.05669756 C49.0810739,6.05669756 48.0167325,6.51152683 47.2294886,7.38738049 L47.2294886,7.18813659 C47.2294886,6.79989268 47.206952,6.64469756 47.0850496,6.44494146 C46.9631471,6.24518537 46.71883,6.10125854 46.4197081,6.10125854 C46.1205861,6.10125854 45.8762691,6.24518537 45.7543666,6.44494146 C45.6324642,6.64469756 45.6104398,6.79989268 45.6104398,7.18813659 L45.6104398,16.1039171 C45.6104398,16.5029171 45.6437325,16.6581122 45.7543666,16.8466 C45.8762691,17.0463561 46.1313422,17.1902829 46.4197081,17.1902829" fill="var(--bs-dark)"></path>
      <path d="M63.1651081,15.1278268 C62.4884983,15.7819 61.6679617,15.871022 60.7588154,15.871022 C59.0624252,15.871022 58.2413764,15.238461 58.2413764,13.9969 C58.2413764,12.7435585 59.0404008,12.067461 60.6036203,12.067461 L63.7305715,12.067461 L63.7305715,13.2311683 C63.7305715,14.1633634 63.5420837,14.7616073 63.1651081,15.1278268 L63.1651081,15.1278268 Z M63.7193032,16.1040707 C63.7193032,16.4918024 63.7418398,16.6469976 63.8637422,16.8467537 C63.9856447,17.0459976 64.2294496,17.1904366 64.5290837,17.1904366 C64.8287178,17.1904366 65.0725227,17.0459976 65.1944252,16.8467537 C65.3163276,16.6469976 65.338352,16.4918024 65.338352,16.1040707 L65.338352,9.70521707 C65.338352,7.32094878 63.8744983,6.05685122 61.0584496,6.05685122 C59.8937178,6.05685122 59.0404008,6.26736341 58.2526447,6.76624146 C57.6093276,7.18777805 57.2103276,7.58677805 57.2103276,7.98629024 C57.2103276,8.21933902 57.2876691,8.35250976 57.4095715,8.49643659 C57.5319861,8.62909512 57.7204739,8.69619268 57.8976935,8.69619268 C58.0754252,8.69619268 58.3299861,8.62909512 58.5743032,8.40782683 C59.30623,7.74248537 59.9270105,7.44285122 61.0471813,7.44285122 C62.9545959,7.44285122 63.7305715,8.29668049 63.7305715,9.96029024 L63.7305715,10.8474122 L60.4258886,10.8474122 C58.0528886,10.8474122 56.6556203,12.0894854 56.6556203,14.0081683 C56.6556203,14.8952902 56.9665227,15.6932902 57.4874252,16.2367293 C58.1753032,16.9353634 59.0844496,17.2349976 60.592352,17.2349976 C62.0008886,17.2349976 62.8321813,16.9466317 63.7193032,16.0815341 L63.7193032,16.1040707 Z" fill="var(--bs-dark)"></path>
      <path d="M72.0749983,7.4317878 C72.3746325,7.4317878 72.5298276,7.40976341 72.6624861,7.32064146 C72.8514861,7.21000732 72.9288276,7.0327878 72.9288276,6.81100732 C72.9288276,6.58922683 72.8514861,6.41149512 72.6624861,6.30086098 C72.5298276,6.21173902 72.3746325,6.18971463 72.0749983,6.18971463 L70.4672178,6.18971463 L70.4672178,3.85000732 C70.4672178,3.46176341 70.4446813,3.30656829 70.323291,3.1068122 C70.2008764,2.9070561 69.9570715,2.76312927 69.6579496,2.76312927 C69.3583154,2.76312927 69.1145105,2.9070561 68.9926081,3.1068122 C68.8707056,3.30656829 68.8481691,3.46176341 68.8481691,3.85000732 L68.8481691,6.18971463 L68.0829496,6.18971463 C67.7838276,6.18971463 67.6281203,6.21173902 67.4954617,6.30086098 C67.3069739,6.41149512 67.2291203,6.58922683 67.2291203,6.81100732 C67.2291203,7.0327878 67.3069739,7.21000732 67.4954617,7.32064146 C67.6281203,7.40976341 67.7838276,7.4317878 68.0829496,7.4317878 L68.8481691,7.4317878 L68.8481691,14.1743244 C68.8481691,15.792861 69.7685837,17.1015195 71.6206813,17.1015195 L71.9090471,17.1015195 C72.2747544,17.1015195 72.4857788,17.0569585 72.6291935,16.9683488 C72.8181935,16.8469585 72.9288276,16.6579585 72.9288276,16.4028854 C72.9288276,16.1478122 72.8181935,15.9593244 72.6291935,15.837422 C72.4857788,15.7488122 72.2747544,15.7047634 71.9090471,15.7047634 C70.9215349,15.7047634 70.4672178,15.1167634 70.4672178,14.1184951 L70.4672178,7.4317878 L72.0749983,7.4317878 Z" fill="var(--bs-dark)"></path>
      <path d="M76.1729691,2.19578049 C76.7824813,2.19578049 77.2706032,1.70765854 77.2706032,1.09763415 C77.2706032,0.487609756 76.7824813,-7.54951657e-15 76.1729691,-7.54951657e-15 C75.5629447,-7.54951657e-15 75.0748227,0.487609756 75.0748227,1.09763415 C75.0748227,1.70765854 75.5629447,2.19578049 76.1729691,2.19578049" fill="var(--bs-dark)"></path>
      <path d="M76.1729691,6.10120732 C75.8733349,6.10120732 75.62953,6.24513415 75.5076276,6.44489024 C75.3857252,6.64464634 75.3631886,6.79984146 75.3631886,7.18808537 L75.3631886,16.1038659 C75.3631886,16.4915976 75.3857252,16.6473049 75.5076276,16.8465488 C75.62953,17.0463049 75.8733349,17.1902317 76.1729691,17.1902317 C76.472091,17.1902317 76.7158959,17.0463049 76.8383105,16.8465488 C76.960213,16.6473049 76.9822374,16.4915976 76.9822374,16.1038659 L76.9822374,7.18808537 C76.9822374,6.79984146 76.960213,6.64464634 76.8383105,6.44489024 C76.7158959,6.24513415 76.472091,6.10120732 76.1729691,6.10120732" fill="var(--bs-dark)"></path>
      <path d="M86.1967813,15.0057707 C85.6646105,15.5379415 85.0320496,15.7930146 84.2227813,15.7930146 C83.413513,15.7930146 82.780952,15.5379415 82.2487813,15.0057707 C81.4840739,14.2405512 81.3616593,12.9098683 81.3616593,11.6457707 C81.3616593,10.381161 81.4840739,9.06174634 82.2487813,8.29703902 C82.780952,7.7643561 83.413513,7.49852683 84.2227813,7.49852683 C85.0320496,7.49852683 85.6646105,7.7643561 86.1967813,8.29703902 C86.9620008,9.06174634 87.0839032,10.381161 87.0839032,11.6457707 C87.0839032,12.9098683 86.9620008,14.2405512 86.1967813,15.0057707 M88.7024398,11.6457707 C88.7024398,9.96013659 88.4924398,8.45223415 87.3610008,7.29877073 C86.6070496,6.54481951 85.5539764,6.05669756 84.2227813,6.05669756 C82.8920983,6.05669756 81.8390252,6.54481951 81.0850739,7.29877073 C79.9536349,8.45223415 79.7431227,9.96013659 79.7431227,11.6457707 C79.7431227,13.3201366 79.9536349,14.8393073 81.0850739,15.9927707 C81.8390252,16.746722 82.8920983,17.2348439 84.2227813,17.2348439 C85.5539764,17.2348439 86.6070496,16.746722 87.3610008,15.9927707 C88.4924398,14.8393073 88.7024398,13.3201366 88.7024398,11.6457707" fill="var(--bs-dark)"></path>
      <path d="M98.5201447,10.4037488 L98.5201447,16.1039683 C98.5201447,16.5029683 98.5534374,16.6581634 98.6640715,16.8466512 C98.7752178,17.0458951 99.0410471,17.1903341 99.3299252,17.1903341 C99.6177788,17.1903341 99.872852,17.0458951 99.9952666,16.8466512 C100.105901,16.6581634 100.139193,16.5029683 100.139193,16.1039683 L100.139193,10.1266512 C100.139193,8.86204146 99.7842422,7.83099268 99.0082666,7.07704146 C98.3316569,6.4117 97.3666813,6.05674878 96.1804374,6.05674878 C94.9716569,6.05674878 93.9073154,6.51157805 93.1200715,7.38743171 L93.1200715,7.1881878 C93.1200715,6.7999439 93.0975349,6.64474878 92.9756325,6.44499268 C92.85373,6.24523659 92.609413,6.10130976 92.310291,6.10130976 C92.0106569,6.10130976 91.7663398,6.24523659 91.6449496,6.44499268 C91.5230471,6.64474878 91.5005105,6.7999439 91.5005105,7.1881878 L91.5005105,16.1039683 C91.5005105,16.5029683 91.5338032,16.6581634 91.6449496,16.8466512 C91.7663398,17.0458951 92.0219252,17.1903341 92.310291,17.1903341 C92.5981447,17.1903341 92.85373,17.0458951 92.9756325,16.8466512 C93.0862666,16.6581634 93.1200715,16.5029683 93.1200715,16.1039683 L93.1200715,10.4037488 C93.1200715,8.48506585 94.184413,7.49857805 95.8480227,7.49857805 C97.5111203,7.49857805 98.5201447,8.46304146 98.5201447,10.4037488" fill="var(--bs-dark)"></path>
      <path d="M109.621001,13.231322 C109.621001,14.1630049 109.432513,14.761761 109.055537,15.1279805 C108.378928,15.7820537 107.558391,15.8706634 106.649245,15.8706634 C104.952342,15.8706634 104.132318,15.2386146 104.132318,13.9965415 C104.132318,12.7432 104.930318,12.0671024 106.49405,12.0671024 L109.621001,12.0671024 L109.621001,13.231322 Z M106.31683,10.8475659 C103.943318,10.8475659 102.54605,12.0891268 102.54605,14.0078098 C102.54605,14.8949317 102.85644,15.6934439 103.377854,16.2368829 C104.065732,16.9355171 104.974879,17.234639 106.482781,17.234639 C107.891318,17.234639 108.723123,16.9462732 109.609732,16.0816878 L109.609732,16.1037122 C109.609732,16.4919561 109.632269,16.6471512 109.754172,16.8469073 C109.876074,17.0461512 110.120391,17.190078 110.419513,17.190078 C110.718635,17.190078 110.962952,17.0461512 111.084854,16.8469073 C111.207269,16.6471512 111.229293,16.4919561 111.229293,16.1037122 L111.229293,9.70537073 C111.229293,7.32110244 109.76544,6.05700488 106.948879,6.05700488 C105.784147,6.05700488 104.930318,6.26751707 104.143074,6.76639512 C103.499757,7.18793171 103.100757,7.58693171 103.100757,7.9864439 C103.100757,8.21949268 103.178611,8.35215122 103.300001,8.49659024 C103.422415,8.62924878 103.610903,8.69634634 103.788635,8.69634634 C103.965854,8.69634634 104.220928,8.62924878 104.464732,8.40746829 C105.196659,7.74263902 105.81744,7.44300488 106.937611,7.44300488 C108.845025,7.44300488 109.621001,8.29683415 109.621001,9.95993171 L109.621001,10.8475659 L106.31683,10.8475659 Z" fill="var(--bs-dark)"></path>
      <path d="M117.173932,17.1016732 L117.462298,17.1016732 C117.828518,17.1016732 118.038518,17.0571122 118.182957,16.9685024 C118.371445,16.8466 118.482591,16.6581122 118.482591,16.403039 C118.482591,16.1479659 118.371445,15.959478 118.182957,15.8375756 C118.038518,15.7489659 117.828518,15.7044049 117.462298,15.7044049 C116.475298,15.7044049 116.020469,15.1169171 116.020469,14.1186488 L116.020469,2.30845366 C116.020469,1.92020976 115.998445,1.76501463 115.876542,1.56577073 C115.754128,1.36601463 115.510323,1.22157561 115.211201,1.22157561 C114.911567,1.22157561 114.667762,1.36601463 114.545859,1.56577073 C114.423445,1.76501463 114.40142,1.92020976 114.40142,2.30845366 L114.40142,14.1739659 C114.40142,15.7930146 115.321835,17.1016732 117.173932,17.1016732" fill="var(--bs-dark)"></path>
      <path d="M121.693286,9.0619 C122.092286,8.0749 123.057262,7.43158293 124.243506,7.43158293 C125.42975,7.43158293 126.383969,8.06363171 126.794237,9.0619 C127.038042,9.6606561 127.104628,10.0601683 127.13792,10.8361439 L121.349091,10.8361439 C121.382384,10.0601683 121.448969,9.6606561 121.693286,9.0619 M128.368725,15.3603634 C128.368725,14.9946561 128.025042,14.6622415 127.681359,14.6622415 C127.437042,14.6622415 127.271091,14.7616073 126.926896,15.0499732 C126.272823,15.6046805 125.42975,15.8372171 124.587189,15.8372171 C122.48053,15.8372171 121.349091,14.440461 121.349091,12.0561927 L127.791993,12.0561927 C128.047067,12.0561927 128.290872,12.0561927 128.501896,11.8451683 C128.712408,11.6346561 128.723676,11.3355341 128.723676,11.1137537 C128.701652,8.0749 127.016018,6.05685122 124.243506,6.05685122 C121.49353,6.05685122 119.741311,8.04160732 119.741311,11.6454122 C119.741311,15.5048024 121.626701,17.2344854 124.520603,17.2344854 C125.640774,17.2344854 126.583725,16.9906805 127.237798,16.6029488 C127.670091,16.3360951 128.368725,15.8484854 128.368725,15.3603634" fill="var(--bs-dark)"></path>
      <path d="M49.9681447,36.6408927 C47.5838764,36.6408927 47.2294374,34.6228439 47.2294374,32.4936488 C47.2294374,30.3644537 47.5838764,28.3464049 49.9681447,28.3464049 C52.352413,28.3464049 52.7073642,30.3644537 52.7073642,32.4936488 C52.7073642,34.6228439 52.352413,36.6408927 49.9681447,36.6408927 M50.3123398,26.9045756 C49.1143154,26.9045756 48.1385837,27.1709171 47.2294374,28.3023561 L47.2294374,23.1568439 C47.2294374,22.7680878 47.2069008,22.6128927 47.0849983,22.4136488 C46.9630959,22.2138927 46.7187788,22.0699659 46.4196569,22.0699659 C46.1205349,22.0699659 45.8762178,22.2138927 45.7548276,22.4136488 C45.632413,22.6128927 45.6103886,22.7680878 45.6103886,23.1568439 L45.6103886,36.9517951 C45.6103886,37.3395268 45.632413,37.494722 45.7548276,37.6949902 C45.8762178,37.8942341 46.1205349,38.0386732 46.4196569,38.0386732 C46.7187788,38.0386732 46.9630959,37.8942341 47.0849983,37.6949902 C47.2069008,37.494722 47.2294374,37.3395268 47.2294374,36.9517951 L47.2294374,36.6408927 C48.1385837,37.7943561 49.092291,38.082722 50.3123398,38.082722 C51.4432666,38.082722 52.3969739,37.7057463 52.9737056,37.1290146 C54.0820959,36.0201122 54.3259008,34.2458683 54.3259008,32.4936488 C54.3259008,30.7419415 54.0820959,28.9676976 52.9737056,27.8582829 C52.3969739,27.2815512 51.4432666,26.9045756 50.3123398,26.9045756" fill="var(--bs-dark)"></path>
      <path d="M57.9574666,21.8480317 C57.3479544,21.8480317 56.8598325,22.3361537 56.8598325,22.946178 C56.8598325,23.5562024 57.3479544,24.0438122 57.9574666,24.0438122 C58.567491,24.0438122 59.055613,23.5562024 59.055613,22.946178 C59.055613,22.3361537 58.567491,21.8480317 57.9574666,21.8480317" fill="var(--bs-dark)"></path>
      <path d="M57.9574666,26.9492902 C57.6583447,26.9492902 57.4140276,27.0932171 57.2921252,27.2929732 C57.1707349,27.4927293 57.1481983,27.6479244 57.1481983,28.0361683 L57.1481983,36.9519488 C57.1481983,37.3396805 57.1707349,37.4948756 57.2921252,37.6946317 C57.4140276,37.8943878 57.6583447,38.0383146 57.9574666,38.0383146 C58.2571008,38.0383146 58.5009056,37.8943878 58.6228081,37.6946317 C58.7447105,37.4948756 58.7672471,37.3396805 58.7672471,36.9519488 L58.7672471,28.0361683 C58.7672471,27.6479244 58.7447105,27.4927293 58.6228081,27.2929732 C58.5009056,27.0932171 58.2571008,26.9492902 57.9574666,26.9492902" fill="var(--bs-dark)"></path>
      <path d="M66.4376764,36.6408927 C64.0534081,36.6408927 63.6989691,34.6228439 63.6989691,32.4936488 C63.6989691,30.3644537 64.0534081,28.3464049 66.4376764,28.3464049 C68.8219447,28.3464049 69.1768959,30.3644537 69.1768959,32.4936488 C69.1768959,34.6228439 68.8219447,36.6408927 66.4376764,36.6408927 M66.7818715,26.9045756 C65.5838471,26.9045756 64.6081154,27.1709171 63.6989691,28.3023561 L63.6989691,23.1568439 C63.6989691,22.7680878 63.6764325,22.6128927 63.55453,22.4136488 C63.4326276,22.2138927 63.1888227,22.0699659 62.8897008,22.0699659 C62.5900666,22.0699659 62.3462617,22.2138927 62.2243593,22.4136488 C62.1019447,22.6128927 62.0799203,22.7680878 62.0799203,23.1568439 L62.0799203,36.9517951 C62.0799203,37.3395268 62.1019447,37.494722 62.2243593,37.6949902 C62.3462617,37.8942341 62.5900666,38.0386732 62.8897008,38.0386732 C63.1888227,38.0386732 63.4326276,37.8942341 63.55453,37.6949902 C63.6764325,37.494722 63.6989691,37.3395268 63.6989691,36.9517951 L63.6989691,36.6408927 C64.6081154,37.7943561 65.5618227,38.082722 66.7818715,38.082722 C67.9127983,38.082722 68.8665056,37.7057463 69.4432374,37.1290146 C70.5516276,36.0201122 70.7954325,34.2458683 70.7954325,32.4936488 C70.7954325,30.7419415 70.5516276,28.9676976 69.4432374,27.8582829 C68.8665056,27.2815512 67.9127983,26.9045756 66.7818715,26.9045756" fill="var(--bs-dark)"></path>
      <path d="M77.3814422,36.6853512 C77.2375154,36.5967415 77.026491,36.5526927 76.6607837,36.5526927 C75.6737837,36.5526927 75.2194666,35.9652049 75.2194666,34.9669366 L75.2194666,23.1567415 C75.2194666,22.7684976 75.19693,22.6133024 75.0750276,22.4135463 C74.952613,22.2143024 74.7093203,22.0698634 74.4096861,22.0698634 C74.110052,22.0698634 73.8662471,22.2143024 73.7443447,22.4135463 C73.6224422,22.6133024 73.6004178,22.7684976 73.6004178,23.1567415 L73.6004178,35.0222537 C73.6004178,36.6407902 74.5203203,37.9494488 76.3724178,37.9494488 L76.6607837,37.9494488 C77.026491,37.9494488 77.2375154,37.9054 77.3814422,37.8167902 C77.56993,37.6948878 77.6805642,37.5058878 77.6805642,37.2508146 C77.6805642,36.9962537 77.56993,36.8077659 77.3814422,36.6853512" fill="var(--bs-dark)"></path>
      <path d="M80.6855617,21.8480317 C80.0755374,21.8480317 79.5874154,22.3361537 79.5874154,22.946178 C79.5874154,23.5562024 80.0755374,24.0438122 80.6855617,24.0438122 C81.2955861,24.0438122 81.7831959,23.5562024 81.7831959,22.946178 C81.7831959,22.3361537 81.2955861,21.8480317 80.6855617,21.8480317" fill="var(--bs-dark)"></path>
      <path d="M80.6855617,26.9492902 C80.3859276,26.9492902 80.1421227,27.0932171 80.0202203,27.2929732 C79.8983178,27.4927293 79.8762935,27.6479244 79.8762935,28.0361683 L79.8762935,36.9519488 C79.8762935,37.3396805 79.8983178,37.4948756 80.0202203,37.6946317 C80.1421227,37.8943878 80.3859276,38.0383146 80.6855617,38.0383146 C80.9846837,38.0383146 81.2284886,37.8943878 81.3509032,37.6946317 C81.4728056,37.4948756 81.49483,37.3396805 81.49483,36.9519488 L81.49483,28.0361683 C81.49483,27.6479244 81.4728056,27.4927293 81.3509032,27.2929732 C81.2284886,27.0932171 80.9846837,26.9492902 80.6855617,26.9492902" fill="var(--bs-dark)"></path>
      <path d="M90.7093739,35.8540585 C90.176691,36.3862293 89.5446422,36.6407902 88.7353739,36.6407902 C87.9261056,36.6407902 87.2935447,36.3862293 86.7613739,35.8540585 C85.9961544,35.088839 85.874252,33.7581561 85.874252,32.4940585 C85.874252,31.2294488 85.9961544,29.9100341 86.7613739,29.1448146 C87.2935447,28.6126439 87.9261056,28.3463024 88.7353739,28.3463024 C89.5446422,28.3463024 90.176691,28.6126439 90.7093739,29.1448146 C91.4740813,29.9100341 91.5959837,31.2294488 91.5959837,32.4940585 C91.5959837,33.7581561 91.4740813,35.088839 90.7093739,35.8540585 M88.7353739,26.9049854 C87.404691,26.9049854 86.3511056,27.3925951 85.5971544,28.1465463 C84.4662276,29.3000098 84.2557154,30.8079122 84.2557154,32.4940585 C84.2557154,34.1684244 84.4662276,35.6875951 85.5971544,36.8410585 C86.3511056,37.5950098 87.404691,38.0831317 88.7353739,38.0831317 C90.0660569,38.0831317 91.1196422,37.5950098 91.8735935,36.8410585 C93.0045203,35.6875951 93.2150325,34.1684244 93.2150325,32.4940585 C93.2150325,30.8079122 93.0045203,29.3000098 91.8735935,28.1465463 C91.1196422,27.3925951 90.0660569,26.9049854 88.7353739,26.9049854" fill="var(--bs-dark)"></path>
      <path d="M99.4441447,28.2797683 C99.7437788,28.2797683 99.8989739,28.2577439 100.031632,28.168622 C100.22012,28.0579878 100.297974,27.8807683 100.297974,27.6589878 C100.297974,27.4372073 100.22012,27.2594756 100.031632,27.1488415 C99.8989739,27.0602317 99.7437788,27.0376951 99.4441447,27.0376951 L97.8363642,27.0376951 L97.8363642,24.6979878 C97.8363642,24.3097439 97.8138276,24.155061 97.6924374,23.9553049 C97.5700227,23.7555488 97.3262178,23.6111098 97.0270959,23.6111098 C96.7274617,23.6111098 96.4831447,23.7555488 96.3617544,23.9553049 C96.239852,24.155061 96.2173154,24.3097439 96.2173154,24.6979878 L96.2173154,27.0376951 L95.4520959,27.0376951 C95.1529739,27.0376951 94.9977788,27.0602317 94.8640959,27.1488415 C94.6756081,27.2594756 94.5982666,27.4372073 94.5982666,27.6589878 C94.5982666,27.8807683 94.6756081,28.0579878 94.8640959,28.168622 C94.9977788,28.2577439 95.1529739,28.2797683 95.4520959,28.2797683 L96.2173154,28.2797683 L96.2173154,35.0223049 C96.2173154,36.6408415 97.13773,37.9495 98.9898276,37.9495 L99.2776813,37.9495 C99.6439008,37.9495 99.8549252,37.9054512 99.9983398,37.8168415 C100.18734,37.694939 100.297974,37.505939 100.297974,37.2508659 C100.297974,36.9963049 100.18734,36.8078171 99.9983398,36.6854024 C99.8549252,36.5967927 99.6439008,36.5527439 99.2776813,36.5527439 C98.2906813,36.5527439 97.8363642,35.9652561 97.8363642,34.9669878 L97.8363642,28.2797683 L99.4441447,28.2797683 Z" fill="var(--bs-dark)"></path>
      <path d="M107.380967,26.9048317 C106.138893,26.9048317 105.119113,27.3483927 104.320601,28.2355146 L104.320601,23.1565878 C104.320601,22.7683439 104.298576,22.6131488 104.176162,22.4139049 C104.054259,22.2141488 103.810454,22.070222 103.51082,22.070222 C103.211698,22.070222 102.967893,22.2141488 102.845479,22.4139049 C102.723576,22.6131488 102.701552,22.7683439 102.701552,23.1565878 L102.701552,36.9520512 C102.701552,37.3397829 102.723576,37.494978 102.845479,37.6947341 C102.967893,37.8944902 103.211698,38.0384171 103.51082,38.0384171 C103.810454,38.0384171 104.054259,37.8944902 104.176162,37.6947341 C104.298576,37.494978 104.320601,37.3397829 104.320601,36.9520512 L104.320601,31.2077829 C104.320601,29.2891 105.384942,28.3461488 107.048552,28.3461488 C108.712162,28.3461488 109.709918,29.2891 109.709918,31.2077829 L109.709918,36.9520512 C109.709918,37.3397829 109.731942,37.494978 109.853845,37.6947341 C109.975747,37.8944902 110.220064,38.0384171 110.519186,38.0384171 C110.81882,38.0384171 111.062625,37.8944902 111.184528,37.6947341 C111.306942,37.494978 111.328967,37.3397829 111.328967,36.9520512 L111.328967,30.9414415 C111.328967,28.4798317 109.875869,26.9048317 107.380967,26.9048317" fill="var(--bs-dark)"></path>
      <path d="M115.594732,31.6841244 C115.628025,30.9081488 115.694611,30.5091488 115.938415,29.9098805 C116.337415,28.9228805 117.302391,28.2795634 118.489147,28.2795634 C119.675391,28.2795634 120.629098,28.9121244 121.039367,29.9098805 C121.283172,30.5091488 121.350269,30.9081488 121.38305,31.6841244 L115.594732,31.6841244 Z M118.489147,26.9048317 C115.738659,26.9048317 113.986952,28.8895878 113.986952,32.4939049 C113.986952,36.3527829 115.87183,38.082978 118.766245,38.082978 C119.885903,38.082978 120.828342,37.8391732 121.482928,37.4509293 C121.91522,37.1845878 122.613854,36.6964659 122.613854,36.2088561 C122.613854,35.8431488 122.270172,35.510222 121.926489,35.510222 C121.682684,35.510222 121.51622,35.6095878 121.172537,35.8984659 C120.517952,36.452661 119.675391,36.6851976 118.83283,36.6851976 C116.725659,36.6851976 115.594732,35.2884415 115.594732,32.9041732 L122.037635,32.9041732 C122.292196,32.9041732 122.536513,32.9041732 122.747025,32.693661 C122.95805,32.4826366 122.969318,32.1835146 122.969318,31.9617341 C122.946781,28.9228805 121.261147,26.9048317 118.489147,26.9048317 L118.489147,26.9048317 Z" fill="var(--bs-dark)"></path>
      <path d="M126.873423,31.6841244 C126.906715,30.9081488 126.973301,30.5091488 127.217106,29.9098805 C127.616618,28.9228805 128.581081,28.2795634 129.767837,28.2795634 C130.954081,28.2795634 131.907789,28.9121244 132.318057,29.9098805 C132.561862,30.5091488 132.628447,30.9081488 132.66174,31.6841244 L126.873423,31.6841244 Z M129.767837,26.9048317 C127.01735,26.9048317 125.265642,28.8895878 125.265642,32.4939049 C125.265642,36.3527829 127.15052,38.082978 130.044935,38.082978 C131.164593,38.082978 132.107032,37.8391732 132.761618,37.4509293 C133.193911,37.1845878 133.892545,36.6964659 133.892545,36.2088561 C133.892545,35.8431488 133.548862,35.510222 133.205179,35.510222 C132.960862,35.510222 132.794911,35.6095878 132.450715,35.8984659 C131.796642,36.452661 130.954081,36.6851976 130.111008,36.6851976 C128.00435,36.6851976 126.873423,35.2884415 126.873423,32.9041732 L133.315813,32.9041732 C133.570886,32.9041732 133.815203,32.9041732 134.026228,32.693661 C134.23674,32.4826366 134.247496,32.1835146 134.247496,31.9617341 C134.225472,28.9228805 132.539837,26.9048317 129.767837,26.9048317 L129.767837,26.9048317 Z" fill="var(--bs-dark)"></path>
      <path d="M145.180198,36.585678 L141.798174,31.2521902 L144.337125,28.3572634 C144.648028,28.0028244 144.725369,27.8143366 144.725369,27.6145805 C144.725369,27.3928 144.626003,27.2263366 144.45954,27.0818976 C144.326369,26.9712634 144.14915,26.904678 143.993954,26.904678 C143.716857,26.904678 143.539125,27.0270927 143.228223,27.3815317 L138.560076,32.7047756 L138.560076,23.1569463 C138.560076,22.7681902 138.538052,22.6129951 138.415637,22.4137512 C138.293735,22.2139951 138.04993,22.0700683 137.750808,22.0700683 C137.450662,22.0700683 137.206857,22.2139951 137.085467,22.4137512 C136.963052,22.6129951 136.94154,22.7681902 136.94154,23.1569463 L136.94154,36.9518976 C136.94154,37.3396293 136.963052,37.4948244 137.085467,37.6945805 C137.206857,37.8943366 137.450662,38.0382634 137.750808,38.0382634 C138.04993,38.0382634 138.293735,37.8943366 138.415637,37.6945805 C138.538052,37.4948244 138.560076,37.3396293 138.560076,36.9518976 L138.560076,34.800678 L140.678003,32.3938732 L143.849515,37.4174829 C144.115345,37.8390195 144.315101,38.0382634 144.658784,38.0382634 C144.803223,38.0382634 144.936393,38.0049707 145.08032,37.916361 C145.335393,37.7611659 145.457808,37.5281171 145.457808,37.2730439 C145.457808,37.0738 145.368686,36.8853122 145.180198,36.585678" fill="var(--bs-dark)"></path>
      <path d="M33.5734447,2.0200878 C33.4320788,1.45564878 32.8594447,1.11299024 32.2950056,1.25333171 C31.7300544,1.39469756 31.3868837,1.96681951 31.5282496,2.53125854 L36.4125422,22.0699659 L31.5282496,41.608161 C31.3868837,42.1731122 31.7300544,42.7452341 32.2950056,42.8866 C32.3810544,42.9076 32.466591,42.9178439 32.5516154,42.9178439 C33.0238593,42.9178439 33.453591,42.5987463 33.5734447,42.1193317 L38.5217617,22.3255512 C38.5632496,22.1575512 38.5632496,21.9818683 38.5217617,21.8138683 L33.5734447,2.0200878 Z" fill="var(--bs-dark)"></path>
      <path d="M3.66181297,29.1469659 C3.51788614,28.8877951 3.21005687,28.4314293 3.21005687,26.5803561 C3.21005687,24.9387707 3.20852028,22.4623073 3.20852028,20.750039 C3.20852028,16.1776732 3.17778857,15.8975024 3.5112276,15.143039 C3.7529837,14.5949902 4.09564223,14.3440146 4.15249589,14.2815268 C4.20934955,14.2185268 4.20269101,14.1729415 4.17042272,14.1406732 C4.13200809,14.1012341 4.07003248,14.098161 3.95120321,14.098161 C3.83237394,14.098161 3.2069837,14.2077707 2.22100809,14.2077707 C1.03373979,14.2077707 0.670593453,14.1242829 0.395032477,14.1242829 C0.375569063,14.1242829 0.272105648,14.1222341 0.272105648,14.2021366 C0.272105648,14.2385024 0.30334955,14.2830634 0.316666624,14.2979171 C0.516422721,14.5135512 1.1167154,14.9284293 1.11825199,16.2319659 C1.11978857,17.7065756 1.15103248,20.5313317 1.15103248,20.7495268 C1.15256906,20.936478 1.11978857,24.1535756 1.11978857,26.572161 C1.11978857,28.4278439 0.900569063,28.8017463 0.705934916,29.0993317 C0.523593453,29.3836 0.248032477,29.6033317 0.066203209,29.7467463 C-0.00601630316,29.8030878 0.000130038299,29.8548195 0.000130038299,29.8768439 C0.000130038299,29.9383073 0.0615934529,29.9695512 0.109739794,29.9695512 C0.19732516,29.9695512 1.14795931,29.8312585 2.22100809,29.8312585 C2.71630077,29.8312585 4.16581297,29.9598195 4.21242272,29.9628927 C4.27081297,29.9659659 4.31281297,29.927039 4.31281297,29.871722 C4.31281297,29.8056488 4.29181297,29.7887463 4.25852028,29.7559659 C4.15915443,29.6571122 3.81752028,29.4261122 3.66181297,29.1469659" fill="var(--bs-dark)"></path>
      <path d="M21.843613,21.2443585 C21.5962227,21.1992854 21.4748325,21.1895537 21.4722715,21.1465293 C21.4676617,21.0656024 21.7278569,20.9959439 22.0664178,20.8422854 C22.5284178,20.6343341 23.0954178,20.2578707 23.4785398,19.8747488 C23.941052,19.4107 24.43993,18.6290902 24.43993,17.6303098 C24.43993,16.4742854 24.1725642,15.7013829 23.3735398,14.9013341 C22.4915398,14.0198463 20.5974422,14.0494352 20.1595154,14.0494352 C19.5669056,14.0494352 17.4510276,14.1017976 17.1006861,14.1017976 C16.9301252,14.1017976 16.5234422,14.1361146 16.0599056,14.1361146 C15.585613,14.1361146 15.07393,14.1484073 14.7691739,14.1171634 C14.6841496,14.1084561 14.6288325,14.1407244 14.6160276,14.1934805 C14.6027105,14.2467488 14.6395886,14.3215293 14.6549544,14.3507244 C14.7671252,14.562261 14.8992715,14.9540902 14.8992715,15.3617976 C14.8992715,15.7782122 14.9397349,20.3131878 14.9397349,20.7137244 C14.9397349,21.1147732 14.9279544,28.7685049 14.9279544,28.8514805 C14.9279544,28.8694073 14.9330764,28.963139 14.8910764,29.0041146 C14.8178325,29.0794073 14.2851496,29.0573829 14.1304666,29.0384317 C13.7975398,29.0010415 13.231052,28.8514805 12.7162959,28.393578 C12.3756861,28.0903585 11.7738569,27.4859683 9.68256418,24.7267732 C9.26307638,24.1741146 6.4260276,20.4463585 6.16224711,19.9899927 C6.14893004,19.9669439 6.14585687,19.9567 6.14585687,19.9505537 C6.14585687,19.9438951 6.14739345,19.9290415 6.15763736,19.9141878 C6.40810077,19.5566756 9.47819833,16.8625293 9.64363736,16.7057976 C10.0508325,16.3216512 12.4914422,14.3630171 12.5831252,14.2703098 C12.6077105,14.247261 12.65893,14.1950171 12.63793,14.1361146 C12.6235886,14.0941146 12.5974666,14.079261 12.430491,14.079261 C12.2614666,14.079261 11.6222471,14.1187 11.2048081,14.1325293 C10.6460032,14.1499439 10.1819544,14.1545537 10.0564666,14.1545537 C9.93200321,14.1545537 9.89000321,14.2129439 9.83775931,14.2641634 C9.72866175,14.3742854 8.8307837,15.5892122 7.37717394,17.1990415 C6.02036906,18.7023341 4.92171053,19.9147 4.11141784,20.6794073 C4.08529589,20.7039927 4.09144223,20.7562366 4.13241784,20.8115537 C4.5882715,21.4200415 6.68314955,24.3564561 7.0765154,24.9137244 C8.57622272,27.0372854 10.0728569,28.9426512 10.3479056,29.2632854 C10.6285886,29.5895537 10.8729056,29.7718951 11.1356617,29.8405293 C11.4450276,29.9240171 11.6683447,29.947578 11.9828325,29.947578 C12.3767105,29.947578 14.5207593,29.9035293 14.9151496,29.8912366 C15.3121008,29.8799683 16.4701739,29.9004561 16.8425398,29.9004561 C16.9142471,29.9004561 16.9864666,29.9019927 17.0356374,29.8517976 C17.0914666,29.7949439 17.0822471,29.6960902 17.0822471,29.6243829 C17.0822471,29.3165537 17.0141252,21.0189927 17.0141252,20.7188463 C17.0141252,20.4187 17.0330764,15.7403098 17.0330764,15.3894561 C17.0330764,15.3372122 17.0305154,15.2014805 17.0940276,15.1379683 C17.1636861,15.0683098 17.3183691,15.0739439 17.3475642,15.0734317 C17.5078813,15.0718951 17.7568081,15.061139 18.4564666,15.061139 C19.5710032,15.061139 20.2163691,15.1010902 20.9185886,15.4283829 C22.0023935,15.9344317 22.3727105,16.8968463 22.3727105,17.8838463 C22.3727105,19.5167244 21.10093,20.4591634 20.1385154,20.6906756 C19.8901008,20.749578 19.4619056,20.8356268 19.008613,20.8730171 C18.9732715,20.8760902 18.9281983,20.899139 18.9071983,20.9293585 C18.8795398,20.9652122 18.8759544,21.0215537 18.8759544,21.1076024 C18.8759544,21.261261 18.8667349,21.4328463 18.8667349,21.7616756 C18.8667349,21.8661634 18.8626374,21.9163585 18.898491,21.956822 C18.93793,22.0018951 18.9794178,22.0111146 19.0895398,22.0111146 C20.4878325,22.0111146 21.8420764,22.3102366 22.5396861,23.0078463 C23.3207837,23.7894561 23.521052,24.7754317 23.521052,25.351139 C23.521052,26.9461146 22.7271496,27.7830415 22.5207349,27.9884317 C21.3493447,29.159822 19.7466861,29.0117976 19.638613,29.0117976 C19.4747105,29.0117976 19.4081252,29.073261 19.4117105,29.1669927 C19.4178569,29.3370415 19.42093,29.4753341 19.42093,29.7140171 C19.42093,29.9491146 19.4977593,29.9803585 19.5448813,29.9947 C19.6821496,30.0336268 20.0826861,30.0167244 20.5037105,29.9962366 C22.2036861,29.9096756 23.1686617,29.5470415 24.1367105,28.8514805 C24.9680032,28.2537488 25.6456374,26.8329195 25.6651008,25.5975049 C25.6922471,23.8457976 25.0735154,23.0662366 24.6903935,22.6416268 C23.7279788,21.5721634 22.4561983,21.3565293 21.843613,21.2443585" fill="var(--bs-dark)"></path>
    </g>
  </g>
</svg>