<svg width="200" height="30" viewBox="0 0 200 30" fill="none" xmlns="http://www.w3.org/2000/svg">
<g clip-path="url(#clip0_36_1053)">
<path d="M25.4468 29.283V29.0277C26.4681 29.0277 27.5744 28.8575 28.5957 28.6021C29.4468 28.3468 29.9574 27.4958 29.8723 26.6447V3.66598C29.9574 2.72981 29.4468 1.87875 28.5957 1.53832C27.5744 1.19789 26.5532 1.02768 25.4468 1.02768V0.687256H48.9361V7.66598H48.5106C48 5.79364 45.2766 1.62343 43.3191 1.36811C42.0425 1.19789 40.6808 1.19789 39.4042 1.19789H35.3191V14.2192H38.8085C41.1064 14.2192 41.8723 13.4532 42.3829 12.9426C43.1489 12.2617 43.9149 9.79364 44.0851 8.68726H44.5106V20.4319H44.0851C43.8298 18.8149 43.234 17.3681 42.2978 16.0064C41.7872 15.4107 40.9361 14.7298 38.7234 14.7298H35.234V25.1128C35.234 28.3468 35.9149 28.7724 39.9149 28.7724C42.5532 28.7724 45.2766 28.7724 46.2978 27.8362C47.7447 26.3043 49.9574 22.3043 50.5532 20.9426H51.0638L50.5532 29.283H25.4468Z" fill="var(--bs-dark)"/>
<path d="M86.6384 8.17662H86.2979C85.7873 6.30428 83.2341 1.62343 81.4469 1.36811C80.3405 1.283 79.3192 1.19789 78.2128 1.19789H76.3405V26.3043C76.2554 27.2404 76.766 28.0915 77.6171 28.4319C78.7235 28.6873 79.9149 28.8575 81.0213 28.9426V29.1979H66.2128V28.9426C67.3192 28.8575 68.5107 28.7724 69.6171 28.517C70.4681 28.1766 70.9788 27.3256 70.8937 26.3894V1.19789H69.1064C68.0001 1.19789 66.9788 1.283 65.8724 1.36811C64.0852 1.62343 61.532 6.30428 61.0213 8.17662H60.6809V0.687256H86.6384V8.17662Z" fill="var(--bs-dark)"/>
<path d="M87.4894 29.283V29.0277C88.5107 29.0277 89.617 28.8575 90.6383 28.6021C91.4894 28.3468 92.0851 27.4958 91.9149 26.6447V3.66598C92 2.72981 91.4894 1.87875 90.6383 1.53832C89.617 1.19789 88.5958 1.02768 87.4894 1.02768V0.687256H110.979V7.66598H110.553C110.043 5.79364 107.319 1.62343 105.362 1.36811C104.085 1.19789 102.723 1.19789 101.447 1.19789H97.3617V14.2192H100.851C103.149 14.2192 103.915 13.4532 104.426 12.9426C105.192 12.2617 105.957 9.79364 106.128 8.68726H106.553V20.4319H106.128C105.872 18.8149 105.277 17.3681 104.426 16.0064C103.915 15.4107 103.064 14.7298 100.851 14.7298H97.3617V25.1128C97.3617 28.3468 98.0426 28.7724 102.043 28.7724C104.681 28.7724 107.404 28.7724 108.426 27.8362C109.872 26.3043 112.085 22.3043 112.681 20.9426H113.106L112.596 29.283H87.4894Z" fill="var(--bs-dark)"/>
<path d="M151.064 29.283H136.425V29.0277C137.617 29.0277 138.723 28.8575 139.915 28.517C140.766 28.1766 141.362 27.3256 141.277 26.3894V3.07023L130.723 28.7724H129.957C129.532 27.4958 128.511 24.517 127.83 22.9851L119.404 3.66598V22.5596C119.404 25.7936 119.83 27.3256 120.766 28.0915C121.447 28.6873 124.17 28.8575 124.936 28.9426V29.1979H113.532V29.0277C114.213 28.9426 116.34 28.9426 117.362 28.2617C118.383 27.5809 118.723 25.8787 118.723 22.7298V5.53832C118.723 3.83619 118.298 2.6447 117.447 1.96385C116.34 1.283 115.064 0.942575 113.702 1.02768V0.687256H123.83L132.936 21.1979L139.915 4.17662C140.34 3.07024 140.681 1.87875 140.851 0.687256H150.979V0.942575C149.957 1.02768 148.936 1.19789 147.915 1.45321C147.064 1.70853 146.468 2.5596 146.638 3.49577V26.3043C146.553 27.1553 147.064 28.0064 147.915 28.3468C148.936 28.6873 149.957 28.8575 150.979 28.9426L151.064 29.283Z" fill="var(--bs-dark)"/>
<path d="M165.787 16.4319H163.149V26.3894C163.064 27.3256 163.575 28.1766 164.426 28.517C165.447 28.7724 166.553 28.9426 167.575 28.9426V29.1979H153.192V28.9426C154.213 28.8575 155.234 28.7724 156.255 28.517C157.106 28.1766 157.617 27.4107 157.532 26.4745V3.66598C157.617 2.72981 157.106 1.87875 156.255 1.53832C155.234 1.19789 154.213 1.02768 153.106 1.02768V0.687256H167.489C173.362 0.687256 177.106 3.07023 177.106 7.58087C177.277 13.6234 171.575 16.4319 165.787 16.4319ZM165.277 1.283H163.149V15.8362H164.596C169.872 15.8362 171.064 11.4958 171.064 8.68726C171.064 5.02768 169.787 1.283 165.277 1.283Z" fill="var(--bs-dark)"/>
<path d="M189.957 29.8787C186.979 29.9639 184.085 29.1979 181.617 27.5809L180.255 29.6234H179.83L179.574 19.4958H179.915C181.957 24.8575 184.936 29.283 189.787 29.283C193.702 29.283 195.404 26.4745 195.404 23.4958C195.404 20.9426 193.702 19.0702 190.979 18.049C188.851 17.1979 187.234 16.6873 185.362 15.8362C182.213 14.6447 180.17 11.4958 180.34 8.09151C180.34 3.58087 184 0.00640442 189.362 0.00640442C192 -0.078702 194.553 0.687255 196.766 2.13406L198.043 0.261724H198.468L198.638 9.96385H198.298C196.681 5.02768 194.213 0.602149 189.447 0.602149C186.809 0.602149 184.681 2.72981 184.596 5.36811V5.62343C184.596 8.09151 185.957 9.79364 188.851 11.0702C190.723 11.9213 192.766 12.517 194.383 13.1979C197.787 14.7298 200 16.6021 200 21.0277C200 26.1341 195.83 29.8787 189.957 29.8787Z" fill="var(--bs-dark)"/>
<path d="M25.0213 20.7724L24.5106 29.283H0V29.0277C1.02128 28.9426 2.04255 28.8575 3.06383 28.6021C3.91489 28.3468 4.42553 27.4958 4.34043 26.5596V3.66598C4.42553 2.72981 3.91489 1.87875 3.06383 1.53832C2.04255 1.19789 1.02128 1.02768 0 1.02768V0.687256H14.2128V0.942575C13.1915 0.942575 12.1702 1.02768 11.234 1.283C10.383 1.53832 9.78723 2.47449 9.95745 3.41066V25.0277C9.95745 28.3468 10.7234 28.7724 14.6383 28.7724C17.1915 28.7724 19.4894 28.6873 20.3404 27.7511C22.0426 25.6234 23.4894 23.2404 24.6809 20.7724H25.0213Z" fill="var(--bs-dark)"/>
</g>
<defs>
<clipPath id="clip0_36_1053">
<rect width="200" height="29.8851" fill="white"/>
</clipPath>
</defs>
</svg>
