<?xml version="1.0" encoding="UTF-8"?>
<svg width="213px" height="125px" viewBox="0 0 213 125" version="1.1" xmlns="http://www.w3.org/2000/svg" xmlns:xlink="http://www.w3.org/1999/xlink">
    <!-- Generator: Sketch 63.1 (92452) - https://sketch.com -->
    <title>BCUL logo RVB</title>
    <desc>Created with Sketch.</desc>
    <defs>
        <polygon id="path-1" points="0 0.451871658 212.342972 0.451871658 212.342972 124.959893 0 124.959893"></polygon>
    </defs>
    <g id="Desktop---Design-BCUL" stroke="none" stroke-width="1" fill="none" fill-rule="evenodd">
        <g id="09---Homepage---v1" transform="translate(0.000000, -47.000000)">
            <g id="BCUL-logo-RVB" transform="translate(0.000000, 47.000000)">
                <g id="Group-3">
                    <mask id="mask-2" fill="white">
                        <use xlink:href="#path-1"></use>
                    </mask>
                    <g id="Clip-2"></g>
                    <path d="M206.199357,0.451871658 L0,0.451871658 L0,95.040107 L81.9929812,95.040107 C85.3709342,95.040107 86.929373,96.6236631 86.9226959,100.005348 C86.9226959,100.005348 86.9226959,117.115642 86.9226959,122.141043 C86.9226959,124.762701 88.4103574,126.062834 90.9089342,123.937166 C104.701185,112.207219 120.906545,98.5207219 120.906545,98.5207219 C125.169884,94.8910428 126.713633,95.040107 130.277878,95.040107 L206.199357,95.040107 C209.579981,95.040107 212.342972,92.2733957 212.342972,88.8897059 L212.342972,6.60227273 C212.342972,3.22058824 209.579981,0.451871658 206.199357,0.451871658" id="Fill-1" fill="#9F1943" mask="url(#mask-2)"></path>
                </g>
                <path d="M196,66.8205338 L196,66.0900164 L189.479808,66.0900164 L189.479808,76.9079063 L196,76.9079063 L196,76.1794662 L190.29525,76.1794662 L190.29525,71.8192119 L195.154506,71.8192119 L195.154506,71.0886944 L190.29525,71.0886944 L190.29525,66.8205338 L196,66.8205338 Z M185.649705,75.4648747 L179.446741,66.0900164 L178.631299,66.0900164 L178.631299,76.9079063 L179.446741,76.9079063 L179.446741,67.5032733 L185.649705,76.9079063 L186.464478,76.9079063 L186.464478,66.0900164 L185.649705,66.0900164 L185.649705,75.4648747 Z M174.423195,75.4648747 L168.22023,66.0900164 L167.405457,66.0900164 L167.405457,76.9079063 L168.22023,76.9079063 L168.22023,67.5032733 L174.423195,76.9079063 L175.237968,76.9079063 L175.237968,66.0900164 L174.423195,66.0900164 L174.423195,75.4648747 Z M158.881056,73.5502959 L161.129697,67.1840614 L163.378338,73.5502959 L158.881056,73.5502959 Z M160.767724,66.0900164 L156.813401,76.9079063 L157.688949,76.9079063 L158.624603,74.2801209 L163.63546,74.2801209 L164.571113,76.9079063 L165.446661,76.9079063 L161.492338,66.0900164 L160.767724,66.0900164 Z M152.77159,71.1953292 L151.608868,71.0132192 C151.005134,70.9225104 150.38604,70.6642327 150.009374,70.3450208 C149.631373,70.0258089 149.451054,69.554954 149.451054,68.9317638 C149.451054,67.5642075 150.38604,66.6986655 151.940788,66.6986655 C153.223723,66.6986655 153.887563,67.1085862 154.552071,67.7006169 L155.080338,67.1695203 C154.160044,66.3649125 153.31455,66 151.986202,66 C149.933908,66 148.650973,67.1542868 148.650973,68.9629233 C148.650973,69.7986907 148.922787,70.4668891 149.4958,70.952285 C149.9486,71.3469722 150.597748,71.6218683 151.412521,71.7430442 L152.665402,71.9410802 C153.54095,72.0774896 153.828124,72.1827395 154.219483,72.5185698 C154.612177,72.8668639 154.808524,73.3986529 154.808524,74.0370767 C154.808524,75.4503336 153.737297,76.270175 152.046976,76.270175 C150.748681,76.270175 149.963961,75.9668891 148.998254,74.9947123 L148.424573,75.5722019 C149.405641,76.5589198 150.402068,77 152.000895,77 C154.234843,77 155.623297,75.8304797 155.623297,74.0059172 C155.623297,73.1403752 155.276685,72.3967015 154.688311,71.9099207 C154.234843,71.5297746 153.782043,71.3469722 152.77159,71.1953292 Z M145.634976,73.2920181 C145.634976,75.0854211 144.487614,76.270175 142.76724,76.270175 C141.046866,76.270175 139.900172,75.0854211 139.900172,73.2920181 L139.900172,66.0900164 L139.084731,66.0900164 L139.084731,73.3986529 C139.084731,75.5112678 140.609426,77 142.76724,77 C144.925054,77 146.450417,75.5112678 146.450417,73.3986529 L146.450417,66.0900164 L145.634976,66.0900164 L145.634976,73.2920181 Z M131.088597,73.5502959 L133.337238,67.1840614 L135.58588,73.5502959 L131.088597,73.5502959 Z M132.975265,66.0900164 L129.020942,76.9079063 L129.89649,76.9079063 L130.832144,74.2801209 L135.843001,74.2801209 L136.777987,76.9079063 L137.654202,76.9079063 L133.699879,66.0900164 L132.975265,66.0900164 Z M122.186862,66.0900164 L121.371421,66.0900164 L121.371421,76.9079063 L127.891613,76.9079063 L127.891613,76.1794662 L122.186862,76.1794662 L122.186862,66.0900164 Z M113.391983,73.2920181 C113.391983,75.0854211 112.244622,76.270175 110.524248,76.270175 C108.803874,76.270175 107.65718,75.0854211 107.65718,73.2920181 L107.65718,66.0900164 L106.841739,66.0900164 L106.841739,73.3986529 C106.841739,75.5112678 108.365766,77 110.524248,77 C112.682062,77 114.206757,75.5112678 114.206757,73.3986529 L114.206757,66.0900164 L113.391983,66.0900164 L113.391983,73.2920181 Z M100.459791,66.7284401 C101.908352,66.7284401 102.964886,67.6715347 103.282113,69.1602669 L104.112247,69.1602669 C103.765635,67.199295 102.37718,66 100.459791,66 C99.4486707,66 98.4822959,66.3946871 97.7737101,67.1085862 C96.7926427,68.0959965 96.77795,69.0536321 96.77795,71.5 C96.77795,73.9463679 96.7926427,74.9026187 97.7737101,75.8914138 C98.4822959,76.6053129 99.4486707,77 100.459791,77 C102.346459,77 103.765635,75.7993202 104.112247,73.8397331 L103.312166,73.8397331 C102.994939,75.3284653 101.908352,76.270175 100.459791,76.270175 C99.6904314,76.270175 98.9658173,75.9821226 98.4228575,75.4351001 C97.6528298,74.6602669 97.5920557,73.8244996 97.5920557,71.5 C97.5920557,69.174808 97.6528298,68.3390407 98.4228575,67.5642075 C98.9658173,67.0178774 99.6904314,66.7284401 100.459791,66.7284401 Z M90.9850439,76.1794662 L87.8154414,76.1794662 L87.8154414,71.7430442 L90.9850439,71.7430442 C92.448297,71.7430442 93.4146718,72.5774267 93.4146718,73.9616014 C93.4146718,75.3436989 92.448297,76.1794662 90.9850439,76.1794662 Z M87.8154414,66.8205338 L90.8634957,66.8205338 C92.1624584,66.8205338 93.2490457,67.4277981 93.2490457,68.9165303 C93.2490457,70.4059549 92.1624584,71.0132192 90.8634957,71.0132192 L87.8154414,71.0132192 L87.8154414,66.8205338 Z M92.3881907,71.3469722 C93.4293644,70.9979856 94.0631514,70.04035 94.0631514,68.9165303 C94.0631514,67.1238197 92.7354713,66.0900164 90.9543229,66.0900164 L87,66.0900164 L87,76.9079063 L91.0752033,76.9079063 C92.9765641,76.9079063 94.2294453,75.8914138 94.2294453,73.9616014 C94.2294453,72.7159134 93.5502448,71.7430442 92.3881907,71.3469722 L92.3881907,71.3469722 Z" id="Fill-4" fill="#FFFFFE"></path>
                <path d="M191.614149,29.1216121 L191.614149,26.1844396 L195.599831,26.1844396 L195.599831,24.3607524 L191.614149,24.3607524 L191.614149,21.7971618 L195.96932,21.7971618 L195.96932,19.9728147 L189.258488,19.9728147 L189.258488,30.9466194 L196,30.9466194 L196,29.1216121 L191.614149,29.1216121 Z M184.507817,26.2992863 C184.501147,28.1447548 183.919569,29.3037828 182.244195,29.3077431 C180.568821,29.3037828 179.987242,28.1447548 179.979239,26.2992863 L179.979239,19.9728147 L177.624912,19.9728147 L177.624912,26.9692257 C177.629581,29.9044181 179.363646,31.12813 182.244195,31.1327503 C185.122743,31.12813 186.858142,29.9044181 186.863478,26.9692257 L186.863478,19.9728147 L184.507817,19.9728147 L184.507817,26.2992863 Z M170.241796,29.3077431 C167.995515,29.3037828 167.165831,27.3784497 167.16183,25.4273751 C167.164498,23.5271235 168.058875,21.613011 170.241796,21.6097108 C172.424051,21.613011 173.318428,23.5271235 173.32243,25.4273751 C173.317094,27.3784497 172.488078,29.3037828 170.241796,29.3077431 Z M175.773465,25.4273751 C175.768128,22.122561 173.777288,19.790644 170.241796,19.7853636 C166.660952,19.790644 164.715464,22.0756982 164.710128,25.4273751 C164.715464,28.779052 166.627604,31.12747 170.241796,31.1327503 C170.422539,31.1327503 170.592611,31.1327503 170.752012,31.1063487 L172.682826,32.983499 L172.722176,32.9438967 L172.722176,33 L175.568044,33 L172.996292,30.5169341 C174.813059,29.6338022 175.774798,27.7447713 175.773465,25.4273751 Z M160.978554,19.3840601 L160.929199,19.3002351 L159.583965,17 L157.227637,17 L159.509267,19.3675591 L160.978554,19.3840601 Z M158.711597,26.1837795 L162.697946,26.1837795 L162.697946,24.3607524 L158.711597,24.3607524 L158.711597,21.7971618 L163.065434,21.7971618 L163.065434,19.9721546 L156.355936,19.9721546 L156.355936,30.9452993 L163.097448,30.9452993 L163.097448,29.1216121 L158.711597,29.1216121 L158.711597,26.1837795 Z M151.525898,24.3600924 L147.156721,24.3600924 L147.156721,19.9728147 L144.801727,19.9728147 L144.801727,30.9452993 L147.156721,30.9452993 L147.156721,26.1850996 L151.525898,26.1850996 L151.525898,30.9452993 L153.880892,30.9452993 L153.880892,19.9728147 L151.525898,19.9728147 L151.525898,24.3600924 Z M134.736146,21.7958418 L137.937497,21.7958418 L137.937497,30.9466194 L140.291823,30.9466194 L140.291823,21.7958418 L143.494508,21.7958418 L143.494508,19.9721546 L134.736146,19.9721546 L134.736146,21.7958418 Z M128.441489,29.3077431 C126.195208,29.3037828 125.365524,27.3784497 125.361523,25.4286952 C125.365524,23.5258034 126.259235,21.6136711 128.441489,21.6097108 C130.623743,21.6136711 131.518121,23.5258034 131.522122,25.4286952 C131.516787,27.3784497 130.687103,29.3037828 128.441489,29.3077431 Z M128.441489,19.7853636 C124.859978,19.790644 122.915157,22.0763582 122.909821,25.4286952 C122.915157,28.779052 124.82663,31.1261499 128.441489,31.1327503 C132.008995,31.1261499 133.967154,28.7328493 133.973824,25.4286952 C133.967154,22.122561 131.976314,19.790644 128.441489,19.7853636 Z M118.812092,30.9452993 L121.169087,30.9452993 L121.169087,19.9728147 L118.812092,19.9728147 L118.812092,30.9452993 Z M113.359124,19.9728147 L111.002796,19.9728147 L111.002796,30.9452993 L117.696955,30.9452993 L117.696955,29.1209521 L113.359124,29.1209521 L113.359124,19.9728147 Z M104.58142,29.1216121 L103.580997,29.1216121 L103.580997,26.090054 L104.58142,26.0920342 C105.703226,26.0986345 106.828368,26.2979663 106.828368,27.6688668 C106.827034,28.8760777 105.622526,29.1176519 104.58142,29.1216121 Z M103.580997,21.7965018 L104.388672,21.7965018 C105.42044,21.8017821 106.490892,21.885607 106.49356,23.094138 C106.490892,24.1581205 105.382424,24.3574523 104.437359,24.3607524 L103.580997,24.3607524 L103.580997,21.7965018 Z M106.815696,25.2458644 C108.032209,24.948847 108.848554,24.0538344 108.84722,22.8142816 C108.845886,20.3853389 106.632285,19.9754548 105.189009,19.9728147 L101.226004,19.9728147 L101.226004,30.9466194 L105.189009,30.9466194 C106.600272,30.9419991 109.182028,30.5334351 109.183363,27.7460913 C109.184696,26.4504352 108.224957,25.4663174 106.815696,25.2458644 Z M96.5853785,30.9466194 L98.9410393,30.9466194 L98.9410393,19.9721546 L96.5853785,19.9721546 L96.5853785,30.9466194 Z M90.3547491,29.1209521 L89.3543269,29.1209521 L89.3543269,26.089394 L90.3547491,26.0913741 C91.4765559,26.0979745 92.6016974,26.2979663 92.6030312,27.6682068 C92.6003635,28.8760777 91.3945212,29.118312 90.3547491,29.1209521 Z M89.3543269,21.7958418 L90.1620011,21.7958418 C91.1937698,21.8011221 92.2648885,21.884947 92.2662224,23.094138 C92.2648885,24.1587806 91.1564208,24.3574523 90.2100214,24.3600924 L89.3543269,24.3600924 L89.3543269,21.7958418 Z M92.5890253,25.2465245 C93.8068726,24.948847 94.6218832,24.0538344 94.6205493,22.8142816 C94.6198824,20.3846788 92.4056146,19.9747948 90.9623388,19.9721546 L87,19.9721546 L87,30.9452993 L90.9623388,30.9452993 C92.374268,30.9426591 94.9546904,30.5334351 94.9573582,27.7467514 C94.9573582,26.4504352 93.9996206,25.4663174 92.5890253,25.2465245 L92.5890253,25.2465245 Z" id="Fill-5" fill="#FFFFFE"></path>
                <path d="M187.707377,35.1966686 L187.707377,36.3510501 L191.217858,36.3510501 L191.217858,45.8040484 L192.49086,45.8040484 L192.49086,36.3510501 L196,36.3510501 L196,35.1966686 L187.707377,35.1966686 Z M180.495933,40.7686256 L184.563772,40.7686256 L184.563772,39.6429036 L180.494592,39.6429036 L180.494592,36.3517166 L185.944758,36.3517166 L185.944758,35.1966686 L179.22226,35.1966686 L179.22226,45.8040484 L186.252613,45.8040484 L186.252613,44.6636634 L180.495933,44.6636634 L180.495933,40.7686256 Z M168.750509,40.7679591 L172.817677,40.7692921 L172.817677,39.6429036 L168.750509,39.6429036 L168.750509,36.3510501 L174.198663,36.3510501 L174.198663,35.1966686 L167.477507,35.1966686 L167.477507,45.8040484 L174.507189,45.8040484 L174.507189,44.6636634 L168.750509,44.6636634 L168.750509,40.7679591 Z M160.308989,35.1966686 L159.036657,35.1966686 L159.036657,45.8033819 L165.626355,45.8033819 L165.626355,44.6636634 L160.308989,44.6636634 L160.308989,35.1966686 Z M150.917076,41.4944463 L152.634757,36.7436198 L154.351097,41.4944463 L150.917076,41.4944463 Z M152.025084,35.154679 L151.997585,35.2299937 L148.092058,45.8040484 L149.350975,45.8040484 L150.511969,42.6061717 L154.756875,42.6061717 L155.915857,45.8040484 L157.251235,45.8040484 L153.316196,35.154679 L152.025084,35.154679 Z M145.092655,43.545273 L139.24543,35.1966686 L137.954319,35.1966686 L137.954319,45.8033819 L139.168969,45.8033819 L139.168969,37.1901762 L145.205334,45.8033819 L146.305964,45.8033819 L146.305964,35.1966686 L145.092655,35.1966686 L145.092655,43.545273 Z M131.083595,44.8729451 C129.100313,44.8702791 127.667683,43.2833377 127.658964,40.5006918 C127.667683,37.7180458 129.100313,36.1444345 131.083595,36.1404355 C133.067546,36.1444345 134.499506,37.7180458 134.507555,40.5006918 C134.499506,43.2833377 133.066205,44.8702791 131.083595,44.8729451 Z M131.083595,35.000717 C128.355158,35.0067155 126.391327,37.2035062 126.386632,40.5006918 C126.391327,43.7972108 128.355158,45.9940015 131.083595,46 C133.810019,45.9940015 135.775191,43.7972108 135.780557,40.5006918 C135.775191,37.2035062 133.810019,35.0067155 131.083595,35.000717 Z M117.489031,36.3510501 L120.998842,36.3510501 L120.998842,45.8033819 L122.271173,45.8033819 L122.271173,36.3510501 L125.782325,36.3510501 L125.782325,35.1973351 L117.489031,35.1973351 L117.489031,36.3510501 Z M114.466824,43.54394 L108.620941,35.1966686 L107.3305,35.1966686 L107.3305,45.8047149 L108.543139,45.8047149 L108.543139,37.1895097 L114.580174,45.8047149 L115.681475,45.8047149 L115.681475,35.1966686 L114.466824,35.1966686 L114.466824,43.54394 Z M99.2122605,41.4937798 L100.9286,36.7456193 L102.64494,41.4937798 L99.2122605,41.4937798 Z M100.319598,35.154679 L100.292099,35.2299937 L96.3872419,45.8040484 L97.6461593,45.8040484 L98.8071534,42.6061717 L103.050718,42.6061717 L104.211712,45.8040484 L105.543065,45.8040484 L101.61138,35.154679 L100.319598,35.154679 Z M93.6393547,42.3215753 C93.1691889,44.0304865 92.2194676,44.86628 90.6520249,44.8742781 C88.6117337,44.8689461 87.2823921,43.2740067 87.2723315,40.4300425 C87.2810507,37.799359 88.5989903,36.1431015 90.6231845,36.1404355 C92.2355646,36.1497665 92.9733424,36.9349059 93.4643001,38.5551723 L93.4951526,38.6591466 L94.7158397,38.3678853 L94.6849871,38.2545799 C94.1705547,36.301729 92.889504,34.9933855 90.6386108,35.0000252 C87.8491397,35.0053825 86.0033535,37.2768214 86,40.4587021 C86.0033535,43.8052088 87.8216407,45.9940015 90.6386108,45.9993337 L90.6520249,45.9993337 C92.8667,46 94.3308537,44.6703285 94.8613831,42.5908421 L94.8915649,42.4742043 L93.6668537,42.2169345 L93.6393547,42.3215753 L93.6393547,42.3215753 Z" id="Fill-6" fill="#FFFFFE"></path>
                <path d="M195.790191,59.9056848 C195.552987,60.7028424 195.315114,60.7435401 194.503942,60.7435401 L192.798744,60.7435401 C191.680877,60.7435401 191.4851,60.6078811 191.4851,59.4864341 L191.4851,57.2571059 L193.176266,57.2571059 C194.056929,57.2571059 194.406388,57.2706718 194.588133,58.0678295 L194.797942,58.0678295 L194.797942,55.3921189 L194.588133,55.3921189 C194.475879,56.0271318 194.196579,56.2299742 193.329948,56.2299742 L191.4851,56.2299742 L191.4851,53.2564599 L193.861152,53.2564599 C194.462515,53.2564599 194.755847,53.2978036 194.937592,54.0678295 L195.161433,54.0678295 L195.161433,52.2293282 L188.716825,52.2293282 L188.716825,52.4328165 C189.47187,52.4728682 189.55606,52.878553 189.55606,53.5271318 L189.55606,60.1627907 C189.55606,60.9728682 189.527997,61.4328165 188.716825,61.5678295 L188.716825,61.7706718 L196,61.7706718 L196,59.9056848 L195.790191,59.9056848 Z M183.532407,56.3385013 C183.267139,56.3921189 183.015235,56.4056848 182.763998,56.4056848 L181.939463,56.4056848 L181.939463,53.2435401 L182.875585,53.2435401 C183.295202,53.2435401 183.756247,53.2435401 184.189897,53.5542636 C184.399038,53.7028424 184.790592,54.0678295 184.790592,54.8242894 C184.790592,55.3378553 184.553388,56.1078811 183.532407,56.3385013 Z M187.06909,60.2299742 L185.224242,56.9056848 C185.433382,56.8249354 185.754777,56.6757106 186.076841,56.3514212 C186.537886,55.878553 186.775758,55.2700258 186.775758,54.6485788 C186.775758,53.6892765 186.244554,52.9463824 185.559669,52.5807494 C184.916878,52.2293282 184.287452,52.2164083 183.323266,52.2164083 L179.129093,52.2164083 L179.129093,52.4186047 C179.96766,52.5542636 179.98236,52.9321705 179.98236,53.6763566 L179.98236,60.4192506 C179.98236,61.0142119 179.954296,61.4328165 179.129093,61.5813953 L179.129093,61.7706718 L182.861553,61.7706718 L182.861553,61.5813953 C182.12054,61.3921189 181.939463,61.2435401 181.939463,60.2299742 L181.939463,57.4056848 C182.204731,57.4186047 182.469999,57.4328165 182.609649,57.4328165 C182.889616,57.4328165 183.112789,57.4186047 183.33663,57.4056848 L185.000401,60.3378553 C185.503541,61.2435401 185.99265,61.7706718 187.152613,61.7706718 L188.313243,61.7706718 L188.313243,61.5813953 C187.782039,61.3921189 187.614326,61.2034884 187.06909,60.2299742 Z M173.874516,52.4186047 C174.727115,52.5406977 174.755178,53.0678295 174.755178,53.7299742 L174.755178,60.1627907 C174.755178,61.0406977 174.755178,61.3385013 173.874516,61.5813953 L173.874516,61.7706718 L177.578244,61.7706718 L177.578244,61.5813953 C176.76774,61.3385013 176.711613,61.1492248 176.711613,60.1627907 L176.711613,53.7299742 C176.711613,52.8649871 176.823867,52.5542636 177.578244,52.4186047 L177.578244,52.2293282 L173.874516,52.2293282 L173.874516,52.4186047 Z M166.1176,57.7299742 L167.515435,54.5943152 L168.857143,57.7299742 L166.1176,57.7299742 Z M171.932781,60.122093 L168.452225,52.1485788 L167.501403,52.1485788 L163.727516,60.4056848 C163.420152,61.0949612 163.196312,61.5135659 162.60898,61.5813953 L162.60898,61.7706718 L165.418682,61.7706718 L165.418682,61.5813953 C165.18081,61.5277778 164.76186,61.4192506 164.76186,61 C164.76186,60.7971576 164.859415,60.5271318 164.985033,60.2435401 L165.670587,58.7028424 L169.276761,58.7028424 L169.919551,60.2435401 C170.073901,60.6078811 170.143392,60.8385013 170.143392,60.9864341 C170.143392,61.3649871 169.83536,61.5135659 169.48657,61.5813953 L169.48657,61.7706718 L173.162903,61.7706718 L173.162903,61.5813953 C172.492049,61.378553 172.365762,61.1085271 171.932781,60.122093 Z M160.873046,60 L160.873046,53.2435401 L162.718562,53.2435401 C163.41748,53.2435401 163.794334,53.3107235 163.906588,54.0542636 L164.116397,54.0542636 L164.116397,52.2293282 L155.631164,52.2293282 L155.631164,54.0542636 L155.855005,54.0542636 C155.8971,53.8242894 155.925164,53.6621447 156.092877,53.5 C156.330082,53.2564599 156.67954,53.2435401 156.972872,53.2435401 L158.902579,53.2435401 L158.902579,60 C158.902579,60.9599483 158.902579,61.3649871 158.021916,61.5813953 L158.021916,61.7706718 L161.754377,61.7706718 L161.754377,61.5813953 C160.929173,61.3242894 160.873046,61.1892765 160.873046,60 Z M150.8236,52.4186047 C151.676199,52.5406977 151.704263,53.0678295 151.704263,53.7299742 L151.704263,60.1627907 C151.704263,61.0406977 151.704263,61.3385013 150.8236,61.5813953 L150.8236,61.7706718 L154.527329,61.7706718 L154.527329,61.5813953 C153.716825,61.3385013 153.660698,61.1492248 153.660698,60.1627907 L153.660698,53.7299742 C153.660698,52.8649871 153.772952,52.5542636 154.527329,52.4186047 L154.527329,52.2293282 L150.8236,52.2293282 L150.8236,52.4186047 Z M147.357744,56.3385013 L146.882667,56.0949612 C145.861686,55.5813953 145.232928,55.2571059 145.232928,54.4321705 C145.232928,53.5542636 145.987973,53.0135659 146.952158,53.0135659 C148.349993,53.0135659 148.713484,53.8914729 148.909261,54.378553 L149.11907,54.378553 L149.11907,52.4457364 C148.587866,52.2564599 147.861553,52 146.714954,52 C145.442737,52 144.296806,52.378553 143.695443,53.3514212 C143.443539,53.7971576 143.345984,54.2842377 143.345984,54.6892765 C143.345984,56.0142119 144.226647,56.6627907 145.289055,57.2164083 L145.820259,57.4870801 C146.756381,57.9735142 147.455299,58.3520672 147.455299,59.2842377 C147.455299,60.1757106 146.728318,60.9599483 145.470132,60.9599483 C144.856074,60.9599483 144.31017,60.7835917 143.961379,60.500646 C143.583189,60.2170543 143.430175,59.8385013 143.331952,59.5678295 L143.122812,59.5678295 L143.122812,61.4864341 C143.486302,61.6356589 143.863156,61.7978036 144.67366,61.9056848 C145.037151,61.9599483 145.38661,61.9870801 145.7501,61.9870801 C146.295336,61.9870801 147.441935,61.9463824 148.364025,61.2299742 C149.021515,60.7028424 149.426433,59.9192506 149.426433,59.0406977 C149.426433,57.4056848 148.112789,56.7299742 147.357744,56.3385013 Z M137.490044,56.3385013 C137.224776,56.3921189 136.972872,56.4056848 136.721636,56.4056848 L135.896432,56.4056848 L135.896432,53.2435401 L136.833222,53.2435401 C137.25284,53.2435401 137.713885,53.2435401 138.146866,53.5542636 C138.356675,53.7028424 138.748229,54.0678295 138.748229,54.8242894 C138.748229,55.3378553 138.510357,56.1078811 137.490044,56.3385013 Z M141.026727,60.2299742 L139.181211,56.9056848 C139.39102,56.8249354 139.712415,56.6757106 140.034478,56.3514212 C140.495523,55.878553 140.733396,55.2700258 140.733396,54.6485788 C140.733396,53.6892765 140.202192,52.9463824 139.516638,52.5807494 C138.873847,52.2293282 138.245089,52.2164083 137.280903,52.2164083 L133.08673,52.2164083 L133.08673,52.4186047 C133.925297,52.5542636 133.939997,52.9321705 133.939997,53.6763566 L133.939997,60.4192506 C133.939997,61.0142119 133.911934,61.4328165 133.08673,61.5813953 L133.08673,61.7706718 L136.81919,61.7706718 L136.81919,61.5813953 C136.078177,61.3921189 135.896432,61.2435401 135.896432,60.2299742 L135.896432,57.4056848 C136.162368,57.4186047 136.427636,57.4328165 136.567286,57.4328165 C136.847254,57.4328165 137.070426,57.4186047 137.294267,57.4056848 L138.95737,60.3378553 C139.46051,61.2435401 139.950287,61.7706718 141.11025,61.7706718 L142.270212,61.7706718 L142.270212,61.5813953 C141.739008,61.3921189 141.571295,61.2034884 141.026727,60.2299742 Z M130.194842,60.7435401 L128.489643,60.7435401 C127.371776,60.7435401 127.175999,60.6078811 127.175999,59.4864341 L127.175999,57.2571059 L128.867166,57.2571059 C129.747828,57.2571059 130.097287,57.2706718 130.279032,58.0678295 L130.488841,58.0678295 L130.488841,55.3921189 L130.279032,55.3921189 C130.166778,56.0271318 129.887478,56.2299742 129.020847,56.2299742 L127.175999,56.2299742 L127.175999,53.2564599 L129.552051,53.2564599 C130.153414,53.2564599 130.446746,53.2978036 130.628491,54.0678295 L130.852332,54.0678295 L130.852332,52.2293282 L124.407724,52.2293282 L124.407724,52.4328165 C125.162769,52.4728682 125.24696,52.878553 125.24696,53.5271318 L125.24696,60.1627907 C125.24696,60.9728682 125.218896,61.4328165 124.407724,61.5678295 L124.407724,61.7706718 L131.690231,61.7706718 L131.690231,59.9056848 L131.48109,59.9056848 C131.243218,60.7028424 131.006014,60.7435401 130.194842,60.7435401 Z M120.788855,52.4186047 C121.152345,52.4864341 121.417613,52.6757106 121.417613,53.0813953 C121.417613,53.2978036 121.320059,53.5542636 121.165709,53.9056848 L118.747561,59.3520672 L116.372177,53.9056848 C116.245891,53.5949612 116.133636,53.2978036 116.133636,53.0542636 C116.133636,52.7700258 116.30135,52.5807494 116.4557,52.5 C116.553254,52.4457364 116.66484,52.4328165 116.791127,52.4186047 L116.791127,52.2293282 L113.142857,52.2293282 L113.142857,52.4186047 C113.785647,52.5807494 113.883202,52.8113695 114.44247,54.0813953 L117.867566,61.8520672 L118.747561,61.8520672 L122.270881,54.0542636 C122.843512,52.7842377 122.955098,52.5271318 123.584525,52.4186047 L123.584525,52.2293282 L120.788855,52.2293282 L120.788855,52.4186047 Z M108.641989,52.4186047 C109.494588,52.5406977 109.522651,53.0678295 109.522651,53.7299742 L109.522651,60.1627907 C109.522651,61.0406977 109.522651,61.3385013 108.641989,61.5813953 L108.641989,61.7706718 L112.345717,61.7706718 L112.345717,61.5813953 C111.535213,61.3385013 111.479086,61.1492248 111.479086,60.1627907 L111.479086,53.7299742 C111.479086,52.8649871 111.59134,52.5542636 112.345717,52.4186047 L112.345717,52.2293282 L108.641989,52.2293282 L108.641989,52.4186047 Z M104.463851,52.4328165 C105.246292,52.5678295 105.330482,52.9056848 105.330482,53.6621447 L105.330482,58.8385013 L99.4879059,52.2293282 L96.7062675,52.2293282 L96.7062675,52.4328165 C96.9294401,52.4599483 97.2929306,52.5 97.4746759,52.8921189 C97.5581986,53.0813953 97.5581986,53.2835917 97.5581986,53.5542636 L97.5581986,60.4056848 C97.5581986,60.8649871 97.5167713,61.1350129 97.3069624,61.3514212 C97.1252172,61.5277778 96.9154083,61.5542636 96.7062675,61.5813953 L96.7062675,61.7706718 L99.4879059,61.7706718 L99.4879059,61.5813953 C98.9146064,61.4593023 98.6486703,61.3242894 98.6486703,60.4056848 L98.6486703,54.0813953 L105.568355,61.8520672 L106.406922,61.8520672 L106.406922,53.6078811 C106.406922,52.8514212 106.53254,52.5678295 107.24549,52.4328165 L107.24549,52.2293282 L104.463851,52.2293282 L104.463851,52.4328165 Z M93.2263798,52.4186047 C94.0228518,52.5807494 94.0656154,52.8649871 94.0656154,53.6763566 L94.0656154,58.1085271 C94.0656154,58.6492248 94.0509154,59.5406977 93.547775,60.1627907 C93.2404116,60.5542636 92.5695577,61.0142119 91.4516905,61.0142119 C90.0257918,61.0142119 89.1310972,60.2299742 88.8932246,59.1757106 C88.809702,58.8385013 88.809702,58.5142119 88.809702,57.9056848 L88.809702,53.6763566 C88.809702,52.7971576 88.9493519,52.5807494 89.6623012,52.4186047 L89.6623012,52.2293282 L86,52.2293282 L86,52.4186047 C86.7543766,52.5406977 86.8525992,52.8514212 86.8525992,53.6763566 L86.8525992,58.0542636 C86.8525992,58.9463824 86.8806628,60.2170543 88.0960845,61.1621447 C88.7956702,61.7170543 89.8433783,62 91.0454363,62 C91.7871175,62 93.0867299,61.9186047 94.0509154,61.0949612 C95.0999599,60.2028424 95.1413871,58.9864341 95.1413871,58.0135659 L95.1413871,53.622093 C95.1413871,52.9463824 95.1694508,52.5949612 95.9946546,52.4186047 L95.9946546,52.2293282 L93.2263798,52.2293282 L93.2263798,52.4186047 L93.2263798,52.4186047 Z" id="Fill-7" fill="#FFFFFE"></path>
            </g>
        </g>
    </g>
</svg>