<svg width="200" height="71" viewBox="0 0 200 71" fill="none" xmlns="http://www.w3.org/2000/svg">
<g clip-path="url(#clip0_36_1054)">
<path fill-rule="evenodd" clip-rule="evenodd" d="M189.688 61.25C186.875 64.0625 179.688 64.6875 168.438 64.6875C162.812 64.6875 159.062 64.6875 155.938 64.375L198.75 5L197.5 2.5H155.312C151.562 2.5 151.562 1.875 150.625 0H146.875C146.562 9.0625 145.625 20.3125 145.625 20.3125L150 20.625C150 20.625 150.938 16.5625 152.812 13.125C155 8.75 155.938 8.125 166.875 8.125H184.062L140.312 67.8125L141.562 70.3125H195.625C197.188 64.375 199.688 51.5625 199.688 51.5625L195 50.625C195.312 50.625 193.125 57.8125 189.688 61.25ZM125.625 61.25C122.812 64.0625 115.625 64.6875 104.375 64.6875C98.75 64.6875 95 64.6875 91.875 64.375L134.375 5L133.125 2.5H91.25C87.5 2.5 87.5 1.875 86.5625 0H82.8125C82.1875 9.0625 81.25 20.3125 81.25 20.3125L85.9375 20.625C85.9375 20.625 86.875 16.5625 88.75 13.125C90.9375 8.75 91.875 8.125 102.813 8.125H120L76.25 67.8125L77.5 70.3125H131.562C133.125 64.375 135.625 51.5625 135.625 51.5625L131.25 50.625C131.25 50.625 129.062 57.8125 125.625 61.25ZM46.875 7.1875C46.875 7.1875 49.0625 7.1875 51.5625 7.5C55.9375 8.125 56.5625 10.625 56.5625 12.5C57.1875 15.9375 57.1875 20.9375 57.1875 29.0625V50.9375L16.25 2.5H0V7.1875C0 7.1875 5 7.1875 7.1875 8.75C11.25 11.5625 10.9375 14.375 10.9375 20.3125V42.5C10.9375 50 10.625 55.625 10.3125 59.6875C10 61.875 9.375 63.75 7.1875 64.6875C5.3125 65.3125 1.5625 65.625 1.5625 65.625V70.3125H27.5V65.625C27.5 65.625 23.4375 65.625 21.25 64.6875C18.75 63.75 18.125 61.875 17.8125 59.6875C17.5 55.9375 17.1875 50.3125 17.1875 42.5V19.375L59.375 70.3125H63.75V29.375C63.75 20.625 64.0625 15.625 64.375 12.1875C64.375 10.625 65.3125 8.75 66.875 8.125C69.0625 7.1875 72.8125 7.1875 72.8125 7.1875V2.5H46.875V7.1875Z" fill="var(--bs-dark)"/>
</g>
<defs>
<clipPath id="clip0_36_1054">
<rect width="199.688" height="70.3125" fill="white"/>
</clipPath>
</defs>
</svg>
