<svg id="ORF_wie_wir" data-name="ORF wie wir" fill="var(--bs-dark)" xmlns="http://www.w3.org/2000/svg" viewBox="0 0 567 80.8">
  <path id="Black_part" d="m233,70h9.8l11.6-33.5,11.5,33.5h9.8l17.5-51.6h-11.8l-10.6,34.7-11.5-34.8h-9.7l-11.5,34.8-10.6-34.7h-12.1l17.6,51.6h0Zm69-.3h11.3V18.5h-11.3v51.2h0Zm24.1,0h39v-10h-27.8v-10.8h24.1v-10h-24.1v-10.4h27.4v-10h-38.6v51.2h0Zm84.5.3h9.8l11.6-33.5,11.6,33.5h9.8l17.5-51.6h-11.8l-10.6,34.7-11.5-34.8h-9.7l-11.5,34.8-10.6-34.7h-12.1l17.5,51.6h0Zm69.1-.3h11.3V18.5h-11.3v51.2h0Zm24.1,0h11.2v-16.4h8.9l11,16.4h13.2l-12.5-18.3c6.5-2.4,11-7.6,11-15.9v-.1c0-4.8-1.5-8.9-4.4-11.7-3.4-3.4-8.4-5.2-14.9-5.2h-23.4v51.2h-.1Zm11.2-26.4v-14.7h11.2c5.5,0,8.9,2.5,8.9,7.3v.1c0,4.3-3.1,7.2-8.6,7.2h-11.5v.1Zm40.1,26.4h11.9v-11.7h-11.9v11.7h0Z" fill="var(--bs-dark)" stroke-width="0"/>
  <path id="Red_part" d="m39.3,27.7c-6.7,0-12.6,5.7-12.6,12.8s6,12.7,12.6,12.7,12.6-5.7,12.6-12.7-6.1-12.8-12.6-12.8Zm62.7,1h-11.2v10.6h11.2c4.9.1,6.3-2.2,6.3-5.3,0-2.8-1.4-5.3-6.3-5.3ZM0,0v80.8h189.2V0H0Zm39.2,63.8c-13.5,0-24.1-10.2-24.1-23.3s10.6-23.5,24.1-23.5,24,10.3,24,23.5-10.7,23.3-24,23.3Zm68.6-.7l-8.7-13.1h-8.2v13.1h-11.2V18.1h23c9.9,0,16.6,7,16.6,15.9,0,6.1-3.7,11-8.9,13.3l11.2,15.8h-13.8Zm66.4-34.4h-25.6v8.7h20.9v10.6h-20.9v15.1h-11.1V18.1h36.7v10.6Z" fill="var(--bs-dark)" stroke-width="0"/>
</svg>