<svg id="Ebene_1" fill="var(--bs-dark)" data-name="Ebene 1" xmlns="http://www.w3.org/2000/svg" viewBox="0 0 299.98 62.3">
  <polygon id="Red_part" points="0 0 0 43.1 19.3 43.1 19.3 62.3 38.6 43.1 38.6 0 0 0" fill="var(--bs-dark)" stroke-width="0"/>
  <path id="Black_part" d="m72.28,28.61c.9.2,1.8.4,2.8.4,2.9,0,5-1.8,5-4.3,0-1.6-.9-3-2.3-3.7l-2.5-1.4c-1.3-.7-1.6-1.1-1.6-1.9,0-1.1.9-1.7,2.5-1.7h.3l1.3,2.4h1.9v-3l-.3-.1-1.2-.3c-.3-.1-.8-.1-1.3-.2-.5,0-1.1-.1-1.7-.1-2.6,0-4.6,1.7-4.6,3.9,0,1.6.7,2.5,2.5,3.6l2.4,1.4c1.5.8,1.7,1.1,1.7,2,0,1.3-1,2-2.7,2h-.6l-1.4-2.7h-1.9v3.3l.4.1,1.3.3Zm-10.2,10.4l2.3,1v11l-9.9-12.8h-5.6v.8l2.4,1v15.4l-2.4,1v.8h6.6v-.8l-2.3-1v-13.1l11.6,15.1h1.5v-17.4l2.4-1v-.8h-6.6v.8Zm21.9-13.5c0,2.3,1.1,3.4,3.4,3.4,1,0,2-.2,3-.4l1.5-.4.3-.1-.3-1.1h-.2l-.8.1c-.3.1-.6.1-.9.1-2,0-2.6-.6-2.6-2.5v-8.5h4.4v-1.4h-4.4v-3.5h-1.1c-.2.5-.5,1-.8,1.5-1,1.5-1.1,1.6-3.5,2.4l-.3.1v1h2.2l.1,9.3Zm-25.8,3.6c5.9,0,10-4.2,10-10.3,0-5.6-3.7-9.4-9-9.4-5.9,0-10,4.3-10,10.4,0,5.5,3.7,9.3,9,9.3Zm.5-18.2c3.3,0,5.6,3.4,5.6,8.3,0,5.2-2.1,8.4-5.6,8.4s-5.7-3.4-5.7-8.5,2.3-8.3,5.7-8.2Zm2.6-2.8h.3c.8-.1,1.4-.8,1.3-1.6v-.3c0-.8-.7-1.4-1.5-1.3h-.3c-.8.1-1.4.8-1.3,1.6,0,.1,0,.2-.1.4.1.8.8,1.3,1.6,1.2Zm-5.4-.1h.3c.8,0,1.4-.7,1.3-1.5v-.3c-.1-.8-.8-1.4-1.6-1.3h-.4c-.7.1-1.2.8-1.1,1.6v.3c.1.8.8,1.3,1.5,1.2Zm160.3,21c1.9-.1,3.7-.5,5.5-1.1l-.2-1.1-.3.1c-.8.2-1.6.3-2.4.3-3.4,0-5.4-2.1-5.4-5.7,0-3.2,1.8-5.6,4.3-5.6h.2l1.4,2.6h2.4v-3.2c-1.4-.4-2.8-.6-4.2-.5-4.7,0-7.9,3-7.9,7.5v.6c.1,3.5,3.1,6.2,6.6,6.1Zm-16.4-.4c.9.2,1.8.4,2.8.4,2.9,0,5-1.8,5-4.3,0-1.6-.9-3-2.3-3.7l-2.5-1.4c-1.3-.7-1.6-1.1-1.6-1.9,0-1.1.9-1.7,2.5-1.7h.3l1.3,2.4h1.9v-3l-.3-.1-1.2-.3c-.3-.1-.8-.1-1.3-.2-.5,0-1.1-.1-1.7-.1-2.6,0-4.6,1.7-4.6,3.9,0,1.6.7,2.5,2.5,3.6l2.4,1.4c1.5.8,1.7,1.1,1.7,2,0,1.3-1,2-2.7,2h-.6l-1.4-2.7h-1.9v3.3l.4.1,1.3.3Zm-7.7-16.5c1.5,0,2.1-.5,2.1-1.6,0-1-.6-1.5-2.2-1.5-1.4,0-2.1.5-2.1,1.6s.6,1.5,2.2,1.5Zm25,26.9c0,1.2.6,1.6,2.2,1.5,1.5,0,2.1-.5,2.1-1.6,0-1-.6-1.5-2.2-1.5-1.4,0-2.1.5-2.1,1.6Zm-20.8-11.1l-2.4-1v-12.5l-6,1.1v.8l2.4.7v9.9l-2.4,1v.8h8.4v-.8Zm51.2,1.2c1.9-.1,3.9-.5,5.7-1.2l-.2-1.1c-1,.2-2.1.4-3.2.4-3.3,0-5.3-2.1-5.3-5.7h9c0-2.4-.2-3.2-.9-4.3-.8-1.6-2.5-2.4-4.9-2.4-3.9,0-6.8,3.2-6.8,7.5s2.5,6.8,6.6,6.8Zm-.2-13.3c1.7,0,2.3,1.2,2.4,4.2l-5.2.5c0-3.1,1-4.7,2.8-4.7Zm-64.6,23.2c0,1.2.6,1.6,2.2,1.5,1.5,0,2.1-.5,2.1-1.6,0-1-.6-1.5-2.2-1.5-1.4,0-2.1.5-2.1,1.6Zm-27.3-11.1l-2.4-1v-12.5l-6,1.1v.8l2.4.7v9.9l-2.5,1v.8h8.5v-.8Zm-39.6,0l-3-1v-9.9c.6-.2,1.2-.3,1.8-.4.2,0,.4.1.7.1l.8,1.8h2.9v-3.5c-.6-.3-1.2-.5-1.8-.5-.9,0-1.9.4-4.1,1.6l-.3.2v-1.8l-5.9,1v.8l2.4.7v9.9l-2.4,1v.8h8.9v-.8Zm23.5,1.2c1.9-.1,3.9-.5,5.7-1.2l-.2-1.1c-1,.2-2.1.4-3.2.4-3.3,0-5.3-2.1-5.3-5.7h9c0-2.4-.2-3.2-.9-4.3-.8-1.6-2.5-2.4-4.9-2.4-3.9,0-6.8,3.2-6.8,7.5s2.5,6.8,6.6,6.8Zm-.2-13.3c1.7,0,2.3,1.2,2.4,4.2l-5.2.5c0-3.1,1-4.7,2.8-4.7Zm12.1-3.7c1.5,0,2.1-.5,2.1-1.6,0-1-.6-1.5-2.2-1.5-1.4,0-2.1.5-2.1,1.6s.6,1.5,2.2,1.5Zm11.8,16.9c1.9-.1,3.7-.5,5.5-1.1l-.2-1.1-.3.1c-.8.2-1.6.3-2.4.3-3.4,0-5.4-2.1-5.4-5.7,0-3.2,1.8-5.6,4.3-5.6h.2l1.3,2.6h2.4v-3.2c-1.3-.4-2.7-.6-4.1-.5-4.7,0-7.9,3-7.9,7.5v.6c.1,3.5,3.1,6.2,6.6,6.1Zm-61.4-1.8c-3.3,0-5.3-2.1-5.3-5.7h9c-.1-2.4-.3-3.2-.9-4.3-.8-1.6-2.5-2.4-4.9-2.4-3.9,0-6.8,3.2-6.8,7.5s2.5,6.8,6.6,6.8c1.9-.1,3.9-.5,5.7-1.2l-.2-1.1c-1,.2-2.1.4-3.2.4Zm-2.5-11.4c1.7,0,2.3,1.2,2.4,4.2l-5.2.5c0-3.1,1-4.7,2.8-4.7Zm122,27l-6,1.1v.8l2.4.7v9.9l-2.5.9v.8h8.5v-.8l-2.4-1v-12.4Zm16.4-23.4c0-1.7-.2-2.6-1-3.5-.6-.8-1.6-1.2-2.6-1.2-1.7.2-3.3.6-4.8,1.3l-.3.1v-7.5l-6,1.1v.8l2.6.7v15.7l-2.4,1v.8h8v-.8l-2.1-1v-10c.7-.2,1.5-.3,2.2-.3,2.1,0,2.9,1,2.9,3.6v6.7l-2,1v.8h7.9v-.8l-2.4-1v-7.5Zm-5.5,23.7h-.8c-3.9.2-6.9,3.6-6.7,7.5,0,4.2,2.8,7,7.2,7h.8c3.9-.2,6.9-3.6,6.7-7.5,0-4.2-2.8-7-7.2-7Zm-.2,13c-2.2,0-3.5-2.3-3.5-6.1,0-3.5,1.4-5.7,3.5-5.7s3.5,2.4,3.5,6.2c0,3.6-1.3,5.6-3.5,5.6Zm-32.2-13c-1.1,0-2.1.3-3,.8l-1.5.7-.3.1v-7.7l-6,1.1v.8l2.6.7v17.1l.4.2,1.5.3c1,.1,2.1.3,3.2.3,4.9,0,8.3-3.3,8.3-7.9,0-3.7-2.3-6.5-5.2-6.5Zm-3.6,12.9c-.4,0-.8-.1-1.2-.2v-10.4c.6-.2,1.2-.3,1.8-.3,2.6,0,4.3,2.1,4.3,5.3,0,3.4-1.9,5.6-4.9,5.6Zm15.3-19l-6,1.2v.8l2.6.7v15.7l-2.4,1v.8h8.4v-.8l-2.6-1v-18.4Zm-24.6,5.8l-6,1.1v.8l2.4.7v9.9l-2.5.9v.8h8.5v-.8l-2.4-1v-12.4Zm111.2,12.8l-5-7.3,3.8-3.2,2.8-1v-.8h-7.1v.8l1.9.8-4.5,4.8,4.9,7.5h5.3v-.8l-2.1-.8Zm-47.9-.2l-.8.1c-.3.1-.6.1-.9.1-2,0-2.6-.6-2.6-2.5v-8.5h4.4v-1.4h-4.4v-3.5h-1.1c-.2.5-.5,1-.8,1.5-1,1.5-1.1,1.6-3.5,2.4l-.3.1v1h2.2l.1,9.3c0,2.3,1.1,3.4,3.4,3.4,1,0,2-.2,3-.4l1.5-.4.3-.1-.3-1.1h-.2Zm39.5-18.4l-6.2,1.2v.8l2.6.7v15.7l-2.4,1v.8h8v-.8l-2-1v-18.4Zm-23.6,10.8c0-1.7-.2-2.6-1-3.5-.6-.8-1.6-1.2-2.6-1.2-1.7.2-3.3.6-4.8,1.3l-.3.1v-7.5l-6,1.1v.8l2.6.7v15.8l-2.4,1v.8h8v-.8l-2.1-1v-10c.8-.2,1.6-.3,2.2-.4,2.1,0,2.9,1,2.9,3.6v6.7l-2,1v.8h7.9v-.8l-2.4-1v-7.5Zm15.2-2.2c-.8-1.6-2.5-2.4-4.9-2.4-3.9,0-6.8,3.2-6.8,7.5s2.5,6.8,6.6,6.8c1.9-.1,3.9-.5,5.7-1.2l-.2-1.1c-1,.2-2.1.4-3.2.4-3.3,0-5.3-2.1-5.3-5.7h9c0-2.3-.2-3.1-.9-4.3Zm-8.1,3.4c0-3.1,1-4.7,2.8-4.7,1.7,0,2.3,1.2,2.4,4.2l-5.2.5Zm-137.3-1.1c0-1.9-.2-2.7-.9-3.6-.6-.8-1.7-1.3-2.7-1.2-.5,0-1.1,0-1.6.2-.2.1-.8.3-1.6.6l-1.3.5-.3.1v-1.6l-5.9,1.1v.8l2.4.7v9.9l-2.4,1v.8h8v-.8l-2.2-1v-9.9c.7-.2,1.5-.3,2.1-.2,2.2,0,2.9.8,2.9,3.5v6.6l-1.8,1v.8h7.7v-.8l-2.4-1v-7.5Zm-35.8-7.4c1.5,0,2.1-.5,2.1-1.6,0-1-.6-1.5-2.2-1.5-1.4,0-2.1.5-2.1,1.6,0,1.2.6,1.6,2.2,1.5Zm12.7,2.6h-.8c-3.9.2-6.9,3.6-6.7,7.5,0,4.2,2.9,7,7.2,7h.8c3.9-.2,6.9-3.6,6.7-7.5,0-4.2-2.8-7-7.2-7Zm-.1,13c-2.2,0-3.5-2.3-3.5-6.1,0-3.5,1.4-5.7,3.5-5.7s3.5,2.4,3.5,6.2c0,3.6-1.3,5.6-3.5,5.6Zm-10.7-13.3l-6,1.1v.8l2.4.7v9.9l-2.5.9v.8h8.5v-.8l-2.4-1v-12.4Zm27.2-14.9l-3-1v-9.9c.6-.2,1.2-.3,1.8-.4.2,0,.4.1.7.1l.8,1.8h2.9v-3.5c-.6-.3-1.2-.5-1.8-.5-.9,0-1.9.4-4.1,1.6l-.3.2v-1.8l-5.9,1v.8l2.4.7v9.9l-2.4,1v.8h8.9v-.8Zm49.9,0v.8h7.7v-.8l-2.4-1v-7.5c0-1.7-.2-2.6-1-3.5-.6-.8-1.6-1.2-2.6-1.2-1.7.2-3.3.6-4.8,1.3l-.3.1v-7.5l-6,1.1v.8l2.6.7v15.7l-2.4,1v.8h8v-.8l-2.1-1v-10c.8-.2,1.6-.3,2.4-.3,2.1,0,2.9,1,2.9,3.6v6.7l-2,1Zm-85,27.5l-.8.1c-.3.1-.6.1-.9.1-2,0-2.6-.6-2.6-2.5v-8.5h4.4v-1.4h-4.4v-3.5h-1.1c-.2.5-.5,1-.8,1.5-1,1.5-1.1,1.6-3.5,2.4l-.3.1v1h2.2l.1,9.3c0,2.3,1.1,3.4,3.4,3.4,1,0,2-.2,3-.4l1.5-.4.3-.1-.3-1.1h-.2Zm66.1-18.4l-6,1.2v.8l2.6.7v15.7l-2.4,1v.8h8.4v-.8l-2.6-1v-18.4Zm13.7,6.1c-1.1,0-2.1.3-3,.8l-1.5.7-.3.1v-7.7l-6,1.1v.8l2.6.7v17.1l.3.2,1.5.3c1.1.1,2.2.3,3.3.3,4.9,0,8.3-3.3,8.3-7.9,0-3.7-2.3-6.5-5.2-6.5Zm-3.5,12.9c-.4,0-.8-.1-1.2-.2v-10.4c.6-.2,1.2-.3,1.8-.3,2.6,0,4.3,2.1,4.3,5.3,0,3.4-1.9,5.6-4.9,5.6Zm-89.2-1.5v-8c0-1.6-.3-2.2-1.4-2.8-.9-.4-2-.7-3-.6-2,.1-3.9.5-5.8,1.1v2.7h2.6l1.3-2.6h.7c1.5,0,2,.6,2,2.2v3.3c-1.7.1-3.4.3-5.1.7-1.6.3-2.8,1.8-2.7,3.4v.2c.2,1.9,1.8,3.4,3.8,3.3,1.5-.1,2.9-.7,4.2-1.5.4,1.1.9,1.5,1.8,1.5.4,0,.8-.1,1.2-.2.2,0,.6-.1,1.3-.3l1.2-.4.3-.1v-.8l-1.5-.4c-.6-.2-.9-.4-.9-.7Zm-5.3.9h-.3c-1.2,0-2.1-1-2.1-2.2,0-1.3.5-1.8,2.6-2.2l1.2-.2.4-.1.1,4.4c-.6.2-1.3.3-1.9.3Zm75.1-.9v-8c0-1.6-.3-2.2-1.4-2.8-.9-.4-2-.7-3-.6-1.9.1-3.8.5-5.7,1.1v2.7h2.6l1.3-2.6h.5c1.5,0,2,.6,2,2.2v3.3c-1.7.1-3.4.3-5.1.7-1.6.3-2.8,1.8-2.7,3.4v.2c.2,1.9,1.8,3.4,3.8,3.3,1.5-.1,2.9-.7,4.2-1.5.4,1.1.9,1.5,1.8,1.5.4,0,.8-.1,1.2-.2.2,0,.6-.1,1.3-.3l1.3-.4.3-.1v-.8l-1.5-.4c-.6-.2-.9-.4-.9-.7Zm-3.4.7c-.6.2-1.3.3-1.9.3h-.3c-1.2,0-2.1-1-2.1-2.2,0-1.3.5-1.8,2.6-2.2l1.3-.3.4-.1v4.5Z" fill="var(--bs-dark)" stroke-width="0"/>
</svg>