<svg id="RTS_logo" fill="var(--bs-dark)" xmlns="http://www.w3.org/2000/svg" viewBox="0 0 677.31 454.22">
  <path id="RTS" d="m0,0v454.22h677.31V0H0Zm243.18,335.21h-36.35c-8.03,0-10.71-2.3-14.16-8.04l-39.8-71.56c-2.3-3.83-3.44-6.51-3.44-9.95,0-1.15,0-3.06,1.15-7.27l3.44-14.16c3.06-12.63,6.51-8.42,16.07-12.63,7.65-3.06,15.31-8.42,15.31-25.64,0-18.75-9.95-26.02-29.85-26.02h-31.76v166.08c0,6.89-1.91,9.18-8.8,9.18h-30.61c-6.89,0-8.8-2.3-8.8-9.18v-197.07c0-6.89,2.3-9.18,8.8-9.18h74.62c51.66,0,75,23.72,75,65.43,0,32.14-18.37,47.07-34.82,57.4l48.98,81.12c5.36,8.42-.38,11.48-4.98,11.48Zm187.89-183.29c0,6.89-1.91,9.18-8.8,9.18h-57.02v165.31c0,6.89-2.3,9.18-8.8,9.18h-30.61c-6.89,0-8.8-2.3-8.8-9.18v-165.31h-57.02c-6.89,0-8.8-2.68-8.8-9.18v-22.96c0-6.89,1.91-9.18,8.8-9.18h162.25c6.89,0,8.8,2.68,8.8,9.18v22.96Zm78.44,185.21c-23.72,0-48.21-1.91-57.78-3.06-4.59-.77-6.89-2.68-6.12-7.65l4.21-25.64c1.53-7.27,3.83-8.42,11.86-8.03,8.04.77,32.53,2.68,46.68,2.68,31,0,43.62-3.44,43.62-22.19,0-12.63-8.8-18.75-29.08-24.11l-24.87-6.51c-32.53-8.42-51.28-28.7-51.28-63.14,0-38.27,26.79-62.37,81.89-62.37,27.17,0,48.6,1.53,58.16,3.06,4.59.77,6.89,2.68,6.12,7.65l-3.83,25.26c-1.15,7.27-3.44,8.42-12.24,7.65-8.42-.77-29.47-2.3-50.13-2.3-15.31,0-31.38,3.44-31.38,20.66,0,12.63,7.65,17.98,24.49,22.19l24.87,6.51c44.39,11.48,57.02,33.29,57.02,62.37,0,49.75-39.03,66.97-92.22,66.97Z" fill="var(--bs-dark)" stroke-width="0"/>
</svg>