<svg id="Staatsbibliothek_zu_Berlin-logo" fill="var(--bs-dark)"  xmlns="http://www.w3.org/2000/svg" viewBox="0 0 785.72 172.68">
  <path id="Staatsbibliothek_zu_Berlin" d="m735.29,165.98h4.26v-26.76l-4.26.22v26.54Zm-416.17-8.89c0,3.64-2.11,5.48-6.16,5.48s-6.2-1.89-6.2-5.48v-17.88h-4.22v17.97c0,5.88,3.36,9.29,10.37,9.29s10.42-3.36,10.42-9.29v-17.97h-4.22v17.88Zm394.83-10.68c0-2.15,2.02-3.52,5.22-3.52,2.16,0,4.72.48,6.96,1.41l.36-3.56c-2.15-.99-4.62-1.53-7.23-1.53-6.16,0-9.34,2.96-9.34,7.41,0,8.83,13.7,6.06,13.7,12,0,2.46-1.62,4.31-5.53,4.31-2.56,0-5.62-.79-7.64-2.28l-.54,3.63c2.07,1.48,5.02,2.24,8.22,2.24,6.61,0,9.43-3.36,9.43-8.29,0-9.14-13.61-6.24-13.61-11.82Zm-437-76.89h-7.25v18.2c0,2.9-1.5,4.26-4.68,4.26s-4.68-1.45-4.68-4.26v-18.2h-7.25v18.34c0,6.73,3.88,10.52,11.93,10.52s11.93-3.65,11.93-10.52v-18.34Zm460.49,60.63c-1.84,0-2.74.81-2.74,2.29,0,1.7.9,2.29,2.74,2.29s2.74-.72,2.74-2.29c0-1.48-.9-2.29-2.74-2.29Zm-451.83,9.07c-7.37,0-11.05,4.65-11.05,12.66,0,10.02,3.63,14.64,12.44,14.64,3.23,0,6.02-.76,8.26-1.97l-.49-3.59c-2.29,1.12-4.58,1.71-7.27,1.71-5.75,0-8.36-2.43-8.58-9.48h17.16c.04-.58.09-1.39.09-2.06,0-8.14-4.17-11.9-10.55-11.9Zm-6.78,11.05c.27-5,2.29-7.37,6.83-7.37,3.86,0,6.52,2.03,6.6,7.37h-13.43Zm39.44-70.88v-.09c2.8-1.17,4.68-3.6,4.68-7.53,0-5.57-3.83-8.98-11.46-8.98h-14.27v35.08h14.45c8.84,0,12.53-3.88,12.53-10.2,0-4.45-2.06-7.21-5.94-8.28Zm-13.43-9.97h6.37c2.95,0,4.21.98,4.21,3.75s-1.22,3.89-4.03,3.89h-6.55v-7.63Zm6.93,21.99h-6.97v-8.52h6.79c3.42,0,4.73,1.22,4.73,4.17,0,3.32-1.4,4.35-4.54,4.35Zm32.55,55.27c0-1.86,5.84-4.12,5.84-8.58,0-3.55-3.32-6.38-8.13-6.38-6.74,0-10.46,4.03-10.46,11.55v29.4h4.22v-29.8c0-5,2.07-7.48,6.16-7.48,2.56,0,4.18,1.19,4.18,2.83,0,3.58-6.34,5.71-6.34,8.98,0,4.16,10.11,4.91,10.11,10.4,0,3.01-2.65,4.47-6.38,4.47-1.69,0-3.31-.43-4.67-1.04l-.27,3.89c1.71.72,3.84,1.06,5.66,1.06,5.98,0,9.97-3.23,9.97-8.5,0-7.3-9.88-8.5-9.88-10.8Zm22.86-117.86c0-9.52-12.96-7.01-12.96-11.2,0-1.41,1.31-2.32,3.7-2.32,2.11,0,5.24.46,7.58,1.41l.61-5.9c-2.38-.98-5.19-1.54-8.04-1.54-7.3,0-10.76,3.65-10.76,8.67,0,9.66,13.15,7.11,13.15,11.52,0,1.64-1.22,2.78-4.12,2.78-2.43,0-5.75-.64-8.09-1.96l-.75,5.93c2.38,1.31,5.47,1.96,8.88,1.96,7.67,0,10.81-3.79,10.81-9.35Zm326.76,110.4c-7.37,0-11.04,4.65-11.04,12.66,0,10.02,3.63,14.64,12.44,14.64,3.23,0,6.02-.76,8.26-1.97l-.49-3.59c-2.29,1.12-4.58,1.71-7.28,1.71-5.75,0-8.35-2.43-8.58-9.48h17.16c.05-.58.09-1.39.09-2.06,0-8.14-4.17-11.9-10.55-11.9Zm-6.78,11.05c.27-5,2.29-7.37,6.83-7.37,3.86,0,6.52,2.03,6.61,7.37h-13.44Zm-344.23-51.89c3.6,0,6.88-.75,9.26-1.82l-.79-5.84c-2.43.94-4.91,1.4-7.58,1.4-4.87,0-7.16-1.78-7.54-6.51h16.51c.14-.98.19-2.34.19-3.41,0-8.98-4.44-13.19-11.69-13.19-8.51,0-12.49,5.28-12.49,14.31,0,9.92,4.35,15.06,14.13,15.06Zm-1.59-23.35c3.04,0,4.92,1.59,5.01,5.76h-10.2c.33-4.12,1.69-5.76,5.2-5.76Zm-11.38-46c0,5.3,2.76,8.57,8.42,8.57,2.01,0,3.88-.37,4.87-.79l-.42-5.27c-.51.18-1.5.32-2.25.32-2.25,0-3.37-.91-3.37-3.05v-14.12h6.32v-5.42h-6.32V2.53l-5.7.5-1.22,6.24h-3.51v5.42h3.18v14.35ZM0,2.52v122.55c12.95-15.84,24.11-22.43,28.8-24.52.44-.19.45-.49.43-.62-.04-.22-.26-.45-.82-.44-2.31.03-7.07,1.32-10.19,2.47-.72.27-.84-.21-.54-.77.67-1.25,3.72-4.12,12.83-7.8,15.04-6.07,30.59-5.41,37.71-1.84,3.15,1.59,4.48,4.74,4.86,5.88.05.14-.02.22-.13.22-11.05-.12-16.03.44-19.32,1.45-.98.3-1.08,1.03-.21,1.69,1.56,1.18,6.4,2.43,8.34,2.75.58.1.89-.1,1.25-.51.41-.47.94-1.15,1.4-1.6.36-.35.54-.39,1.23-.44,1.02-.07,3.38-.11,5.46-.07,9.68.17,20.48,2.57,20.48,16.27,0,4.93-2.02,9.74-2.97,11.22-.62.97-1.61.92-1.56-.52.26-6.73-.83-9.49-11.47-9.49-5.38,0-13.89.78-17.7,2.57-1.41.66-1.55,1.88-.12,1.76,2.12-.18,10.44-.76,16.33-.76,3.9,0,6.96.39,8.06,1.94.27.38.32,1.08-.61.94-.38-.05-1.36-.17-2.74-.17-12.26,0-24.24,7.23-24.24,19.74,0,19.89,29.27,27.84,65.87,27.84,29.48,0,49.32-6.33,49.32-6.33V2.52H0Zm614.61,35.09l-8-15.48,7.72-12.86h-8.05l-5.89,10.24h-3.69V.84l-7.25.33v36.44h7.25v-12.21h3.69l6.04,12.21h8.19Zm156.93,124.7l-.05-.13,2.11-2.83,11.86-17.03v-3.09h-18.28l-.13,3.68h13.47l.04.09-2.11,2.88-11.9,17.07v3.05h19.04l.14-3.68h-14.19Zm-511.79-17.01h-.09l-.36-5.71-3.41.22v26.18h4.26v-13.32c0-5.65,3.37-9.13,7.55-9.13.94,0,1.84.09,2.65.35l.27-4.3c-.72-.22-1.66-.36-2.65-.36-3.64,0-6.56,2.24-8.22,6.07Zm49.8-125.46c-6.46,0-10.1,3.6-10.1,8.84,0,5.9,3.41,8.94,8.79,8.94,3.23,0,5.95-1.17,7.68-3.22l.14.05.56,3.18h5.56v-17.54c0-7.77-2.9-11.37-11.27-11.37-3.65,0-6.88.65-9.73,1.87l.61,5.8c2.62-1.08,4.68-1.55,7.81-1.55,3.89,0,5.38,1.31,5.38,4.17v1.64c-1.5-.47-3.32-.79-5.43-.79Zm5.43,9.16c0,1.46-2.25,2.86-4.73,2.86s-4.03-.92-4.03-3.51c0-2.33,1.5-3.51,4.73-3.51,1.92,0,3.32.31,4.03.57v3.59Zm92.76-22.78c2.85,0,4.11-1.03,4.11-3.08s-1.26-3.13-4.11-3.13-4.16,1.12-4.16,3.13c0,2.29,1.36,3.08,4.16,3.08Zm49.82-5.37l-7.34.33v36.44h7.34V.84Zm-53.56,36.77h7.43V9.26l-7.43.32v28.02Zm-166.48,94.7h-11.18v33.68h4.58v-12.62h6.6c8.35,0,11.76-3.59,11.76-10.51,0-7.32-3.5-10.55-11.76-10.55Zm0,17.2h-6.6v-13.21h6.6c4.9,0,7.05,1.66,7.05,6.56,0,5.17-2.29,6.65-7.05,6.65Zm517.31-17.2l-3.32.36-.81,6.56h-3.86v3.32h3.73v16.21c0,4.68,2.38,7.23,6.95,7.23,1.44,0,2.92-.27,3.73-.67l-.27-3.22c-.54.22-1.49.35-2.25.35-2.43,0-3.91-1.1-3.91-3.82v-16.08h6.61v-3.32h-6.61v-6.92ZM254.21,29.04c0,5.3,2.76,8.57,8.42,8.57,2.01,0,3.88-.37,4.87-.79l-.42-5.27c-.51.18-1.5.32-2.25.32-2.25,0-3.37-.91-3.37-3.05v-14.12h6.32v-5.42h-6.32V2.53l-5.7.5-1.22,6.24h-3.51v5.42h3.18v14.35Zm107.57,136.95h4.26v-26.76l-4.26.22v26.54Zm-135.45-73.21v5.09h21.24l.19-6.03h-13.01l-.05-.14,2.25-2.9,10.39-14.23v-5.05h-20.4l-.23,6.03h12.21l.05.09-2.25,2.95-10.39,14.18Zm8.89-61.33c-3.46,0-6.64-.94-9.73-2.57l-1.03,6.78c3.04,1.64,6.78,2.62,10.85,2.62,8.19,0,13-4.25,13-11.18,0-11.89-16.14-9.36-16.14-14.83,0-1.87,1.17-3.37,5.52-3.37,2.67,0,5.57.56,8.47,1.5l.98-6.64c-2.71-1.12-6.4-1.82-9.82-1.82-8.89,0-12.72,4.81-12.72,10.76,0,11.75,16.14,9.41,16.14,14.93,0,2.43-1.69,3.84-5.52,3.84Zm46.21-11.6c-6.46,0-10.1,3.6-10.1,8.84,0,5.9,3.41,8.94,8.79,8.94,3.23,0,5.95-1.17,7.68-3.22l.14.05.56,3.18h5.56v-17.54c0-7.77-2.9-11.37-11.27-11.37-3.65,0-6.88.65-9.73,1.87l.61,5.8c2.62-1.08,4.67-1.55,7.81-1.55,3.89,0,5.38,1.31,5.38,4.17v1.64c-1.5-.47-3.32-.79-5.43-.79Zm5.43,9.16c0,1.46-2.25,2.86-4.73,2.86s-4.03-.92-4.03-3.51c0-2.33,1.5-3.51,4.73-3.51,1.92,0,3.32.31,4.03.57v3.59Zm205.6-20.25c-8.98,0-13,4.39-13,14.78s4.02,14.73,13,14.73,12.96-4.3,12.96-14.73-3.93-14.78-12.96-14.78Zm0,23.58c-3.98,0-5.48-1.83-5.48-8.8s1.45-8.8,5.48-8.8,5.43,1.87,5.43,8.8-1.45,8.8-5.43,8.8Zm27.78,5.28c2.01,0,3.88-.37,4.87-.79l-.42-5.27c-.51.18-1.5.32-2.25.32-2.25,0-3.37-.91-3.37-3.05v-14.12h6.32v-5.42h-6.32V2.53l-5.7.5-1.22,6.24h-3.51v5.42h3.18v14.35c0,5.3,2.76,8.57,8.41,8.57Zm117.95,107.68h-.09l-.36-5.71-3.41.22v26.18h4.26v-13.32c0-5.65,3.37-9.13,7.55-9.13.94,0,1.84.09,2.65.35l.27-4.3c-.72-.22-1.66-.36-2.65-.36-3.64,0-6.56,2.24-8.22,6.07Zm-99.2-12.99h-5.48l-10.33,14.24h-4.99v-14.24h-4.58v33.68h4.58v-15.54h4.9l10.82,15.54h5.75l-12.31-17.74,11.63-15.94ZM469.44,0c-2.8,0-4.16,1.12-4.16,3.13,0,2.29,1.36,3.08,4.16,3.08s4.11-1.03,4.11-3.08-1.26-3.13-4.11-3.13Zm-3.74,37.61h7.43V9.26l-7.43.32v28.02Zm15.9,107.68h-.09l-.36-5.71-3.41.22v26.18h4.26v-13.32c0-5.65,3.37-9.13,7.55-9.13.94,0,1.84.09,2.65.35l.27-4.3c-.72-.22-1.66-.36-2.65-.36-3.64,0-6.56,2.24-8.22,6.07ZM572.08,8.75c-8.52,0-12.49,5.28-12.49,14.31,0,9.92,4.35,15.06,14.13,15.06,3.6,0,6.87-.75,9.26-1.82l-.8-5.84c-2.43.94-4.91,1.4-7.58,1.4-4.87,0-7.16-1.78-7.54-6.51h16.52c.14-.98.19-2.34.19-3.41,0-8.98-4.44-13.19-11.69-13.19Zm-5.15,11.79c.32-4.12,1.68-5.76,5.2-5.76,3.04,0,4.91,1.59,5.01,5.76h-10.2Zm26.4,111.77l-3.32.36-.81,6.56h-3.86v3.32h3.73v16.21c0,4.68,2.38,7.23,6.96,7.23,1.43,0,2.92-.27,3.72-.67l-.27-3.22c-.54.22-1.48.35-2.25.35-2.43,0-3.9-1.1-3.9-3.82v-16.08h6.6v-3.32h-6.6v-6.92Zm28.83,24.79c0,3.64-2.11,5.48-6.16,5.48s-6.2-1.89-6.2-5.48v-17.88h-4.22v17.97c0,5.88,3.37,9.29,10.37,9.29s10.42-3.36,10.42-9.29v-17.97h-4.22v17.88Zm-61.07,0c0,3.64-2.11,5.48-6.16,5.48s-6.2-1.89-6.2-5.48v-17.88h-4.22v17.97c0,5.88,3.37,9.29,10.37,9.29s10.41-3.36,10.41-9.29v-17.97h-4.21v17.88Zm13.02,8.89h4.26v-35.7l-4.26.27v35.43Zm-26.97-146.43v18.06h7.25v-18.06c0-6.83-3.5-10.85-9.49-10.85-2.39,0-4.96.65-7.07,2.43l-.14-.09.09-3.74V.84l-7.25.37v36.39h7.25v-20.3c.89-1.22,2.72-2.15,4.82-2.15,3.09,0,4.54,1.5,4.54,4.4Zm-168.75,126.86c0-2.15,2.02-3.52,5.21-3.52,2.16,0,4.72.48,6.96,1.41l.36-3.56c-2.15-.99-4.62-1.53-7.23-1.53-6.16,0-9.34,2.96-9.34,7.41,0,8.83,13.7,6.06,13.7,12,0,2.46-1.62,4.31-5.53,4.31-2.56,0-5.61-.79-7.63-2.28l-.54,3.63c2.06,1.48,5.02,2.24,8.22,2.24,6.6,0,9.43-3.36,9.43-8.29,0-9.14-13.61-6.24-13.61-11.82Zm19.28-123.08c0-10.38-4.11-14.59-10.66-14.59-2.57,0-5.06.79-6.97,2.52l-.14-.09.09-3.74V.84l-7.25.33v36.44h4.91l.93-2.34c1.73,1.73,4.35,2.9,7.54,2.9,7.25,0,11.55-4.44,11.55-14.83h0Zm-12.72,8.99c-2.43,0-4.07-1.08-4.96-2.43v-12.4c1.03-1.5,2.81-2.39,4.92-2.39,3.46,0,5.29,1.31,5.29,8.38s-1.97,8.85-5.24,8.85Zm19.3,37.19l-7.43.32v28.02h7.43v-28.35Zm-3.69-3.05c2.85,0,4.11-1.03,4.11-3.09s-1.26-3.13-4.11-3.13-4.16,1.12-4.16,3.13c0,2.29,1.36,3.09,4.16,3.09Zm-11.89-5.37l-7.34.33v36.44h7.34v-36.77Zm-12.82,8.84c-.75-.23-1.82-.42-3.09-.42-3.23,0-5.99,1.68-7.77,5.09h-.14l-.65-4.72-5.8.28v27.69h7.29v-13.92c0-4.62,2.81-7.32,6.6-7.32,1.12,0,2.2.18,3.09.46l.47-7.14Zm84.56,69.28c-7.37,0-11.04,4.65-11.04,12.66,0,10.02,3.63,14.64,12.44,14.64,3.23,0,6.02-.76,8.26-1.97l-.49-3.59c-2.29,1.12-4.58,1.71-7.27,1.71-5.75,0-8.36-2.43-8.58-9.48h17.16c.04-.58.09-1.39.09-2.06,0-8.14-4.17-11.9-10.55-11.9Zm-6.78,11.05c.27-5,2.29-7.37,6.83-7.37,3.86,0,6.52,2.03,6.61,7.37h-13.43Zm-89.69-20.12c-1.84,0-2.74.81-2.74,2.29,0,1.7.9,2.29,2.74,2.29s2.74-.72,2.74-2.29c0-1.48-.9-2.29-2.74-2.29ZM433.51,8.75c-2.58,0-5.06.79-6.98,2.52l-.14-.09.09-3.74V.84l-7.25.33v36.44h4.91l.93-2.34c1.73,1.73,4.35,2.9,7.53,2.9,7.25,0,11.55-4.44,11.55-14.83h0c0-10.39-4.11-14.59-10.66-14.59Zm-2.06,23.58c-2.43,0-4.07-1.08-4.96-2.43v-12.4c1.03-1.5,2.81-2.39,4.92-2.39,3.46,0,5.29,1.31,5.29,8.38s-1.97,8.85-5.24,8.85Zm235.93,106.4c-2.96,0-5.71.99-7.64,3.01l-.09-.04.05-3.59v-7.86l-4.22.27v35.48h2.83l.67-2.78.13-.04c1.66,2.07,4.45,3.32,7.77,3.32,6.78,0,10.69-3.9,10.69-13.96h0c0-10.15-3.95-13.79-10.19-13.79Zm-1.08,24.21c-3.28,0-5.53-1.53-6.61-3.28v-13.88c1.39-2.02,3.73-3.19,6.56-3.19,4.41,0,7.01,1.89,7.01,10.02s-2.78,10.33-6.96,10.33Zm-237.82-83.13v18.06h7.25v-18.06c0-7.06-3.79-10.85-9.77-10.85-2.95,0-5.71.98-7.82,2.8l-1.07-2.43-5.24.33v28.21h7.29v-20.3c.98-1.36,2.95-2.15,4.78-2.15,3,0,4.59,1.26,4.59,4.4Zm-19.15,82.95c-5.12,0-7.86-2.73-7.86-10.12,0-6.78,2.16-9.51,7.95-9.51,1.93,0,3.86.48,5.43,1.19l.27-3.79c-1.75-.76-4.18-1.3-6.56-1.3-7.99,0-11.49,4.56-11.49,13.41,0,9.64,3.86,13.94,11.36,13.94,2.83,0,5.34-.76,6.92-1.84l-.31-3.47c-1.62.97-3.59,1.5-5.7,1.5Zm24.57-24.03c-2.83,0-5.57.94-7.5,2.96l-.09-.04.04-3.59v-7.77l-4.22.27v35.43h4.22v-20.26c1.08-1.71,3.51-3.05,6.29-3.05,4.13,0,6.07,1.98,6.07,5.57v17.74h4.22v-17.74c0-6.11-3.18-9.52-9.02-9.52Z" fill="var(--bs-dark)" stroke-width="0"/>
</svg>