<svg width="var(--footer-logo-size)" height="45" viewBox="0 0 200 45" fill="none" xmlns="http://www.w3.org/2000/svg">
<g clip-path="url(#clip0_36_999)">
<path d="M41.4193 0C39.6272 0 38.1585 1.34292 37.9519 3.07658H25.9241C25.7175 1.34292 24.2488 0 22.4568 0C20.5255 0 18.9625 1.56299 18.9625 3.49427C18.9625 5.28183 20.3009 6.755 22.0346 6.9616V18.9894C21.4013 19.0658 20.8174 19.3128 20.3369 19.6811C20.265 19.735 20.1931 19.7979 20.1213 19.8563C20.0764 19.8967 20.0314 19.9416 19.9865 19.9865C19.4476 20.5255 19.0838 21.2396 18.9894 22.0391H6.9616C6.755 20.3054 5.27734 18.9625 3.49427 18.9625C1.56299 18.9625 0 20.5255 0 22.4568C0 24.2488 1.34292 25.7175 3.07658 25.9241V37.9519C1.34292 38.1585 0 39.6272 0 41.4193C0 43.3506 1.56299 44.9135 3.49427 44.9135C5.42556 44.9135 6.98855 43.3506 6.98855 41.4193C6.98855 39.6362 5.64563 38.1585 3.91646 37.9519V25.9241C5.51089 25.731 6.76847 24.4734 6.9616 22.879H18.9894C19.1871 24.5497 20.5659 25.8567 22.2636 25.9466C22.3265 25.951 22.3939 25.951 22.4568 25.951C22.4658 25.951 22.4747 25.951 22.4837 25.951C22.596 25.951 22.7038 25.9466 22.8116 25.9331H22.8161C23.5706 25.8567 24.2488 25.5423 24.7833 25.0618C24.7923 25.0528 24.7968 25.0483 24.8057 25.0438C24.8237 25.0258 24.8462 25.0079 24.8641 24.9899C24.8866 24.9719 24.9046 24.9495 24.927 24.9315C24.936 24.9225 24.9405 24.9135 24.9495 24.9091C24.9809 24.8776 25.0124 24.8462 25.0438 24.8102C25.0483 24.8058 25.0528 24.7968 25.0618 24.7923C25.6142 24.1725 25.9555 23.3595 25.9555 22.4613C25.951 20.6692 24.6081 19.196 22.8745 18.9894V6.9616C24.4689 6.77296 25.731 5.51089 25.9241 3.91646H37.9519C38.1585 5.65012 39.6317 6.98855 41.4193 6.98855C43.3506 6.98855 44.9135 5.42556 44.9135 3.49427C44.9135 1.56299 43.3506 0 41.4193 0Z" fill="var(--bs-dark)"/>
<path d="M51.6326 20.274L49.7148 19.8922C48.6324 19.6856 48.0934 19.3712 48.0934 18.6032C48.0934 17.8532 48.8615 17.3995 49.9574 17.3995C51.1431 17.3995 52.2075 17.9026 53.025 18.6885L54.6957 17.0896C53.6852 16.0117 52.0144 15.2257 49.9214 15.2257C47.3209 15.2257 45.3537 16.7079 45.3537 18.8323C45.3537 21.1498 46.9931 21.9358 49.1534 22.3535L50.685 22.6499C51.7674 22.8386 52.4635 23.0676 52.4635 23.885C52.4635 24.7564 51.6641 25.2953 50.2852 25.2953C48.6504 25.2953 47.4287 24.424 46.6966 23.4494L44.8687 25.0169C45.6007 26.0274 47.4826 27.4916 50.2179 27.4916C53.025 27.4916 55.2033 26.1307 55.2033 23.6739C55.2033 21.581 53.8289 20.7097 51.6326 20.274Z" fill="var(--bs-dark)"/>
<path d="M65.4839 22.4927C65.2549 23.6964 65.1516 24.2713 64.9764 25.1067H64.9585C64.7653 24.2533 64.662 23.6425 64.3836 22.5466L63.4943 18.976H60.777L59.9057 22.5152C59.6632 23.5257 59.506 24.2938 59.3128 25.1112H59.2949C59.1197 24.2578 58.9805 23.4224 58.8233 22.5691L58.163 18.9805H55.5491L57.642 27.276H60.8129L61.5091 24.1051C61.7202 23.2024 61.8909 22.084 62.084 21.2486H62.102C62.2771 22.1379 62.4837 23.2383 62.6589 24.0737L63.3416 27.267H66.4765L68.6728 18.9715H66.1621L65.4839 22.4927Z" fill="var(--bs-dark)"/>
<path d="M72.3153 15.4278H69.7552V17.9205H72.3153V15.4278Z" fill="var(--bs-dark)"/>
<path d="M72.3153 18.9849H69.7552V27.276H72.3153V18.9849Z" fill="var(--bs-dark)"/>
<path d="M77.88 25.6007C76.7302 25.6007 75.7376 25.0258 75.2301 24.3296L73.6267 25.6187C74.3768 26.6472 75.9802 27.4826 77.88 27.4826C79.8517 27.4826 81.5405 26.5618 81.5405 24.6261C81.5405 23.0406 80.3233 22.5017 78.9804 22.2232L77.6734 21.9447C76.8201 21.7696 76.4383 21.6483 76.4383 21.2126C76.4383 20.7949 76.9458 20.6018 77.5207 20.6018C78.3426 20.6018 79.1601 20.9521 79.7709 21.5091L81.1901 20.1482C80.3548 19.3442 79.1151 18.7693 77.5656 18.7693C75.9263 18.7693 74.0264 19.488 74.0264 21.4552C74.0264 22.1513 74.2869 22.6948 74.7406 23.0766C75.2481 23.5122 75.9622 23.7907 76.7976 23.9479L78.1046 24.2084C78.6615 24.3117 79.169 24.397 79.169 24.8686C79.169 25.3222 78.7334 25.6007 77.88 25.6007Z" fill="var(--bs-dark)"/>
<path d="M87.5051 22.2232L86.1981 21.9447C85.3447 21.7696 84.963 21.6483 84.963 21.2126C84.963 20.7949 85.4705 20.6018 86.0454 20.6018C86.8673 20.6018 87.6847 20.9521 88.2955 21.5091L89.7148 20.1482C88.8794 19.3442 87.6398 18.7693 86.0903 18.7693C84.4509 18.7693 82.5511 19.488 82.5511 21.4552C82.5511 22.1513 82.8116 22.6948 83.2652 23.0766C83.7727 23.5122 84.4869 23.7907 85.3223 23.9479L86.6293 24.2084C87.1862 24.3117 87.6937 24.397 87.6937 24.8686C87.6937 25.3222 87.258 25.6007 86.4047 25.6007C85.2549 25.6007 84.2623 25.0258 83.7548 24.3296L82.1514 25.6187C82.9014 26.6472 84.5048 27.4826 86.4047 27.4826C88.3764 27.4826 90.0651 26.5618 90.0651 24.6261C90.0651 23.0406 88.848 22.5017 87.5051 22.2232Z" fill="var(--bs-dark)"/>
<path d="M98.729 23.3865C98.729 21.4866 98.6077 19.5194 98.6077 19.5194H98.6257C98.6257 19.5194 99.762 21.6124 100.422 22.7083L103.229 27.276H105.879V15.4278H103.283V19.3847C103.283 20.759 103.386 23.0945 103.386 23.0945H103.369C103.369 23.0945 102.569 21.6124 101.626 20.0629L98.7829 15.4278H96.115V27.2715H98.729V23.3865Z" fill="var(--bs-dark)"/>
<path d="M112.935 26.7191H112.953C113.128 27.3299 113.806 27.4691 114.539 27.4691C114.956 27.4691 115.342 27.4377 115.724 27.3658V25.9017H115.603C115.239 25.9017 115.167 25.7265 115.167 25.2055H115.163V21.3519C115.163 19.47 113.82 18.8098 111.695 18.8098C109.36 18.8098 107.824 19.8383 107.86 21.7382L110.213 21.7561C110.213 20.9163 110.703 20.5525 111.592 20.5525C112.464 20.5525 112.814 20.8983 112.814 21.5271V21.6663C112.814 21.9268 112.746 21.9762 112.293 22.0481L110.568 22.3265C108.808 22.605 107.604 23.2338 107.604 24.8192C107.604 26.5439 108.772 27.4871 110.6 27.4871C111.943 27.4871 112.553 27.1368 112.935 26.7191ZM112.796 24.5767C112.796 25.448 112.203 25.8298 111.368 25.8298C110.64 25.8298 110.133 25.5334 110.133 24.8552C110.133 24.1411 110.743 24.0018 111.561 23.8446C112.446 23.6695 112.603 23.5841 112.796 23.5123V24.5767Z" fill="var(--bs-dark)"/>
<path d="M122.156 27.3119V25.4615C122.03 25.4794 121.805 25.4974 121.509 25.4974C121.042 25.4974 120.728 25.43 120.552 25.2369C120.395 25.0797 120.341 24.8551 120.341 24.3835V20.7051H122.156V18.9804H120.341V15.6523L117.799 16.1599V18.9849H116.196V20.7096H117.799V25.0303C117.799 25.8657 117.835 26.3193 118.15 26.737C118.585 27.3119 119.632 27.4511 120.624 27.4511C121.231 27.4511 121.806 27.3838 122.156 27.3119Z" fill="var(--bs-dark)"/>
<path d="M126.216 18.9849H123.656V27.276H126.216V18.9849Z" fill="var(--bs-dark)"/>
<path d="M126.216 15.4278H123.656V17.9205H126.216V15.4278Z" fill="var(--bs-dark)"/>
<path d="M132.261 27.4871C134.875 27.4871 136.672 25.9735 136.672 23.1664C136.672 20.3593 134.875 18.7739 132.261 18.7739C129.647 18.7739 127.869 20.3593 127.869 23.1664C127.869 25.969 129.647 27.4871 132.261 27.4871ZM132.261 20.6917C133.443 20.6917 134.089 21.581 134.089 23.1305C134.089 24.6441 133.429 25.5513 132.261 25.5513C131.094 25.5513 130.447 24.662 130.447 23.1305C130.447 21.5989 131.076 20.6917 132.261 20.6917Z" fill="var(--bs-dark)"/>
<path d="M142.389 20.9342C143.643 20.9342 143.696 21.8235 143.696 23.0946V27.276H146.239H146.243V22.5736C146.243 20.7456 146.032 20.1707 145.511 19.5778C145.021 19.0389 144.289 18.7784 143.333 18.7784C142.147 18.7784 141.24 19.3353 140.84 20.0135V18.985H138.329V27.276H140.871V22.9014C140.871 21.7696 141.325 20.9342 142.389 20.9342Z" fill="var(--bs-dark)"/>
<path d="M153.137 26.7191H153.155C153.33 27.3299 154.008 27.4691 154.741 27.4691C155.158 27.4691 155.545 27.4377 155.926 27.3658V25.9017H155.805C155.441 25.9017 155.369 25.7265 155.369 25.2055H155.365V21.3519C155.365 19.47 154.022 18.8098 151.898 18.8098C149.562 18.8098 148.026 19.8383 148.062 21.7382L150.415 21.7561C150.415 20.9163 150.905 20.5525 151.794 20.5525C152.666 20.5525 153.016 20.8983 153.016 21.5271V21.6663C153.016 21.9268 152.949 21.9762 152.495 22.0481L150.77 22.3265C149.01 22.605 147.806 23.2338 147.806 24.8192C147.806 26.5439 148.974 27.4871 150.802 27.4871C152.145 27.4871 152.755 27.1368 153.137 26.7191ZM152.998 24.5767C152.998 25.448 152.405 25.8298 151.57 25.8298C150.842 25.8298 150.335 25.5334 150.335 24.8552C150.335 24.1411 150.945 24.0018 151.763 23.8446C152.648 23.6695 152.805 23.5841 152.998 23.5123V24.5767Z" fill="var(--bs-dark)"/>
<path d="M160.126 15.4278H157.584V27.276H160.126V15.4278Z" fill="var(--bs-dark)"/>
<path d="M51.6326 37.7004L49.7148 37.3187C48.6324 37.1121 48.0934 36.7977 48.0934 36.0297C48.0934 35.2796 48.8615 34.826 49.9574 34.826C51.1431 34.826 52.2075 35.329 53.025 36.115L54.6957 34.5161C53.6852 33.4381 52.0144 32.6522 49.9214 32.6522C47.3209 32.6522 45.3537 34.1343 45.3537 36.2587C45.3537 38.5763 46.9931 39.3622 49.1534 39.7799L50.685 40.0764C51.7674 40.265 52.4635 40.4941 52.4635 41.3115C52.4635 42.1828 51.6641 42.7218 50.2852 42.7218C48.6504 42.7218 47.4287 41.8505 46.6966 40.8758L44.8687 42.4433C45.6007 43.4539 47.4826 44.918 50.2179 44.918C53.025 44.918 55.2033 43.5572 55.2033 41.1004C55.2033 39.0074 53.8289 38.1361 51.6326 37.7004Z" fill="var(--bs-dark)"/>
<path d="M60.6019 38.1181C61.4912 38.1181 62.0661 38.6212 62.3086 39.5284L64.5049 38.7784C64.0872 37.4354 62.9015 36.2003 60.6019 36.2003C57.9879 36.2003 56.2094 37.7858 56.2094 40.5929C56.2094 43.3955 57.9879 44.9135 60.6019 44.9135C62.7982 44.9135 63.9659 43.8177 64.4195 42.6499L62.2592 41.7561C61.9942 42.5421 61.4193 42.9778 60.6019 42.9778C59.4341 42.9778 58.7874 42.0885 58.7874 40.5569C58.7874 39.0254 59.4162 38.1181 60.6019 38.1181Z" fill="var(--bs-dark)"/>
<path d="M68.2731 36.4114H65.713V44.7024H68.2731V36.4114Z" fill="var(--bs-dark)"/>
<path d="M68.2731 32.8542H65.713V35.3469H68.2731V32.8542Z" fill="var(--bs-dark)"/>
<path d="M74.1792 36.2003C71.7045 36.2003 69.9259 37.925 69.9259 40.521C69.9259 43.3101 71.7898 44.9135 74.2286 44.9135C76.5147 44.9135 77.7139 43.6425 78.2035 42.9463L76.4473 41.7561C76.1689 42.2457 75.5042 42.9059 74.3903 42.9059C73.1372 42.9059 72.4725 42.1244 72.3872 41.2172H78.2933C78.3113 41.06 78.3113 40.8713 78.3113 40.6962C78.3113 38.1675 76.9144 36.2003 74.1792 36.2003ZM72.3827 39.5823C72.4186 38.711 73.1687 37.9609 74.1612 37.9609C75.1898 37.9609 75.7961 38.6256 75.85 39.5823H72.3827Z" fill="var(--bs-dark)"/>
<path d="M84.936 36.2048C83.7503 36.2048 82.843 36.7618 82.4433 37.44V36.4114H79.9326V44.7025H82.4747V40.3279C82.4747 39.1961 82.9284 38.3607 83.9928 38.3607C85.2459 38.3607 85.2998 39.25 85.2998 40.521V44.7025H87.8419H87.8464V40C87.8464 38.172 87.6353 37.5972 87.1143 37.0043C86.6247 36.4653 85.8926 36.2048 84.936 36.2048Z" fill="var(--bs-dark)"/>
<path d="M93.8154 38.1181C94.7047 38.1181 95.2796 38.6212 95.5221 39.5284L97.7184 38.7784C97.3007 37.4354 96.115 36.2003 93.8154 36.2003C91.2014 36.2003 89.4229 37.7858 89.4229 40.5929C89.4229 43.3955 91.2014 44.9135 93.8154 44.9135C96.0117 44.9135 97.1794 43.8177 97.633 42.6499L95.4727 41.7561C95.2077 42.5421 94.6328 42.9778 93.8154 42.9778C92.6476 42.9778 92.0009 42.0885 92.0009 40.5569C92.0009 39.0254 92.6297 38.1181 93.8154 38.1181Z" fill="var(--bs-dark)"/>
<path d="M102.6 36.2003C100.126 36.2003 98.3472 37.925 98.3472 40.521C98.3472 43.3101 100.211 44.9135 102.65 44.9135C104.936 44.9135 106.135 43.6425 106.625 42.9463L104.869 41.7561C104.59 42.2457 103.925 42.9059 102.812 42.9059C101.558 42.9059 100.894 42.1244 100.808 41.2172H106.715C106.733 41.06 106.733 40.8713 106.733 40.6962C106.733 38.1675 105.336 36.2003 102.6 36.2003ZM100.808 39.5823C100.84 38.711 101.59 37.9609 102.587 37.9609C103.616 37.9609 104.222 38.6256 104.276 39.5823H100.808Z" fill="var(--bs-dark)"/>
<path d="M112.796 44.7069H115.428V39.8608H120.256V37.5073H115.428V35.1718H120.481V32.8542H112.796V44.7069Z" fill="var(--bs-dark)"/>
<path d="M125.327 36.2003C122.713 36.2003 120.934 37.7858 120.934 40.5929C120.934 43.3955 122.713 44.9135 125.327 44.9135C127.941 44.9135 129.737 43.4 129.737 40.5929C129.737 37.7858 127.941 36.2003 125.327 36.2003ZM125.327 42.9778C124.159 42.9778 123.512 42.0885 123.512 40.5569C123.512 39.0254 124.141 38.1181 125.327 38.1181C126.508 38.1181 127.155 39.0074 127.155 40.5569C127.155 42.0705 126.494 42.9778 125.327 42.9778Z" fill="var(--bs-dark)"/>
<path d="M136.582 40.786C136.582 41.9178 136.128 42.7532 135.1 42.7532C133.847 42.7532 133.829 41.8639 133.829 40.5928V36.4114H131.287H131.282V41.1183C131.282 42.9463 131.493 43.5212 132.014 44.114C132.499 44.653 133.2 44.9135 134.157 44.9135C135.324 44.9135 136.214 44.3566 136.613 43.6784V44.7069H139.124V36.4114H136.582V40.786Z" fill="var(--bs-dark)"/>
<path d="M146.364 36.2048C145.178 36.2048 144.271 36.7618 143.872 37.44V36.4114H141.361V44.7025H143.903V40.3279C143.903 39.1961 144.357 38.3607 145.421 38.3607C146.674 38.3607 146.728 39.25 146.728 40.521V44.7025H149.27H149.275V40C149.275 38.172 149.064 37.5972 148.543 37.0043C148.053 36.4653 147.321 36.2048 146.364 36.2048Z" fill="var(--bs-dark)"/>
<path d="M157.143 37.157C156.726 36.6539 155.926 36.2003 154.723 36.1958C152.405 36.1958 150.856 38.0238 150.856 40.5524C150.856 43.1664 152.351 44.909 154.705 44.909C155.854 44.909 156.744 44.388 157.143 43.9344V44.7024H159.686V32.8542H157.143V37.157ZM155.316 42.9957C154.08 42.9957 153.434 42.075 153.434 40.5569C153.434 39.0793 154.13 38.1361 155.316 38.1361C156.447 38.1361 157.215 39.1107 157.215 40.5569C157.215 42.0031 156.447 42.9957 155.316 42.9957Z" fill="var(--bs-dark)"/>
<path d="M168.888 42.632L168.884 38.7784C168.884 36.8965 167.541 36.2363 165.417 36.2363C163.081 36.2363 161.545 37.2648 161.581 39.1646L163.934 39.1826C163.934 38.3427 164.424 37.9789 165.313 37.9789C166.185 37.9789 166.535 38.3247 166.535 38.9535V39.0928C166.535 39.3533 166.468 39.4027 166.014 39.4745L164.289 39.753C162.529 40.0315 161.325 40.6603 161.325 42.2457C161.325 43.9704 162.493 44.9136 164.321 44.9136C165.664 44.9136 166.274 44.5632 166.656 44.1455H166.674C166.849 44.7564 167.528 44.8956 168.26 44.8956C168.677 44.8956 169.064 44.8642 169.445 44.7923V43.3281H169.324C168.96 43.3281 168.888 43.153 168.888 42.632ZM166.521 42.0032C166.521 42.8745 165.929 43.2563 165.093 43.2563C164.366 43.2563 163.858 42.9598 163.858 42.2816C163.858 41.5675 164.469 41.4283 165.286 41.2711C166.171 41.0959 166.328 41.0106 166.521 40.9387V42.0032Z" fill="var(--bs-dark)"/>
<path d="M175.877 42.888C175.751 42.9059 175.527 42.9239 175.23 42.9239C174.763 42.9239 174.449 42.8565 174.273 42.6634C174.116 42.5062 174.062 42.2816 174.062 41.8101V38.1316H175.877V36.4069H174.062V33.0789L171.52 33.5864V36.4114H169.917V38.1361H171.52V42.4568C171.52 43.2922 171.556 43.7458 171.871 44.1635C172.306 44.7384 173.353 44.8776 174.345 44.8776C174.952 44.8776 175.527 44.8103 175.877 44.7384V42.888Z" fill="var(--bs-dark)"/>
<path d="M179.937 36.4114H177.377V44.7024H179.937V36.4114Z" fill="var(--bs-dark)"/>
<path d="M179.937 32.8542H177.377V35.3469H179.937V32.8542Z" fill="var(--bs-dark)"/>
<path d="M185.987 36.2003C183.373 36.2003 181.594 37.7858 181.594 40.5929C181.594 43.3955 183.373 44.9135 185.987 44.9135C188.601 44.9135 190.398 43.4 190.398 40.5929C190.398 37.7858 188.601 36.2003 185.987 36.2003ZM185.987 42.9778C184.819 42.9778 184.173 42.0885 184.173 40.5569C184.173 39.0254 184.801 38.1181 185.987 38.1181C187.168 38.1181 187.815 39.0074 187.815 40.5569C187.815 42.0705 187.155 42.9778 185.987 42.9778Z" fill="var(--bs-dark)"/>
<path d="M199.232 37.0043C198.742 36.4653 198.01 36.2048 197.054 36.2048C195.868 36.2048 194.961 36.7618 194.561 37.44V36.4114H192.05V44.7025H194.592V40.3279C194.592 39.1961 195.046 38.3607 196.11 38.3607C197.364 38.3607 197.417 39.25 197.417 40.521V44.7025H199.96H199.964V40C199.964 38.172 199.753 37.5972 199.232 37.0043Z" fill="var(--bs-dark)"/>
</g>
<defs>
<clipPath id="clip0_36_999">
<rect width="199.964" height="44.918" fill="white"/>
</clipPath>
</defs>
</svg>
