<svg id="The_British_Library-logo" fill="var(--bs-dark)" xmlns="http://www.w3.org/2000/svg" viewBox="0 0 218.6 462.7">
  <path id="The_British_Library" d="m0,0v462.7h218.6V0H0Zm116.4,112.4h58.5v19c0,6.8-.6,13-4.8,17.6-3.3,3.6-6.8,4.8-11.1,4.8-8.7,0-11.4-6.2-12.3-8.9-1.1,4.7-4.5,11-12.8,11-5,0-9.2-1.9-11.8-4.8-5.6-6.1-5.6-14.2-5.7-24.2v-14.5Zm-73,10.4h23.9v-25.7h-23.9v-11.4h58.6v11.4h-25.9v25.7h25.9v11.4h-58.6v-11.4Zm58.6,300.6h-58.5v-19c0-6.8.6-13,4.8-17.6,3.3-3.6,6.8-4.8,11.1-4.8,8.7,0,11.4,6.2,12.3,8.9,1.1-4.7,4.5-11,12.8-11,5,0,9.2,1.8,11.8,4.7,5.6,6.1,5.7,14.2,5.7,24.3v14.5Zm0-99.7c0,4.5-.4,6.4-1.9,8.1-2.1,2.3-16.4,8.6-19.5,11.9-2.3,2.5-2.4,7.1-2.4,9.7v1.8h23.8v11.4h-58.5v-15.4c0-2.1.1-4.3.2-6.2.2-5.6,1-10.6,4.8-14.8,2.8-3,6.9-5.2,11.9-5.2,3.9,0,7.5,1.3,10.3,4.3,2.2,2.4,3.5,5.2,4.2,8.8.2-1.9.7-3.5,2.4-5.3,2.3-2.5,20.6-12.9,24.7-15.6v6.5Zm0-21h-58.6v-11.4h58.6v11.4Zm0-42.1h-50v17.9h-8.6v-47.2h8.6v17.8h50v11.5Zm0-42.1h-58.6v-11.4h58.6v11.4Zm-5.4-25.8l-7.4-5.2c.5-.8,1.7-2.6,2.8-5.2,1.1-2.6,2.2-5.8,2.2-9.5,0-7.1-3.4-10.8-8.2-10.9-4.6,0-6.6,4.3-8.1,8.1-1.3,3-2.4,6-3.8,9-3.1,6.6-7.5,11.7-15,11.7-10,0-16.9-8.6-16.9-20.9s5.9-18.5,6.4-19l7,5.2c-.3.3-.5.7-.9,1.4-2.2,3.3-3.8,7.5-3.8,11.6,0,6,2.8,10.5,7,10.5,4.6,0,6.4-4.9,9.2-11.6,3.7-8.9,7.3-17.6,18.2-17.6s17.9,8.2,17.9,21.9c0,12-5.8,19.8-6.6,20.5Zm78.4,154.6l-25.4,14.1,20.2,11.1c3.7,2,5.2,2.6,5.2,6.9v7.1l-35.3-19.8h-23.2v-11h23.2l35.3-20v11.6Zm0-40.7c0,2.1-.1,4.3-.2,6.2-.2,5.5-1,10.5-4.8,14.7-2.8,3-6.9,5.2-11.9,5.2-3.9,0-7.6-1.3-10.3-4.3-2.2-2.4-3.6-5.2-4.2-8.8-.3,1.9-.8,3.5-2.5,5.3-2.3,2.5-20.6,12.9-24.7,15.6v-6.5c0-4.5.4-6.4,1.9-8.1,2.1-2.3,16.4-8.6,19.5-11.9,2.3-2.5,2.4-7.1,2.4-9.7v-1.9h-23.7v-11.4h58.5v15.6Zm0-47.1l-58.5,22.8v-4.8c0-3.8.5-5.6,1.7-6.9,1.5-1.7,4.8-2.5,6.8-3.3l5-1.9v-23.6l-13.5-4.8v-11.8l58.5,22.8v11.5Zm0-74.3c0,2.1-.1,4.3-.2,6.2-.2,5.6-1,10.6-4.8,14.8-2.8,3-6.9,5.2-11.9,5.2-3.9,0-7.6-1.3-10.3-4.3-2.2-2.4-3.6-5.2-4.2-8.8-.3,1.9-.8,3.5-2.5,5.3-2.3,2.5-20.6,12.9-24.7,15.6v-6.5c0-4.5.4-6.4,1.9-8.1,2.1-2.3,16.4-8.6,19.5-11.9,2.3-2.5,2.4-7.1,2.4-9.7v-1.8h-23.7v-11.4h58.5v15.4Zm0-88.1h-58.5v-11.4h58.5v11.4Zm0-46h-49.8v25.5h-8.7v-36.9h58.5v11.4Zm-17,270.1c2.6,0,5.1-1.2,6.2-2.4,1.3-1.4,1.9-3,2.2-4.9.3-2,.2-4.2.2-6.7v-4.8h-18.1v3.8c0,5.3.5,9.3,3.1,12.1,1.6,1.8,4,2.9,6.4,2.9Zm-24.3-176.7c2,0,4.1-.6,5.8-2.4,1.4-1.6,2.1-3.8,2.4-6.2.4-2.4.2-5.3.2-8.1v-4.5h-17.1v6.2c0,6.5.7,9.7,3.3,12.6,1.4,1.6,3.5,2.4,5.4,2.4Zm25.3-1.9c2.2,0,3.7-.6,5-1.9,3-3,2.9-8.6,2.9-12.6v-4.8h-16.7v4.3c0,4.6.2,9.9,2.8,12.9,1.3,1.6,3.5,2.1,6,2.1Zm-20.7,102.1v17.6l24.8-8.9-24.8-8.7Zm-77.9,91.8c-2.6,0-5.1,1.2-6.2,2.4-1.3,1.4-1.9,3-2.2,4.9-.3,2-.2,4.2-.2,6.7v4.8h18.1v-3.8c0-5.3-.5-9.2-3.1-12.1-1.6-1.8-4-2.9-6.4-2.9Zm-.9,56.6c-2.2,0-3.7.6-5,1.9-3,3-2.9,8.6-2.9,12.6v4.8h16.7v-4.3c0-4.6-.2-9.9-2.8-12.9-1.3-1.6-3.5-2.1-6-2.1Zm98.5-193.2c2.6,0,5.1-1.2,6.2-2.4,1.3-1.4,1.9-3,2.2-4.9.3-2,.2-4.2.2-6.7v-4.8h-18.1v3.8c0,5.3.5,9.3,3.1,12.1,1.6,1.8,4,2.9,6.4,2.9Zm-73.1,191.4c-2,0-4.1.6-5.8,2.4-1.5,1.6-2.2,3.8-2.5,6.2-.4,2.5-.2,5.3-.2,8.1v4.5h17.1v-6.2c0-6.5-.7-9.7-3.3-12.6-1.4-1.6-3.4-2.4-5.3-2.4Z" fill="var(--bs-dark)" stroke-width="0"/>
</svg>