<svg width="200" height="62" viewBox="0 0 200 62" fill="none" xmlns="http://www.w3.org/2000/svg">
<g clip-path="url(#clip0_36_1058)">
<path d="M14.3474 41.2082H13.4844V47.2492H14.3474V41.2082ZM2.91262 32.2546H5.28587V11.8662C5.28587 10.5717 4.20712 9.49299 2.91262 9.49299C1.61812 9.49299 0.539374 10.5717 0.539374 11.8662V29.8813C0.647249 31.1758 1.61812 32.2546 2.91262 32.2546ZM16.7206 51.7799H15.7497L14.5631 53.6138C14.4552 53.7217 14.3474 53.9374 14.3474 53.9374C14.3474 53.9374 14.2395 53.7217 14.1316 53.6138L13.0529 51.7799H11.9741L13.808 54.6926L11.6505 57.9288H12.6214L14.0237 55.8792C14.1316 55.6634 14.3474 55.4477 14.3474 55.4477C14.3474 55.4477 14.5631 55.7713 14.5631 55.8792L15.9655 57.9288H16.9364L14.7789 54.6926L16.7206 51.7799ZM5.39374 41.2082H4.53074V44.9838C4.53074 46.1704 3.77562 46.6019 3.0205 46.6019C2.26537 46.6019 1.51025 46.1704 1.51025 44.9838V41.2082H0.647249V44.9838C0.647249 46.4941 1.61812 47.3571 3.0205 47.3571C4.31499 47.3571 5.39374 46.4941 5.39374 44.9838V41.2082ZM9.27724 55.5556C9.27724 56.7422 8.52211 57.1737 7.76699 57.1737C7.01187 57.1737 6.25674 56.7422 6.25674 55.5556V51.7799H5.39374V55.5556C5.39374 57.0658 6.36462 57.9288 7.76699 57.9288C9.16936 57.9288 10.1402 56.9579 10.1402 55.5556V51.7799H9.27724V55.5556ZM1.51025 51.7799H0.647249V57.8209H3.77562V57.0658H1.51025V51.7799ZM11.8662 41.2082H11.0032V45.5232C11.0032 45.6311 11.0032 45.7389 11.0032 45.7389C11.0032 45.7389 10.8954 45.6311 10.8954 45.5232L7.76699 41.2082H7.01187V47.2492H7.87487V42.8263C7.87487 42.7184 7.87487 42.6106 7.87487 42.6106C7.87487 42.6106 7.98274 42.7184 7.98274 42.8263L11.219 47.2492H11.8662V41.2082ZM7.55124 32.2546C8.84574 32.2546 9.81661 31.068 9.92449 29.7735C9.92449 30.9601 10.1402 32.2546 11.3269 32.2546V11.8662C11.3269 10.5717 10.2481 9.49299 8.95361 9.49299C7.65912 9.49299 6.58037 10.5717 6.58037 11.8662V32.1467H7.55124V32.2546ZM167.638 7.55124H161.704V13.4844H167.638V7.55124ZM19.6332 41.2082L18.123 45.6311L16.6127 41.2082H15.7497L17.9072 47.2492H18.4466L20.6041 41.2082H19.6332ZM177.994 19.3096H172.06V25.2427H177.994V19.3096ZM181.877 10.6796H175.944V16.6127H181.877V10.6796ZM30.5286 43.0421C30.5286 42.0712 29.7735 41.2082 28.6947 41.2082H26.753V47.2492H27.616V44.4444L30.0971 47.2492H31.1758L28.9105 44.6602C29.7735 44.7681 30.5286 44.0129 30.5286 43.0421ZM27.5081 44.1208V42.0712H28.479C29.2341 42.0712 29.6656 42.6106 29.6656 43.0421C29.6656 43.6893 29.2341 44.1208 28.479 44.1208H27.5081ZM35.2751 54.8004C35.7066 54.5847 35.9223 54.1532 35.9223 53.3981C35.9223 52.4272 35.1672 51.7799 34.1963 51.7799H32.5782V57.8209H34.4121C35.7066 57.8209 36.246 56.9579 36.246 56.2028C36.246 55.4477 35.7066 54.9083 35.2751 54.8004ZM33.4412 52.5351H34.0885C34.7357 52.5351 35.1672 52.8587 35.1672 53.3981C35.1672 53.9374 34.9515 54.4768 34.0885 54.4768H33.4412V52.5351ZM34.3042 57.0658H33.4412V55.2319H34.4121C35.0593 55.2319 35.383 55.5556 35.383 56.0949C35.383 56.7422 35.0593 57.0658 34.3042 57.0658ZM33.7648 46.6019C33.3333 46.6019 32.794 46.4941 32.4703 46.1704L32.0388 46.8177C32.5782 47.2492 33.2255 47.4649 33.8727 47.4649C34.8436 47.4649 35.7066 46.8177 35.7066 45.7389C35.7066 44.7681 34.9515 44.2287 34.3042 43.9051C33.5491 43.5814 33.0097 43.2578 33.0097 42.6106C33.0097 42.1791 33.4412 41.8554 33.8727 41.8554C34.4121 41.8554 34.7357 41.9633 35.0593 42.2869L35.4908 41.6397C35.0593 41.3161 34.4121 41.1003 33.8727 41.1003C32.794 41.1003 32.1467 41.7476 32.1467 42.7184C32.1467 43.9051 33.0097 44.2287 33.8727 44.6602C34.4121 44.9838 34.8436 45.1996 34.8436 45.7389C34.7357 46.2783 34.3042 46.6019 33.7648 46.6019ZM172.276 38.5113H178.209V32.5782H172.276V38.5113ZM19.4175 55.3398H21.8986V54.5847H19.4175V52.6429H22.0065V51.7799H18.5545V57.8209H22.1143V57.0658H19.4175V55.3398ZM25.027 41.9633V41.2082H21.575V47.2492H25.1348V46.4941H22.438V44.6602H24.9191V43.9051H22.438V41.9633H25.027ZM27.2923 54.8004L25.027 51.7799H24.2718V57.8209H25.1348V53.3981C25.1348 53.2902 25.1348 53.1823 25.1348 53.1823C25.1348 53.1823 25.1348 53.2902 25.2427 53.2902L27.1845 55.7713H27.5081L29.4498 53.1823L29.5577 53.0744C29.5577 53.0744 29.5577 53.1823 29.5577 53.2902V57.8209H30.4207V51.7799H29.6656L27.2923 54.8004ZM152.751 10.0324H146.818V15.9655H152.751V10.0324ZM106.472 47.1413V50.9169H108.414V50.3776H107.012V47.1413H106.472ZM59.6548 32.2546C60.9493 32.2546 61.9202 31.068 62.028 29.7735C62.028 30.9601 62.2438 32.2546 63.4304 32.2546V11.8662C63.4304 10.5717 62.3517 9.49299 61.0572 9.49299C59.7627 9.49299 58.6839 10.5717 58.6839 11.8662V32.1467H59.6548V32.2546ZM118.123 47.5728V47.0334H116.073V50.8091H118.231V50.2697H116.505V49.1909H118.015V48.6516H116.505V47.4649H118.123V47.5728ZM55.1241 32.2546H57.4973V11.8662C57.4973 10.5717 56.4186 9.49299 55.1241 9.49299C53.8296 9.49299 52.7508 10.5717 52.7508 11.8662V29.8813C52.7508 31.1758 53.8296 32.2546 55.1241 32.2546ZM125.351 48.1122C125.351 48.0043 125.351 47.7886 125.243 47.6807C125.243 47.5728 125.135 47.4649 125.027 47.3571C124.919 47.2492 124.811 47.2492 124.703 47.1413C124.595 47.1413 124.38 47.0334 124.272 47.0334H123.301V50.8091H124.38C124.595 50.8091 124.811 50.8091 124.919 50.7012C125.027 50.5933 125.135 50.5933 125.243 50.4854C125.351 50.3776 125.351 50.2697 125.458 50.1618C125.458 50.0539 125.566 49.9461 125.566 49.8382C125.566 49.7303 125.566 49.6224 125.458 49.5146C125.458 49.4067 125.351 49.2988 125.351 49.2988C125.243 49.1909 125.243 49.1909 125.135 49.0831C125.027 49.0831 125.027 48.9752 124.919 48.9752C125.027 48.8673 125.135 48.7594 125.243 48.6516C125.243 48.4358 125.351 48.3279 125.351 48.1122ZM123.732 47.5728H124.164C124.38 47.5728 124.488 47.5728 124.595 47.6807C124.703 47.7886 124.703 47.8964 124.703 48.1122C124.703 48.2201 124.703 48.2201 124.703 48.3279C124.703 48.4358 124.703 48.4358 124.595 48.5437C124.595 48.6516 124.488 48.6516 124.38 48.6516C124.272 48.6516 124.164 48.7594 124.056 48.7594H123.732V47.5728ZM124.919 49.8382C124.919 50.0539 124.811 50.1618 124.703 50.2697C124.595 50.3776 124.38 50.3776 124.164 50.3776H123.625V49.2988H124.272C124.488 49.2988 124.595 49.2988 124.703 49.4067C124.811 49.5146 124.919 49.6224 124.919 49.8382ZM153.937 50.9169V47.6807H154.693V47.1413H152.643V47.6807H153.398V50.9169H153.937ZM164.617 47.5728V47.0334H162.783V50.8091H163.323V49.1909H164.617V48.6516H163.323V47.4649H164.617V47.5728ZM122.006 50.9169H122.546V47.1413H122.114L120.712 48.9752L119.31 47.1413H118.878V50.9169H119.417V48.2201L120.604 49.7303H120.82L122.006 48.1122V50.9169ZM47.2492 32.2546C48.5437 32.2546 49.6224 31.1758 49.6224 29.8813V3.77562H49.4067C48.9752 4.53074 48.2201 5.07012 47.3571 5.07012C46.4941 5.07012 45.6311 4.53074 45.3074 3.77562H45.0917V29.8813C44.8759 31.1758 45.9547 32.2546 47.2492 32.2546ZM165.804 19.9569H106.365V43.1499H165.804V19.9569ZM117.907 40.4531C114.024 40.4531 110.032 37.2168 110.032 32.1467C110.032 27.5081 113.376 23.8403 118.015 23.8403C120.928 23.8403 122.654 24.8112 123.948 26.3215L122.33 27.7238C121.251 26.5372 119.849 25.89 118.015 25.89C114.887 25.89 112.298 28.2632 112.298 32.0388C112.298 36.1381 115.426 38.1877 117.907 38.1877C119.417 38.1877 121.251 37.5405 122.654 35.9223L124.272 37.3247C122.977 39.1586 120.712 40.4531 117.907 40.4531ZM131.931 32.794H125.674L129.773 27.616C130.313 26.9687 130.421 26.4293 130.421 26.1057C130.421 24.8112 129.342 24.3797 128.695 24.3797C127.4 24.3797 126.969 25.2427 126.969 26.2136H125.674C125.674 24.164 126.969 23.1931 128.695 23.1931C130.205 23.1931 131.715 24.0561 131.715 26.1057C131.715 26.753 131.499 27.5081 130.852 28.2632L128.155 31.6073H131.931V32.794ZM138.188 40.2373H134.304V24.0561H138.403C143.905 24.0561 147.033 27.7238 147.033 32.0388C146.926 36.5696 143.689 40.2373 138.188 40.2373ZM161.704 40.2373H159.547V33.3333H151.78V40.2373H149.622V24.0561H151.78V31.1758H159.547V24.0561H161.704V40.2373ZM138.296 3.77562H132.362V9.70874H138.296V3.77562ZM40.7767 51.6721C39.0507 51.6721 37.6483 53.0744 37.6483 54.8004C37.6483 56.6343 39.0507 57.9288 40.7767 57.9288C42.5027 57.9288 43.9051 56.5264 43.9051 54.8004C43.9051 53.0744 42.6106 51.6721 40.7767 51.6721ZM40.7767 57.1737C39.5901 57.1737 38.5113 56.2028 38.5113 54.8004C38.5113 53.5059 39.3743 52.5351 40.7767 52.5351C42.0712 52.5351 43.0421 53.5059 43.0421 54.8004C43.0421 56.3107 41.9633 57.1737 40.7767 57.1737ZM16.7206 32.2546C18.0151 32.2546 19.0939 31.1758 19.0939 29.8813V9.60086H18.123C16.8285 9.60086 15.8576 10.7875 15.7497 12.082C15.7497 10.8954 15.534 9.60086 14.3474 9.60086V29.8813C14.4552 31.1758 15.4261 32.2546 16.7206 32.2546ZM148.436 47.5728V47.0334H146.386V50.8091H148.544V50.2697H146.926V49.1909H148.436V48.6516H146.926V47.4649H148.436V47.5728ZM30.5286 10.8954C29.6656 10.8954 28.8026 10.356 28.479 9.60086H28.2632V29.8813C28.2632 31.1758 29.342 32.2546 30.6365 32.2546C31.931 32.2546 33.0097 31.1758 33.0097 29.8813V9.60086H32.794C32.1467 10.356 31.3916 10.8954 30.5286 10.8954ZM22.6537 32.2546C23.9482 32.2546 25.027 31.1758 25.027 29.8813V11.8662C25.027 10.5717 23.9482 9.49299 22.6537 9.49299H20.2805V29.7735C20.2805 31.1758 21.3592 32.2546 22.6537 32.2546ZM38.9428 32.2546C40.2373 32.2546 41.3161 31.1758 41.3161 29.8813C41.3161 28.5868 40.2373 27.5081 38.9428 27.5081C37.6483 27.5081 36.5696 28.5868 36.5696 29.8813C36.5696 31.1758 37.6483 32.2546 38.9428 32.2546ZM30.5286 8.52211C31.8231 8.52211 32.9018 7.44337 32.9018 6.14887C32.9018 4.85437 31.8231 3.77562 30.5286 3.77562C29.2341 3.77562 28.1553 4.85437 28.1553 6.14887C28.1553 7.44337 29.2341 8.52211 30.5286 8.52211ZM138.296 26.1057H136.462V38.1877H137.864C142.611 38.1877 144.66 35.0593 144.66 32.1467C144.66 28.8026 142.179 26.1057 138.296 26.1057ZM143.366 47.8964C143.474 47.7886 143.581 47.6807 143.797 47.5728C144.013 47.4649 144.121 47.4649 144.337 47.4649C144.552 47.4649 144.768 47.4649 144.876 47.5728C145.092 47.6807 145.2 47.7886 145.307 47.8964L145.631 47.5728C145.523 47.3571 145.307 47.2492 145.092 47.1413C144.876 47.0334 144.552 47.0334 144.229 47.0334C144.013 47.0334 143.689 47.0334 143.474 47.1413C143.258 47.2492 143.042 47.3571 142.934 47.5728C142.826 47.7886 142.611 48.0043 142.503 48.2201C142.395 48.4358 142.395 48.7594 142.395 48.9752C142.395 49.2988 142.395 49.5146 142.503 49.7303C142.611 49.9461 142.718 50.1618 142.934 50.3776C143.15 50.5933 143.258 50.7012 143.474 50.8091C143.689 50.9169 143.905 50.9169 144.121 50.9169C144.444 50.9169 144.768 50.8091 144.984 50.7012C145.2 50.5933 145.415 50.3776 145.523 50.1618L145.2 49.8382C145.092 50.0539 144.876 50.1618 144.66 50.2697C144.444 50.3776 144.229 50.3776 144.121 50.3776C144.013 50.3776 143.797 50.3776 143.689 50.2697C143.581 50.1618 143.366 50.1618 143.258 50.0539C143.15 49.9461 143.042 49.7303 142.934 49.6224C142.826 49.5146 142.826 49.1909 142.826 48.9752C142.826 48.7594 142.826 48.5437 142.934 48.4358C143.15 48.2201 143.258 48.1122 143.366 47.8964ZM158.252 54.8004C158.037 54.5847 157.929 54.4768 157.605 54.3689C157.389 54.2611 157.066 54.2611 156.742 54.2611H155.771V58.0367H156.634C156.958 58.0367 157.282 58.0367 157.497 57.9288C157.713 57.8209 157.929 57.7131 158.145 57.4973C158.36 57.2816 158.468 57.1737 158.576 56.8501C158.684 56.6343 158.684 56.4186 158.684 56.0949C158.684 55.8792 158.684 55.5556 158.576 55.3398C158.576 55.1241 158.36 54.9083 158.252 54.8004ZM158.145 56.6343C158.037 56.8501 158.037 56.9579 157.821 57.0658C157.713 57.1737 157.497 57.2816 157.282 57.3894C157.066 57.4973 156.85 57.4973 156.526 57.4973H156.203V54.6926H156.634C156.85 54.6926 157.066 54.6926 157.282 54.8004C157.497 54.9083 157.605 55.0162 157.713 55.1241C157.821 55.2319 157.929 55.4477 158.037 55.5556C158.145 55.7713 158.145 55.8792 158.145 56.0949C158.252 56.3107 158.145 56.4186 158.145 56.6343ZM164.401 58.0367H164.941V54.2611H164.401V58.0367ZM139.159 54.2611L137.756 58.0367H138.296L138.727 56.8501H139.914L140.345 58.0367H140.885L139.482 54.2611H139.159ZM138.835 56.3107L139.266 55.2319C139.266 55.2319 139.266 55.2319 139.266 55.1241V55.2319L139.698 56.3107H138.835ZM163.323 54.8004C163.107 54.5847 162.999 54.4768 162.675 54.3689C162.46 54.2611 162.136 54.2611 161.812 54.2611H160.841V58.0367H161.704C162.028 58.0367 162.352 58.0367 162.567 57.9288C162.783 57.8209 162.999 57.7131 163.215 57.4973C163.43 57.2816 163.538 57.1737 163.646 56.8501C163.754 56.6343 163.754 56.4186 163.754 56.0949C163.754 55.8792 163.754 55.5556 163.646 55.3398C163.646 55.1241 163.43 54.9083 163.323 54.8004ZM163.215 56.6343C163.107 56.8501 163.107 56.9579 162.891 57.0658C162.783 57.1737 162.567 57.2816 162.352 57.3894C162.136 57.4973 161.92 57.4973 161.597 57.4973H161.273V54.6926H161.704C161.92 54.6926 162.136 54.6926 162.352 54.8004C162.567 54.9083 162.675 55.0162 162.783 55.1241C162.891 55.2319 162.999 55.4477 163.107 55.5556C163.215 55.7713 163.215 55.8792 163.215 56.0949C163.323 56.3107 163.215 56.4186 163.215 56.6343ZM166.882 50.9169C167.098 50.9169 167.422 50.9169 167.638 50.8091C167.853 50.7012 168.069 50.5933 168.285 50.3776C168.501 50.1618 168.608 49.9461 168.716 49.7303C168.824 49.5146 168.824 49.1909 168.824 48.9752C168.824 48.6516 168.824 48.4358 168.716 48.2201C168.608 48.0043 168.501 47.7886 168.285 47.5728C168.069 47.3571 167.961 47.2492 167.638 47.1413C167.422 47.0334 167.098 47.0334 166.882 47.0334C166.667 47.0334 166.343 47.0334 166.127 47.1413C165.912 47.2492 165.696 47.3571 165.48 47.5728C165.264 47.7886 165.156 47.8964 165.049 48.2201C164.941 48.4358 164.941 48.7594 164.941 48.9752C164.941 49.2988 164.941 49.5146 165.049 49.7303C165.156 49.9461 165.264 50.1618 165.48 50.3776C165.696 50.5933 165.804 50.7012 166.127 50.8091C166.343 50.9169 166.667 50.9169 166.882 50.9169ZM165.588 49.5146C165.48 49.2988 165.48 49.1909 165.48 48.9752C165.48 48.7594 165.48 48.5437 165.588 48.4358C165.696 48.2201 165.696 48.1122 165.912 48.0043C166.019 47.8964 166.127 47.7886 166.343 47.6807C166.559 47.5728 166.667 47.5728 166.882 47.5728C167.098 47.5728 167.314 47.5728 167.422 47.6807C167.638 47.7886 167.745 47.8964 167.853 48.0043C167.961 48.1122 168.069 48.3279 168.177 48.4358C168.285 48.6516 168.285 48.7594 168.285 48.9752C168.285 49.1909 168.285 49.4067 168.177 49.6224C168.069 49.8382 167.961 49.9461 167.853 50.0539C167.745 50.1618 167.638 50.2697 167.422 50.3776C167.206 50.4854 167.098 50.4854 166.882 50.4854C166.667 50.4854 166.559 50.4854 166.343 50.3776C166.127 50.2697 166.019 50.1618 165.912 50.0539C165.804 49.8382 165.696 49.7303 165.588 49.5146ZM167.422 56.7422H168.501C168.501 56.8501 168.393 56.9579 168.393 57.0658C168.285 57.1737 168.285 57.2816 168.177 57.2816C168.069 57.3894 167.961 57.3894 167.853 57.3894C167.745 57.3894 167.638 57.3894 167.422 57.3894C167.206 57.3894 167.098 57.3894 166.882 57.2816C166.667 57.1737 166.559 57.0658 166.451 56.9579C166.343 56.8501 166.235 56.6343 166.127 56.5264C166.019 56.3107 166.019 56.2028 166.019 55.9871C166.019 55.7713 166.019 55.5556 166.127 55.4477C166.235 55.2319 166.343 55.1241 166.451 55.0162C166.559 54.9083 166.667 54.8004 166.882 54.6926C167.098 54.5847 167.206 54.5847 167.422 54.5847C167.638 54.5847 167.853 54.5847 167.961 54.6926C168.069 54.8004 168.285 54.8004 168.501 55.0162L168.824 54.5847C168.608 54.4768 168.501 54.2611 168.285 54.2611C168.069 54.2611 167.853 54.1532 167.53 54.1532C167.314 54.1532 166.99 54.1532 166.775 54.2611C166.559 54.3689 166.343 54.4768 166.127 54.6926C165.912 54.9083 165.804 55.0162 165.696 55.3398C165.588 55.5556 165.588 55.8792 165.588 56.0949C165.588 56.4186 165.588 56.6343 165.804 56.8501C166.019 57.0658 166.019 57.2816 166.235 57.4973C166.451 57.7131 166.667 57.8209 166.882 57.9288C167.098 58.0367 167.314 58.0367 167.53 58.0367C167.745 58.0367 167.961 58.0367 168.177 57.9288C168.393 57.8209 168.608 57.7131 168.716 57.6052C168.824 57.4973 169.04 57.2816 169.04 57.0658C169.148 56.8501 169.148 56.6343 169.148 56.3107H167.422V56.7422ZM158.9 49.2988H160.41V48.7594H158.9V47.5728H160.518V47.0334H158.468V50.8091H160.626V50.2697H159.008V49.2988H158.9ZM149.838 54.2611L148.436 58.0367H148.975L149.407 56.8501H150.593L151.025 58.0367H151.564L150.162 54.2611H149.838ZM149.622 56.3107L150.054 55.2319C150.054 55.2319 150.054 55.2319 150.054 55.1241V55.2319L150.485 56.3107H149.622ZM145.631 55.6634C145.631 55.6634 145.631 55.7713 145.523 55.7713C145.523 55.6634 145.523 55.6634 145.415 55.6634L144.552 54.2611H144.013L145.307 56.3107V58.0367H145.847V56.3107L147.141 54.2611H146.602L145.631 55.6634ZM143.15 56.3107C143.258 56.2028 143.366 56.2028 143.474 56.0949C143.581 55.9871 143.689 55.8792 143.689 55.7713C143.797 55.6634 143.797 55.4477 143.797 55.3398C143.797 55.2319 143.797 55.0162 143.689 54.9083C143.581 54.8004 143.581 54.6926 143.474 54.5847C143.366 54.4768 143.258 54.3689 143.15 54.3689C143.042 54.2611 142.826 54.2611 142.718 54.2611H141.532V58.0367H142.071V56.3107L143.581 58.0367H144.229L142.826 56.4186C142.826 56.4186 142.934 56.4186 143.15 56.3107ZM141.963 55.9871V54.6926H142.611C142.718 54.6926 142.826 54.6926 142.934 54.8004C143.042 54.8004 143.15 54.9083 143.15 54.9083C143.258 55.0162 143.258 55.0162 143.258 55.1241C143.258 55.2319 143.258 55.2319 143.258 55.3398C143.258 55.5556 143.15 55.6634 143.042 55.8792C142.934 55.9871 142.718 56.0949 142.503 56.0949H141.963V55.9871ZM151.564 49.7303V49.8382C151.564 49.8382 151.564 49.8382 151.564 49.7303L149.622 47.0334H149.191V50.8091H149.73V48.1122V48.0043L149.838 48.1122L151.78 50.8091H152.211V47.0334H151.672V49.7303H151.564ZM37.8641 41.2082H37.0011V47.2492H37.8641V41.2082ZM154.585 56.8501V56.9579C154.477 56.9579 154.477 56.9579 154.585 56.8501L152.643 54.1532H152.104V57.9288H152.643V55.2319V55.1241L152.751 55.2319L154.693 57.9288H155.124V54.1532H154.585V56.8501ZM169.903 49.0831L171.413 50.8091H172.06L170.658 49.1909C170.766 49.1909 170.982 49.1909 171.09 49.0831C171.197 48.9752 171.305 48.9752 171.413 48.8673C171.521 48.7594 171.629 48.6516 171.629 48.5437C171.737 48.4358 171.737 48.2201 171.737 48.1122C171.737 48.0043 171.737 47.7886 171.629 47.6807C171.521 47.5728 171.521 47.4649 171.413 47.3571C171.305 47.2492 171.197 47.1413 171.09 47.1413C170.982 47.1413 170.766 47.0334 170.658 47.0334H169.364V50.8091H169.903V49.0831ZM169.903 47.5728H170.55C170.658 47.5728 170.766 47.5728 170.874 47.6807C170.982 47.6807 171.09 47.7886 171.09 47.7886C171.197 47.8964 171.197 47.8964 171.197 48.0043C171.197 48.1122 171.197 48.1122 171.197 48.2201C171.197 48.4358 171.09 48.5437 170.982 48.7594C170.874 48.8673 170.658 48.9752 170.442 48.9752H169.903V47.5728ZM193.204 54.6926C192.988 54.4768 192.88 54.3689 192.557 54.2611C192.341 54.1532 192.017 54.1532 191.802 54.1532C191.586 54.1532 191.262 54.1532 191.046 54.2611C190.831 54.3689 190.615 54.4768 190.399 54.6926C190.183 54.9083 190.076 55.0162 189.968 55.3398C189.86 55.5556 189.86 55.8792 189.86 56.0949C189.86 56.4186 189.86 56.6343 189.968 56.8501C190.076 57.0658 190.183 57.2816 190.399 57.4973C190.615 57.7131 190.831 57.8209 191.046 57.9288C191.262 58.0367 191.478 58.0367 191.802 58.0367C192.017 58.0367 192.341 58.0367 192.557 57.9288C192.772 57.8209 192.988 57.7131 193.204 57.4973C193.42 57.2816 193.528 57.0658 193.635 56.8501C193.743 56.6343 193.743 56.3107 193.743 56.0949C193.743 55.7713 193.743 55.5556 193.635 55.3398C193.42 55.1241 193.312 54.9083 193.204 54.6926ZM192.988 56.7422C192.88 56.9579 192.772 57.0658 192.665 57.1737C192.557 57.2816 192.341 57.3894 192.233 57.4973C192.017 57.6052 191.909 57.6052 191.694 57.6052C191.478 57.6052 191.37 57.6052 191.154 57.4973C190.939 57.3894 190.831 57.2816 190.723 57.1737C190.615 57.0658 190.507 56.8501 190.399 56.7422C190.291 56.5264 190.291 56.4186 190.291 56.2028C190.291 55.9871 190.291 55.7713 190.399 55.6634C190.507 55.4477 190.507 55.3398 190.723 55.2319C190.831 55.1241 190.939 55.0162 191.154 54.9083C191.37 54.8004 191.478 54.8004 191.694 54.8004C191.909 54.8004 192.125 54.8004 192.233 54.9083C192.449 55.0162 192.557 55.1241 192.665 55.2319C192.772 55.3398 192.88 55.5556 192.988 55.6634C193.096 55.8792 193.096 55.9871 193.096 56.2028C193.204 56.3107 193.096 56.5264 192.988 56.7422ZM187.594 54.6926H188.35V57.9288H188.889V54.6926H189.644V54.1532H187.594V54.6926ZM181.661 34.52H187.594V28.5868H181.661V34.52ZM199.353 54.2611L198.49 55.6634C198.49 55.6634 198.49 55.7713 198.382 55.7713C198.382 55.6634 198.382 55.6634 198.274 55.6634L197.411 54.2611H196.872L198.166 56.3107V58.0367H198.706V56.3107L200 54.2611H199.353ZM196.009 56.3107C196.117 56.2028 196.224 56.2028 196.332 56.0949C196.44 55.9871 196.548 55.8792 196.548 55.7713C196.656 55.6634 196.656 55.4477 196.656 55.3398C196.656 55.2319 196.656 55.0162 196.548 54.9083C196.548 54.8004 196.44 54.6926 196.332 54.5847C196.224 54.4768 196.117 54.3689 196.009 54.3689C195.901 54.2611 195.685 54.2611 195.577 54.2611H194.391V58.0367H194.93V56.3107L196.44 58.0367H197.087L195.685 56.4186C195.685 56.4186 195.901 56.4186 196.009 56.3107ZM194.822 55.9871V54.6926H195.469C195.577 54.6926 195.685 54.6926 195.793 54.8004C195.901 54.8004 196.009 54.9083 196.009 54.9083C196.117 55.0162 196.117 55.0162 196.117 55.1241C196.117 55.2319 196.117 55.2319 196.117 55.3398C196.117 55.5556 196.009 55.6634 195.901 55.8792C195.793 55.9871 195.577 56.0949 195.361 56.0949H194.822V55.9871ZM187.055 56.3107C186.947 56.2028 186.839 56.0949 186.731 56.0949C186.624 55.9871 186.516 55.9871 186.408 55.8792C186.3 55.7713 186.192 55.7713 186.084 55.6634C185.976 55.6634 185.868 55.5556 185.868 55.5556C185.761 55.4477 185.761 55.4477 185.653 55.3398C185.653 55.2319 185.545 55.2319 185.545 55.1241C185.545 55.0162 185.545 54.9083 185.653 54.8004C185.761 54.6926 185.868 54.6926 186.084 54.6926C186.192 54.6926 186.408 54.6926 186.516 54.6926C186.624 54.6926 186.731 54.8004 186.839 54.9083L187.163 54.4768C187.055 54.3689 186.839 54.2611 186.731 54.2611C186.516 54.1532 186.408 54.1532 186.192 54.1532C185.976 54.1532 185.868 54.1532 185.761 54.2611C185.653 54.2611 185.545 54.3689 185.437 54.4768C185.329 54.5847 185.221 54.6926 185.221 54.8004C185.221 54.9083 185.113 55.0162 185.113 55.2319C185.113 55.4477 185.113 55.5556 185.221 55.6634C185.329 55.7713 185.329 55.8792 185.437 55.9871C185.545 56.0949 185.653 56.2028 185.761 56.2028C185.868 56.3107 185.976 56.3107 186.192 56.4186C186.3 56.4186 186.3 56.5264 186.408 56.5264C186.516 56.5264 186.516 56.6343 186.624 56.6343C186.731 56.7422 186.731 56.7422 186.731 56.8501C186.731 56.9579 186.731 56.9579 186.731 57.0658C186.731 57.2816 186.624 57.3894 186.516 57.4973C186.408 57.6052 186.3 57.6052 186.084 57.6052C185.976 57.6052 185.976 57.6052 185.868 57.6052C185.761 57.6052 185.761 57.6052 185.653 57.6052C185.545 57.6052 185.545 57.6052 185.437 57.4973C185.329 57.4973 185.329 57.3894 185.221 57.3894L184.898 57.8209C185.113 57.9288 185.221 58.0367 185.437 58.1446C185.653 58.2524 185.761 58.2524 185.976 58.2524C186.084 58.2524 186.3 58.2524 186.408 58.1446C186.516 58.1446 186.624 58.0367 186.731 57.9288C186.839 57.8209 186.947 57.7131 186.947 57.6052C187.055 57.4973 187.055 57.2816 187.055 57.1737C187.055 57.0658 187.055 56.8501 186.947 56.7422C187.163 56.4186 187.163 56.4186 187.055 56.3107ZM184.035 58.0367H184.574V54.2611H184.035V58.0367ZM172.816 54.2611H170.766V54.8004H171.521V58.0367H172.06V54.8004H172.816V54.2611ZM174.218 54.2611L172.816 58.0367H173.355L173.786 56.8501H174.973L175.405 58.0367H175.944L174.542 54.2611H174.218ZM173.894 56.3107L174.326 55.2319C174.326 55.2319 174.326 55.2319 174.326 55.1241V55.2319L174.757 56.3107H173.894ZM182.74 55.8792H180.906V54.2611H180.367V58.0367H180.906V56.4186H182.74V58.0367H183.279V54.2611H182.74V55.8792ZM176.915 54.2611H176.375V58.0367H178.317V57.4973H176.915V54.2611ZM169.687 58.0367H170.227V54.2611H169.687V58.0367ZM157.929 50.9169L156.526 49.2988C156.634 49.2988 156.85 49.2988 156.958 49.1909C157.066 49.0831 157.174 49.0831 157.282 48.9752C157.389 48.8673 157.497 48.7594 157.497 48.6516C157.605 48.5437 157.605 48.3279 157.605 48.2201C157.605 48.1122 157.605 47.8964 157.497 47.7886C157.497 47.6807 157.389 47.5728 157.282 47.4649C157.174 47.3571 157.066 47.2492 156.958 47.2492C156.85 47.1413 156.634 47.1413 156.526 47.1413H155.34V50.9169H155.879V49.1909L157.389 50.9169H157.929ZM155.771 48.8673V47.5728H156.419C156.526 47.5728 156.634 47.5728 156.742 47.6807C156.85 47.6807 156.958 47.7886 156.958 47.7886C157.066 47.8964 157.066 47.8964 157.066 48.0043C157.066 48.1122 157.066 48.1122 157.066 48.2201C157.066 48.4358 156.958 48.5437 156.85 48.7594C156.742 48.8673 156.526 48.9752 156.311 48.9752H155.771V48.8673ZM0 37.109H63.9698V36.246H0V37.109ZM58.5761 41.2082V44.9838C58.5761 46.4941 59.5469 47.3571 60.9493 47.3571C62.3517 47.3571 63.3225 46.3862 63.3225 44.9838V41.2082H62.5674V44.9838C62.5674 46.1704 61.8123 46.6019 61.0572 46.6019C60.3021 46.6019 59.5469 46.1704 59.5469 44.9838V41.2082H58.5761ZM53.9374 41.2082H52.4272V47.2492H53.9374C55.9871 47.2492 57.2816 45.8468 57.2816 44.2287C57.1737 42.6106 55.9871 41.2082 53.9374 41.2082ZM53.7217 46.4941H53.1823V41.8554H53.9374C55.4477 41.8554 56.3107 42.9342 56.3107 44.1208C56.3107 45.4153 55.5556 46.4941 53.7217 46.4941ZM60.6257 55.9871H62.4596C62.2438 56.7422 61.5965 57.1737 60.6257 57.1737C59.4391 57.1737 58.3603 56.0949 58.3603 54.8004C58.3603 53.3981 59.3312 52.4272 60.6257 52.4272C61.3808 52.4272 61.8123 52.6429 62.3517 53.0744L62.891 52.4272C62.3517 51.8878 61.5965 51.5642 60.6257 51.5642C58.8997 51.5642 57.4973 52.8587 57.4973 54.6926C57.4973 56.5264 59.0076 57.8209 60.6257 57.8209C62.1359 57.8209 63.4304 56.6343 63.4304 55.0162H60.6257V55.9871ZM85.0054 61.5965H85.9763V0H85.0054V61.5965ZM110.895 50.8091C111.111 50.7012 111.219 50.5933 111.327 50.4854C111.435 50.3776 111.543 50.1618 111.65 50.0539C111.758 49.8382 111.758 49.6224 111.758 49.4067V47.0334H111.219V49.4067C111.219 49.6224 111.219 49.7303 111.111 49.8382C111.111 49.9461 111.003 50.0539 110.895 50.1618C110.787 50.2697 110.68 50.2697 110.572 50.3776C110.464 50.3776 110.356 50.3776 110.248 50.3776C110.14 50.3776 110.032 50.3776 109.924 50.3776C109.817 50.3776 109.709 50.2697 109.601 50.1618C109.493 50.0539 109.493 49.9461 109.385 49.8382C109.385 49.7303 109.277 49.5146 109.277 49.4067V47.0334H108.738V49.4067C108.738 49.6224 108.738 49.8382 108.846 50.0539C108.954 50.2697 109.061 50.3776 109.169 50.4854C109.277 50.5933 109.493 50.7012 109.601 50.8091C109.817 50.9169 109.924 50.9169 110.14 50.9169C110.572 50.9169 110.68 50.9169 110.895 50.8091ZM108.738 57.3894C108.522 57.4973 108.306 57.4973 108.199 57.4973C108.091 57.4973 107.875 57.4973 107.767 57.3894C107.659 57.2816 107.443 57.2816 107.335 57.1737C107.228 57.0658 107.12 56.8501 107.012 56.7422C106.904 56.5264 106.796 56.3107 106.796 56.0949C106.796 55.8792 106.796 55.6634 106.904 55.5556C107.012 55.3398 107.12 55.2319 107.228 55.1241C107.335 55.0162 107.443 54.9083 107.659 54.8004C107.767 54.6926 107.983 54.6926 108.199 54.6926C108.414 54.6926 108.63 54.6926 108.738 54.8004C108.954 54.9083 109.061 55.0162 109.169 55.1241L109.493 54.8004C109.385 54.5847 109.169 54.4768 108.954 54.3689C108.738 54.2611 108.414 54.2611 108.091 54.2611C107.875 54.2611 107.551 54.2611 107.335 54.3689C107.12 54.4768 106.904 54.5847 106.796 54.8004C106.58 55.0162 106.472 55.2319 106.365 55.4477C106.257 55.6634 106.257 55.9871 106.257 56.2028C106.257 56.5264 106.257 56.7422 106.365 56.9579C106.472 57.1737 106.58 57.3894 106.796 57.6052C107.012 57.8209 107.12 57.9288 107.335 58.0367C107.551 58.1446 107.767 58.1446 107.983 58.1446C108.306 58.1446 108.63 58.0367 108.846 57.9288C109.061 57.8209 109.277 57.6052 109.385 57.3894L109.061 57.0658C109.061 57.1737 108.846 57.3894 108.738 57.3894ZM44.0129 47.2492H47.5728V46.4941H44.8759V44.6602H47.3571V43.9051H44.8759V41.9633H47.4649V41.2082H44.0129V47.2492ZM56.0949 53.6138C56.0949 52.6429 55.3398 51.7799 54.2611 51.7799H52.3193V57.8209H53.1823V55.0162L55.6634 57.8209H56.7422L54.4768 55.2319C55.2319 55.3398 56.0949 54.5847 56.0949 53.6138ZM53.0744 54.6926V52.6429H54.0453C54.8004 52.6429 55.2319 53.1823 55.2319 53.6138C55.2319 54.2611 54.8004 54.6926 54.0453 54.6926H53.0744ZM138.835 50.9169C139.051 50.9169 139.266 50.9169 139.482 50.8091C139.698 50.7012 139.914 50.5933 140.022 50.4854C140.129 50.3776 140.345 50.1618 140.345 49.9461C140.453 49.7303 140.453 49.5146 140.453 49.1909H138.727V49.6224H139.806C139.806 49.7303 139.698 49.8382 139.698 49.9461C139.59 50.0539 139.59 50.1618 139.482 50.1618C139.374 50.1618 139.266 50.2697 139.159 50.2697C139.051 50.2697 138.943 50.2697 138.835 50.2697C138.619 50.2697 138.511 50.2697 138.296 50.1618C138.08 50.0539 137.972 49.9461 137.864 49.8382C137.756 49.7303 137.648 49.5146 137.54 49.4067C137.433 49.2988 137.433 49.0831 137.433 48.8673C137.433 48.6516 137.433 48.4358 137.54 48.3279C137.648 48.1122 137.756 48.0043 137.864 47.8964C137.972 47.7886 138.08 47.6807 138.296 47.5728C138.511 47.4649 138.619 47.4649 138.835 47.4649C139.051 47.4649 139.266 47.4649 139.374 47.5728C139.482 47.6807 139.698 47.6807 139.914 47.8964L140.237 47.4649C140.022 47.3571 139.806 47.1413 139.59 47.1413C139.374 47.0334 139.159 47.0334 138.835 47.0334C138.619 47.0334 138.296 47.0334 138.08 47.1413C137.864 47.2492 137.648 47.3571 137.433 47.5728C137.217 47.7886 137.109 47.8964 137.001 48.2201C136.893 48.4358 136.893 48.7594 136.893 48.9752C136.893 49.2988 137.001 49.5146 137.109 49.7303C137.217 49.9461 137.325 50.1618 137.54 50.3776C137.756 50.5933 137.864 50.7012 138.188 50.8091C138.403 50.9169 138.619 50.9169 138.835 50.9169ZM45.9547 39.4822L45.1996 40.6688H45.9547L46.7098 39.4822H45.9547ZM49.5146 55.5556C49.5146 56.7422 48.7594 57.1737 48.0043 57.1737C47.2492 57.1737 46.4941 56.7422 46.4941 55.5556V51.7799H45.6311V55.5556C45.6311 57.0658 46.6019 57.9288 48.0043 57.9288C49.4067 57.9288 50.3776 56.9579 50.3776 55.5556V51.7799H49.5146V55.5556ZM41.3161 47.2492V41.9633H42.6106V41.2082H39.2665V41.9633H40.561V47.2492H41.3161ZM128.587 50.8091C128.803 50.7012 129.018 50.5933 129.234 50.3776C129.45 50.1618 129.558 49.9461 129.666 49.7303C129.773 49.5146 129.773 49.1909 129.773 48.9752C129.773 48.6516 129.773 48.4358 129.666 48.2201C129.558 48.0043 129.45 47.7886 129.234 47.5728C129.018 47.3571 128.91 47.2492 128.587 47.1413C128.371 47.0334 128.047 47.0334 127.832 47.0334C127.616 47.0334 127.292 47.0334 127.077 47.1413C126.861 47.2492 126.645 47.3571 126.429 47.5728C126.214 47.7886 126.106 47.8964 125.998 48.2201C125.89 48.4358 125.89 48.7594 125.89 48.9752C125.89 49.2988 125.89 49.5146 125.998 49.7303C126.106 49.9461 126.214 50.1618 126.429 50.3776C126.645 50.5933 126.753 50.7012 127.077 50.8091C127.292 50.9169 127.508 50.9169 127.832 50.9169C128.155 50.9169 128.371 50.9169 128.587 50.8091ZM126.861 50.0539C126.753 49.9461 126.645 49.7303 126.537 49.6224C126.429 49.4067 126.429 49.2988 126.429 49.0831C126.429 48.8673 126.429 48.6516 126.537 48.5437C126.645 48.3279 126.645 48.2201 126.861 48.1122C126.969 48.0043 127.077 47.8964 127.292 47.7886C127.508 47.6807 127.616 47.6807 127.832 47.6807C128.047 47.6807 128.263 47.6807 128.371 47.7886C128.587 47.8964 128.695 48.0043 128.803 48.1122C128.91 48.2201 129.018 48.4358 129.126 48.5437C129.234 48.7594 129.234 48.8673 129.234 49.0831C129.234 49.2988 129.234 49.5146 129.126 49.7303C129.018 49.9461 128.91 50.0539 128.803 50.1618C128.695 50.2697 128.479 50.3776 128.371 50.4854C128.155 50.5933 128.047 50.5933 127.832 50.5933C127.616 50.5933 127.508 50.5933 127.292 50.4854C127.184 50.2697 126.969 50.1618 126.861 50.0539ZM130.744 50.4854C130.852 50.5933 131.068 50.7012 131.176 50.8091C131.392 50.9169 131.499 50.9169 131.715 50.9169C131.931 50.9169 132.147 50.9169 132.255 50.8091C132.47 50.7012 132.578 50.5933 132.686 50.4854C132.794 50.3776 132.902 50.1618 133.01 50.0539C133.118 49.8382 133.118 49.6224 133.118 49.4067V47.0334H132.686V49.4067C132.686 49.6224 132.686 49.7303 132.578 49.8382C132.47 49.9461 132.47 50.0539 132.362 50.1618C132.255 50.2697 132.147 50.2697 132.039 50.3776C131.931 50.3776 131.823 50.3776 131.715 50.3776C131.607 50.3776 131.499 50.3776 131.392 50.3776C131.284 50.3776 131.176 50.2697 131.068 50.1618C130.96 50.0539 130.96 49.9461 130.852 49.8382C130.852 49.7303 130.744 49.5146 130.744 49.4067V47.0334H130.205V49.4067C130.205 49.6224 130.205 49.8382 130.313 50.0539C130.529 50.2697 130.636 50.3776 130.744 50.4854ZM129.666 54.5847C129.558 54.4768 129.45 54.3689 129.234 54.3689C129.126 54.2611 128.91 54.2611 128.695 54.2611H127.616V58.0367H128.155V56.5264H128.91C129.018 56.5264 129.234 56.5264 129.342 56.4186C129.45 56.3107 129.558 56.3107 129.666 56.2028C129.773 56.0949 129.881 55.9871 129.881 55.8792C129.989 55.7713 129.989 55.5556 129.989 55.4477C129.989 55.2319 129.989 55.1241 129.881 55.0162C129.881 54.8004 129.773 54.6926 129.666 54.5847ZM129.234 55.8792C129.126 55.9871 128.91 56.0949 128.695 56.0949H128.155V54.8004H128.695C128.91 54.8004 129.126 54.9083 129.234 55.0162C129.342 55.1241 129.45 55.2319 129.45 55.4477C129.45 55.5556 129.342 55.7713 129.234 55.8792ZM133.657 54.6926C133.441 54.4768 133.333 54.3689 133.01 54.2611C132.794 54.1532 132.47 54.1532 132.255 54.1532C132.039 54.1532 131.715 54.1532 131.499 54.2611C131.284 54.3689 131.068 54.4768 130.852 54.6926C130.636 54.9083 130.529 55.0162 130.421 55.3398C130.313 55.5556 130.313 55.8792 130.313 56.0949C130.313 56.4186 130.313 56.6343 130.421 56.8501C130.529 57.0658 130.636 57.2816 130.852 57.4973C131.068 57.7131 131.176 57.8209 131.499 57.9288C131.715 58.0367 131.931 58.0367 132.255 58.0367C132.47 58.0367 132.794 58.0367 133.01 57.9288C133.225 57.8209 133.441 57.7131 133.657 57.4973C133.873 57.2816 133.981 57.0658 134.088 56.8501C134.196 56.6343 134.196 56.3107 134.196 56.0949C134.196 55.7713 134.196 55.5556 134.088 55.3398C133.981 55.1241 133.873 54.9083 133.657 54.6926ZM133.549 56.7422C133.441 56.9579 133.333 57.0658 133.225 57.1737C133.118 57.2816 132.902 57.3894 132.794 57.4973C132.578 57.6052 132.47 57.6052 132.255 57.6052C132.039 57.6052 131.931 57.6052 131.715 57.4973C131.499 57.3894 131.392 57.2816 131.284 57.1737C131.176 57.0658 131.068 56.8501 130.96 56.7422C130.852 56.5264 130.852 56.4186 130.852 56.2028C130.852 55.9871 130.852 55.7713 130.96 55.6634C131.068 55.4477 131.068 55.3398 131.284 55.2319C131.392 55.1241 131.499 55.0162 131.715 54.9083C131.931 54.8004 132.039 54.8004 132.255 54.8004C132.47 54.8004 132.686 54.8004 132.794 54.9083C133.01 55.0162 133.118 55.1241 133.225 55.2319C133.333 55.3398 133.441 55.5556 133.549 55.6634C133.657 55.8792 133.657 55.9871 133.657 56.2028C133.657 56.3107 133.657 56.5264 133.549 56.7422ZM136.462 56.3107C136.57 56.2028 136.677 56.2028 136.785 56.0949C136.893 55.9871 137.001 55.8792 137.001 55.7713C137.109 55.6634 137.109 55.4477 137.109 55.3398C137.109 55.2319 137.109 55.0162 137.001 54.9083C136.893 54.8004 136.893 54.6926 136.785 54.5847C136.677 54.4768 136.57 54.3689 136.462 54.3689C136.354 54.2611 136.138 54.2611 136.03 54.2611H134.844V58.0367H135.383V56.3107L136.893 58.0367H137.54L136.138 56.4186C136.246 56.4186 136.354 56.4186 136.462 56.3107ZM135.275 55.9871V54.6926H135.922C136.03 54.6926 136.138 54.6926 136.246 54.8004C136.354 54.8004 136.462 54.9083 136.462 54.9083C136.57 55.0162 136.57 55.0162 136.57 55.1241C136.57 55.2319 136.57 55.2319 136.57 55.3398C136.57 55.5556 136.462 55.6634 136.354 55.8792C136.246 55.9871 136.03 56.0949 135.814 56.0949H135.275V55.9871ZM113.161 54.6926C112.945 54.4768 112.837 54.3689 112.513 54.2611C112.298 54.1532 111.974 54.1532 111.758 54.1532C111.543 54.1532 111.219 54.1532 111.003 54.2611C110.787 54.3689 110.572 54.4768 110.356 54.6926C110.14 54.9083 110.032 55.0162 109.924 55.3398C109.817 55.5556 109.817 55.8792 109.817 56.0949C109.817 56.4186 109.817 56.6343 109.924 56.8501C110.032 57.0658 110.14 57.2816 110.356 57.4973C110.572 57.7131 110.68 57.8209 111.003 57.9288C111.219 58.0367 111.435 58.0367 111.758 58.0367C111.974 58.0367 112.298 58.0367 112.513 57.9288C112.729 57.8209 112.945 57.7131 113.161 57.4973C113.376 57.2816 113.484 57.0658 113.592 56.8501C113.7 56.6343 113.7 56.3107 113.7 56.0949C113.7 55.7713 113.7 55.5556 113.592 55.3398C113.484 55.1241 113.269 54.9083 113.161 54.6926ZM113.053 56.7422C112.945 56.9579 112.837 57.0658 112.729 57.1737C112.621 57.2816 112.406 57.3894 112.298 57.4973C112.082 57.6052 111.974 57.6052 111.758 57.6052C111.543 57.6052 111.435 57.6052 111.219 57.4973C111.003 57.3894 110.895 57.2816 110.787 57.1737C110.68 57.0658 110.572 56.8501 110.464 56.7422C110.356 56.5264 110.356 56.4186 110.356 56.2028C110.356 55.9871 110.356 55.7713 110.464 55.6634C110.572 55.4477 110.572 55.3398 110.787 55.2319C110.895 55.1241 111.003 55.0162 111.219 54.9083C111.435 54.8004 111.543 54.8004 111.758 54.8004C111.974 54.8004 112.19 54.8004 112.298 54.9083C112.513 55.0162 112.621 55.1241 112.729 55.2319C112.837 55.3398 112.945 55.5556 113.053 55.6634C113.161 55.8792 113.161 55.9871 113.161 56.2028C113.161 56.3107 113.161 56.5264 113.053 56.7422ZM136.677 50.9169L135.275 49.2988C135.383 49.2988 135.599 49.2988 135.707 49.1909C135.814 49.0831 135.922 49.0831 136.03 48.9752C136.138 48.8673 136.246 48.7594 136.246 48.6516C136.354 48.5437 136.354 48.3279 136.354 48.2201C136.354 48.1122 136.354 47.8964 136.246 47.7886C136.246 47.6807 136.138 47.5728 136.03 47.4649C135.922 47.3571 135.814 47.2492 135.707 47.2492C135.599 47.1413 135.383 47.1413 135.275 47.1413H134.088V50.9169H134.628V49.1909L136.138 50.9169H136.677ZM134.52 48.8673V47.5728H135.167C135.275 47.5728 135.383 47.5728 135.491 47.6807C135.599 47.6807 135.707 47.7886 135.707 47.7886C135.814 47.8964 135.814 47.8964 135.814 48.0043C135.814 48.1122 135.814 48.1122 135.814 48.2201C135.814 48.4358 135.707 48.5437 135.599 48.7594C135.491 48.8673 135.275 48.9752 135.059 48.9752H134.52V48.8673ZM115.426 50.9169L114.132 48.8673L115.318 47.1413H114.779L114.024 48.2201C114.024 48.2201 113.916 48.3279 113.916 48.4358C113.916 48.3279 113.808 48.3279 113.808 48.2201L113.053 47.1413H112.406L113.592 48.8673L112.298 50.8091H112.837L113.7 49.5146C113.7 49.5146 113.7 49.4067 113.808 49.4067C113.808 49.4067 113.808 49.2988 113.916 49.2988C113.916 49.2988 113.916 49.4067 114.024 49.4067C114.024 49.4067 114.024 49.5146 114.132 49.5146L114.995 50.8091H115.426V50.9169ZM116.721 56.8501V56.9579C116.721 56.9579 116.613 56.9579 116.721 56.8501L114.779 54.1532H114.347V57.9288H114.887V55.2319V55.1241L114.995 55.2319L116.936 57.9288H117.368V54.1532H116.828V56.8501H116.721ZM117.799 54.6926H118.554V57.9288H119.094V54.6926H119.849V54.1532H117.799V54.6926ZM125.027 56.0949L123.625 54.2611H123.193V58.0367H123.732V55.3398L124.919 56.8501H125.135L126.321 55.2319V58.0367H126.861V54.2611H126.429L125.027 56.0949ZM120.928 56.4186H122.438V55.8792H120.928V54.6926H122.546V54.1532H120.496V57.9288H122.654V57.3894H121.036V56.4186H120.928Z" fill="var(--bs-dark)"/>
</g>
<defs>
<clipPath id="clip0_36_1058">
<rect width="200" height="61.5965" fill="white"/>
</clipPath>
</defs>
</svg>
