<svg width="200" height="70" viewBox="0 0 200 70" fill="none" xmlns="http://www.w3.org/2000/svg">
<g clip-path="url(#clip0_36_1056)">
<path fill-rule="evenodd" clip-rule="evenodd" d="M162.109 37.4043C161.169 37.2999 153.862 36.5692 149.165 36.778C146.555 36.8824 135.386 38.135 130.585 39.0745C126.409 39.9095 120.459 41.2665 113.987 41.2665C106.054 41.3709 102.296 39.7008 100.104 38.7613C98.0167 37.9262 96.3466 36.3605 95.6159 35.5254C94.9896 35.0035 94.9896 33.7509 94.9896 33.7509C94.9896 33.7509 101.879 26.3396 105.219 19.8678C108.038 14.3354 108.873 10.2644 109.186 8.38552C109.395 6.40223 108.977 4.83646 107.933 4.10578C106.889 3.37509 105.324 3.16632 103.862 4.00139C101.879 5.14962 100 7.34168 98.5386 9.42937C97.0773 11.517 94.9896 14.5442 93.5282 19.659C91.858 25.1914 91.6493 27.5922 91.6493 28.8448C91.6493 30.0974 91.7537 32.3939 91.7537 32.3939C91.7537 32.3939 90.0835 34.5859 88.309 36.3605C86.4301 38.135 84.4468 39.7008 81.9416 39.2832C80.0626 38.9701 79.8539 36.778 79.8539 35.6298C79.8539 34.4816 80.3758 33.0202 80.5846 31.6632C80.7933 30.4106 80.8977 30.7237 80.3758 30.3062C79.8539 29.7843 79.1232 29.993 78.0793 29.993C77.0355 29.993 77.2443 30.6193 76.7223 31.6632C76.096 32.707 74.739 35.6298 73.0689 37.1955C71.3988 38.7613 70.6681 38.6569 69.3111 38.5525C67.9541 38.3438 67.2234 37.7175 66.5971 36.5692C66.0752 35.421 66.2839 31.1413 66.1795 29.993C66.0752 28.8448 65.5532 28.0097 64.5094 27.4878C63.3612 26.8615 62.0042 27.1747 60.9603 28.1141C59.8121 29.0536 57.8288 31.7676 56.9937 33.2289C56.1587 34.5859 54.3841 36.5692 53.9666 36.5692C53.4447 36.5692 53.4447 35.6298 53.6534 34.064C53.7578 33.0202 53.8622 31.6632 53.9666 30.4106C53.9666 29.158 53.3403 28.636 52.1921 28.4273C50.9395 28.1141 50 28.7404 49.2693 29.8887C48.4342 31.1413 46.7641 33.1246 44.9896 35.3166C43.215 37.5087 40.501 40.1183 39.4572 40.0139C38.4134 39.9095 37.9958 39.1788 37.5783 37.9262C37.1608 36.6736 37.7871 31.9763 37.9958 30.2018C38.2046 28.4273 39.3528 20.7029 40.1879 16.7363C41.023 12.6653 41.3361 12.039 42.1712 9.11621C42.9019 6.19346 43.215 6.71538 42.9019 5.254C42.6931 3.79262 41.9624 3.89701 41.1273 3.68824C40.3967 3.47947 39.9791 3.47947 39.2484 3.79262C38.5177 4.10578 37.8914 4.41893 37.4739 6.29784C36.952 8.17676 35.9081 11.4127 32.9854 17.6757C30.0626 23.9388 26.618 29.4711 22.9645 35.0035C19.833 39.8051 18.2672 40.2227 17.2234 40.0139C16.2839 39.8051 16.2839 38.5525 16.1795 37.5087C16.1795 36.3605 16.4927 34.8991 17.0146 32.9158C17.5365 31.0369 18.9979 27.1747 20.3549 24.0431C21.7119 20.9116 24.4259 15.2749 26.618 10.3688C29.0188 4.94085 29.4363 2.6444 29.7495 1.80932C30.0626 0.869868 29.1232 0.452331 28.2881 0.139179C27.5574 -0.173974 26.2004 0.139179 26.2004 0.139179C25.3653 0.452331 24.739 0.556715 24.0084 1.39179C23.2777 2.12248 21.2944 3.58386 20.3549 3.79262C19.6242 4.00139 19.6242 4.31454 20.0418 5.04523C20.0418 5.04523 20.2505 5.77592 21.0856 5.67154C21.9207 5.56715 21.7119 5.46277 22.6514 5.35839C23.4864 4.83646 23.5908 5.88031 22.9645 7.55045C22.3382 9.2206 19.9374 15.2749 18.3716 19.5546C16.7015 23.8344 12.5261 33.5421 12.1086 38.135C11.7954 41.7884 11.4823 44.1893 13.7787 46.277C16.8058 48.991 23.4864 43.4586 25.8873 38.9701C27.453 35.9429 33.1942 25.1914 34.238 22.8949C35.2818 20.5985 37.2651 16.5275 36.952 17.4669C36.6388 18.5108 34.6555 26.6528 33.8205 33.9596C32.9854 41.2665 35.4906 41.8928 37.1607 42.7279C38.9353 43.563 41.1273 42.1016 42.38 41.2665C43.5282 40.4315 48.0167 34.6903 48.3299 33.8553C48.7474 33.1246 49.6868 33.1246 49.6868 33.5421C49.6868 33.9596 49.6868 37.2999 50.3132 38.8657C50.9395 40.3271 51.4614 41.0578 53.2359 41.7884C55.0104 42.4148 55.9499 41.3709 58.0376 38.5525C60.1253 35.6298 61.1691 32.9158 61.691 32.3939C62.3173 31.5588 62.3173 32.8114 62.4217 33.9596C62.5261 35.2122 62.6305 37.4043 64.1962 39.2832C65.762 41.1621 66.8058 42.1016 70.0418 41.6841C73.1733 41.2665 76.3048 36.9868 76.3048 36.9868C76.3048 36.9868 76.618 39.9095 78.6013 41.7884C80.6889 43.7717 81.7328 43.6674 84.7599 43.3542C87.8914 42.9367 93.0063 36.2561 93.0063 36.2561C93.0063 36.2561 95.3027 39.3876 98.1211 40.9534C101.67 42.9367 108.455 44.2937 114.301 44.2937C120.146 44.398 129.645 42.6235 137.056 40.849C143.633 39.1788 151.461 38.3438 154.384 38.2394C157.307 38.135 161.169 38.8657 161.482 38.5525C161.795 38.2394 162.944 37.6131 162.109 37.4043ZM98.8518 14.8573C101.775 9.74252 104.489 7.34168 105.324 7.65484C106.159 7.96799 106.159 8.28114 105.532 10.0557C104.906 11.9346 103.653 16.3187 100.313 20.9116C97.0772 25.7133 94.4676 28.8448 94.4676 28.8448C94.4676 28.8448 94.9896 21.3292 98.8518 14.8573Z" fill="var(--bs-dark)"/>
<path fill-rule="evenodd" clip-rule="evenodd" d="M77.975 21.538C77.975 21.4336 77.8706 21.3292 78.1837 21.3292C78.4969 21.3292 78.81 21.538 78.9144 21.538H79.1232C79.1232 21.538 79.3319 20.5985 79.4363 20.4942C79.5407 20.3898 79.7495 20.3898 79.8539 20.181C79.9583 19.9722 80.0626 19.7635 80.4802 19.5547C80.7933 19.4503 80.7933 19.4503 81.1065 19.4503C81.4196 19.4503 81.8372 19.4503 82.1503 19.5547C82.3591 19.6591 82.4635 19.6591 82.6722 19.8679C82.881 20.0766 83.0898 20.181 82.9854 20.3898C82.9854 20.5985 82.9854 20.7029 82.9854 20.9117C82.9854 21.1205 82.881 21.2248 82.9854 21.3292C83.0898 21.538 83.0898 21.6424 83.0898 21.7468C83.0898 21.9555 83.1942 22.2687 82.9854 22.2687C82.7766 22.3731 82.2547 22.6862 81.9416 22.6862C81.7328 22.7906 80.7933 22.9994 80.5846 22.9994C80.3758 22.9994 79.6451 22.9994 79.4363 22.9994C79.2276 22.9994 78.7056 22.895 78.6013 22.6862C78.4969 22.4775 78.3925 22.3731 78.3925 22.1643C78.0793 22.1643 77.975 21.538 77.975 21.538Z" fill="var(--bs-dark)"/>
<path d="M0 56.6111H1.9833V62.2478C1.9833 63.918 2.50522 65.0662 4.07098 65.0662C5.53236 65.0662 6.15866 64.0224 6.15866 62.2478V56.6111H8.14196V62.8741C8.14196 65.4837 6.68058 66.632 4.17536 66.632C1.67015 66.632 0.208768 65.5881 0.208768 62.8741V56.6111" fill="var(--bs-dark)"/>
<path d="M10.9603 56.6111H13.3612L17.119 63.918V56.6111H18.9979V66.4232H16.5971L12.8392 59.1163V66.4232H10.9603V56.6111Z" fill="var(--bs-dark)"/>
<path d="M21.8163 56.6111H23.7996V66.4232H21.8163V56.6111Z" fill="var(--bs-dark)"/>
<path d="M26.6179 56.6111H28.6012V64.8574H32.4634V66.4232H26.7223V56.6111" fill="var(--bs-dark)"/>
<path d="M40.0835 55.8804V69.9722H39.144V55.8804H40.0835Z" fill="var(--bs-dark)"/>
<path d="M54.9061 62.9785C54.9061 65.9013 52.8184 66.632 51.357 66.632C49.8957 66.632 47.808 65.9013 47.808 62.9785V56.6111H48.7474V62.9785C48.7474 64.5443 49.6869 65.6925 51.357 65.6925C53.0272 65.6925 53.9666 64.5443 53.9666 62.9785V56.6111H54.9061V62.9785Z" fill="var(--bs-dark)"/>
<path d="M57.8288 60.9951C57.8288 60.4732 57.8287 59.8469 57.7244 59.325H58.5594V60.5776C58.8726 59.9513 59.3945 59.1162 60.8559 59.1162C62.6304 59.1162 63.2567 60.2644 63.2567 61.8302V66.4231H62.6304V62.039C62.6304 60.682 62.1085 59.8469 60.9603 59.8469C59.2901 59.8469 58.8726 61.3083 58.8726 62.4565V66.4231H57.9331V60.9951" fill="var(--bs-dark)"/>
<path d="M67.3278 57.3417H66.3883V56.1935H67.3278V57.3417ZM66.4927 59.2206H67.4321V66.4231H66.4927V59.2206Z" fill="var(--bs-dark)"/>
<path d="M72.8601 66.4232H71.8162L69.4154 59.2207H70.3549L72.3382 65.3794L74.4258 59.2207H75.3653L72.8601 66.4232Z" fill="var(--bs-dark)"/>
<path d="M82.2547 66.2143C81.6284 66.4231 80.7934 66.6319 80.1671 66.6319C77.7662 66.6319 76.9312 65.0661 76.9312 62.874C76.9312 60.682 78.1838 59.1162 79.9583 59.1162C81.9416 59.1162 82.7767 60.7864 82.7767 62.6653V63.0828H77.8706C77.8706 64.6486 78.7057 65.7968 80.2714 65.7968C80.8978 65.7968 81.8372 65.4836 82.2547 65.2749V66.2143ZM81.8372 62.3521C81.8372 61.0995 81.3153 59.8469 79.9583 59.8469C78.6013 59.8469 77.8706 61.2039 77.8706 62.3521H81.8372Z" fill="var(--bs-dark)"/>
<path d="M85.1775 60.8907C85.1775 60.0557 85.1775 59.8469 85.0731 59.325H86.0126V60.682C86.3257 59.8469 86.952 59.1162 87.8915 59.1162C88.1003 59.1162 88.309 59.1162 88.5178 59.2206V60.1601C88.309 60.0557 88.1003 60.0557 87.8915 60.0557C86.5345 60.0557 86.117 61.6214 86.117 62.9784V66.4231H85.1775V60.8907Z" fill="var(--bs-dark)"/>
<path d="M90.0835 65.3793C90.6054 65.6924 91.2317 65.7968 91.9624 65.7968C92.7975 65.7968 93.5282 65.3793 93.5282 64.5442C93.5282 62.8741 90.0835 63.0828 90.0835 60.9951C90.0835 59.5338 91.2317 59.0118 92.3799 59.0118C92.7975 59.0118 93.5282 59.1162 94.1545 59.325V60.1601C93.7369 59.9513 93.0062 59.8469 92.5887 59.8469C91.6493 59.8469 91.0229 60.1601 91.0229 60.9951C91.0229 62.3521 94.572 62.1434 94.572 64.5442C94.572 66.11 93.1106 66.6319 92.0668 66.6319C91.3361 66.6319 90.7098 66.5275 90.0835 66.3187V65.3793Z" fill="var(--bs-dark)"/>
<path d="M97.808 57.3417H96.8685V56.1935H97.808V57.3417ZM96.9729 59.2206H97.9124V66.4231H96.9729V59.2206Z" fill="var(--bs-dark)"/>
<path d="M103.967 60.0557H102.296V64.753C102.296 65.3793 102.505 65.9012 103.236 65.9012C103.549 65.9012 103.758 65.7968 104.071 65.6924L104.175 66.4231C103.967 66.5275 103.549 66.6319 103.132 66.6319C101.566 66.6319 101.461 65.588 101.461 64.231V60.0557H100.104V59.325H101.461V57.5505L102.401 57.2373V59.325H104.071V60.0557" fill="var(--bs-dark)"/>
<path d="M111.065 66.2144C110.438 66.4232 109.603 66.632 108.977 66.632C106.576 66.632 105.741 65.0662 105.741 62.8741C105.741 60.6821 106.994 59.1163 108.768 59.1163C110.752 59.1163 111.587 60.7865 111.587 62.6654V63.0829H106.681C106.681 64.6487 107.516 65.7969 109.081 65.7969C109.708 65.7969 110.647 65.4838 111.065 65.275V66.2144ZM110.647 62.3522C110.647 61.0996 110.125 59.847 108.768 59.847C107.411 59.847 106.681 61.204 106.681 62.3522H110.647ZM109.186 56.5067H110.334L108.559 58.49H107.933L109.186 56.5067Z" fill="var(--bs-dark)"/>
<path d="M124.53 66.4232H123.591V65.2749C123.069 66.2144 122.338 66.6319 121.399 66.6319C119.415 66.6319 118.476 64.9618 118.476 62.8741C118.476 60.682 119.311 59.1163 121.399 59.1163C122.86 59.1163 123.486 60.1601 123.591 60.4733V55.8804H124.53V66.4232ZM121.503 65.7969C123.069 65.7969 123.591 64.1267 123.591 62.7697C123.591 61.4127 123.069 59.7426 121.503 59.7426C119.833 59.7426 119.415 61.3083 119.415 62.7697C119.311 64.2311 119.833 65.7969 121.503 65.7969Z" fill="var(--bs-dark)"/>
<path d="M132.255 66.2143C131.628 66.4231 130.793 66.6319 130.167 66.6319C127.766 66.6319 126.931 65.0661 126.931 62.874C126.931 60.682 128.184 59.1162 129.958 59.1162C131.942 59.1162 132.777 60.7864 132.777 62.6653V63.0828H127.871C127.871 64.6486 128.706 65.7968 130.271 65.7968C130.898 65.7968 131.837 65.4836 132.255 65.2749V66.2143ZM131.733 62.3521C131.733 61.0995 131.211 59.8469 129.854 59.8469C128.497 59.8469 127.766 61.2039 127.766 62.3521H131.733Z" fill="var(--bs-dark)"/>
<path d="M139.875 56.6111H140.814V65.5881H144.781V66.4232H139.875V56.6111Z" fill="var(--bs-dark)"/>
<path d="M151.044 65.2749C150.626 66.1099 149.582 66.6319 148.747 66.6319C146.66 66.6319 146.347 65.2749 146.347 64.6486C146.347 62.2477 148.956 62.1434 150.731 62.1434H150.939V61.7258C150.939 60.4732 150.522 59.8469 149.269 59.8469C148.539 59.8469 147.808 60.0557 147.182 60.4732V59.6381C147.704 59.325 148.643 59.1162 149.269 59.1162C151.044 59.1162 151.775 59.9513 151.775 61.8302V64.9617C151.775 65.588 151.775 66.0056 151.879 66.4231H151.044V65.2749ZM150.939 62.7697H150.731C149.165 62.7697 147.39 62.874 147.39 64.5442C147.39 65.4836 148.017 65.7968 148.852 65.7968C150.939 65.7968 150.939 64.0223 150.939 63.1872V62.7697Z" fill="var(--bs-dark)"/>
<path d="M160.334 64.753C160.334 65.275 160.334 65.9013 160.438 66.4232H159.603V65.1706C159.29 65.7969 158.768 66.632 157.307 66.632C155.532 66.632 154.802 65.4837 154.802 63.918V59.3251H155.637V63.7092C155.637 65.0662 156.159 65.9013 157.307 65.9013C158.873 65.9013 159.395 64.4399 159.395 63.2917V59.3251H160.23V64.753" fill="var(--bs-dark)"/>
<path d="M162.839 65.3793C163.361 65.6924 163.987 65.7968 164.718 65.7968C165.553 65.7968 166.284 65.3793 166.284 64.5442C166.284 62.8741 162.839 63.0828 162.839 60.9951C162.839 59.5338 163.987 59.0118 165.136 59.0118C165.553 59.0118 166.284 59.1162 166.91 59.325L166.806 60.0557C166.388 59.8469 165.658 59.7425 165.24 59.7425C164.301 59.7425 163.674 60.0557 163.674 60.8908C163.674 62.2477 167.223 62.039 167.223 64.4398C167.223 66.0056 165.762 66.5275 164.718 66.5275C163.987 66.5275 163.361 66.4231 162.735 66.2143L162.839 65.3793Z" fill="var(--bs-dark)"/>
<path d="M173.695 65.2749C173.278 66.1099 172.234 66.6319 171.399 66.6319C169.311 66.6319 168.998 65.2749 168.998 64.6486C168.998 62.2477 171.608 62.1434 173.382 62.1434H173.591V61.7258C173.591 60.4732 173.173 59.8469 171.921 59.8469C171.19 59.8469 170.459 60.0557 169.833 60.4732V59.6381C170.355 59.325 171.294 59.1162 171.921 59.1162C173.695 59.1162 174.426 59.9513 174.426 61.8302V64.9617C174.426 65.588 174.426 66.0056 174.53 66.4231H173.695V65.2749ZM173.695 62.7697H173.486C171.921 62.7697 170.146 62.874 170.146 64.5442C170.146 65.4836 170.877 65.7968 171.608 65.7968C173.695 65.7968 173.695 64.0223 173.695 63.1872V62.7697Z" fill="var(--bs-dark)"/>
<path d="M177.453 60.9951C177.453 60.4732 177.453 59.8469 177.349 59.325H178.184V60.5776C178.497 59.9513 179.019 59.1162 180.48 59.1162C182.255 59.1162 182.881 60.2644 182.881 61.8302V66.4231H182.046V62.039C182.046 60.682 181.524 59.8469 180.376 59.8469C178.81 59.8469 178.288 61.3083 178.288 62.4565V66.4231H177.453V60.9951Z" fill="var(--bs-dark)"/>
<path d="M186.012 60.9951C186.012 60.4732 186.012 59.8469 185.908 59.325H186.743V60.5776C187.056 59.9513 187.578 59.1162 189.04 59.1162C190.814 59.1162 191.44 60.2644 191.44 61.8302V66.4231H190.501V62.039C190.501 60.682 189.979 59.8469 188.831 59.8469C187.161 59.8469 186.743 61.3083 186.743 62.4565V66.4231H185.804V60.9951" fill="var(--bs-dark)"/>
<path d="M199.478 66.2143C198.852 66.4231 198.017 66.6319 197.39 66.6319C194.99 66.6319 194.155 65.0661 194.155 62.874C194.155 60.682 195.407 59.1162 197.182 59.1162C199.165 59.1162 200 60.7864 200 62.6653V63.0828H195.094C195.094 64.6486 195.929 65.7968 197.495 65.7968C198.121 65.7968 199.061 65.4836 199.478 65.2749V66.2143ZM199.061 62.3521C199.061 61.0995 198.539 59.8469 197.182 59.8469C195.825 59.8469 195.094 61.2039 195.094 62.3521H199.061Z" fill="var(--bs-dark)"/>
</g>
<defs>
<clipPath id="clip0_36_1056">
<rect width="200" height="69.9722" fill="white"/>
</clipPath>
</defs>
</svg>
