<svg width="200" height="66" viewBox="0 0 200 66" fill="none" xmlns="http://www.w3.org/2000/svg">
<g clip-path="url(#clip0_36_1057)">
<path d="M170.382 45.3624H167.264V65.1598H170.382V45.3624ZM155.729 56.8979C155.729 56.5861 155.885 56.1185 155.885 55.8067C156.041 55.339 156.82 53.4684 158.847 53.4684C159.158 53.4684 159.782 53.4684 160.405 53.9361C161.497 54.7155 161.808 55.8067 161.808 57.0538L155.729 56.8979ZM164.926 58.6126C164.926 58.145 164.926 56.2743 164.147 54.7155C162.744 51.9096 159.782 51.5978 158.847 51.5978C158.067 51.5978 155.573 51.7537 154.014 53.7802C152.455 55.6508 152.299 57.9891 152.299 58.6126C152.299 61.7303 154.014 63.445 154.949 64.2245C155.729 64.6921 157.132 65.4715 159.314 65.4715C161.029 65.4715 162.276 65.0039 162.899 64.848C163.523 64.5362 164.147 64.2245 164.302 64.2245V61.5744C163.679 62.198 163.523 62.3538 163.211 62.6656C161.964 63.6009 160.717 63.7568 160.094 63.7568C159.002 63.7568 157.755 63.445 156.976 62.6656C156.041 61.7303 155.729 60.3273 155.573 60.0156C155.573 59.5479 155.573 59.2361 155.417 58.7685C155.573 58.6126 164.926 58.6126 164.926 58.6126ZM142.323 61.8862V64.848C142.946 65.1598 144.037 65.6274 145.752 65.6274C147.779 65.6274 148.714 65.0039 149.493 64.3803C150.741 63.2891 150.896 61.8862 150.896 61.1068C150.896 60.6391 150.74 59.392 149.649 58.4567C148.87 57.8332 147.779 57.5214 146.999 57.2096C146.22 56.8979 145.752 56.742 145.44 56.4302C145.129 56.1185 144.973 55.8067 144.973 55.339C144.973 55.1831 144.973 54.7155 145.285 54.2478C145.908 53.6243 146.999 53.4684 147.155 53.4684C148.09 53.4684 148.87 53.7802 149.493 54.4037C149.649 54.5596 149.961 54.7155 150.117 54.8714V52.2213C149.026 51.9096 148.402 51.7537 147.311 51.7537C146.532 51.7537 145.908 51.9096 145.596 51.9096C144.817 52.0655 144.193 52.3772 143.882 52.5331C142.79 53.3125 142.011 54.5596 142.011 55.9626C142.011 56.2743 142.167 57.5214 142.946 58.3008C143.726 59.0803 145.129 59.5479 145.285 59.7038C146.376 60.0156 147.935 60.4832 147.935 61.8862C147.935 62.0421 147.935 62.5097 147.623 62.8215C147.311 63.1333 146.843 63.7568 145.752 63.7568C144.037 63.7568 142.946 62.8215 142.634 62.3538L142.323 61.8862ZM136.555 62.8215C135.308 63.2891 134.84 63.2891 134.061 63.2891C133.749 63.2891 132.97 63.2892 132.19 62.9774C130.475 62.198 130.164 60.3273 130.164 59.7038C130.008 59.0803 130.008 58.6126 130.008 58.3008C130.008 57.8332 130.008 55.0273 132.034 53.7802C132.814 53.3125 133.593 53.1566 133.905 53.1566C135.62 53.1566 136.243 54.4037 136.555 54.8714C136.711 55.339 136.711 55.9626 136.711 56.2743L136.555 62.8215ZM139.517 51.7537L137.802 52.689C135.62 51.7537 134.84 51.5978 133.437 51.5978C130.943 51.5978 128.449 52.8449 127.358 55.1831C126.734 56.5861 126.578 57.9891 126.578 58.6126C126.578 60.3273 127.202 61.5744 127.514 62.198C127.981 62.9774 128.449 63.445 128.605 63.6009C130.32 65.0039 132.346 65.0039 133.126 65.0039C133.593 65.0039 134.061 65.0039 134.528 65.0039H139.517V51.7537ZM115.666 49.1036C115.978 48.9478 116.758 48.636 117.693 48.636C119.096 48.636 120.655 49.2595 121.278 50.5066C121.434 50.6625 121.59 51.1301 121.59 51.7537C121.59 52.689 120.811 53.4684 120.655 53.6243C120.031 54.4037 119.096 55.0273 119.096 56.1185C119.096 56.4302 119.252 56.742 119.252 57.0538C119.408 57.2096 119.564 57.5214 119.875 57.8332C120.655 58.6126 121.746 59.2361 121.746 60.4832C121.746 61.2626 121.434 61.8862 120.967 62.5097C120.187 63.2891 119.096 63.6009 118.005 63.6009C116.758 63.6009 115.978 63.2891 115.511 63.1333L115.666 49.1036ZM112.549 65.1598H118.161C119.408 65.1598 120.031 65.0039 120.655 64.848C122.993 64.2245 124.084 62.6656 124.552 61.8862C124.864 61.1068 125.02 60.3273 125.02 60.0156C125.02 58.3008 124.24 57.5214 123.772 57.0538C123.617 56.8979 123.305 56.5861 123.149 56.4302L122.214 55.4949C123.305 54.4037 124.396 53.1566 124.396 51.5978C124.396 51.1301 124.24 50.1948 123.461 49.1036C122.058 47.233 120.031 47.233 119.252 47.233C118.94 47.233 118.472 47.233 118.161 47.233H112.705L112.549 65.1598ZM97.1162 51.9096H95.0897V53.9361H97.1162V65.0039H100.234V53.9361H102.572V51.9096H100.234V49.2595C100.234 49.1036 100.078 47.7007 101.169 47.3889C101.481 47.233 101.793 47.233 101.949 47.233C102.26 47.233 102.416 47.3889 102.572 47.3889V45.3624C102.26 45.3624 100.546 45.2065 99.2986 45.8301C97.2721 46.7654 97.2721 49.2595 97.2721 49.7272C97.2721 50.039 97.2721 50.3507 97.2721 50.6625C97.1162 50.6625 97.1162 51.9096 97.1162 51.9096ZM91.0367 58.4567C91.0367 60.0156 90.7249 62.198 89.1661 63.2891C88.8543 63.445 88.3866 63.7568 87.4513 63.7568C86.6719 63.7568 85.8925 63.445 85.4248 62.9774C84.4895 62.198 84.1778 61.1068 84.0219 60.0156C84.0219 59.8597 83.866 59.2361 83.866 58.4567C83.866 55.9626 84.6454 54.5596 85.5807 53.9361C86.3601 53.4684 87.1396 53.3125 87.4513 53.3125C87.7631 53.3125 88.3866 53.3125 89.1661 53.7802C91.1926 55.0273 91.0367 58.145 91.0367 58.4567ZM94.1544 58.4567C94.1544 57.5214 93.9985 56.742 93.8426 56.4302C93.0632 53.1566 90.7249 52.2213 89.4778 51.7537C88.5425 51.4419 87.7631 51.4419 87.4513 51.4419C86.3601 51.4419 82.9307 51.7537 81.3718 55.0273C80.5924 56.4302 80.5924 57.8332 80.5924 58.4567C80.5924 62.5097 83.2424 65.3157 87.2954 65.3157C90.569 65.3157 93.0632 63.6009 93.8426 60.4832C93.9985 60.3273 94.1544 59.392 94.1544 58.4567Z" fill="var(--bs-dark)"/>
<path d="M200 26.0327H197.194L192.985 37.7241L188.932 26.0327H185.503L190.491 39.1271C190.803 39.2829 190.959 39.2829 190.959 39.4388C191.271 39.7506 191.426 40.2182 191.426 40.53C191.426 41.3094 190.803 41.7771 190.647 41.933C189.868 42.4006 188.309 42.0889 188.309 42.0889V44.4271C189.4 44.4271 190.335 44.4271 191.426 44.1154C192.673 43.6477 193.297 42.8683 193.765 41.6212C194.076 40.8418 194.388 40.0624 194.7 39.2829L200 26.0327ZM184.567 26.0327H182.229V21.5121C182.229 21.2003 182.229 20.7327 181.762 20.7327C181.606 20.7327 181.45 20.7327 181.45 20.8885C181.294 21.0444 181.294 21.2003 181.294 21.5121C181.138 22.7592 180.826 23.8504 180.047 24.7857C178.956 26.0327 177.864 26.0327 177.241 26.1886V28.0592H179.267V39.1271H182.385V28.0592H184.723C184.567 28.0592 184.567 26.0327 184.567 26.0327ZM171.629 22.7592C171.629 23.6945 172.408 24.4739 173.344 24.4739C174.279 24.4739 175.214 23.6945 175.214 22.7592C175.214 21.8239 174.435 20.8885 173.5 20.8885C172.408 20.8885 171.629 21.668 171.629 22.7592ZM174.903 26.0327H171.785V39.1271H174.903V26.0327ZM160.405 35.8535V38.8153C161.029 39.1271 162.12 39.5947 163.835 39.5947C165.861 39.5947 166.797 38.9712 167.576 38.3476C168.823 37.2564 168.979 35.8535 168.979 35.0741C168.979 34.6064 168.823 33.3593 167.732 32.424C166.952 31.8005 165.861 31.4887 165.082 31.1769C164.302 30.8652 163.835 30.7093 163.523 30.3975C163.211 30.0857 163.055 29.774 163.055 29.3063C163.055 29.1504 163.055 28.6828 163.367 28.2151C163.991 27.5916 165.082 27.4357 165.238 27.4357C166.173 27.4357 166.952 27.7475 167.576 28.371C167.732 28.5269 168.044 28.6828 168.2 28.8387V26.1886C167.108 25.8769 166.485 25.721 165.394 25.721C164.614 25.721 163.991 25.8769 163.679 25.8769C162.899 26.0327 162.276 26.3445 161.964 26.5004C160.873 27.2798 160.094 28.5269 160.094 29.9299C160.094 30.2416 160.094 31.4887 161.029 32.2681C161.808 33.0476 163.211 33.5152 163.367 33.6711C164.458 33.9829 166.017 34.4505 166.017 35.8535C166.017 36.0094 166.017 36.477 165.705 36.7888C165.394 37.1006 164.926 37.7241 163.835 37.7241C162.276 37.7241 161.029 36.7888 160.717 36.3211L160.405 35.8535ZM150.273 26.0327V39.1271H153.391V27.9034C153.858 27.7475 154.482 27.4357 155.573 27.5916C155.417 27.7475 155.261 27.9034 155.261 28.371C155.261 28.6828 155.417 28.9946 155.417 29.1504C155.729 29.774 156.352 30.0857 156.976 30.0857C158.067 30.0857 158.846 29.3063 158.846 28.2151C158.846 27.5916 158.535 27.1239 158.535 26.9681C157.911 26.0327 156.82 26.0327 155.729 26.0327H150.273ZM138.737 31.0211C138.737 30.7093 138.893 30.2416 138.893 29.9299C139.049 29.4622 139.829 27.5916 141.855 27.5916C142.167 27.5916 142.79 27.5916 143.414 28.0592C144.505 28.8387 144.817 29.9299 144.817 31.1769L138.737 31.0211ZM147.935 32.5799C147.935 32.1122 147.935 30.2416 147.155 28.6828C145.752 25.8769 142.79 25.5651 141.855 25.5651C141.076 25.5651 138.581 25.721 137.023 27.7475C135.464 29.6181 135.308 31.9564 135.308 32.5799C135.308 35.6976 137.023 37.4123 137.958 38.1917C138.737 38.6594 140.14 39.4388 142.323 39.4388C144.037 39.4388 145.285 38.9712 145.908 38.8153C146.532 38.5035 147.155 38.1917 147.311 38.1917V35.5417C146.687 36.1652 146.532 36.3211 146.22 36.6329C144.973 37.5682 143.726 37.7241 143.102 37.7241C142.011 37.7241 140.764 37.4123 139.984 36.6329C139.049 35.6976 138.737 34.2946 138.737 33.9829C138.581 33.5152 138.581 33.2034 138.581 32.7358L147.935 32.5799ZM134.996 26.0327H132.19L128.449 36.477C128.293 37.1006 128.293 37.1006 127.825 37.1006L123.928 25.8769H120.655L125.487 38.9712H127.046C127.981 38.9712 128.761 38.9712 129.54 38.3476C130.631 37.7241 131.099 36.3211 131.567 35.2299L134.996 26.0327ZM114.731 22.7592C114.731 23.6945 115.511 24.4739 116.446 24.4739C117.381 24.4739 118.316 23.6945 118.316 22.7592C118.316 21.8239 117.537 20.8885 116.602 20.8885C115.666 20.8885 114.731 21.668 114.731 22.7592ZM118.161 26.0327H115.043V39.1271H118.161V26.0327ZM99.9221 26.0327V39.1271H103.04V28.2151C103.507 27.9034 104.131 27.5916 105.378 27.5916C107.405 27.5916 108.184 28.5269 108.34 29.3063C108.496 29.774 108.496 30.0857 108.496 31.0211V38.9712H111.458V31.1769C111.302 29.6181 111.302 28.371 110.055 27.4357C108.652 26.1886 106.625 26.0327 102.884 26.0327H99.9221ZM96.8044 21.0444H93.6867V31.3328C93.6867 32.8917 93.6867 33.6711 93.5308 34.4505C93.3749 35.2299 92.9073 35.6976 92.7514 36.0094C92.2837 36.477 91.6602 37.1006 90.4131 37.2564C89.6337 37.4123 89.3219 37.4123 89.0102 37.4123C86.3601 37.4123 85.2689 36.0094 84.8013 34.9182C84.4895 34.1387 84.4895 33.2034 84.4895 31.3328V21.0444H81.3718V30.7093C81.3718 32.8917 81.3718 33.9829 81.6836 34.9182C81.9954 36.0094 82.7748 37.1006 83.7101 37.88C84.4895 38.5035 86.3601 39.5947 89.0102 39.5947C91.5043 39.5947 93.2191 38.8153 93.9985 38.1917C95.8691 36.9447 96.3368 35.2299 96.6485 34.2946C96.8044 33.3593 96.8044 32.5799 96.8044 30.7093V21.0444Z" fill="var(--bs-dark)"/>
<path d="M35.074 55.0273C34.4505 54.4037 33.6711 55.3391 34.1387 55.9626L38.3476 60.1715L39.2829 59.2362C39.2829 59.2362 35.5417 55.6508 35.074 55.0273ZM28.2151 60.1715L27.2798 59.2362L31.4887 55.0273C32.1122 54.4037 32.8917 55.3391 32.424 55.9626C31.9564 56.4302 28.2151 60.1715 28.2151 60.1715ZM10.2884 30.8652C10.9119 31.4887 9.97662 32.2681 9.35308 31.8005L5.14419 27.5916L6.0795 26.6563C5.92362 26.6563 9.66485 30.3975 10.2884 30.8652ZM5.14419 37.5682L6.0795 38.5035L10.2884 34.2946C10.9119 33.6711 9.97662 32.8917 9.35308 33.3593C8.88542 33.827 5.14419 37.5682 5.14419 37.5682ZM31.4887 9.97662C32.1122 10.6002 32.8917 9.66485 32.424 9.04131L28.2151 4.83242L27.2798 5.76773C27.2798 5.92362 31.021 9.50896 31.4887 9.97662ZM38.3476 4.98831L39.2829 5.92362L35.074 10.1325C34.4505 10.756 33.6711 9.82073 34.1387 9.19719C34.6064 8.57366 38.3476 4.98831 38.3476 4.98831ZM56.2744 30.8652C55.6508 31.4887 56.5861 32.2681 57.2097 31.8005L61.4186 27.5916L60.4832 26.6563C60.6391 26.6563 56.8979 30.3975 56.2744 30.8652ZM61.4186 37.5682L60.4832 38.5035L56.4302 34.2946C55.8067 33.6711 56.742 32.8917 57.3655 33.3593C57.6773 33.827 61.4186 37.5682 61.4186 37.5682ZM20.8885 19.6415C21.5121 20.265 20.5768 21.0444 19.9532 20.5768L5.14419 5.92362L6.0795 4.98831C5.92362 4.98831 20.4209 19.1738 20.8885 19.6415ZM60.6391 4.98831L61.5744 5.92362L46.6095 20.5768C45.986 21.2003 45.2065 20.265 45.6742 19.6415C46.1419 19.1738 60.6391 4.98831 60.6391 4.98831ZM20.1091 44.583C20.7327 43.9595 21.5121 44.8948 21.0444 45.5183L6.0795 60.1715L5.14419 59.2362C5.14419 59.2362 19.4856 45.0507 20.1091 44.583ZM61.4186 59.2362L60.4832 60.1715L45.5183 45.5183C44.8948 44.8948 45.8301 44.1154 46.4536 44.583C47.0772 45.0507 61.4186 59.2362 61.4186 59.2362ZM20.8885 41.3094C21.5121 41.933 20.5768 42.7124 19.9532 42.2447C19.9532 42.2447 12.4708 34.9182 11.8472 34.2946C11.2237 33.6711 12.159 32.8917 12.7825 33.3593C12.7825 33.3593 20.4209 40.6859 20.8885 41.3094ZM35.074 11.6913C34.4505 11.0678 33.6711 12.0031 34.1387 12.6267C34.7623 13.2502 42.2447 20.5768 42.2447 20.5768C42.8683 21.2003 43.6477 20.265 43.18 19.6415C42.5565 19.1738 35.074 11.6913 35.074 11.6913ZM43.18 41.3094C43.8036 41.933 42.8683 42.7124 42.2447 42.2447C42.2447 42.2447 34.7623 34.9182 34.1387 34.2946C33.5152 33.6711 34.4505 32.8917 35.074 33.3593C35.074 33.3593 42.5565 40.8418 43.18 41.3094ZM54.5596 34.2946C55.1832 33.6711 54.2479 32.8917 53.6243 33.3593C53.0008 33.9829 45.5183 41.3094 45.5183 41.3094C44.8948 41.933 45.8301 42.7124 46.4536 42.2447C47.0772 41.6212 54.5596 34.2946 54.5596 34.2946ZM24.318 20.4209C23.6945 21.0444 22.915 20.1091 23.3827 19.4856C23.3827 19.4856 30.8652 12.159 31.4887 11.5355C32.1122 10.9119 32.8917 11.8472 32.424 12.4708C32.424 12.6267 24.7857 19.9532 24.318 20.4209ZM32.424 34.2946C33.0475 33.6711 32.1122 32.8917 31.4887 33.3593C30.8652 33.9829 23.3827 41.3094 23.3827 41.3094C22.7592 41.933 23.6945 42.7124 24.318 42.2447C24.7857 41.6212 32.424 34.2946 32.424 34.2946ZM20.8885 23.8504C21.5121 23.2268 20.5768 22.4474 19.9532 22.915C19.9532 22.915 12.4708 30.2416 11.8472 30.8652C11.2237 31.4887 12.159 32.2681 12.7825 31.8005C12.7825 31.6446 20.4209 24.318 20.8885 23.8504ZM35.074 53.4684C34.4505 54.092 33.6711 53.1567 34.1387 52.5331C34.7623 51.9096 42.2447 44.583 42.2447 44.583C42.8683 43.9595 43.6477 44.8948 43.18 45.5183C42.5565 45.986 35.074 53.4684 35.074 53.4684ZM43.18 23.8504C43.8036 23.2268 42.8683 22.4474 42.2447 22.915C42.2447 22.915 34.7623 30.2416 34.1387 30.8652C33.5152 31.4887 34.4505 32.2681 35.074 31.8005C35.074 31.6446 42.5565 24.318 43.18 23.8504ZM54.5596 30.8652C55.1832 31.4887 54.2479 32.2681 53.6243 31.8005C53.0008 31.1769 45.5183 23.8504 45.5183 23.8504C44.8948 23.2268 45.8301 22.4474 46.4536 22.915C47.0772 23.3827 54.5596 30.8652 54.5596 30.8652ZM24.318 44.583C23.6945 43.9595 22.915 44.8948 23.3827 45.5183C23.3827 45.5183 30.8652 52.8449 31.4887 53.4684C32.1122 54.092 32.8917 53.1567 32.424 52.5331C32.424 52.5331 24.7857 45.2065 24.318 44.583ZM32.424 30.8652C33.0475 31.4887 32.1122 32.2681 31.4887 31.8005C31.021 31.1769 23.3827 23.8504 23.3827 23.8504C22.7592 23.2268 23.6945 22.4474 24.318 22.915C24.7857 23.3827 32.424 30.8652 32.424 30.8652ZM0 42.8683V44.1154H19.7973C20.5768 44.1154 20.5768 42.8683 19.7973 42.8683H0ZM66.5627 42.8683V44.1154H46.7654C45.986 44.1154 45.986 42.8683 46.7654 42.8683H66.5627ZM0 21.0444V22.2915H19.7973C20.5768 22.2915 20.5768 21.0444 19.7973 21.0444H0ZM66.5627 21.0444V22.2915H46.7654C45.986 22.2915 45.986 21.0444 46.7654 21.0444H66.5627ZM24.6298 42.8683C23.8504 42.8683 23.8504 44.1154 24.6298 44.1154H42.0889C42.8683 44.1154 42.8683 42.8683 42.0889 42.8683H24.6298ZM41.933 21.0444C42.7124 21.0444 42.7124 22.2915 41.933 22.2915H24.6298C23.8504 22.2915 23.8504 21.0444 24.6298 21.0444H41.933ZM43.8036 65.1598H45.0507V45.8301C45.0507 45.0507 43.8036 45.0507 43.8036 45.8301V65.1598ZM43.8036 0H45.0507V19.3297C45.0507 20.1091 43.8036 20.1091 43.8036 19.3297V0ZM43.8036 40.9977C43.8036 41.7771 45.0507 41.7771 45.0507 40.9977V24.0062C45.0507 23.2268 43.8036 23.2268 43.8036 24.0062V40.9977ZM21.5121 45.8301C21.5121 45.0507 22.7592 45.0507 22.7592 45.8301V65.1598H21.5121V45.8301ZM21.5121 19.3297C21.5121 20.1091 22.7592 20.1091 22.7592 19.3297V0H21.5121V19.3297ZM21.5121 24.0062C21.5121 23.2268 22.7592 23.2268 22.7592 24.0062V40.9977C22.7592 41.7771 21.5121 41.7771 21.5121 40.9977V24.0062Z" fill="var(--bs-dark)"/>
</g>
<defs>
<clipPath id="clip0_36_1057">
<rect width="200" height="65.6274" fill="white"/>
</clipPath>
</defs>
</svg>
