<svg width="var(--footer-logo-size)" height="63" viewBox="0 0 201 63" fill="none" xmlns="http://www.w3.org/2000/svg">
<g clip-path="url(#clip0_36_1055)">
<path d="M71.475 52.2417V49.9025L77.193 40.6758C77.5828 40.156 77.8427 39.6361 78.2326 39.1163C77.7128 39.1163 76.9331 39.1163 75.3736 39.1163H71.7349V36.3873H81.8713V38.8564L75.8934 48.3431C75.6335 48.733 75.5036 49.1228 75.1137 49.3827C75.5036 49.3827 76.5432 49.3827 78.4925 49.3827H81.8713V52.2417H71.475ZM91.6179 52.2417C91.6179 51.7219 91.6179 50.8122 91.7479 50.1625C91.0981 51.592 89.6686 52.5016 87.8492 52.5016C85.2502 52.5016 84.3405 50.8122 84.3405 48.733V40.5458H87.3294V48.0832C87.3294 49.2528 87.7193 50.0325 88.7589 50.0325C90.3184 50.0325 91.488 48.3431 91.488 46.2638V40.6758H94.4769V52.3717H91.6179V52.2417ZM103.834 43.2749C101.624 42.885 100.585 44.1845 100.585 47.4334V52.2417H97.5958V40.5458H100.455C100.455 41.1956 100.325 42.1053 100.195 42.885C100.715 41.4555 101.884 40.156 103.834 40.2859V43.2749ZM107.732 39.1163C106.693 39.1163 105.913 38.3366 105.913 37.297C105.913 36.2573 106.693 35.4776 107.732 35.4776C108.772 35.4776 109.552 36.2573 109.552 37.297C109.552 38.3366 108.642 39.1163 107.732 39.1163ZM106.173 52.2417V40.5458H109.162V52.2417H106.173ZM116.569 52.5016C113.32 52.5016 111.371 50.8122 111.371 46.9136C111.371 43.2749 113.32 40.5458 117.349 40.5458C118.129 40.5458 119.038 40.6758 119.688 40.9357L119.428 43.5348C118.778 43.2749 118.129 43.1449 117.349 43.1449C115.4 43.1449 114.49 44.5744 114.49 46.7836C114.49 48.733 115.27 50.1625 117.219 50.1625C117.999 50.1625 118.908 50.0325 119.558 49.6426L119.818 52.2417C119.038 52.2417 117.869 52.5016 116.569 52.5016ZM129.305 52.2417V44.8343C129.305 43.6647 128.915 42.885 127.875 42.885C126.316 42.885 125.146 44.5744 125.146 46.6537V52.2417H122.157V35.0877H125.146V40.026C125.146 40.6758 125.146 41.7154 124.886 42.3652C125.536 41.0656 126.836 40.156 128.655 40.156C131.254 40.156 132.164 41.8454 132.164 43.9246V52.1118C132.294 52.2417 129.305 52.2417 129.305 52.2417ZM136.842 41.1956C134.893 41.1956 134.503 40.156 134.503 38.9864V35.0877H135.932V38.8564C135.932 39.5062 136.192 40.026 136.972 40.026C137.752 40.026 138.012 39.6361 138.012 38.8564V35.0877H139.311V38.7265C139.441 40.4159 138.532 41.1956 136.842 41.1956ZM140.611 41.0656V40.026L142.56 36.7771C142.69 36.6472 142.82 36.5172 142.82 36.2573C142.69 36.2573 142.43 36.2573 141.91 36.2573H140.611V34.9578H144.509V36.1274L142.43 39.3762C142.3 39.5062 142.3 39.6361 142.17 39.7661C142.3 39.7661 142.56 39.7661 143.34 39.7661H144.509V41.0656H140.611ZM149.318 41.0656V38.5965H147.108V41.0656H145.679V35.0877H147.108V37.4269H149.318V35.0877H150.747V41.0656H149.318ZM78.1027 27.8103C73.1644 27.8103 71.9948 25.0812 71.9948 22.0923V11.6959H74.9837V21.8324C74.9837 23.7817 75.6335 25.2112 78.2326 25.2112C80.5718 25.2112 81.6114 24.1716 81.6114 21.5725V11.6959H84.6004V21.3126C84.7303 25.731 82.2612 27.8103 78.1027 27.8103ZM95.1267 27.5504V20.143C95.1267 18.9734 94.7368 18.1936 93.6972 18.1936C92.1377 18.1936 90.9682 19.8831 90.9682 21.9623V27.5504H87.9792V15.8545H90.8382C90.8382 16.3743 90.8382 17.284 90.7082 17.9337C91.358 16.5042 92.7875 15.5946 94.6069 15.5946C97.206 15.5946 98.1157 17.284 98.1157 19.3632V27.5504H95.1267ZM102.794 14.425C101.754 14.425 100.975 13.6452 100.975 12.6056C100.975 11.566 101.754 10.7862 102.794 10.7862C103.834 10.7862 104.613 11.566 104.613 12.6056C104.613 13.5153 103.834 14.425 102.794 14.425ZM101.235 27.5504V15.8545H104.224V27.5504H101.235ZM113.32 27.5504H110.331L106.043 15.8545H109.292L111.111 21.0526C111.371 21.8324 111.631 22.7421 111.891 23.6517C112.021 22.872 112.281 21.9623 112.541 21.1826L114.36 15.8545H117.609L113.32 27.5504ZM128.395 22.2222H121.118C121.118 24.4315 122.157 25.4711 124.366 25.4711C125.536 25.4711 126.706 25.2112 127.745 24.6914L128.005 27.0306C126.706 27.5504 125.276 27.8103 123.847 27.8103C120.208 27.8103 118.129 25.9909 118.129 21.8324C118.129 18.3236 120.078 15.5946 123.587 15.5946C126.966 15.5946 128.525 17.9337 128.525 20.7927C128.525 21.1826 128.525 21.7024 128.395 22.2222ZM123.457 17.8038C122.157 17.8038 121.378 18.7135 121.248 20.143H125.536C125.536 18.7135 124.756 17.8038 123.457 17.8038ZM137.232 18.5835C135.023 18.1936 133.983 19.4932 133.983 22.7421V27.5504H130.994V15.8545H133.853C133.853 16.5042 133.723 17.4139 133.593 18.1936C134.113 16.7641 135.283 15.4646 137.232 15.5946V18.5835ZM141.261 27.6803C140.351 27.6803 139.571 27.5504 138.791 27.4204L138.921 24.9513C139.701 25.0812 140.481 25.3411 141.391 25.3411C142.56 25.3411 143.34 24.8213 143.34 24.0416C143.34 21.9623 138.661 23.1319 138.661 19.2333C138.661 17.154 140.351 15.4646 143.6 15.4646C144.25 15.4646 145.029 15.5946 145.679 15.7245L145.549 18.0637C144.899 17.9337 144.12 17.8038 143.34 17.8038C142.17 17.8038 141.65 18.3236 141.65 18.9734C141.65 20.9227 146.459 20.013 146.459 23.7817C146.459 26.1209 144.509 27.6803 141.261 27.6803ZM150.617 14.425C149.578 14.425 148.798 13.6452 148.798 12.6056C148.798 11.566 149.578 10.7862 150.617 10.7862C151.657 10.7862 152.437 11.566 152.437 12.6056C152.437 13.5153 151.657 14.425 150.617 14.425ZM149.058 27.5504V15.8545H152.047V27.5504H149.058ZM159.584 27.6803C156.985 27.6803 156.205 26.7706 156.205 24.0416V18.1936H154.256V15.8545H156.205V12.2157L159.194 11.436V15.8545H162.053V18.1936H159.194V23.2619C159.194 24.8213 159.584 25.2112 160.624 25.2112C161.144 25.2112 161.663 25.0812 162.053 25.0812V27.5504C161.274 27.5504 160.494 27.6803 159.584 27.6803ZM169.981 28.59C168.551 32.2287 167.381 33.2684 164.652 33.2684C164.133 33.2684 163.483 33.1384 162.963 33.1384L163.093 30.5393C163.613 30.6693 164.133 30.7992 164.652 30.7992C165.692 30.7992 166.342 30.4094 166.862 28.59L167.251 27.4204L162.963 15.7245H166.342L167.901 20.143C168.291 21.1826 168.551 22.3522 168.811 23.3918C169.071 22.3522 169.591 20.7927 169.981 19.7531L171.41 15.8545H174.659L169.981 28.59ZM184.405 27.6803C181.157 27.6803 178.947 25.9909 178.947 21.8324C178.947 18.1936 181.417 15.5946 184.925 15.5946C188.174 15.5946 190.383 17.4139 190.383 21.4425C190.383 25.0812 187.914 27.6803 184.405 27.6803ZM184.795 18.1936C183.496 18.1936 182.196 19.2333 182.196 21.5725C182.196 23.9116 183.106 25.2112 184.795 25.2112C186.225 25.2112 187.394 24.0416 187.394 21.7024C187.264 19.3632 186.485 18.1936 184.795 18.1936ZM199.87 12.8655C199.35 12.7356 198.83 12.6056 198.441 12.6056C197.141 12.6056 196.491 13.2554 196.491 14.8148V15.8545H199.22V18.1936H196.491V27.5504H193.502V18.1936H191.423V15.8545H193.502V14.9448C193.502 11.8259 194.932 10.2664 198.181 10.2664C198.83 10.2664 199.48 10.2664 200.13 10.3964L199.87 12.8655Z" fill="var(--bs-dark)"/>
<path d="M8.83691 42.4951C8.18713 42.755 8.05718 42.885 7.92723 42.885C7.79727 43.0149 7.66732 43.0149 7.79727 43.2749V43.4048V43.5348C7.79727 43.5348 7.79727 43.5348 7.66732 43.4048C7.53736 43.1449 7.40741 42.885 7.40741 42.755C7.40741 42.6251 7.27745 42.3652 7.1475 42.2352C7.1475 42.1053 7.1475 42.1053 7.1475 42.1053C7.1475 42.1053 7.1475 42.1053 7.27745 42.1053C7.27745 42.1053 7.27745 42.2352 7.40741 42.2352C7.53736 42.3652 7.53736 42.3652 7.66732 42.2352C7.79727 42.2352 7.92723 42.1053 8.577 41.8454L9.22677 41.5854C9.87654 41.3255 10.1365 41.0656 10.1365 40.8057C10.2664 40.5458 10.1365 40.2859 10.1365 40.1559C10.0065 39.896 9.87654 39.7661 9.61663 39.6361C9.22677 39.5062 8.83691 39.6361 8.44704 39.896L7.79727 40.1559C7.1475 40.4159 7.01754 40.5458 6.88759 40.5458C6.75764 40.6758 6.62768 40.6758 6.75763 40.8057V40.9357V41.0656C6.75763 41.0656 6.75763 41.0656 6.62768 40.9357C6.62768 40.8057 6.49773 40.5458 6.49773 40.5458C6.49773 40.5458 6.36777 40.1559 6.23782 40.026V39.896C6.23782 39.896 6.23782 39.896 6.36777 39.896C6.36777 39.896 6.36777 40.026 6.49773 40.026C6.49773 40.2859 6.62768 40.2859 6.75763 40.1559C6.88759 40.1559 7.01754 40.026 7.66732 39.7661L8.18713 39.5062C8.70695 39.2463 9.22677 39.1163 9.74659 39.3762C10.1365 39.6361 10.3964 39.896 10.5263 40.1559C10.6563 40.4159 10.7862 40.8057 10.6563 41.3255C10.5263 41.5854 10.2664 41.9753 9.61663 42.2352L8.83691 42.4951ZM8.70695 37.5569C9.09682 37.4269 9.09682 37.4269 9.22677 37.2969C9.22677 37.167 9.22677 37.167 9.22677 37.037V36.9071C9.22677 36.9071 9.22677 36.9071 9.35672 37.037C9.48668 37.2969 9.48668 37.5569 9.48668 37.6868C9.48668 37.6868 9.61663 37.9467 9.61663 38.2066V38.3366C9.61663 38.3366 9.61663 38.3366 9.61663 38.2066C9.61663 38.2066 9.61663 38.0767 9.48668 37.9467C9.35673 37.8168 9.22677 37.8168 8.83691 37.9467L5.97791 38.4665C5.84795 38.4665 5.84795 38.4665 5.84795 38.4665C5.84795 38.4665 5.84795 38.3366 5.97791 38.2066C5.97791 38.0767 6.62768 37.2969 7.1475 36.3873C7.40741 35.9974 7.92723 35.2177 8.05718 35.0877L5.97791 35.6075C5.718 35.7375 5.58804 35.7375 5.58804 35.8674C5.58804 35.9974 5.58804 35.9974 5.58804 36.1274V36.2573C5.58804 36.2573 5.58804 36.2573 5.45809 36.1274C5.19818 35.9974 5.19818 35.7375 5.19818 35.6075C5.19818 35.6075 5.19818 35.3476 5.06823 35.0877V34.9578C5.06823 34.9578 5.06823 34.9578 5.06823 35.0877V35.2177C5.19818 35.3476 5.19818 35.3476 5.45809 35.3476L8.44704 34.6979C8.577 34.6979 8.577 34.6979 8.577 34.6979C8.577 34.6979 8.577 34.8278 8.44704 34.8278C8.18713 35.2177 7.79727 35.9974 7.40741 36.5172C7.01754 37.167 6.49773 37.8168 6.49773 37.9467L8.70695 37.5569ZM6.36777 33.2684C5.58804 33.2684 5.45809 33.2684 5.32814 33.3983C5.19818 33.3983 5.06823 33.5283 5.06823 33.5283V33.6582V33.7882C5.06823 33.7882 5.06823 33.7882 5.06823 33.6582C5.06823 33.5283 5.06823 33.1384 5.06823 33.0084C5.06823 32.8785 5.06823 32.6186 5.06823 32.3587V32.2287C5.06823 32.2287 5.06823 32.2287 5.06823 32.3587V32.4886C5.06823 32.6186 5.19818 32.6186 5.32814 32.6186C5.45809 32.6186 5.58804 32.6186 6.36777 32.6186H7.27745C7.79727 32.6186 8.18713 32.6186 8.31709 32.4886C8.44704 32.4886 8.577 32.4886 8.577 32.2287C8.577 32.0988 8.577 32.0988 8.577 31.9688V31.8389C8.577 31.8389 8.577 31.8389 8.577 31.9688C8.577 32.2287 8.577 32.6186 8.577 32.7485C8.577 32.8785 8.577 33.1384 8.577 33.3983V33.5283C8.577 33.5283 8.577 33.5283 8.577 33.3983C8.577 33.2684 8.577 33.2684 8.577 33.2684C8.577 33.1384 8.44704 33.1384 8.31709 33.1384C8.05718 33.1384 7.66732 33.1384 7.27745 33.1384L6.36777 33.2684ZM5.32814 31.0591C5.06823 31.1891 4.93827 31.1891 4.93827 31.319C4.93827 31.0591 4.93827 30.7992 4.93827 30.6693C4.93827 30.5393 4.93827 30.2794 4.93827 30.0195V29.8895C4.93827 29.8895 4.93827 29.8895 4.93827 30.0195C4.93827 30.1494 4.93827 30.1494 4.93827 30.1494C4.93827 30.1494 4.93827 30.1494 5.06823 30.1494C5.06823 30.1494 5.32814 30.1494 5.45809 30.0195L7.66732 29.3697C7.1475 29.1098 5.58804 28.46 5.32814 28.2001H5.19818H5.06823V28.3301V28.46C5.06823 28.46 5.06823 28.46 5.06823 28.3301C5.06823 28.0702 5.06823 27.9402 5.06823 27.8103C5.06823 27.6803 5.06823 27.5504 5.06823 27.2904V27.1605C5.06823 27.1605 5.06823 27.1605 5.06823 27.2904C5.06823 27.2904 5.06823 27.4204 5.06823 27.5504C5.06823 27.6803 5.19818 27.6803 5.45809 27.8103C5.84795 28.0702 6.10786 28.2001 6.75763 28.46C7.40741 28.8499 7.92723 29.1098 8.18713 29.2398C8.44704 29.3697 8.577 29.3697 8.577 29.4997C8.577 29.4997 8.44704 29.6296 8.31709 29.6296L5.32814 31.0591ZM6.62768 26.7706C5.84795 26.6407 5.718 26.6407 5.58804 26.5107C5.45809 26.5107 5.32814 26.5107 5.32814 26.6407V26.7706V26.9006C5.32814 26.9006 5.32814 26.9006 5.32814 26.7706C5.32814 26.6407 5.32814 26.5107 5.45809 26.3808C5.45809 26.2508 5.45809 26.1209 5.58804 26.1209C5.58804 25.9909 5.84795 25.0812 5.84795 24.9513C5.84795 24.8213 5.84795 24.8213 5.84795 24.6914C5.84795 24.6914 5.84795 24.6914 5.84795 24.5614C5.84795 24.5614 5.97791 24.5614 6.10786 24.6914L6.36777 24.8213C6.36777 24.8213 6.36777 24.8213 6.23782 24.8213H6.10786C5.97791 24.8213 5.97791 24.8213 5.84795 25.0812C5.84795 25.2112 5.718 25.601 5.718 25.731L6.88759 25.9909C6.88759 25.8609 7.01754 25.3411 7.01754 25.2112C7.01754 25.0812 7.01754 25.0812 7.01754 24.9513V24.8213C7.01754 24.8213 7.1475 24.8213 7.40741 24.9513C7.53736 24.9513 7.66732 25.0812 7.66732 25.0812C7.53736 25.0812 7.53736 25.0812 7.40741 25.3411C7.40741 25.4711 7.27745 25.8609 7.27745 25.9909L7.66732 26.1209C7.79727 26.1209 8.31709 26.2508 8.44704 26.2508C8.83691 26.2508 8.83691 26.2508 8.96686 25.731C8.96686 25.601 9.09682 25.4711 8.96686 25.2112C8.83691 24.9513 8.83691 24.9513 8.70695 24.9513C8.70695 24.9513 8.577 24.9513 8.70695 24.8213C8.70695 24.8213 8.70695 24.8213 8.83691 24.8213C8.96686 24.8213 9.22677 24.9513 9.35672 24.9513C9.48668 24.9513 9.48668 25.0812 9.48668 25.2112C9.09682 25.9909 9.09682 26.2508 9.09682 26.3808C9.09682 26.6407 8.96686 26.7706 8.96686 26.9006C8.96686 26.9006 8.96686 27.0305 8.96686 27.1605C8.96686 27.2904 8.96686 27.4204 8.96686 27.5504C8.96686 27.5504 8.96686 27.6803 8.83691 27.6803C8.83691 27.6803 8.83691 27.6803 8.83691 27.5504C8.83691 27.4204 8.83691 27.4204 8.83691 27.4204C8.83691 27.2904 8.70695 27.2904 8.577 27.2904C8.31709 27.1605 8.05718 27.1605 7.53736 27.0305L6.62768 26.7706ZM7.53736 23.2619C6.88759 23.0019 6.75763 23.0019 6.62768 22.872C6.49773 22.872 6.36777 22.872 6.23782 23.002C6.23782 23.002 6.23782 23.1319 6.10786 23.1319C6.10786 23.1319 6.10786 23.2619 5.97791 23.1319C5.97791 23.1319 5.97791 23.1319 5.97791 23.002C6.10786 22.742 6.23782 22.4821 6.23782 22.3522C6.23782 22.2222 6.36777 21.8324 6.49773 21.7024C6.62768 21.4425 6.75764 21.1826 7.01754 20.9227C7.1475 20.7927 7.40741 20.7927 7.79727 20.7927C8.18713 20.9227 8.44704 21.1826 8.577 21.8324C9.22677 21.5724 9.74659 21.4425 10.1365 21.3125C10.5263 21.1826 10.6563 20.9227 10.6563 20.9227V20.7927C10.6563 20.7927 10.6563 20.7927 10.6563 20.9227L10.5263 21.3125C10.3964 21.5724 10.3964 21.7024 10.2664 21.7024C10.2664 22.0923 10.0065 22.0923 9.48668 22.2222C9.22677 22.3522 8.83691 22.3522 8.70695 22.4821C8.70695 22.4821 8.70695 22.4821 8.70695 22.6121L8.577 23.002C8.96686 23.1319 9.35673 23.2619 9.61663 23.3918C9.74659 23.3918 9.87654 23.3918 9.87654 23.2619C9.87654 23.2619 10.0065 23.1319 10.0065 23.002C10.0065 23.002 10.0065 23.0019 10.0065 23.1319C9.87654 23.3918 9.74659 23.7817 9.74659 23.7817C9.74659 23.9116 9.61663 24.1715 9.48668 24.3015C9.48668 24.3015 9.48668 24.4314 9.35672 24.4314C9.35672 24.4314 9.35672 24.4314 9.35672 24.3015C9.35672 24.1715 9.35672 24.1715 9.35672 24.1715C9.35672 24.0416 9.22677 24.0416 9.09682 23.9116C8.96686 23.7817 8.577 23.6517 8.18713 23.5218L7.53736 23.2619ZM8.18713 22.872C8.31709 22.742 8.44704 22.6121 8.44704 22.4821C8.577 22.3522 8.577 22.2222 8.44704 22.0923C8.44704 21.9623 8.18713 21.7024 7.92723 21.5725C7.27745 21.3125 6.88759 21.7024 6.88759 21.9623C6.88759 22.0923 6.75763 22.2222 6.75763 22.2222L8.18713 22.872ZM11.0461 20.7927C10.9162 20.7927 10.9162 20.7927 10.9162 20.7927C10.6563 20.6628 10.3964 20.5328 10.3964 20.4029L10.2664 20.2729C10.2664 20.2729 10.2664 20.2729 10.3964 20.2729C10.3964 20.2729 10.5263 20.4029 10.6563 20.4029C11.0461 20.5328 11.306 20.2729 11.436 20.013C11.6959 19.6231 11.436 19.3632 11.306 19.2333C11.0461 19.1033 10.9162 19.1033 10.3964 19.2333L10.1365 19.3632C9.48668 19.6231 9.09682 19.6231 8.83691 19.3632C8.31709 19.1033 8.31709 18.5835 8.577 17.9337C8.70695 17.6738 8.83691 17.5439 8.96686 17.4139C8.96686 17.4139 8.96686 17.4139 9.09682 17.4139C9.09682 17.4139 9.22677 17.5439 9.61663 17.6738C9.74659 17.6738 9.74659 17.8038 9.74659 17.8038C9.74659 17.8038 9.74659 17.8038 9.61663 17.8038C9.61663 17.8038 9.48668 17.6738 9.22677 17.8038C9.09682 17.8038 8.96686 17.9337 8.70695 18.1936C8.577 18.4535 8.577 18.8434 8.83691 18.9734C8.96686 19.1033 9.22677 19.1033 9.74659 18.8434L9.87654 18.7134C10.5263 18.4535 10.9162 18.4535 11.306 18.5835C11.436 18.8434 11.6959 19.1033 11.6959 19.4932C11.6959 19.7531 11.566 20.013 11.436 20.2729C11.306 20.5328 11.1761 20.6628 11.0461 20.7927ZM10.9162 16.7641C10.2664 16.3743 10.2664 16.2443 10.1365 16.1144C10.0065 15.9844 9.87654 15.9844 9.87654 16.1144L9.74659 16.2443C9.74659 16.2443 9.74659 16.2443 9.61663 16.2443C9.61663 16.2443 9.61663 16.2443 9.61663 16.1144C9.74659 15.9844 9.87654 15.7245 10.0065 15.5945C10.1365 15.4646 10.2664 15.2047 10.3964 15.0747C10.3964 15.0747 10.5263 14.9448 10.5263 15.0747C10.5263 15.0747 10.5263 15.0747 10.5263 15.2047C10.5263 15.2047 10.5263 15.3346 10.3964 15.3346C10.3964 15.4646 10.3964 15.5945 10.5263 15.5945C10.6563 15.7245 10.7862 15.7245 11.306 16.2443L11.9558 16.7641C12.3457 17.024 12.6056 17.284 12.8655 17.4139C12.9955 17.5439 13.1254 17.5439 13.1254 17.4139L13.2554 17.284C13.2554 17.284 13.2554 17.284 13.3853 17.284C13.3853 17.284 13.3853 17.284 13.3853 17.4139C13.2554 17.6738 12.9955 17.9337 12.8655 18.0637C12.7355 18.1936 12.6056 18.4535 12.4756 18.5835C12.4756 18.5835 12.3457 18.7135 12.3457 18.5835C12.3457 18.5835 12.3457 18.5835 12.3457 18.4535L12.4756 18.3236C12.4756 18.1936 12.4756 18.1936 12.3457 18.0637C12.2157 17.9337 11.8259 17.6738 11.566 17.4139L10.9162 16.7641ZM12.0858 13.5153L11.566 14.0351C11.436 14.295 11.306 14.295 11.306 14.425C11.306 14.5549 11.306 14.5549 11.436 14.5549C11.436 14.5549 11.436 14.5549 11.436 14.6849C11.436 14.6849 11.436 14.6849 11.306 14.6849C11.306 14.6849 11.0461 14.295 10.9162 14.165V14.0351C10.9162 14.0351 11.0461 14.0351 11.0461 13.9051C11.1761 13.7752 11.306 13.6452 11.436 13.5153L12.7355 12.0858C12.9955 12.2157 12.9955 12.0858 13.1254 12.0858C13.1254 12.0858 13.1254 11.9558 13.2554 11.9558C13.2554 11.9558 13.2554 11.9558 13.3853 11.9558C13.5153 12.0858 13.6452 12.2157 13.7752 12.3457C13.7752 12.3457 13.7752 12.3457 13.7752 12.4756C13.7752 12.4756 13.7752 12.4756 13.6452 12.4756C13.5153 12.3457 13.3853 12.3457 12.9955 12.7355L12.6056 13.1254L14.0351 14.5549C14.295 14.8148 14.6849 15.0747 14.8148 15.2047C14.9448 15.3346 15.0747 15.3346 15.0747 15.2047L15.2047 15.0747C15.2047 15.0747 15.2047 15.0747 15.3346 15.0747C15.3346 15.0747 15.3346 15.0747 15.3346 15.2047C15.0747 15.4646 14.9448 15.5945 14.8148 15.7245C14.6849 15.8545 14.5549 15.9844 14.425 16.2443H14.295C14.295 16.2443 14.295 16.2443 14.295 16.1144L14.425 15.9844C14.425 15.8545 14.425 15.8545 14.295 15.7245C14.165 15.5945 13.9051 15.3346 13.5153 14.9448L12.0858 13.5153ZM15.7245 12.8655C15.7245 12.9955 15.7245 12.9955 15.7245 12.8655L15.9844 13.6452C15.9844 13.7752 16.1144 13.9051 16.1144 13.9051C16.1144 14.0351 16.2443 14.0351 16.3743 13.9051C16.3743 13.9051 16.3743 13.9051 16.5042 13.9051C16.5042 13.9051 16.5042 13.9051 16.5042 14.0351C16.3743 14.165 16.2443 14.295 16.1144 14.295C16.1144 14.295 15.8545 14.5549 15.7245 14.6849H15.5945C15.5945 14.6849 15.5945 14.6849 15.5945 14.5549L15.7245 14.425C15.8545 14.295 15.8545 14.0351 15.7245 13.7752L14.8148 10.6563C14.8148 10.5263 14.8148 10.3964 14.8148 10.3964H14.9448C15.2047 10.5263 17.024 11.566 17.8038 11.9558C18.1936 12.2157 18.3236 12.0858 18.4535 12.0858C18.5835 12.0858 18.5835 11.9558 18.5835 11.9558C18.5835 11.9558 18.5835 11.9558 18.7134 11.9558C18.7134 11.9558 18.7135 12.0858 18.5835 12.0858C18.4535 12.2157 18.1936 12.4756 17.8038 12.6056C17.6738 12.6056 17.6738 12.7355 17.6738 12.6056C17.6738 12.6056 17.6738 12.6056 17.6738 12.4756V12.3457L16.7641 11.8259L15.7245 12.8655ZM16.3743 12.0858L15.3346 11.436L15.5945 12.6056L16.3743 12.0858ZM18.9734 12.0858C18.8434 12.0858 18.8434 12.0858 18.8434 11.9558C18.7134 11.6959 18.5835 11.436 18.5835 11.436C18.5835 11.306 18.5835 11.306 18.5835 11.306C18.5835 11.306 18.5835 11.306 18.7134 11.306L18.8434 11.436C18.9734 11.8259 19.2333 11.6959 19.4932 11.566C19.883 11.306 19.883 10.9162 19.7531 10.7862C19.6231 10.5263 19.4932 10.3964 18.9734 10.3964H18.7134C18.0637 10.2664 17.6738 10.1365 17.5439 9.74659C17.284 9.22677 17.4139 8.70695 18.0637 8.44704C18.3236 8.31709 18.5835 8.18713 18.7134 8.18713H18.8434C18.8434 8.18713 18.9734 8.31709 19.1033 8.70695C19.1033 8.83691 19.1033 8.83691 19.1033 8.83691C19.1033 8.83691 19.1033 8.83691 18.9734 8.83691C18.9734 8.83691 18.8434 8.70695 18.7134 8.577C18.5835 8.577 18.4535 8.44704 18.1936 8.70695C17.9337 8.83691 17.8038 9.22677 17.9337 9.48668C18.0637 9.61663 18.1936 9.74659 18.7134 9.87654H18.8434C19.6231 10.0065 19.883 10.1365 20.143 10.5263C20.2729 10.7862 20.4029 11.0461 20.143 11.436C20.013 11.6959 19.7531 11.8259 19.6231 11.9558C19.3632 11.9558 19.1033 12.0858 18.9734 12.0858ZM44.3145 8.577L43.6647 8.18713C43.4048 8.05718 43.2749 8.05718 43.1449 8.05718C43.0149 8.05718 43.0149 8.18713 43.0149 8.18713C43.0149 8.18713 43.0149 8.18713 42.885 8.18713C42.885 8.18713 42.885 8.18713 42.885 8.05718C42.885 7.92723 43.2749 7.66732 43.2749 7.66732C43.2749 7.66732 43.4048 7.53736 43.4048 7.66732C43.4048 7.66732 43.4048 7.79727 43.5348 7.79727C43.6647 7.92723 43.7947 7.92723 43.9246 8.05718L45.614 9.09682C45.744 9.22677 45.8739 9.22677 45.8739 9.22677C46.0039 9.22677 46.0039 9.22677 46.0039 9.22677C46.0039 9.22677 46.0039 9.22677 46.0039 9.35672C46.0039 9.48668 45.744 9.74659 45.744 9.87654C45.744 9.87654 45.744 9.87654 45.614 9.87654C45.614 9.87654 45.614 9.87654 45.614 9.74659C45.614 9.61663 45.614 9.48668 45.2242 9.22677L44.7044 8.96686L43.6647 10.6563C43.4048 11.0461 43.2749 11.436 43.1449 11.566C43.1449 11.6959 43.0149 11.8259 43.1449 11.8259C43.1449 11.8259 43.2749 11.9558 43.4048 11.9558C43.4048 11.9558 43.4048 11.9558 43.4048 12.0858C43.4048 12.0858 43.4048 12.0858 43.2749 12.0858C43.1449 11.8259 43.0149 11.6959 42.885 11.566C42.755 11.566 42.4951 11.306 42.3652 11.306C42.3652 11.306 42.2352 11.306 42.3652 11.1761C42.3652 11.1761 42.3652 11.1761 42.4951 11.1761C42.4951 11.1761 42.6251 11.1761 42.6251 11.306C42.755 11.306 42.755 11.306 42.885 11.1761C43.0149 11.0461 43.1449 10.6563 43.4048 10.2664L44.3145 8.577ZM46.5237 11.306C47.0435 10.7862 47.0435 10.6563 47.1735 10.5263C47.3034 10.3964 47.3034 10.2664 47.1735 10.1365L47.0435 10.0065C47.0435 10.0065 47.0435 10.0065 47.0435 9.87654C47.0435 9.87654 47.0435 9.87654 47.1735 9.87654C47.3034 10.0065 47.5634 10.2664 47.6933 10.3964C47.8233 10.5263 48.0832 10.6563 48.2131 10.7862C48.2131 10.7862 48.3431 10.9162 48.2131 10.9162C48.2131 10.9162 48.2131 10.9162 48.0832 10.9162C48.0832 10.9162 47.9532 10.9162 47.9532 10.7862C47.8233 10.6563 47.6933 10.7862 47.6933 10.9162C47.5634 11.0461 47.4334 11.1761 47.0435 11.6959L46.6537 12.2157C46.1339 12.7355 46.1339 13.1254 46.1339 13.3853C46.1339 13.6452 46.3938 13.7752 46.5237 13.9051C46.6537 14.0351 46.9136 14.165 47.1735 14.165C47.5634 14.165 47.8233 13.7752 48.2131 13.3853L48.603 12.8655C49.1228 12.3457 49.1228 12.2157 49.2528 12.0858C49.3827 11.9558 49.3827 11.8259 49.2528 11.6959L49.1228 11.566C49.1228 11.566 49.1228 11.566 49.1228 11.436C49.1228 11.306 49.1228 11.436 49.2528 11.436C49.3827 11.566 49.6426 11.8259 49.6426 11.8259C49.6426 11.8259 49.9025 12.0858 50.0325 12.2157C50.0325 12.2157 50.1624 12.3457 50.0325 12.3457C50.0325 12.3457 50.0325 12.3457 49.9025 12.3457C49.9025 12.3457 49.9025 12.3457 49.7726 12.2157C49.6426 12.0858 49.5127 12.2157 49.5127 12.3457C49.3827 12.4756 49.2528 12.6056 48.8629 13.1254L48.473 13.5153C48.0832 13.9051 47.6933 14.295 47.1735 14.295C46.6537 14.295 46.3938 14.165 46.1339 13.9051C45.8739 13.7752 45.614 13.3853 45.4841 12.9955C45.4841 12.6056 45.4841 12.2157 46.0039 11.6959L46.5237 11.306ZM50.1624 14.8148C50.6823 14.295 50.8122 14.295 50.9422 14.165C51.0721 14.0351 51.0721 14.0351 51.0721 13.7752L50.9422 13.6452V13.5153C50.9422 13.5153 50.9422 13.5153 51.0721 13.5153C51.2021 13.7752 51.462 13.9051 51.462 14.0351C51.5919 14.165 51.8519 14.425 51.8519 14.5549C51.9818 14.8148 52.2417 15.0747 52.2417 15.3346C52.2417 15.4646 52.2417 15.8545 51.9818 15.9844C51.7219 16.2443 51.332 16.2443 50.6823 16.1144C50.5523 16.7641 50.4224 17.284 50.2924 17.6738C50.2924 18.0637 50.2924 18.1936 50.4224 18.3236C50.4224 18.3236 50.4224 18.4535 50.5523 18.4535C50.5523 18.4535 50.5523 18.4535 50.5523 18.5835C50.5523 18.5835 50.5523 18.5835 50.4224 18.5835L50.1624 18.1936C50.0325 17.9337 49.9025 17.9337 49.9025 17.6738C49.9025 17.4139 49.9025 17.154 50.0325 16.7641C50.1624 16.5042 50.2924 16.1144 50.2924 15.9844V15.8545L50.0325 15.4646C49.6426 15.7245 49.3827 15.9844 49.2528 16.1144C49.1228 16.2443 49.1228 16.2443 49.1228 16.3743C49.1228 16.3743 49.2528 16.5042 49.2528 16.6342C49.2528 16.6342 49.2528 16.6342 49.2528 16.7641C49.2528 16.7641 49.2528 16.7641 49.1228 16.7641C48.9929 16.5042 48.7329 16.2443 48.7329 16.2443C48.7329 16.1144 48.473 15.9844 48.3431 15.8545V15.7245C48.3431 15.7245 48.3431 15.7245 48.473 15.7245L48.603 15.8545C48.7329 15.8545 48.7329 15.8545 48.8629 15.8545C48.9929 15.7245 49.3827 15.4646 49.6426 15.2047L50.1624 14.8148ZM50.2924 15.4646C50.1624 15.4646 50.1624 15.5945 50.2924 15.4646C50.2924 15.5945 50.4224 15.7245 50.4224 15.8545C50.5523 15.9844 50.5523 15.9844 50.6823 16.1144C50.8122 16.1144 51.0721 16.1144 51.462 15.8545C51.9818 15.4646 51.8519 14.9448 51.7219 14.6849C51.5919 14.5549 51.5919 14.5549 51.5919 14.5549C51.5919 14.5549 51.5919 14.5549 51.462 14.5549L50.2924 15.4646ZM52.7615 18.3236C53.4113 17.9337 53.5413 17.9337 53.6712 17.8038C53.8012 17.6738 53.8012 17.6738 53.8012 17.5439C53.8012 17.5439 53.8012 17.4139 53.6712 17.4139V17.284C53.6712 17.284 53.6712 17.284 53.8012 17.4139C53.9311 17.5439 54.0611 17.8038 54.0611 17.9337C54.0611 18.0637 54.321 18.3236 54.321 18.4535V18.5835C54.321 18.5835 54.321 18.5835 54.191 18.5835C54.191 18.5835 54.191 18.4535 54.0611 18.4535C53.9311 18.3236 53.9311 18.3236 53.6712 18.4535C53.5413 18.5835 53.4113 18.5835 52.7615 18.9734L51.9818 19.3632C51.5919 19.6231 51.2021 19.7531 51.0721 19.883C50.9422 20.013 50.9422 20.013 50.9422 20.143C50.9422 20.143 51.0721 20.2729 51.0721 20.4029V20.5328C51.0721 20.5328 51.0721 20.5328 50.9422 20.5328C50.8122 20.2729 50.6823 20.013 50.5523 19.883C50.5523 19.7531 50.2924 19.4932 50.2924 19.3632V19.2333C50.2924 19.2333 50.2924 19.2333 50.4224 19.2333L50.5523 19.3632C50.6823 19.4932 50.6823 19.3632 50.8122 19.3632C50.9422 19.2333 51.332 19.1033 51.7219 18.8434L52.7615 18.3236ZM52.3717 21.4425C52.6316 20.7927 53.0214 20.5328 53.4113 20.2729C53.6712 20.143 54.321 20.013 54.8408 20.2729C55.2307 20.5328 55.6205 20.7927 55.8804 21.4425C56.0104 21.7024 56.0104 21.8324 56.1404 22.0923C56.1404 22.2222 56.2703 22.4821 56.2703 22.6121V22.742C56.2703 22.742 56.1404 22.742 56.0104 22.872C55.8804 22.872 55.6205 23.002 55.4906 23.002C55.3606 23.002 55.3606 23.002 55.3606 23.002C55.3606 23.002 55.3606 23.0019 55.4906 22.872C55.6205 22.872 55.7505 22.742 55.8804 22.4821C56.0104 22.2222 56.0104 21.8324 55.7505 21.4425C55.6205 21.0526 55.3606 20.7927 55.1007 20.6628C54.7109 20.4029 54.191 20.5328 53.8012 20.7927C52.7615 21.1826 52.5016 22.2222 52.7615 22.872C52.8915 23.2619 53.0214 23.5218 53.4113 23.6517C53.5413 23.6517 53.6712 23.6517 53.8012 23.6517C53.9311 23.6517 53.9311 23.6517 53.9311 23.6517C53.9311 23.6517 53.9311 23.6517 53.9311 23.7817C53.9311 23.7817 53.4113 23.9116 53.2814 23.9116C53.1514 23.9116 53.1514 23.9116 53.1514 23.9116C53.0214 23.7817 52.8915 23.3918 52.7615 23.1319C52.2417 22.6121 52.2417 21.9623 52.3717 21.4425ZM55.6205 25.0812C56.4003 24.9513 56.5302 24.9513 56.6602 24.8213C56.7901 24.8213 56.9201 24.6914 56.9201 24.5614V24.4314V24.3015C56.9201 24.3015 56.9201 24.3015 57.05 24.4314C57.05 24.5614 57.05 24.6914 57.18 24.8213C57.18 24.9513 57.18 25.0812 57.18 25.0812C57.18 25.2112 57.4399 26.1209 57.4399 26.2508C57.4399 26.3808 57.4399 26.3808 57.5699 26.5107C57.5699 26.5107 57.5699 26.5107 57.5699 26.6407C57.5699 26.6407 57.4399 26.6407 57.3099 26.6407H57.05C57.05 26.6407 57.18 26.6407 57.18 26.5107C57.3099 26.5107 57.3099 26.3808 57.3099 26.1209C57.3099 25.9909 57.18 25.601 57.18 25.4711L56.0104 25.731C56.0104 25.8609 56.1404 26.3808 56.1404 26.5107C56.1404 26.6407 56.1404 26.6407 56.2703 26.7706H56.4003C56.4003 26.7706 56.2703 26.7706 56.0104 26.7706C55.8804 26.7706 55.7505 26.7706 55.7505 26.7706C55.8804 26.7706 55.8804 26.6407 55.8804 26.5107C55.8804 26.3808 55.7505 25.9909 55.7505 25.8609L55.3606 25.9909C55.2307 25.9909 54.7108 26.1209 54.5809 26.1209C54.321 26.2508 54.191 26.2508 54.321 26.7706C54.321 26.9006 54.4509 27.0305 54.4509 27.1605C54.5809 27.2904 54.7109 27.2904 54.8408 27.2904H54.9708C54.9708 27.2904 54.9708 27.2904 54.8408 27.2904C54.7109 27.2904 54.4509 27.2904 54.321 27.2904C54.191 27.2904 54.191 27.2904 54.191 27.0305C54.0611 26.6407 54.0611 26.3808 54.0611 26.2508C54.0611 25.9909 54.0611 25.8609 53.9311 25.731C53.9311 25.731 53.9311 25.601 53.9311 25.4711C53.9311 25.3411 53.9311 25.2112 53.8012 25.2112V25.0812C53.8012 25.0812 53.8012 25.0812 53.8012 25.2112C53.8012 25.3411 53.8012 25.3411 53.8012 25.3411C53.8012 25.4711 53.9311 25.4711 54.0611 25.4711C54.321 25.4711 54.5809 25.3411 55.1007 25.2112L55.6205 25.0812ZM54.7108 29.2398C54.321 29.2398 54.191 29.3697 54.191 29.3697C54.191 29.4997 54.191 29.4997 54.191 29.6296V29.7596C54.191 29.7596 54.191 29.7596 54.191 29.6296C54.191 29.3697 54.191 29.1098 54.191 28.9799C54.191 28.9799 54.191 28.7199 54.191 28.46V28.3301C54.191 28.3301 54.191 28.3301 54.191 28.46C54.191 28.46 54.191 28.59 54.191 28.7199C54.191 28.8499 54.321 28.8499 54.8408 28.8499H57.6998C57.8298 28.8499 57.8298 28.8499 57.8298 28.8499C57.8298 28.8499 57.8298 28.9799 57.6998 28.9799C57.6998 28.9799 56.9201 29.7596 56.1404 30.5393C55.8804 30.9292 55.1007 31.5789 55.1007 31.7089L57.3099 31.5789C57.5698 31.5789 57.6998 31.5789 57.6998 31.449C57.6998 31.319 57.6998 31.319 57.6998 31.1891V31.0591C57.6998 31.0591 57.6998 31.0591 57.6998 31.1891C57.6998 31.449 57.6998 31.7089 57.6998 31.8389C57.6998 31.8389 57.6998 32.0988 57.6998 32.3587V32.4886C57.6998 32.4886 57.6998 32.4886 57.6998 32.3587V32.2287C57.6998 32.0988 57.5698 32.0988 57.3099 32.0988H54.191C54.0611 32.0988 54.0611 32.0988 54.0611 32.0988C54.0611 32.0988 54.0611 31.9688 54.191 31.9688C54.4509 31.7089 55.1007 31.0591 55.6205 30.5393C56.1404 30.0195 56.6602 29.3697 56.7901 29.3697L54.7108 29.2398ZM54.0611 33.6582C54.0611 33.5283 54.191 33.5283 54.191 33.5283C54.4509 33.5283 54.7109 33.6582 54.8408 33.6582C54.9708 33.6582 54.9708 33.6582 54.9708 33.7882C54.9708 33.7882 54.9708 33.7882 54.8408 33.7882C54.8408 33.7882 54.7108 33.7882 54.5809 33.7882C54.191 33.7882 54.0611 34.0481 54.0611 34.4379C54.0611 34.8278 54.321 35.0877 54.5809 35.2177C54.8408 35.2177 55.1007 35.2177 55.3606 34.8278L55.6205 34.5679C56.1404 34.0481 56.5302 33.9181 56.9201 34.0481C57.4399 34.178 57.8298 34.5679 57.6998 35.3476C57.6998 35.6075 57.5699 35.8674 57.5699 35.9974C57.5699 35.9974 57.5699 35.9974 57.4399 35.9974C57.4399 35.9974 57.18 35.9974 56.9201 35.8674C56.7901 35.8674 56.7901 35.8674 56.7901 35.7375C56.7901 35.7375 56.7901 35.7375 56.9201 35.7375C56.9201 35.7375 57.18 35.7375 57.3099 35.6075C57.4399 35.6075 57.5699 35.4776 57.5699 35.0877C57.5699 34.6979 57.4399 34.4379 57.18 34.4379C56.9201 34.4379 56.7901 34.4379 56.4003 34.8278L56.0104 35.0877C55.4906 35.6075 55.1007 35.7375 54.7108 35.7375C54.4509 35.7375 54.0611 35.6075 53.9311 35.2177C53.8012 34.9578 53.8012 34.6979 53.8012 34.4379C53.8012 34.0481 53.9311 33.9181 54.0611 33.6582ZM55.4906 37.8168C56.1404 38.0767 56.2703 38.0767 56.5302 38.0767C56.6602 38.0767 56.7901 38.0767 56.7901 37.9467C56.7901 37.9467 56.7901 37.8168 56.9201 37.8168C56.9201 37.8168 56.9201 37.6868 57.05 37.8168C57.05 37.8168 57.05 37.8168 57.05 37.9467C57.05 38.0767 56.9201 38.4665 56.9201 38.5965C56.9201 38.7264 56.7901 38.9864 56.7901 39.1163V39.2463C56.7901 39.2463 56.7901 39.2463 56.7901 39.1163V38.9864C56.7901 38.8564 56.7901 38.8564 56.5302 38.7264C56.4003 38.7264 56.2703 38.5965 55.4906 38.4665L54.7108 38.2066C54.321 38.0767 53.9311 37.9467 53.6712 37.9467C53.5413 37.9467 53.4113 37.9467 53.4113 38.0767C53.4113 38.0767 53.2814 38.2066 53.2814 38.3366C53.2814 38.3366 53.2814 38.3366 53.2814 38.2066C53.4113 37.9467 53.4113 37.5569 53.5413 37.4269C53.5413 37.2969 53.6712 37.037 53.6712 36.7771C53.6712 36.7771 53.6712 36.6472 53.8012 36.6472C53.8012 36.6472 53.8012 36.6472 53.8012 36.7771C53.8012 36.9071 53.8012 36.9071 53.8012 36.9071C53.8012 37.037 53.8012 37.037 54.0611 37.167C54.191 37.2969 54.5809 37.2969 55.1007 37.4269L55.4906 37.8168ZM52.6316 39.5062H52.7615C53.0214 39.6361 53.2814 39.7661 53.2814 39.7661L53.4113 39.896C53.4113 39.896 53.4113 39.896 53.2814 39.896C53.2814 39.896 53.1514 39.896 53.0214 39.896C52.6316 39.896 52.3717 40.026 52.2417 40.2859C52.1118 40.6758 52.2417 40.9357 52.5016 41.0656C52.7615 41.1956 52.8915 41.1956 53.4113 40.9357L53.6712 40.8057C54.321 40.5458 54.7108 40.4159 54.9708 40.5458C55.4906 40.8057 55.6205 41.3255 55.3606 41.9753C55.2307 42.2352 55.1007 42.4951 54.9708 42.4951C54.9708 42.4951 54.9708 42.4951 54.8408 42.4951C54.8408 42.4951 54.7108 42.3652 54.321 42.2352C54.191 42.2352 54.191 42.1053 54.191 42.1053C54.191 42.1053 54.191 42.1053 54.321 42.1053C54.321 42.1053 54.4509 42.1053 54.7108 42.1053C54.8408 42.1053 54.9708 41.9753 55.1007 41.7154C55.2307 41.3255 55.1007 41.0656 54.8408 40.9357C54.5809 40.8057 54.4509 40.9357 53.9311 41.0656L53.8012 41.1956C53.1514 41.5854 52.7615 41.5854 52.3717 41.4555C52.1118 41.3255 51.8519 41.0656 51.7219 40.6758C51.7219 40.4159 51.7219 40.1559 51.8519 39.896C52.3717 39.896 52.5016 39.6361 52.6316 39.5062ZM17.9337 54.321H17.8038C17.6738 54.321 17.6738 54.191 17.6738 54.0611L17.4139 52.5016C17.4139 52.5016 17.4139 52.3717 17.284 52.3717C17.284 52.3717 17.154 52.3717 17.154 52.5016L16.5042 53.9311L15.8545 52.5016C15.8545 52.3717 15.7245 52.3717 15.7245 52.3717C15.7245 52.3717 15.5945 52.3717 15.5945 52.5016L15.3346 54.191C15.3346 54.321 15.3346 54.321 15.2047 54.321C15.2047 54.321 15.2047 54.321 15.0747 54.321C15.0747 54.321 15.0747 54.321 14.9448 54.321C14.9448 54.321 14.9448 54.321 15.0747 54.321C15.2047 54.321 15.3346 54.321 15.3346 54.321C15.3346 54.321 15.4646 54.321 15.5945 54.321H15.7245C15.7245 54.321 15.7245 54.321 15.5945 54.321C15.5945 54.321 15.5945 54.321 15.4646 54.321H15.3346V54.191L15.4646 53.2814C15.5945 53.4113 15.7245 53.8012 15.7245 53.8012C15.7245 53.9311 15.9844 54.321 15.9844 54.4509C15.9844 54.5809 16.1144 54.5809 16.1144 54.5809C16.1144 54.5809 16.2443 54.5809 16.2443 54.4509L16.7641 53.2814L16.8941 54.321C16.8941 54.321 16.8941 54.321 17.024 54.321C17.4139 54.321 17.8038 54.321 17.9337 54.321ZM20.143 52.6316C19.883 52.3717 19.3632 52.3717 18.9734 52.3717C18.8434 52.3717 18.5835 52.3717 18.5835 52.3717C18.4535 52.3717 18.3236 52.3717 18.1936 52.3717H18.0637C18.0637 52.3717 18.0637 52.3717 18.1936 52.3717H18.3236C18.4535 52.3717 18.4535 52.3717 18.4535 52.5016C18.4535 52.6316 18.4535 52.6316 18.4535 53.0214V53.5413C18.4535 53.8012 18.4535 53.9311 18.4535 54.0611C18.4535 54.191 18.4535 54.191 18.4535 54.191C18.4535 54.191 18.4535 54.191 18.3236 54.191H18.4535C18.5835 54.191 18.5835 54.191 18.5835 54.191C18.7135 54.191 18.7134 54.191 18.8434 54.191C18.9734 54.191 19.1033 54.191 19.2333 54.191C19.7531 54.191 20.013 54.0611 20.143 53.9311C20.2729 53.8012 20.4029 53.5413 20.4029 53.1514C20.4029 53.0214 20.2729 52.7615 20.143 52.6316ZM20.013 53.4113C20.013 53.6712 20.013 53.9311 19.7531 54.0611C19.6231 54.191 19.3632 54.191 19.2333 54.191C18.9734 54.191 18.9734 54.191 18.8434 54.0611V53.9311C18.8434 53.9311 18.8434 53.6712 18.8434 53.4113V53.0214C18.8434 52.7615 18.8434 52.6316 18.8434 52.5016H18.9734C19.2333 52.5016 19.4932 52.5016 19.7531 52.7615C19.883 52.8915 20.013 53.1514 20.013 53.4113ZM22.6121 53.8012C22.4821 53.8012 22.4821 53.9311 22.6121 53.8012C22.6121 53.9311 22.4821 53.9311 22.4821 54.0611C22.3522 54.191 22.2222 54.191 21.9623 54.191C21.5724 54.191 21.1826 53.9311 21.1826 53.2814C21.1826 53.0214 21.1826 52.7615 21.4425 52.6316C21.5725 52.5016 21.7024 52.5016 21.9623 52.5016C22.2222 52.5016 22.3522 52.5016 22.4821 52.6316C22.4821 52.6316 22.6121 52.7615 22.6121 52.8915V53.0214C22.6121 53.0214 22.6121 53.0214 22.6121 52.8915V52.6316C22.6121 52.5016 22.6121 52.5016 22.6121 52.5016C22.4821 52.5016 22.4821 52.5016 22.3522 52.5016C22.2222 52.5016 22.0923 52.5016 21.9623 52.5016C21.5724 52.5016 21.3125 52.6316 21.0526 52.7615C20.7927 53.0214 20.6628 53.2814 20.6628 53.5413C20.6628 53.8012 20.7927 54.0611 21.0526 54.321C21.3125 54.5809 21.5724 54.5809 21.9623 54.5809C22.0923 54.5809 22.3522 54.5809 22.4821 54.5809C22.4821 54.5809 22.6121 54.5809 22.6121 54.4509C22.6121 54.191 22.6121 53.9311 22.6121 53.8012ZM24.6914 53.8012C24.6914 53.9311 24.5614 53.9311 24.5614 54.0611C24.4314 54.191 24.3015 54.191 24.0416 54.191C23.6517 54.191 23.2619 53.9311 23.2619 53.2814C23.2619 53.0214 23.2619 52.7615 23.5218 52.6316C23.6517 52.5016 23.7817 52.5016 24.0416 52.5016C24.3015 52.5016 24.4314 52.5016 24.5614 52.6316C24.5614 52.6316 24.6914 52.7615 24.6914 52.8915V53.0214C24.6914 53.0214 24.6914 53.0214 24.6914 52.8915V52.6316C24.6914 52.5016 24.6914 52.5016 24.6914 52.5016C24.5614 52.5016 24.5614 52.5016 24.4314 52.5016C24.3015 52.5016 24.1715 52.5016 24.0416 52.5016C23.6517 52.5016 23.3918 52.6316 23.1319 52.7615C22.872 53.0214 22.742 53.2814 22.742 53.5413C22.742 53.8012 22.872 54.0611 23.1319 54.321C23.3918 54.5809 23.6517 54.5809 24.0416 54.5809C24.1715 54.5809 24.4314 54.5809 24.5614 54.5809C24.5614 54.5809 24.6914 54.5809 24.6914 54.4509C24.6914 54.191 24.8213 53.9311 24.6914 53.8012C24.8213 53.9311 24.8213 53.8012 24.6914 53.8012ZM26.9006 53.8012C26.9006 53.9311 26.7706 53.9311 26.7706 54.0611C26.6407 54.191 26.5107 54.191 26.2508 54.191C25.861 54.191 25.4711 53.9311 25.4711 53.2814C25.4711 53.0214 25.4711 52.7615 25.731 52.6316C25.8609 52.5016 25.9909 52.5016 26.2508 52.5016C26.5107 52.5016 26.6407 52.5016 26.7706 52.6316C26.7706 52.6316 26.9006 52.7615 26.9006 52.8915V53.0214C26.9006 53.0214 26.9006 53.0214 26.9006 52.8915V52.6316C26.9006 52.5016 26.9006 52.5016 26.9006 52.5016C26.7706 52.5016 26.7706 52.5016 26.6407 52.5016C26.5107 52.5016 26.3808 52.5016 26.2508 52.5016C25.861 52.5016 25.601 52.6316 25.3411 52.7615C25.0812 53.0214 24.9513 53.2814 24.9513 53.5413C24.9513 53.8012 25.0812 54.0611 25.3411 54.321C25.601 54.5809 25.861 54.5809 26.2508 54.5809C26.3808 54.5809 26.6407 54.5809 26.7706 54.5809C26.7706 54.5809 26.9006 54.5809 26.9006 54.4509C26.9006 54.191 26.9006 53.9311 26.9006 53.8012ZM37.4269 54.321C37.2969 54.321 37.2969 54.321 37.167 54.191C37.167 54.0611 36.6472 53.4113 36.5172 53.2814L36.9071 52.6316C37.037 52.5016 37.037 52.5016 37.037 52.5016H37.167C37.167 52.5016 37.167 52.5016 37.037 52.5016C36.9071 52.5016 36.7771 52.5016 36.7771 52.5016C36.7771 52.5016 36.6472 52.5016 36.5172 52.5016H36.3873C36.3873 52.5016 36.3873 52.5016 36.5172 52.5016C36.5172 52.5016 36.5172 52.5016 36.5172 52.6316C36.5172 52.7615 36.2573 53.0214 36.1274 53.1514C35.9974 53.0214 35.8674 52.7615 35.8674 52.6316C35.8674 52.6316 35.8674 52.6316 35.8674 52.5016C35.8674 52.5016 35.8674 52.5016 35.7375 52.5016C35.6075 52.5016 35.4776 52.5016 35.4776 52.5016C35.3476 52.5016 35.0877 52.5016 35.0877 52.5016C35.2177 52.5016 35.2177 52.6316 35.3476 52.6316L35.8674 53.4113L35.3476 54.0611C35.2177 54.191 35.2177 54.191 35.0877 54.191H34.9578C34.9578 54.191 35.0877 54.191 35.2177 54.191C35.3476 54.191 35.4776 54.191 35.4776 54.191H35.6075C35.6075 54.191 35.6075 54.191 35.6075 54.0611L35.9974 53.4113C36.1274 53.5413 36.2573 53.8012 36.3873 54.0611C36.3873 54.0611 36.3873 54.0611 36.5172 54.0611C37.037 54.4509 37.2969 54.4509 37.4269 54.321ZM39.7661 54.321C39.6361 54.321 39.6361 54.321 39.5062 54.191C39.5062 54.0611 38.9864 53.4113 38.8564 53.2814L39.2463 52.6316C39.3762 52.5016 39.3762 52.5016 39.3762 52.5016H39.5062C39.5062 52.5016 39.5062 52.5016 39.3762 52.5016C39.2463 52.5016 39.1163 52.5016 39.1163 52.5016C39.1163 52.5016 38.9864 52.5016 38.8564 52.5016H38.7264C38.7264 52.5016 38.7264 52.5016 38.8564 52.5016C38.8564 52.5016 38.8564 52.5016 38.8564 52.6316C38.8564 52.7615 38.5965 53.0214 38.4665 53.1514C38.3366 53.0214 38.2066 52.7615 38.2066 52.6316C38.2066 52.6316 38.2066 52.6316 38.2066 52.5016C38.2066 52.5016 38.2066 52.5016 38.0767 52.5016C37.9467 52.5016 37.8168 52.5016 37.8168 52.5016C37.6868 52.5016 37.4269 52.5016 37.4269 52.5016C37.5569 52.5016 37.5569 52.6316 37.6868 52.6316L38.2066 53.4113L37.6868 54.0611C37.5569 54.191 37.5569 54.191 37.4269 54.191H37.2969C37.2969 54.191 37.4269 54.191 37.5569 54.191C37.6868 54.191 37.8168 54.191 37.8168 54.191H37.9467C37.9467 54.191 37.9467 54.191 37.9467 54.0611L38.3366 53.4113C38.4665 53.5413 38.5965 53.8012 38.7264 54.0611C38.7264 54.0611 38.7264 54.0611 38.8564 54.0611C39.3762 54.4509 39.6361 54.4509 39.7661 54.321ZM42.1053 54.321C41.9753 54.321 41.9753 54.321 42.1053 54.321C41.9753 54.321 41.9753 54.321 41.8454 54.191C41.8454 54.0611 41.3255 53.4113 41.1956 53.2814L41.5854 52.6316C41.7154 52.5016 41.7154 52.5016 41.7154 52.5016H41.8454C41.8454 52.5016 41.8454 52.5016 41.7154 52.5016C41.5854 52.5016 41.4555 52.5016 41.4555 52.5016C41.4555 52.5016 41.3255 52.5016 41.1956 52.5016H41.0656C41.0656 52.5016 41.0656 52.5016 41.1956 52.5016C41.1956 52.5016 41.1956 52.5016 41.1956 52.6316C41.1956 52.7615 40.9357 53.0214 40.8057 53.1514C40.6758 53.0214 40.5458 52.7615 40.5458 52.6316C40.5458 52.6316 40.5458 52.6316 40.5458 52.5016C40.5458 52.5016 40.5458 52.5016 40.4159 52.5016C40.2859 52.5016 40.1559 52.5016 40.1559 52.5016C40.026 52.5016 39.7661 52.5016 39.7661 52.5016C39.896 52.5016 39.896 52.6316 40.026 52.6316L40.5458 53.4113L40.2859 54.0611C40.1559 54.191 40.1559 54.191 40.026 54.191H39.896C39.896 54.191 40.026 54.191 40.1559 54.191C40.2859 54.191 40.4159 54.191 40.4159 54.191H40.5458C40.5458 54.191 40.5458 54.191 40.5458 54.0611L40.9357 53.4113C41.0656 53.5413 41.1956 53.8012 41.3255 54.0611C41.3255 54.0611 41.3255 54.0611 41.4555 54.0611C41.7154 54.4509 41.8454 54.4509 42.1053 54.321ZM43.5348 54.321H43.4048C43.2749 54.321 43.2749 54.321 43.2749 54.191C43.2749 54.0611 43.2749 53.9311 43.2749 53.6712V53.1514C43.2749 52.7615 43.2749 52.6316 43.2749 52.6316C43.2749 52.5016 43.2749 52.5016 43.4048 52.5016C43.4048 52.5016 43.4048 52.5016 43.5348 52.5016H43.6647C43.6647 52.5016 43.6647 52.5016 43.5348 52.5016C43.4048 52.5016 43.2749 52.5016 43.1449 52.5016C43.0149 52.5016 42.885 52.5016 42.755 52.5016H42.6251C42.6251 52.5016 42.6251 52.5016 42.755 52.5016H42.885C42.885 52.5016 43.0149 52.5016 43.0149 52.6316C43.0149 52.7615 43.0149 52.7615 43.0149 53.1514V53.6712C43.0149 53.9311 43.0149 54.191 43.0149 54.191C43.0149 54.321 43.0149 54.321 43.0149 54.321C43.0149 54.321 43.0149 54.321 42.885 54.321H42.755C42.755 54.321 42.755 54.321 42.885 54.321C43.0149 54.321 43.1449 54.321 43.2749 54.321C43.1449 54.321 43.2749 54.321 43.5348 54.321ZM45.0942 54.321H44.9643C44.8343 54.321 44.8343 54.321 44.8343 54.191C44.8343 54.0611 44.8343 53.9311 44.8343 53.6712V53.1514C44.8343 52.7615 44.8343 52.6316 44.8343 52.6316C44.8343 52.5016 44.8343 52.5016 44.9643 52.5016C44.9643 52.5016 44.9643 52.5016 45.0942 52.5016C45.0942 52.5016 45.0942 52.5016 44.9643 52.5016C44.8343 52.5016 44.7044 52.5016 44.5744 52.5016C44.4444 52.5016 44.3145 52.5016 44.1845 52.5016H44.0546C44.0546 52.5016 44.0546 52.5016 44.1845 52.5016C44.1845 52.5016 44.3145 52.5016 44.3145 52.6316C44.3145 52.7615 44.3145 52.7615 44.3145 53.1514V53.6712C44.3145 53.9311 44.3145 54.191 44.3145 54.191C44.3145 54.321 44.3145 54.321 44.3145 54.321C44.3145 54.321 44.3145 54.321 44.1845 54.321C44.1845 54.321 44.1845 54.321 44.3145 54.321C44.4444 54.321 44.5744 54.321 44.7044 54.321C44.7044 54.321 44.9643 54.321 45.0942 54.321C45.2242 54.321 45.2242 54.321 45.0942 54.321ZM46.7836 54.321H46.6537C46.5237 54.321 46.5237 54.321 46.5237 54.191C46.5237 54.0611 46.5237 53.9311 46.5237 53.6712V53.1514C46.5237 52.7615 46.5237 52.6316 46.5237 52.6316C46.5237 52.5016 46.5237 52.5016 46.6537 52.5016C46.6537 52.5016 46.6537 52.5016 46.7836 52.5016H46.9136C46.9136 52.5016 46.9136 52.5016 46.7836 52.5016C46.6537 52.5016 46.5237 52.5016 46.3938 52.5016C46.2638 52.5016 46.1339 52.5016 46.0039 52.5016C46.0039 52.5016 46.1339 52.5016 46.1339 52.6316C46.1339 52.7615 46.1339 52.7615 46.1339 53.1514V53.6712C46.1339 53.9311 46.1339 54.191 46.1339 54.191C46.1339 54.321 46.1339 54.321 46.1339 54.321C46.1339 54.321 46.1339 54.321 46.0039 54.321H45.8739C45.8739 54.321 45.8739 54.321 46.0039 54.321C46.1339 54.321 46.2638 54.321 46.3938 54.321C46.3938 54.321 46.5237 54.321 46.7836 54.321ZM30.4094 41.5854V40.026C30.4094 39.7661 30.1494 39.5062 29.8895 39.5062C29.6296 39.5062 29.3697 39.7661 29.3697 40.026V41.5854H30.4094ZM33.2684 41.5854V40.026C33.2684 39.7661 33.0084 39.5062 32.7485 39.5062C32.4886 39.5062 32.2287 39.7661 32.2287 40.026V41.5854H33.2684ZM31.319 10.5263C31.0591 10.5263 30.7992 10.7862 30.7992 11.0461C30.7992 11.306 31.0591 11.566 31.319 11.566C31.5789 11.566 31.8389 11.306 31.8389 11.0461C31.8389 10.7862 31.5789 10.5263 31.319 10.5263ZM31.0591 25.8609H31.5789V24.6914H31.0591V25.8609ZM25.731 55.7505C25.4711 55.7505 25.2112 56.0104 25.2112 56.2703C25.2112 56.5302 25.4711 56.7901 25.731 56.7901C25.9909 56.7901 26.2508 56.5302 26.2508 56.2703C26.2508 56.0104 26.1209 55.7505 25.731 55.7505ZM25.4711 25.8609V24.1715C25.4711 23.7817 25.2112 23.5218 24.9513 23.3918C24.6914 23.5218 24.4314 23.7817 24.4314 24.1715V25.8609H25.4711ZM25.4711 20.143V18.9734C25.4711 18.5835 25.2112 18.3236 24.9513 18.1936C24.6914 18.3236 24.4314 18.5835 24.4314 18.9734V20.143H25.4711ZM25.2112 31.8389V30.4094C25.2112 30.2794 25.0812 30.1494 24.9513 30.1494C24.8213 30.1494 24.6914 30.2794 24.6914 30.4094V31.8389H25.2112ZM25.2112 36.2573V34.8278C25.2112 34.6979 25.0812 34.5679 24.9513 34.5679C24.8213 34.5679 24.6914 34.6979 24.6914 34.8278V36.2573H25.2112ZM25.3411 41.1956V39.896C25.3411 39.6361 25.2112 39.5062 24.9513 39.5062C24.6914 39.5062 24.5614 39.7661 24.5614 39.896V41.1956H25.3411ZM24.9513 4.41845C24.6914 4.41845 24.4314 4.67836 24.4314 4.93827C24.4314 5.19818 24.6914 5.45809 24.9513 5.45809C25.2112 5.45809 25.4711 5.19818 25.4711 4.93827C25.4711 4.67836 25.2112 4.41845 24.9513 4.41845ZM38.2066 25.8609V24.1715C38.2066 23.7817 37.9467 23.5218 37.6868 23.3918C37.4269 23.5218 37.167 23.7817 37.167 24.1715V25.8609H38.2066ZM38.2066 20.143V18.9734C38.2066 18.5835 37.9467 18.3236 37.6868 18.1936C37.4269 18.3236 37.167 18.5835 37.167 18.9734V20.143H38.2066ZM37.9467 31.8389V30.4094C37.9467 30.2794 37.8168 30.1494 37.6868 30.1494C37.5569 30.1494 37.4269 30.2794 37.4269 30.4094V31.8389H37.9467ZM37.9467 36.2573V34.8278C37.9467 34.6979 37.8168 34.5679 37.6868 34.5679C37.5569 34.5679 37.4269 34.6979 37.4269 34.8278V36.2573H37.9467ZM38.0767 41.1956V39.896C38.0767 39.6361 37.9467 39.5062 37.6868 39.5062C37.4269 39.5062 37.2969 39.7661 37.2969 39.896V41.1956H38.0767ZM37.6868 4.41845C37.4269 4.41845 37.167 4.67836 37.167 4.93827C37.167 5.19818 37.4269 5.45809 37.6868 5.45809C37.9467 5.45809 38.2066 5.19818 38.2066 4.93827C38.2066 4.67836 37.9467 4.41845 37.6868 4.41845ZM128.525 20.7927C128.525 21.1826 128.525 21.7024 128.395 22.0923H121.118C121.118 24.3015 122.157 25.3411 124.366 25.3411C125.536 25.3411 126.706 25.0812 127.745 24.5614L128.005 26.9006C126.706 27.4204 125.276 27.6803 123.847 27.6803C120.208 27.6803 118.129 25.861 118.129 21.7024C118.129 18.1936 120.078 15.4646 123.587 15.4646M123.457 17.8038C122.157 17.8038 121.378 18.7134 121.248 20.143H125.536C125.536 18.7134 124.756 17.8038 123.457 17.8038ZM150.617 14.425C149.578 14.425 148.798 13.6452 148.798 12.6056C148.798 11.566 149.578 10.7862 150.617 10.7862C151.657 10.7862 152.437 11.566 152.437 12.6056C152.437 13.5153 151.657 14.425 150.617 14.425ZM149.058 27.5504V15.8545H152.047V27.5504H149.058ZM159.714 27.6803C157.115 27.6803 156.335 26.7706 156.335 24.0416V18.1936H154.386V15.8545H156.335V12.2157L159.324 11.436V15.8545H162.183V18.1936H159.324V23.2619C159.324 24.8213 159.714 25.2112 160.754 25.2112C161.274 25.2112 161.793 25.0812 162.183 25.0812V27.5504C161.274 27.6803 160.494 27.6803 159.714 27.6803ZM0 31.319C0 14.0351 14.0351 0 31.319 0C48.603 0 62.6381 14.0351 62.6381 31.319C62.6381 48.603 48.603 62.6381 31.319 62.6381C14.0351 62.6381 0 48.603 0 31.319ZM9.74659 9.74659C4.15854 15.3346 0.779727 22.872 0.779727 31.319C0.779727 39.7661 4.15854 47.4334 9.74659 52.8915C15.3346 58.4795 22.872 61.8583 31.319 61.8583C39.7661 61.8583 47.4334 58.4795 52.8915 52.8915C58.4795 47.3034 61.8583 39.7661 61.8583 31.319C61.8583 22.872 58.4795 15.2047 52.8915 9.74659C47.3034 4.15854 39.7661 0.779727 31.319 0.779727C22.872 0.779727 15.2047 4.15854 9.74659 9.74659ZM31.8389 50.9422H32.0988V50.5523H31.449V51.5919H31.8389V50.9422ZM31.319 2.07927C15.2047 2.07927 2.07927 15.0747 2.07927 31.319C2.07927 47.4334 15.2047 60.5588 31.319 60.5588C47.4334 60.5588 60.5588 47.4334 60.5588 31.319C60.5588 15.0747 47.4334 2.07927 31.319 2.07927ZM28.0702 56.1404H26.7706V56.5302H28.0702V59.7791C21.4425 58.9994 15.4646 56.0104 11.0461 51.5919C10.3964 50.9422 9.74659 50.2924 9.22677 49.5127C9.35672 48.8629 10.0065 48.2131 10.6563 48.2131C11.436 48.2131 12.2157 48.8629 12.2157 49.7726V51.2021H14.165V49.7726C14.165 48.9929 14.8148 48.2131 15.7245 48.2131C16.6342 48.2131 17.284 48.8629 17.284 49.7726V51.2021H19.2333V49.7726C19.2333 48.9929 19.883 48.2131 20.7927 48.2131C21.5725 48.2131 22.3522 48.8629 22.3522 49.7726V51.2021H24.3015V49.7726C24.3015 48.9929 24.9513 48.2131 25.8609 48.2131C26.6407 48.2131 27.4204 48.8629 27.4204 49.7726V51.2021H28.59L28.0702 56.1404ZM33.5283 59.909C32.7485 59.909 32.0988 60.039 31.319 60.039C30.5393 60.039 29.8895 60.039 29.1098 59.909L28.59 56.5302H29.2398C29.1098 56.1404 28.8499 55.4906 28.7199 55.2307C28.59 54.8408 28.7199 54.5809 28.9799 54.4509C29.2398 54.321 29.4997 54.4509 29.6296 54.8408L29.8895 55.8804H30.2794V56.5302V56.6602H29.3697V57.18H30.7992V56.6602H32.4886V56.0104H32.8785L33.1384 54.9708C33.2684 54.5809 33.5283 54.4509 33.7882 54.5809C34.0481 54.7108 34.178 54.9708 34.0481 55.3606C34.0481 55.4906 33.9181 55.6205 33.7882 55.8804L33.3983 56.7901H32.3587V57.18H33.6582L33.9181 56.6602H34.0481L33.5283 59.909ZM30.4094 50.2924H32.2287C32.3587 50.4224 32.4886 50.9422 32.6186 51.0721C32.7485 51.2021 32.7485 51.462 32.6186 51.5919C32.4886 51.8519 32.3587 51.7219 32.2287 51.7219C32.0988 52.1118 31.7089 52.3717 31.319 52.3717C30.9292 52.3717 30.5393 52.1118 30.4094 51.7219C30.2794 51.7219 30.1494 51.7219 30.0195 51.5919C29.8895 51.462 30.0195 51.2021 30.0195 51.0721C30.1494 50.8122 30.2794 50.4224 30.4094 50.2924ZM30.1494 48.3431L30.6693 49.1228L31.319 47.9532L31.9688 49.1228L32.4886 48.3431L32.2287 49.7726H30.2794L30.1494 48.3431ZM30.7992 52.5016C30.9292 52.8915 31.319 53.1514 31.7089 53.1514C32.2287 53.1514 32.6186 52.8915 32.6186 52.3717C32.8785 52.3717 33.1384 52.5016 33.5283 52.7615C33.7882 53.0214 33.9181 53.4113 33.9181 53.5413H28.59C28.59 53.2814 28.7199 52.8915 28.9799 52.7615C29.6296 52.2417 30.2794 52.3717 30.7992 52.5016ZM33.0084 53.9311C32.7485 54.7108 32.0988 55.2307 31.319 55.2307C30.5393 55.2307 29.7596 54.7108 29.6296 53.9311H33.0084ZM51.5919 51.5919C47.0435 56.0104 41.1956 59.1293 34.5679 59.7791V56.5302H35.7375C37.9467 56.5302 39.6361 56.4003 39.6361 56.4003C39.6361 56.4003 37.9467 56.1404 35.7375 56.1404H34.5679V51.332H35.9974V49.9025C35.9974 49.1228 36.6472 48.3431 37.5569 48.3431C38.3366 48.3431 39.1163 48.9929 39.1163 49.9025V51.332H41.0656V49.9025C41.0656 49.1228 41.7154 48.3431 42.6251 48.3431C43.5348 48.3431 44.1845 48.9929 44.1845 49.9025V51.332H46.1339V49.9025C46.1339 49.1228 46.7836 48.3431 47.6933 48.3431C48.603 48.3431 49.2528 48.9929 49.2528 49.9025V51.332H50.6823V49.9025C50.6823 49.1228 51.332 48.3431 52.2417 48.3431C52.8915 48.3431 53.4113 48.7329 53.6712 49.3827C53.0214 50.1624 52.3717 50.9422 51.5919 51.5919ZM53.9311 48.9929C53.5413 48.3431 52.8915 47.8233 52.1118 47.8233C50.9422 47.8233 50.0325 48.7329 50.0325 49.9025V50.5523H49.2528V49.9025C49.2528 48.7329 48.3431 47.8233 47.1735 47.8233C46.0039 47.8233 45.0942 48.7329 45.0942 49.9025V50.5523H44.3145V49.9025C44.3145 48.7329 43.4048 47.8233 42.2352 47.8233C41.0656 47.8233 40.1559 48.7329 40.1559 49.9025V50.5523H39.3762V49.9025C39.3762 48.7329 38.4665 47.8233 37.2969 47.8233C36.1274 47.8233 35.2177 48.7329 35.2177 49.9025V50.5523H34.4379C34.178 48.9929 32.8785 47.8233 31.1891 47.8233C29.4997 47.8233 28.2001 48.9929 27.9402 50.5523H27.2904V49.9025C27.2904 48.7329 26.3808 47.8233 25.2112 47.8233C24.0416 47.8233 23.1319 48.7329 23.1319 49.9025V50.5523H22.3522V49.9025C22.3522 48.7329 21.4425 47.8233 20.2729 47.8233C19.1033 47.8233 18.1936 48.7329 18.1936 49.9025V50.5523H17.4139V49.9025C17.4139 48.7329 16.5042 47.8233 15.3346 47.8233C14.165 47.8233 13.2554 48.7329 13.2554 49.9025V50.5523H12.6056V49.9025C12.6056 48.7329 11.6959 47.8233 10.5263 47.8233C9.74659 47.8233 8.96686 48.3431 8.70695 48.9929C8.18713 48.3431 7.66732 47.6933 7.27745 46.9136H55.4906C54.9708 47.5634 54.4509 48.3431 53.9311 48.9929ZM55.8804 46.1339H6.75763C6.49773 45.8739 6.36777 45.614 6.23782 45.4841H56.2703C56.1404 45.614 56.0104 45.8739 55.8804 46.1339ZM26.3808 9.22677V9.48668V9.61663C26.3808 9.74659 26.2508 9.87654 26.1209 10.1365C26.1209 10.2664 25.9909 10.3964 25.8609 10.5263C25.731 10.2664 25.601 10.1365 25.601 10.1365C25.4711 10.0065 25.3411 9.87654 25.3411 9.87654C25.0812 9.61663 25.0812 9.48668 25.0812 9.48668C25.0812 9.48668 25.0812 9.61663 24.8213 9.87654C24.6914 10.0065 24.5614 10.1365 24.5614 10.1365C24.4314 10.2664 24.4314 10.3964 24.3015 10.5263C24.1715 10.2664 24.0416 10.1365 24.0416 10.1365C23.9116 9.87654 23.7817 9.74659 23.7817 9.61663C23.7817 9.48668 23.7817 9.35672 23.7817 9.35672V9.22677H26.3808ZM23.5218 8.70695C23.5218 8.31709 23.6517 7.66732 24.0416 7.1475C24.3015 6.88759 24.5614 6.62768 24.6914 6.49773C24.8213 6.49773 24.9513 6.49773 24.9513 6.49773C24.9513 6.49773 25.0812 6.49773 25.2112 6.62768C25.3411 6.75763 25.731 7.01754 25.9909 7.27745C26.3808 7.79727 26.3808 8.44704 26.5107 8.83691H23.5218V8.70695ZM26.5107 10.3964C26.6407 10.5263 26.6407 10.6563 26.7706 10.9162C26.9006 11.1761 26.9006 11.566 26.9006 11.6959V14.9448H25.9909C25.9909 14.295 25.9909 12.6056 25.9909 11.6959C25.9909 11.436 25.9909 11.1761 26.1209 10.9162C26.2508 10.6563 26.3808 10.5263 26.5107 10.3964ZM25.601 11.6959V14.9448H24.3015C24.3015 14.0351 24.3015 11.6959 24.3015 11.6959C24.3015 11.436 24.3015 11.1761 24.4314 10.9162C24.6914 10.5263 24.9513 10.3964 24.9513 10.3964C24.9513 10.3964 25.2112 10.5263 25.3411 10.9162C25.601 11.1761 25.601 11.436 25.601 11.6959ZM23.6517 10.7862C23.7817 11.0461 23.7817 11.436 23.7817 11.566V14.8148H23.002V11.6959C23.002 11.436 23.0019 11.1761 23.1319 10.9162C23.2619 10.6563 23.3918 10.5263 23.3918 10.3964C23.5218 10.5263 23.6517 10.6563 23.6517 10.7862ZM27.5504 15.4646V16.5042H22.4821V15.4646H27.5504ZM27.5504 16.8941V20.9227H26.2508V19.1033C26.2508 18.4535 25.9909 17.9337 25.601 17.6738C25.3411 17.5439 25.2112 17.284 24.9513 17.284C24.6914 17.4139 24.4314 17.5439 24.3015 17.6738C23.9116 18.0637 23.6517 18.5835 23.6517 19.1033V20.9227H22.3522V16.8941H27.5504ZM25.8609 19.2333V21.0526H24.0416V19.2333C24.0416 18.5835 24.4314 18.0637 24.9513 17.8038C25.4711 17.9337 25.8609 18.4535 25.8609 19.2333ZM27.5504 21.4425V26.6407H26.3808V24.0416C26.3808 23.3918 26.1209 22.872 25.731 22.4821C25.4711 22.3522 25.3411 22.0923 25.0812 22.0923H24.9513H24.8213C24.5614 22.2222 24.3015 22.3522 24.0416 22.4821C23.6517 22.872 23.3918 23.3918 23.3918 24.0416V26.6407H22.2222V21.4425H27.5504ZM25.8609 24.0416V26.6407H23.9116V24.0416C23.9116 23.5218 24.0416 23.1319 24.4314 22.872C24.5614 22.742 24.6914 22.6121 24.9513 22.6121C25.0812 22.742 25.3411 22.742 25.4711 22.872C25.731 23.1319 25.8609 23.5218 25.8609 24.0416ZM27.5504 27.0305V33.2684H22.4821V27.0305H27.5504ZM27.5504 33.6582V37.6868H22.4821V33.6582H27.5504ZM27.5504 38.2066V44.9643H22.4821V38.2066C22.3522 38.2066 27.5504 38.2066 27.5504 38.2066ZM31.9688 21.4425V23.3918L31.319 22.742L30.6693 23.3918V21.5725C30.6693 21.4425 31.9688 21.4425 31.9688 21.4425ZM30.6693 20.9227L31.1891 18.7134L31.449 15.0747L31.5789 18.7134L32.0988 20.9227H30.6693ZM31.319 23.3918L34.5679 26.6407H28.0702L31.319 23.3918ZM34.5679 27.0305V29.4997H28.0702V27.0305H34.5679ZM34.5679 30.4094V33.2684H32.4886V32.4886C32.4886 31.8389 31.9688 31.319 31.319 31.319C30.6693 31.319 30.1494 31.8389 30.1494 32.4886V33.2684H28.0702V30.4094H34.5679ZM30.1494 33.6582V36.2573H32.4886V33.6582H34.5679V37.6868H28.0702V33.6582H30.1494ZM34.5679 38.2066V44.9643H28.0702V38.2066H34.5679ZM39.1163 9.22677V9.48668V9.61663C39.1163 9.74659 38.9864 9.87654 38.8564 10.1365C38.8564 10.2664 38.7264 10.3964 38.5965 10.5263C38.4665 10.2664 38.3366 10.1365 38.3366 10.1365C38.2066 10.0065 38.0767 9.87654 38.0767 9.87654C37.6868 9.61663 37.6868 9.48668 37.6868 9.48668C37.6868 9.48668 37.6868 9.61663 37.4269 9.87654C37.2969 10.0065 37.167 10.1365 37.167 10.1365C37.037 10.2664 37.037 10.3964 36.9071 10.5263C36.7771 10.2664 36.6472 10.1365 36.6472 10.1365C36.3873 9.87654 36.3873 9.74659 36.2573 9.61663C36.2573 9.48668 36.2573 9.35672 36.2573 9.35672V9.22677H39.1163ZM36.2573 8.70695C36.2573 8.31709 36.3873 7.66732 36.7771 7.1475C37.037 6.75763 37.2969 6.62768 37.5569 6.49773C37.5569 6.49773 37.5569 6.49773 37.6868 6.49773C37.6868 6.49773 37.8168 6.49773 37.9467 6.62768C38.0767 6.75763 38.4665 7.01754 38.7264 7.27745C38.9864 7.66732 38.9864 8.44704 39.1163 8.70695H36.2573ZM39.1163 10.3964C39.2463 10.5263 39.2463 10.6563 39.3762 10.9162C39.5062 11.1761 39.5062 11.566 39.5062 11.6959V14.9448H38.7264C38.7264 14.295 38.7264 12.6056 38.7264 11.6959C38.7264 11.436 38.7264 11.1761 38.8564 10.9162C38.9864 10.6563 39.1163 10.5263 39.1163 10.3964ZM38.3366 11.6959V14.9448H37.037C37.037 14.0351 37.037 11.6959 37.037 11.6959C37.037 11.436 37.037 11.1761 37.167 10.9162C37.4269 10.5263 37.6868 10.3964 37.6868 10.3964C37.6868 10.3964 37.9467 10.5263 38.0767 10.9162C38.3366 11.1761 38.3366 11.436 38.3366 11.6959ZM36.3873 10.7862C36.5172 11.0461 36.5172 11.436 36.5172 11.566V14.8148H35.7375V11.6959C35.7375 11.436 35.7375 11.1761 35.8674 10.9162C35.9974 10.7862 35.9974 10.5263 36.1274 10.3964C36.2573 10.5263 36.3873 10.6563 36.3873 10.7862ZM40.2859 15.4646V16.5042H35.0877V15.4646H40.2859ZM40.2859 16.8941V20.9227H38.9864V19.1033C38.9864 18.4535 38.7264 17.9337 38.3366 17.6738C38.0767 17.5439 37.9467 17.284 37.6868 17.284C37.4269 17.4139 37.167 17.5439 37.037 17.6738C36.6472 18.0637 36.3873 18.5835 36.3873 19.1033V20.9227H35.0877V16.8941H40.2859ZM38.5965 19.2333V21.0526H36.7771V19.2333C36.7771 18.5835 37.167 18.0637 37.6868 17.8038C38.2066 17.9337 38.5965 18.4535 38.5965 19.2333ZM40.2859 21.4425V26.6407H39.1163V24.0416C39.1163 23.3918 38.8564 22.872 38.4665 22.4821C38.2066 22.3522 38.0767 22.0923 37.8168 22.0923H37.6868H37.5569C37.2969 22.2222 37.037 22.3522 36.7771 22.4821C36.3873 22.872 36.1274 23.3918 36.1274 24.0416V26.6407H35.0877V21.4425H40.2859ZM38.5965 24.0416V26.6407H36.6472V24.0416C36.6472 23.5218 36.7771 23.1319 37.167 22.872C37.2969 22.742 37.4269 22.6121 37.6868 22.6121C37.8168 22.742 38.0767 22.742 38.2066 22.872C38.4665 23.1319 38.5965 23.5218 38.5965 24.0416ZM40.2859 27.0305V33.2684H35.0877V27.0305H40.2859ZM40.2859 33.6582V37.6868H35.0877V33.6582H40.2859ZM40.2859 38.2066V44.9643H35.0877V38.2066H40.2859ZM41.0656 44.9643V14.9448H40.4159V11.566C40.4159 11.1761 40.2859 10.9162 40.1559 10.5263C40.1559 10.3964 40.026 10.2664 40.026 10.1365V8.96686C40.026 8.96686 40.026 8.05718 39.6361 7.27745C39.2463 6.49773 38.3366 6.10786 37.9467 5.97791C37.8168 5.97791 37.8168 5.97791 37.8168 5.84795H37.6868H37.5569C37.5569 5.84795 36.9071 6.10786 36.2573 6.88759C35.7375 7.66732 35.7375 8.70695 35.7375 8.96686V9.09682V10.2664C35.6075 10.3964 35.6075 10.5263 35.4776 10.7862C35.3476 11.1761 35.3476 11.566 35.3476 11.8259V15.0747H34.6979V26.1209L32.8785 24.3015V21.1826L32.2287 19.1033L31.319 12.2157L30.6693 18.8434L30.0195 21.1826V24.0416L28.2001 25.8609V15.0747H27.5504V11.566C27.5504 11.1761 27.4204 10.9162 27.2904 10.5263C27.2904 10.3964 27.2904 10.2664 27.1605 10.1365V8.96686C27.1605 8.96686 27.1605 8.05718 26.7706 7.27745C26.3808 6.49773 25.4711 6.10786 25.0812 5.97791C24.9513 5.97791 24.9513 5.97791 24.9513 5.84795H24.8213H24.6914C24.6914 5.84795 24.0416 6.10786 23.3918 6.88759C22.872 7.66732 22.872 8.70695 22.872 8.96686V9.09682V10.2664C22.742 10.3964 22.742 10.5263 22.6121 10.7862C22.4821 11.1761 22.4821 11.566 22.4821 11.8259V15.0747H21.8324V45.2242H5.97791C3.76868 40.9357 2.59909 36.2573 2.59909 31.319C2.59909 23.3918 5.718 16.1144 11.0461 10.9162C16.2443 5.718 23.3918 2.46914 31.319 2.46914C39.2463 2.46914 46.3938 5.718 51.5919 10.9162C56.7901 16.1144 60.039 23.2619 60.039 31.1891C60.039 36.1274 58.7394 40.8057 56.5302 44.8343L41.0656 44.9643Z" fill="var(--bs-dark)"/>
</g>
<defs>
<clipPath id="clip0_36_1055">
<rect width="200.13" height="62.6381" fill="white"/>
</clipPath>
</defs>
</svg>
