<svg alt="C2DH" xmlns="http://www.w3.org/2000/svg" viewBox="0 0 205.18 99.6">
    <g class="cd2h-logo-points">
        <path id="p1" fill="#00a4e2" d="M65.72 0h14.97v14.97H65.72z"/>
        <path id="p2" fill="#7fcdea" d="M102.04 15.99h14.97v14.97h-14.97z"/>
        <path id="p3" fill="#088baa" d="M139.87 9.68h14.97v14.97h-14.97z"/>
        <path id="p4" fill="#25bdef" d="M175.62 17.56h14.97v14.97h-14.97z"/>
        <path id="p5" fill="#0098c6" d="M165.9 39.42h14.97v14.97H165.9z"/>
        <path id="p6" fill="#e41f18" d="M190.21 62.76h14.97v14.97h-14.97z"/>
        <path id="p7" fill="#b7e1ef" d="M166.4 72.9h14.97v14.97H166.4z"/>
    </g>
    <path fill="#00a4e2" d="M0 41.07h150.2V99.6H0z"/>
    <path class="cls-8" fill="#fff" d="M38.54 90.65a20.32 20.32 0 0 1-9.56 2.17 18.93 18.93 0 0 1-7.3-1.48 20.27 20.27 0 0 1-10.93-10.79 21.38 21.38 0 0 1-1.73-8.75 22.45 22.45 0 0 1 1.51-8.25 20.59 20.59 0 0 1 4.18-6.69 19.2 19.2 0 0 1 6.38-4.46 20.08 20.08 0 0 1 8.11-1.62 20.67 20.67 0 0 1 9.06 1.73 18.23 18.23 0 0 1 6 4.63l-4.13 3.68a15.51 15.51 0 0 0-4.79-3.37 14.58 14.58 0 0 0-6-1.2 14.3 14.3 0 0 0-5.6 1.11 14.13 14.13 0 0 0-4.63 3.12 14.52 14.52 0 0 0-3.12 4.85 16.9 16.9 0 0 0-1.14 6.36 16.43 16.43 0 0 0 1.34 6.89 15.25 15.25 0 0 0 3.43 4.88 14.22 14.22 0 0 0 4.63 2.93 13.56 13.56 0 0 0 4.88 1 16.34 16.34 0 0 0 6.11-1.32 15.1 15.1 0 0 0 5.8-4.35l4 3.46a18.06 18.06 0 0 1-6.5 5.47zM48.7 73.59l10.27-13a6.86 6.86 0 0 0 1.3-2.21 5.83 5.83 0 0 0 .26-1.56 4.23 4.23 0 0 0-.46-2.08 3.85 3.85 0 0 0-1.12-1.28 4.32 4.32 0 0 0-1.43-.67 5.54 5.54 0 0 0-1.35-.19 5 5 0 0 0-2 .37 3.78 3.78 0 0 0-1.38 1 4 4 0 0 0-.78 1.48 6.3 6.3 0 0 0-.24 1.76h-3.13a8.84 8.84 0 0 1 .58-3.33 6.83 6.83 0 0 1 1.61-2.42A6.65 6.65 0 0 1 53.24 50a8.87 8.87 0 0 1 3-.49 9.76 9.76 0 0 1 2.8.41 6.93 6.93 0 0 1 2.44 1.28 6.53 6.53 0 0 1 1.74 2.26 7.7 7.7 0 0 1 .67 3.36 8.23 8.23 0 0 1-.46 2.6 8.88 8.88 0 0 1-1.59 2.76l-6.79 8.35h9.46v3.09zM102.45 71.69a21.12 21.12 0 0 1-1.51 8 18.48 18.48 0 0 1-4.38 6.5 21 21 0 0 1-7 4.38 25.51 25.51 0 0 1-9.37 1.62h-9.85v-40.7h10.37a25.3 25.3 0 0 1 9.25 1.59 19.58 19.58 0 0 1 6.83 4.35 18.7 18.7 0 0 1 4.21 6.44 21.25 21.25 0 0 1 1.45 7.82zm-5.8.06a15.22 15.22 0 0 0-1.14-5.88 14.81 14.81 0 0 0-3.23-4.85 15.39 15.39 0 0 0-5-3.32 17.17 17.17 0 0 0-6.63-1.23h-4.68v30.66h3.62a20.23 20.23 0 0 0 7.75-1.34 15.46 15.46 0 0 0 5.32-3.51 13.58 13.58 0 0 0 3.07-4.93 16.7 16.7 0 0 0 .93-5.6zM134.24 92.15V74.64h-19.52v17.51h-5.58v-40.7h5.58v17.9h19.52v-17.9h5.58v40.7z"/>
</svg>
