<?xml version="1.0" encoding="utf-8"?>
<!-- Generator: Adobe Illustrator 16.0.4, SVG Export Plug-In . SVG Version: 6.00 Build 0)  -->
<!DOCTYPE svg PUBLIC "-//W3C//DTD SVG 1.1//EN" "http://www.w3.org/Graphics/SVG/1.1/DTD/svg11.dtd">
<svg version="1.1" id="Calque_1" xmlns="http://www.w3.org/2000/svg" xmlns:xlink="http://www.w3.org/1999/xlink" x="0px" y="0px"
	 width="219px" height="32px" viewBox="311.445 281.64 219 32" enable-background="new 311.445 281.64 219 32" xml:space="preserve"
	>
<g id="logo">
	<path id="Fill-2" fill="#94172A" d="M341.703,303.698l-0.571,8.96h-25.82v-0.31c0.75-0.042,2.637-0.221,3.25-0.482
		c1.054-0.398,1.364-1.185,1.364-2.155v-23.974c0-0.965-0.262-1.715-1.364-2.197c-0.791-0.352-2.458-0.524-3.25-0.571v-0.303h14.973
		v0.303c-0.792,0.047-2.369,0.089-3.161,0.351c-1.096,0.351-1.363,1.232-1.363,2.197v22.701c0,3.513,0.792,3.905,4.959,3.905
		c2.68,0,5.096-0.089,6.061-1.054c1.363-1.405,3.822-5.661,4.566-7.376L341.703,303.698"/>
	<path id="Fill-3" fill="#94172A" d="M342.175,312.658v-0.31c1.011-0.042,2.679-0.262,3.292-0.482
		c1.054-0.352,1.363-1.096,1.363-2.065v-24.064c0-0.965-0.268-1.798-1.363-2.197c-0.792-0.31-2.328-0.524-3.292-0.571v-0.303h24.813
		v7.287h-0.44c-0.572-1.976-3.381-6.323-5.447-6.585c-1.054-0.13-2.768-0.219-4.126-0.219h-4.304v13.704h3.685
		c2.465,0,3.25-0.792,3.78-1.363c0.792-0.744,1.667-3.292,1.846-4.436h0.435v12.342h-0.441c-0.137-1.315-1.232-3.995-1.846-4.656
		c-0.571-0.66-1.404-1.363-3.78-1.363h-3.686v10.888c0,3.43,0.744,3.864,4.966,3.864c2.762,0,5.703,0.042,6.763-1.012
		c1.536-1.584,3.864-5.798,4.524-7.245h0.393l-0.571,8.781L342.175,312.658"/>
	<path id="Fill-4" fill="#94172A" d="M406.829,290.523h-0.393c-0.53-1.935-3.203-6.894-5.096-7.156
		c-1.012-0.13-2.287-0.179-3.382-0.179h-1.935v26.392c0,0.965,0.351,1.756,1.363,2.197c0.524,0.22,2.769,0.529,3.555,0.571v0.31
		h-15.676v-0.31c0.792-0.042,2.989-0.262,3.554-0.482c1.054-0.398,1.364-1.232,1.364-2.197v-26.481h-1.888
		c-1.012,0-2.417,0.042-3.382,0.179c-1.887,0.262-4.614,5.221-5.138,7.156h-0.393v-7.858h27.445V290.523"/>
	<path id="Fill-5" fill="#94172A" d="M407.734,312.658v-0.31c1.012-0.042,2.679-0.262,3.298-0.482
		c1.054-0.352,1.357-1.096,1.357-2.065v-24.064c0-0.965-0.262-1.798-1.363-2.197c-0.792-0.31-2.328-0.524-3.298-0.571v-0.303h24.814
		v7.287h-0.441c-0.57-1.976-3.381-6.323-5.447-6.585c-1.053-0.13-2.768-0.219-4.125-0.219h-4.305v13.704h3.686
		c2.465,0,3.25-0.792,3.781-1.363c0.791-0.744,1.666-3.292,1.846-4.436h0.439v12.342h-0.439c-0.131-1.315-1.227-3.995-1.84-4.656
		c-0.572-0.66-1.406-1.363-3.781-1.363h-3.686v10.888c0,3.43,0.744,3.864,4.959,3.864c2.77,0,5.709,0.042,6.764-1.012
		c1.535-1.584,3.863-5.798,4.525-7.245h0.393l-0.572,8.781L407.734,312.658"/>
	<path id="Fill-6" fill="#94172A" d="M474.913,312.658h-15.455v-0.31c0.742-0.042,3.029-0.221,3.643-0.524
		c1.012-0.523,1.404-1.232,1.404-2.238v-24.462l-11.066,27.052h-0.791c-0.441-1.363-1.537-4.525-2.24-6.102l-8.869-20.29v19.891
		c0,3.381,0.486,4.959,1.451,5.793c0.744,0.613,3.645,0.833,4.436,0.875v0.31h-12.031v-0.31c0.744-0.09,2.982-0.09,4.035-0.834
		c1.014-0.744,1.406-2.459,1.406-5.798v-17.998c0-1.798-0.441-3.031-1.316-3.733c-1.053-0.833-2.721-0.964-3.904-1.012v-0.303
		h10.668l9.621,21.605l7.328-17.873c0.66-1.578,0.924-3.25,0.965-3.732h10.674v0.303c-0.791,0.047-2.416,0.268-3.201,0.53
		c-1.096,0.351-1.363,1.185-1.363,2.155v23.933c0,0.965,0.352,1.673,1.363,2.155c0.482,0.262,2.41,0.571,3.25,0.613L474.913,312.658
		"/>
	<path id="Fill-7" fill="#94172A" d="M490.427,299.174h-2.768v10.495c0,0.965,0.309,1.799,1.363,2.197
		c0.523,0.221,2.238,0.44,3.34,0.482v0.31H477.21v-0.31c0.793-0.042,2.68-0.262,3.252-0.482c1.053-0.398,1.357-1.185,1.357-2.155
		v-23.974c0-0.965-0.262-1.798-1.357-2.197c-0.965-0.352-2.549-0.524-3.342-0.571v-0.303h15.242c6.191,0,10.186,2.5,10.186,7.287
		C502.548,296.191,496.577,299.174,490.427,299.174L490.427,299.174z M489.945,283.236h-2.285v15.324h1.535
		c5.621,0,6.805-4.614,6.805-7.555C496.007,287.183,494.65,283.236,489.945,283.236z"/>
	<path id="Fill-8" fill="#94172A" d="M515.95,313.271c-4.436,0-7.377-1.405-8.828-2.37l-1.453,2.155h-0.441l-0.262-10.627h0.393
		c2.148,5.621,5.316,10.276,10.406,10.276c4.174,0,5.93-2.94,5.93-6.103c0-2.632-1.756-4.614-4.697-5.704
		c-2.238-0.881-3.994-1.451-5.971-2.285c-3.555-1.537-5.268-4.305-5.268-8.127c0-4.697,3.861-8.478,9.572-8.478
		c3.465,0,6.363,1.096,7.857,2.197l1.363-1.977h0.441l0.178,10.187h-0.393c-1.666-5.138-4.303-9.835-9.352-9.835
		c-2.77,0-5.096,2.107-5.096,5.22c0,2.638,1.445,4.347,4.477,5.71c1.977,0.923,4.125,1.494,5.84,2.239
		c3.602,1.625,5.93,3.601,5.93,8.251C526.577,309.359,522.142,313.271,515.95,313.271"/>
</g>
</svg>
