<svg id="Layer_1" data-name="Layer 1" xmlns="http://www.w3.org/2000/svg" viewBox="0 0 218 199"><defs><style>.cls-1,.cls-2,.cls-3,.cls-4{fill:none;stroke-width:0.81px;}.cls-1,.cls-2,.cls-3,.cls-4,.cls-5{stroke:#000;}.cls-1,.cls-4{stroke-linecap:round;}.cls-1,.cls-2{stroke-linejoin:round;}.cls-3,.cls-4,.cls-5{stroke-miterlimit:10;}.cls-5{stroke-width:0.4px;}</style></defs><title>Artboard 1</title><path d="M57.57,65.36l1.3-.22V56.39l-1.44-.45V54l4.24-.55h.06l.63.53v1.36a4.58,4.58,0,0,1,1-.73A9.4,9.4,0,0,1,64.62,54a9.71,9.71,0,0,1,1.32-.39,5.56,5.56,0,0,1,1.17-.14,4.44,4.44,0,0,1,2.11.43,2.76,2.76,0,0,1,1.21,1.34,6.08,6.08,0,0,1,.89-.67A7.61,7.61,0,0,1,72.44,54a7.41,7.41,0,0,1,1.26-.39A6.2,6.2,0,0,1,75,53.51a4.91,4.91,0,0,1,1.84.31,2.71,2.71,0,0,1,1.21.94,4.28,4.28,0,0,1,.66,1.63,11.59,11.59,0,0,1,.21,2.33v6.43l1.47.22v1.51H74V65.36l1.09-.23V58.8A9.84,9.84,0,0,0,75,57.37a2.6,2.6,0,0,0-.31-1,1.31,1.31,0,0,0-.59-.54,2.3,2.3,0,0,0-.94-.17,2.62,2.62,0,0,0-.64.08,5,5,0,0,0-.63.2,4.27,4.27,0,0,0-.58.28l-.49.31a9.59,9.59,0,0,1,.12,1q0,.53,0,1.14v6.41l1.43.23v1.51H65.84V65.36l1.24-.23V58.72A10.72,10.72,0,0,0,67,57.33a2.51,2.51,0,0,0-.29-.93,1.27,1.27,0,0,0-.57-.53,2.18,2.18,0,0,0-.92-.17,2.92,2.92,0,0,0-.72.09,3.84,3.84,0,0,0-.68.24,4.88,4.88,0,0,0-.6.33,3.64,3.64,0,0,0-.49.38v8.39l1.35.23v1.51H57.57Z"/><path d="M83.14,70.85V56.39l-1.43-.44V54.07l4.17-.51h.06l.63.48v1.18a5.21,5.21,0,0,1,.63-.61,4.75,4.75,0,0,1,.85-.55,5.13,5.13,0,0,1,1-.4,4.75,4.75,0,0,1,1.23-.15,5.69,5.69,0,0,1,2,.35A4.32,4.32,0,0,1,94,55a5.44,5.44,0,0,1,1.13,2,8.87,8.87,0,0,1,.42,2.89,7.84,7.84,0,0,1-.46,2.69,6.43,6.43,0,0,1-3.59,3.8,7.61,7.61,0,0,1-3.06.58,5.56,5.56,0,0,1-.87-.07,5.45,5.45,0,0,1-.72-.15l.07,2v2.12l2.09.31V72.7H81.63V71.15Zm3.76-6.06a1.3,1.3,0,0,0,.59.36,2.92,2.92,0,0,0,1,.16A2.56,2.56,0,0,0,89.63,65a2.47,2.47,0,0,0,1-.87,4.9,4.9,0,0,0,.65-1.58,10.63,10.63,0,0,0,.25-2.41,9.28,9.28,0,0,0-.18-2.08,4.43,4.43,0,0,0-.55-1.42,2.3,2.3,0,0,0-.83-.82,2.17,2.17,0,0,0-1.06-.26,2.27,2.27,0,0,0-.62.08,3,3,0,0,0-.55.21,2.66,2.66,0,0,0-.8.64Z"/><path d="M97.36,65.38l1.55-.21V56.39l-1.42-.47V54.07l3.93-.54h.06l.69.52v.68l-.06,1.85h.06a3.09,3.09,0,0,1,.25-.54,4.92,4.92,0,0,1,.45-.66,6,6,0,0,1,.63-.67,5.12,5.12,0,0,1,.81-.6,4.5,4.5,0,0,1,1-.43,3.61,3.61,0,0,1,1.1-.16,2.5,2.5,0,0,1,.55.05,1.16,1.16,0,0,1,.37.14v4.1a2.87,2.87,0,0,0-.81-.48,3,3,0,0,0-1.07-.16,5.31,5.31,0,0,0-1.64.23,3.17,3.17,0,0,0-1.06.53v7.24l2.77.23v1.49H97.36Z"/><path d="M108.59,60.24a8,8,0,0,1,.47-2.83,5.9,5.9,0,0,1,1.33-2.11A5.82,5.82,0,0,1,112.46,54a7.42,7.42,0,0,1,2.67-.46,5.55,5.55,0,0,1,3.81,1.17,4.37,4.37,0,0,1,1.37,3.3q0,.74,0,1.3a7.16,7.16,0,0,1-.14,1h-7.58a7.18,7.18,0,0,0,.35,1.92,3.92,3.92,0,0,0,.74,1.32,2.82,2.82,0,0,0,1.07.76,3.56,3.56,0,0,0,1.35.25,5.16,5.16,0,0,0,1-.09,7.72,7.72,0,0,0,.94-.24,7.49,7.49,0,0,0,.83-.32,6.46,6.46,0,0,0,.65-.34l.68,1.46a4.2,4.2,0,0,1-.81.65,7.54,7.54,0,0,1-1.21.62,9.91,9.91,0,0,1-1.49.47,7.09,7.09,0,0,1-1.63.19,7.71,7.71,0,0,1-2.9-.49,5.22,5.22,0,0,1-2-1.37,5.51,5.51,0,0,1-1.14-2.1A9.37,9.37,0,0,1,108.59,60.24Zm8-1.59c0-.11,0-.25,0-.42s0-.31,0-.42a5.86,5.86,0,0,0-.09-1.06,2.39,2.39,0,0,0-.3-.83,1.52,1.52,0,0,0-.57-.55,1.83,1.83,0,0,0-.89-.2,2.52,2.52,0,0,0-.85.14,1.49,1.49,0,0,0-.69.53,3,3,0,0,0-.47,1.06,7.87,7.87,0,0,0-.2,1.75Z"/><path d="M122.3,62.85h2.25l.6,1.74a.91.91,0,0,0,.29.27,2.67,2.67,0,0,0,.5.24,3.65,3.65,0,0,0,.63.17,3.83,3.83,0,0,0,.68.06,3.16,3.16,0,0,0,.92-.12,1.7,1.7,0,0,0,.62-.32,1.18,1.18,0,0,0,.34-.47,1.51,1.51,0,0,0,.11-.56,1.15,1.15,0,0,0-.28-.76,3,3,0,0,0-.77-.63,10.15,10.15,0,0,0-1.18-.59l-1.5-.66a9.51,9.51,0,0,1-1.39-.72,4.3,4.3,0,0,1-1-.87,3.49,3.49,0,0,1-.62-1.09,4.11,4.11,0,0,1-.21-1.36,3,3,0,0,1,.36-1.46,3.43,3.43,0,0,1,1.05-1.16,5.45,5.45,0,0,1,1.67-.77,8.22,8.22,0,0,1,2.24-.28,11.45,11.45,0,0,1,1.59.1q.7.1,1.24.22t1,.24a5.78,5.78,0,0,0,.71.16v3.08H130l-.61-1.64a1.14,1.14,0,0,0-.55-.42,2.64,2.64,0,0,0-1.1-.2,2.29,2.29,0,0,0-1.47.39,1.22,1.22,0,0,0-.48,1,1.25,1.25,0,0,0,.26.79,2.53,2.53,0,0,0,.69.59,6.58,6.58,0,0,0,1,.49l1.14.47q.77.33,1.51.7a6.52,6.52,0,0,1,1.3.86,4,4,0,0,1,.92,1.14,3.21,3.21,0,0,1,.35,1.54,3.53,3.53,0,0,1-.33,1.5,3.36,3.36,0,0,1-1,1.23,5.06,5.06,0,0,1-1.71.83,8.78,8.78,0,0,1-2.45.3,11.14,11.14,0,0,1-1.71-.12q-.79-.12-1.44-.28t-1.16-.32l-.83-.25Z"/><path d="M135,62.85h2.25l.6,1.74a.9.9,0,0,0,.29.27,2.61,2.61,0,0,0,.5.24,3.7,3.7,0,0,0,.63.17,3.81,3.81,0,0,0,.68.06,3.14,3.14,0,0,0,.92-.12,1.7,1.7,0,0,0,.62-.32,1.19,1.19,0,0,0,.34-.47,1.52,1.52,0,0,0,.11-.56,1.15,1.15,0,0,0-.28-.76,3,3,0,0,0-.77-.63,10,10,0,0,0-1.18-.59l-1.5-.66a9.55,9.55,0,0,1-1.39-.72,4.33,4.33,0,0,1-1-.87,3.5,3.5,0,0,1-.62-1.09,4.08,4.08,0,0,1-.21-1.36,3,3,0,0,1,.36-1.46,3.4,3.4,0,0,1,1.05-1.16,5.43,5.43,0,0,1,1.67-.77,8.22,8.22,0,0,1,2.24-.28,11.43,11.43,0,0,1,1.59.1q.7.1,1.24.22t1,.24a5.7,5.7,0,0,0,.71.16v3.08h-2.11l-.61-1.64a1.14,1.14,0,0,0-.55-.42,2.64,2.64,0,0,0-1.1-.2,2.29,2.29,0,0,0-1.47.39,1.22,1.22,0,0,0-.48,1,1.25,1.25,0,0,0,.26.79,2.57,2.57,0,0,0,.69.59,6.6,6.6,0,0,0,1,.49l1.14.47c.52.22,1,.45,1.51.7a6.44,6.44,0,0,1,1.3.86,4,4,0,0,1,.92,1.14,3.22,3.22,0,0,1,.35,1.54,3.53,3.53,0,0,1-.33,1.5,3.35,3.35,0,0,1-1,1.23,5.05,5.05,0,0,1-1.71.83,8.79,8.79,0,0,1-2.45.3,11.16,11.16,0,0,1-1.71-.12q-.79-.12-1.44-.28t-1.16-.32l-.83-.25Z"/><path d="M147.15,60.28a7.43,7.43,0,0,1,.55-3,6,6,0,0,1,1.48-2.12,6.19,6.19,0,0,1,2.15-1.26,7.7,7.7,0,0,1,2.54-.42,7.5,7.5,0,0,1,2.7.46,5.4,5.4,0,0,1,2,1.31,5.76,5.76,0,0,1,1.25,2.08,8.25,8.25,0,0,1,.43,2.76,7.6,7.6,0,0,1-.55,3,5.84,5.84,0,0,1-3.63,3.34,8.06,8.06,0,0,1-2.55.4,7.5,7.5,0,0,1-2.7-.46,5.39,5.39,0,0,1-2-1.31A5.72,5.72,0,0,1,147.58,63,8.22,8.22,0,0,1,147.15,60.28Zm6.6,4.93A1.89,1.89,0,0,0,155.54,64a8.61,8.61,0,0,0,.58-3.66,16.93,16.93,0,0,0-.13-2.23,6,6,0,0,0-.42-1.63,2.48,2.48,0,0,0-.75-1,1.83,1.83,0,0,0-1.13-.34,1.94,1.94,0,0,0-1.82,1.16,8.4,8.4,0,0,0-.6,3.65,15.7,15.7,0,0,0,.14,2.23,6.09,6.09,0,0,0,.44,1.63,2.46,2.46,0,0,0,.77,1A1.85,1.85,0,0,0,153.75,65.21Z"/><circle cx="52.77" cy="47.94" r="2.42"/><path d="M67.58,38.65a5.29,5.29,0,0,1-1.6,4,8.58,8.58,0,0,1-2.71,1.66,22.18,22.18,0,0,1-3.87,1.23q-2,.45-3,.64t-1.64.27a.55.55,0,0,1-.59-.59q.09-.64.3-1.64t.68-3a23.87,23.87,0,0,1,1.24-3.85A8.41,8.41,0,0,1,58,34.61a5.31,5.31,0,0,1,4-1.61,5.47,5.47,0,0,1,4,1.66A5.57,5.57,0,0,1,67.58,38.65Zm-9.18,6.06a29.27,29.27,0,0,0,3.78-1.14,8.6,8.6,0,0,0,3.07-1.68,4.3,4.3,0,0,0,1.31-3.24,4.58,4.58,0,0,0-1.4-3.26A4.48,4.48,0,0,0,61.93,34a4.32,4.32,0,0,0-3.23,1.32,8.57,8.57,0,0,0-1.66,3,31,31,0,0,0-1.15,3.76q-.35,1.58-.63,3.13Q56.82,45,58.41,44.71Z"/><line class="cls-1" x1="65.49" y1="42.53" x2="60.73" y2="37.77"/><line class="cls-2" x1="60.76" y1="44.59" x2="56" y2="39.83"/><path class="cls-3" d="M63,33.2c-1.18,4.3-2.22,5.38-6.8,6.8"/><path class="cls-4" d="M61.08,40A12.14,12.14,0,0,1,59,41"/><path class="cls-4" d="M63.94,36.1a9.94,9.94,0,0,1-.87,2"/><path class="cls-4" d="M62.42,41.51a12.52,12.52,0,0,1-2,.88"/><path class="cls-4" d="M65.38,37.53a10,10,0,0,1-.87,2"/><path class="cls-5" d="M67.58,38.65a5.29,5.29,0,0,1-1.6,4,8.58,8.58,0,0,1-2.71,1.66,22.18,22.18,0,0,1-3.87,1.23q-2,.45-3,.64t-1.64.27a.55.55,0,0,1-.59-.59q.09-.64.3-1.64t.68-3a23.87,23.87,0,0,1,1.24-3.85A8.41,8.41,0,0,1,58,34.61a5.31,5.31,0,0,1,4-1.61,5.47,5.47,0,0,1,4,1.66A5.57,5.57,0,0,1,67.58,38.65Zm-9.18,6.06a29.27,29.27,0,0,0,3.78-1.14,8.6,8.6,0,0,0,3.07-1.68,4.3,4.3,0,0,0,1.31-3.24,4.58,4.58,0,0,0-1.4-3.26A4.48,4.48,0,0,0,61.93,34a4.32,4.32,0,0,0-3.23,1.32,8.57,8.57,0,0,0-1.66,3,31,31,0,0,0-1.15,3.76q-.35,1.58-.63,3.13Q56.82,45,58.41,44.71Z"/><line class="cls-1" x1="65.49" y1="42.53" x2="60.73" y2="37.77"/><line class="cls-2" x1="60.76" y1="44.59" x2="56" y2="39.83"/><path class="cls-3" d="M63,33.2c-1.18,4.3-2.22,5.38-6.8,6.8"/><path class="cls-4" d="M61.08,40A12.14,12.14,0,0,1,59,41"/><path class="cls-4" d="M63.94,36.1a9.94,9.94,0,0,1-.87,2"/><path class="cls-4" d="M62.42,41.51a12.52,12.52,0,0,1-2,.88"/><path class="cls-4" d="M65.38,37.53a10,10,0,0,1-.87,2"/><path d="M55.45,66.94h-6.9V65.37l1.5-.22V53.77l.73-.52h.06l4.62.59v1.8l-1.58.48v9l1.57.23Z"/><path d="M57.77,97.12c.25-.27,2.05-4.57,2.2-4.81s2.09-4.48,2.14-4.84c0-.2.23-.22.42-.22,2.39,0,3-.05,3.2-.05s.11.05.11.13v.41c0,.11,0,.16-.14.16H64.9c-.54,0-.59.32-.59.74s-.05,3.1-.05,4.3V94.2c0,.9.05,3.82.05,4.18,0,.68.16,1,.61,1H66c.11,0,.13.05.13.13v.41c0,.11,0,.16-.16.16s-.54-.05-2.52-.05c-1.66,0-2.36.05-2.59.05s-.14-.05-.14-.16v-.41c0-.09,0-.13.14-.13h1.22c.31,0,.47-.11.5-.65,0-.22,0-3.35,0-4.68V92.87c0-1.19,0-4.39-.05-4.56h0c-.18.23-2.74,5.91-2.83,6.09s-2.11,4.81-2.18,5-.22.43-.36.43-.2-.14-.27-.32l-2.45-6c-.34-.83-2-4.86-2.23-5.08-.07.25-.11,4.81-.11,5s0,4,0,4.65c.09,1,.25,1.31.83,1.31h.9c.11,0,.13.05.13.13v.45c0,.07,0,.13-.16.13s-.68-.05-2.18-.05-2.16.05-2.32.05-.16,0-.16-.16v-.43a.09.09,0,0,1,.11-.11h1c.68,0,.85-.47,1-1.08.22-1.28.27-5.89.27-6.21s0-3,0-3.49,0-.67-.74-.67h-1.1c-.11,0-.13-.05-.13-.13v-.47c0-.05,0-.11.13-.11s.67.05,2.2.05c.85,0,1.31-.05,1.53-.05a.41.41,0,0,1,.47.31Z"/><path d="M68.73,95.21a4.62,4.62,0,0,0-.05.86c0,1.76,1.12,3.1,2.56,3.1a2.44,2.44,0,0,0,2.18-1.22.15.15,0,0,1,.16-.09l.23.13c.05,0,.09.07,0,.27a3.25,3.25,0,0,1-2.86,2,3.3,3.3,0,0,1-2.83-1.28,4.28,4.28,0,0,1-.79-2.84,4.05,4.05,0,0,1,1.13-2.86,3.33,3.33,0,0,1,2.57-1,2.68,2.68,0,0,1,2.65,2.65c0,.25-.22.29-.5.29Zm2.86-.54c.34,0,.49-.09.49-.25,0-.41-.22-1.6-1.39-1.6-.79,0-1.55.52-1.89,1.85Z"/><path d="M80.86,89c0-.68-.13-.9-1.13-1.06-.11,0-.13-.05-.13-.13v-.31c0-.07,0-.11.14-.13.7-.14,1.64-.31,2-.38.16,0,.29-.05.41-.05s.11.13.09.32c-.05.9-.07,3.51-.07,5.8v4a4.43,4.43,0,0,0,.18,1.64,1.34,1.34,0,0,0,.79.31c.25,0,.32,0,.36.13l0,.14c0,.11,0,.16-.13.2l-2,.68a.18.18,0,0,1-.23-.14l-.23-.79a4.14,4.14,0,0,1-2.65,1,2.49,2.49,0,0,1-2.12-.83A3.56,3.56,0,0,1,75,96.47a4.29,4.29,0,0,1,1.26-3.06,3.62,3.62,0,0,1,2.68-1.13,6.72,6.72,0,0,1,1.93.27Zm0,5.71a1.78,1.78,0,0,0-.16-.88,2,2,0,0,0-1.89-1,2.22,2.22,0,0,0-1.64.65,3.44,3.44,0,0,0-.83,2.39c0,2,1.4,3.51,2.45,3.51a2.13,2.13,0,0,0,2-1,1.69,1.69,0,0,0,.11-.61Z"/><path d="M85.54,94.76c0-.61-.11-.94-1-1.08-.13,0-.16-.05-.16-.13v-.16c0-.05,0-.09.13-.13a14.75,14.75,0,0,0,1.94-.88.74.74,0,0,1,.34-.11c.09,0,.11.09.09.22,0,.31,0,1.44,0,2.94v2c0,.7,0,1.35,0,1.55s.09.47.29.47H88c.14,0,.18.05.18.16v.31c0,.13,0,.18-.16.18s-1-.05-1.73-.05c-1,0-1.75.05-1.94.05s-.14,0-.14-.14v-.36c0-.11.05-.14.18-.14h.88c.2,0,.27-.07.29-.36,0-.54,0-1.1,0-1.64Zm-.81-5.49a1,1,0,0,1,1.1-.94.89.89,0,0,1,.94.88,1,1,0,0,1-1,1A1,1,0,0,1,84.73,89.27Z"/><path d="M94.56,97.86c0,1,.22,1.35.54,1.35a.83.83,0,0,0,.63-.27c.07-.09.11-.13.18-.07l.18.14c.05.05.09.14,0,.32a1.49,1.49,0,0,1-1.4.88A1.34,1.34,0,0,1,93.39,99h0a3.89,3.89,0,0,1-1.78,1.1,3.4,3.4,0,0,1-1.06.11c-.43,0-1.08-.36-1.08-1.49,0-.83.38-1.55,1.8-2.18a12,12,0,0,0,2-1V94.35a2.09,2.09,0,0,0-.25-1,1.37,1.37,0,0,0-1.08-.4,2,2,0,0,0-1.17.38c-.25.23-.09.5-.09.83,0,.63-.22,1-1,1-.29,0-.43-.16-.43-.58a2.26,2.26,0,0,1,1.24-1.69,4,4,0,0,1,2.2-.63,1.85,1.85,0,0,1,1.44.49,1.59,1.59,0,0,1,.4,1.28v3.82ZM93.25,96c-.65.49-2.41.85-2.41,2.34a.89.89,0,0,0,.94,1c.52,0,1.48-.63,1.48-1.12Z"/><path d="M57.77,120.12c.25-.27,2.05-4.57,2.2-4.81s2.09-4.48,2.14-4.84c0-.2.23-.22.42-.22,2.39,0,3-.05,3.2-.05s.11.05.11.13v.41c0,.11,0,.16-.14.16H64.9c-.54,0-.59.32-.59.74s-.05,3.1-.05,4.3v1.26c0,.9.05,3.82.05,4.18,0,.68.16,1,.61,1H66c.11,0,.13.05.13.13v.41c0,.11,0,.16-.16.16s-.54-.05-2.52-.05c-1.66,0-2.36.05-2.59.05s-.14-.05-.14-.16v-.41c0-.09,0-.13.14-.13h1.22c.31,0,.47-.11.5-.65,0-.22,0-3.35,0-4.68v-1.15c0-1.19,0-4.39-.05-4.56h0c-.18.23-2.74,5.91-2.83,6.09s-2.11,4.81-2.18,5-.22.43-.36.43-.2-.14-.27-.32l-2.45-6c-.34-.83-2-4.86-2.23-5.08-.07.25-.11,4.81-.11,5s0,4,0,4.65c.09,1,.25,1.31.83,1.31h.9c.11,0,.13.05.13.13v.45c0,.07,0,.13-.16.13s-.68-.05-2.18-.05-2.16.05-2.32.05-.16,0-.16-.16v-.43a.09.09,0,0,1,.11-.11h1c.68,0,.85-.47,1-1.08.22-1.28.27-5.89.27-6.21s0-3,0-3.49,0-.67-.74-.67h-1.1c-.11,0-.13-.05-.13-.13v-.47c0-.05,0-.11.13-.11s.67.05,2.2.05c.85,0,1.31-.05,1.53-.05a.41.41,0,0,1,.47.31Z"/><path d="M68.28,122a4,4,0,0,1,.56-5.83,3.9,3.9,0,0,1,2.41-.86,3.81,3.81,0,0,1,2.52,1A4,4,0,0,1,75,119.25a4.11,4.11,0,0,1-4,4A3.63,3.63,0,0,1,68.28,122Zm5.2-2.9c0-2-1.46-3.26-2.38-3.26a1.74,1.74,0,0,0-1.39.58,3.54,3.54,0,0,0-1,2.83,3.88,3.88,0,0,0,.68,2.52,2,2,0,0,0,1.78.94C72.6,122.68,73.48,121,73.48,119.08Z"/><path d="M83.6,122c0,.29.16.38.4.38h.58c.16,0,.2.05.2.16v.29c0,.13,0,.2-.14.2s-.68-.05-1.71-.05-1.49.05-1.62.05-.14-.05-.14-.2v-.29c0-.13.05-.16.23-.16h.52c.2,0,.34-.09.36-.41s0-1,0-1.51V118.1c0-.72,0-1.24-.52-1.62a2,2,0,0,0-1.31-.32,2.11,2.11,0,0,0-1.46.7,1.77,1.77,0,0,0-.41,1.22v3.73c0,.49.05.59.43.59h.45c.14,0,.18.05.18.18v.31c0,.11,0,.16-.13.16S78.92,123,78,123s-1.49.05-1.6.05-.13-.05-.13-.16v-.32c0-.11,0-.16.18-.16h.52c.23,0,.36-.05.36-.36v-4.21a1.11,1.11,0,0,0-.74-1.06l-.14-.07c-.13-.05-.14-.11-.14-.16v-.09c0-.09.07-.14.16-.18L78,115.4a1,1,0,0,1,.32-.13c.09,0,.13.07.14.22l.13,1.1h0a3.61,3.61,0,0,1,2.47-1.31,2.78,2.78,0,0,1,1.53.4,2.63,2.63,0,0,1,1,1.71Z"/><path d="M86.94,117.76c0-.61-.11-.94-1-1.08-.13,0-.16-.05-.16-.13v-.16c0-.05,0-.09.13-.13a14.68,14.68,0,0,0,1.94-.88.74.74,0,0,1,.34-.11c.09,0,.11.09.09.22,0,.31,0,1.44,0,2.93v2c0,.7,0,1.35,0,1.55s.09.47.29.47h.83c.14,0,.18.05.18.16v.31c0,.13,0,.18-.16.18s-1-.05-1.73-.05c-1,0-1.75.05-1.94.05s-.14,0-.14-.14v-.36c0-.11.05-.14.18-.14h.88c.2,0,.27-.07.29-.36,0-.54,0-1.1,0-1.64Zm-.81-5.49a1,1,0,0,1,1.1-.94.89.89,0,0,1,.94.88,1,1,0,0,1-1,1A1,1,0,0,1,86.13,112.27Z"/><path d="M93,120.75c0,1.35.61,1.58.94,1.58a2.59,2.59,0,0,0,1.19-.23.15.15,0,0,1,.22,0l.09.16a.14.14,0,0,1,0,.2,3,3,0,0,1-2,.72,1.84,1.84,0,0,1-1.75-1.53c0-.74.05-2.32.05-2.57v-.4c0-.32,0-1.53,0-2.29H90.6c-.16,0-.27-.07-.27-.22s.11-.2.32-.32a8.1,8.1,0,0,0,2.05-2.27.24.24,0,0,1,.25-.18c.14,0,.18.13.18.27L93,115.49h2.5c.11,0,.16.09.13.16l-.18.63c0,.09-.05.14-.16.14H93c0,.83-.05,1.69-.05,2.52Z"/><path d="M97.28,122a4,4,0,0,1,.56-5.83,3.9,3.9,0,0,1,2.41-.86,3.81,3.81,0,0,1,2.52,1,4,4,0,0,1,1.22,2.93,4.11,4.11,0,0,1-4,4A3.63,3.63,0,0,1,97.28,122Zm5.2-2.9c0-2-1.46-3.26-2.38-3.26a1.74,1.74,0,0,0-1.39.58,3.54,3.54,0,0,0-1,2.83,3.88,3.88,0,0,0,.68,2.52,2,2,0,0,0,1.78.94C101.6,122.68,102.48,121,102.48,119.08Z"/><path d="M106.37,118.21c0-.92-.14-1.1-.65-1.37l-.34-.18c-.11,0-.14-.05-.14-.13v-.11c0-.07,0-.11.14-.16l1.78-.92a.54.54,0,0,1,.25-.07c.11,0,.13.11.13.22l.09,1.24h.07a3.07,3.07,0,0,1,2.16-1.57.81.81,0,0,1,.92.79.87.87,0,0,1-.76.88,1.17,1.17,0,0,1-.52-.14,1.16,1.16,0,0,0-.59-.14,1.28,1.28,0,0,0-1.06.76,2,2,0,0,0-.18.58v3.78c0,.56.13.74.5.74H109c.11,0,.13.05.13.16v.32c0,.11,0,.16-.09.16s-.94-.05-1.91-.05-1.87.05-2,.05-.11,0-.11-.18v-.31c0-.13,0-.16.2-.16h.7c.27,0,.4-.11.4-.34,0-.59,0-1.22,0-2.16Z"/><path d="M112.77,117.76c0-.61-.11-.94-1-1.08-.13,0-.16-.05-.16-.13v-.16c0-.05,0-.09.13-.13a14.75,14.75,0,0,0,1.95-.88.74.74,0,0,1,.34-.11c.09,0,.11.09.09.22,0,.31,0,1.44,0,2.93v2c0,.7,0,1.35,0,1.55s.09.47.29.47h.83c.14,0,.18.05.18.16v.31c0,.13,0,.18-.16.18s-1-.05-1.73-.05c-1,0-1.75.05-1.94.05s-.14,0-.14-.14v-.36c0-.11.05-.14.18-.14h.88c.2,0,.27-.07.29-.36,0-.54,0-1.1,0-1.64Zm-.81-5.49a1,1,0,0,1,1.1-.94.89.89,0,0,1,.94.88,1,1,0,0,1-1,1A1,1,0,0,1,112,112.27Z"/><path d="M123.81,122c0,.29.16.38.4.38h.58c.16,0,.2.05.2.16v.29c0,.13,0,.2-.14.2s-.68-.05-1.71-.05-1.49.05-1.62.05-.14-.05-.14-.2v-.29c0-.13.05-.16.23-.16h.52c.2,0,.34-.09.36-.41s0-1,0-1.51V118.1c0-.72,0-1.24-.52-1.62a2,2,0,0,0-1.31-.32,2.11,2.11,0,0,0-1.46.7,1.77,1.77,0,0,0-.41,1.22v3.73c0,.49.05.59.43.59h.45c.14,0,.18.05.18.18v.31c0,.11,0,.16-.13.16s-.61-.05-1.57-.05-1.49.05-1.6.05-.13-.05-.13-.16v-.32c0-.11,0-.16.18-.16h.52c.23,0,.36-.05.36-.36v-4.21a1.11,1.11,0,0,0-.74-1.06l-.14-.07c-.13-.05-.14-.11-.14-.16v-.09c0-.09.07-.14.16-.18l1.55-.86a1,1,0,0,1,.32-.13c.09,0,.13.07.14.22l.13,1.1h0a3.61,3.61,0,0,1,2.47-1.31,2.78,2.78,0,0,1,1.53.4,2.63,2.63,0,0,1,1,1.71Z"/><path d="M126.49,127.32a1.63,1.63,0,0,1-.92-1.46c0-1,1-1.78,1.89-2.16v-.07a1.4,1.4,0,0,1-1.21-1.26c0-.86,1-1.48,1.62-1.71v0a2.87,2.87,0,1,1,3.67-4.3,3.19,3.19,0,0,1,1.69-.7c.59,0,.88.4.85.76a.68.68,0,0,1-.7.67.9.9,0,0,1-.63-.27.72.72,0,0,0-.38-.16,1.31,1.31,0,0,0-.58.11,3.41,3.41,0,0,1,.27,1.37,3,3,0,0,1-.67,1.94,3.22,3.22,0,0,1-3,.81c-.36.14-1,.5-1,1,0,.74.9.68,2.11.61a4.38,4.38,0,0,1,3.1.65,2.12,2.12,0,0,1,.88,1.73,2.57,2.57,0,0,1-1.21,2.21,5.41,5.41,0,0,1-3.08.85A5.63,5.63,0,0,1,126.49,127.32Zm5.94-1.85c0-1.06-.81-1.87-2.61-1.75l-1.73.13a1.93,1.93,0,0,0-1.44,1.73,1.73,1.73,0,0,0,.7,1.24,4.07,4.07,0,0,0,2.52.5C130.54,127.32,132.52,126.85,132.43,125.47Zm-1.67-7.67a2.24,2.24,0,0,0-.49-1.62,1.36,1.36,0,0,0-.86-.4,1.65,1.65,0,0,0-1.28.5,3,3,0,0,0-.65,2.12,2.24,2.24,0,0,0,.58,1.57,1.47,1.47,0,0,0,1.08.45C130.36,120.42,130.76,118.93,130.76,117.8Z"/><path d="M50.62,145a4,4,0,0,1,.56-5.83,3.9,3.9,0,0,1,2.41-.86,3.81,3.81,0,0,1,2.52,1,4,4,0,0,1,1.22,2.93,4.11,4.11,0,0,1-4,4A3.63,3.63,0,0,1,50.62,145Zm5.2-2.9c0-2-1.46-3.26-2.38-3.26a1.74,1.74,0,0,0-1.39.58,3.54,3.54,0,0,0-1,2.83,3.88,3.88,0,0,0,.68,2.52,2,2,0,0,0,1.78.94C54.94,145.68,55.82,144,55.82,142.08Z"/><path d="M59.89,139.36H58.65c-.09,0-.13,0-.09-.2l.07-.54c0-.11.07-.13.22-.13h1v-.34a5.4,5.4,0,0,1,1.21-3.75A3.87,3.87,0,0,1,64,133c.85,0,1.64.32,1.64,1a.86.86,0,0,1-.76.77,1.15,1.15,0,0,1-.5-.11,1.9,1.9,0,0,1-.43-.41,1,1,0,0,0-.83-.41,1.6,1.6,0,0,0-1.35.63c-.67.85-.63,2.41-.63,3.67v.36h2.18c.13,0,.14.11.13.18l-.09.59c0,.07-.09.09-.23.09h-2V141c0,2.12,0,3.78,0,4s.09.47.47.47h1c.16,0,.2,0,.2.14v.29c0,.14,0,.22-.13.22S62,146,60.61,146c-1,0-1.91.05-2.05.05s-.14,0-.14-.13v-.4c0-.09,0-.13.18-.13h.86c.34,0,.41-.22.43-.63v-5.42Z"/><path d="M71.16,143.75c0,1.35.61,1.58.94,1.58a2.59,2.59,0,0,0,1.19-.23.15.15,0,0,1,.22,0l.09.16a.14.14,0,0,1,0,.2,3,3,0,0,1-2,.72,1.84,1.84,0,0,1-1.75-1.53c0-.74.05-2.32.05-2.57v-.4c0-.32,0-1.53,0-2.29H68.8c-.16,0-.27-.07-.27-.22s.11-.2.32-.32a8.1,8.1,0,0,0,2.05-2.27.24.24,0,0,1,.25-.18c.14,0,.18.13.18.27l-.09,1.78h2.5c.11,0,.16.09.13.16l-.18.63c0,.09-.05.14-.16.14H71.21c0,.83-.05,1.69-.05,2.52Z"/><path d="M75.62,136.19c0-1.1-.22-1.3-.86-1.51l-.31-.11c-.11,0-.13-.05-.13-.11v-.16c0-.07.05-.09.22-.18l1.87-1a1,1,0,0,1,.41-.14c.11,0,.18.14.14.45s-.05,4-.05,4.86v1.15H77a3.43,3.43,0,0,1,2.47-1.17,2.36,2.36,0,0,1,1.78.72,3.18,3.18,0,0,1,.77,2.65v1c0,1,0,2.13,0,2.47s.29.27.67.27H83c.14,0,.2,0,.2.16v.27c0,.14,0,.22-.14.22s-.7-.05-1.73-.05-1.53.05-1.69.05-.16-.05-.16-.2v-.31c0-.09,0-.14.13-.14h.41c.31,0,.67,0,.68-.34s0-1.21,0-1.78v-1.46a2.82,2.82,0,0,0-.59-2.21,1.65,1.65,0,0,0-1.19-.5,2.2,2.2,0,0,0-1.67.76,1.56,1.56,0,0,0-.36.88v3.93c0,.58.05.74.4.74h.54c.13,0,.2,0,.2.14v.31c0,.13,0,.2-.14.2S77,146,76.2,146s-1.58.05-1.75.05-.13-.05-.13-.18v-.32c0-.13.07-.14.27-.14H75c.29,0,.56-.07.59-.29s.05-2.32.05-3.49Z"/><path d="M85.63,141.21a4.62,4.62,0,0,0-.05.86c0,1.76,1.12,3.1,2.56,3.1a2.44,2.44,0,0,0,2.18-1.22.15.15,0,0,1,.16-.09l.23.13c.05,0,.09.07,0,.27a3.25,3.25,0,0,1-2.86,2A3.3,3.3,0,0,1,85,144.94a4.28,4.28,0,0,1-.79-2.84,4.05,4.05,0,0,1,1.13-2.86,3.33,3.33,0,0,1,2.57-1,2.69,2.69,0,0,1,2.65,2.65c0,.25-.22.29-.5.29Zm2.86-.54c.34,0,.49-.09.49-.25,0-.41-.22-1.6-1.39-1.6-.79,0-1.55.52-1.89,1.85Z"/><path d="M99.85,141.23c0,.85,0,3.29,0,3.55s.22.58.59.58h1.15c.13,0,.14.05.14.13v.43c0,.09,0,.14-.16.14s-.81-.05-2.5-.05-2.29.05-2.48.05-.14-.05-.14-.13v-.45c0-.09,0-.13.11-.13h.77c.61,0,.74-.09.79-.58,0-.18.07-3,.07-5.08v-2.07c0-1.19,0-3.15,0-3.33,0-.36-.22-.4-.7-.4h-1c-.09,0-.11,0-.11-.14v-.43c0-.09,0-.13.11-.13s.85.05,2.56.05c.32,0,1.39-.05,2-.05,2,0,3,.2,4,.9a3.2,3.2,0,0,1,1.37,2.61c0,2.27-1.71,3.67-4.57,3.67a16.86,16.86,0,0,1-2-.09Zm0-1.58a6.47,6.47,0,0,0,1.66.16,3.29,3.29,0,0,0,2.54-1.22,2.94,2.94,0,0,0,.47-1.82,3.08,3.08,0,0,0-3.26-3,5.51,5.51,0,0,0-1.41.13Z"/><path d="M112.2,143.86c0,1,.22,1.35.54,1.35a.83.83,0,0,0,.63-.27c.07-.09.11-.13.18-.07l.18.14c.05.05.09.14,0,.32a1.49,1.49,0,0,1-1.4.88A1.34,1.34,0,0,1,111,145h0a3.88,3.88,0,0,1-1.78,1.1,3.4,3.4,0,0,1-1.06.11c-.43,0-1.08-.36-1.08-1.49,0-.83.38-1.55,1.8-2.18a11.9,11.9,0,0,0,2-1v-1.15a2.08,2.08,0,0,0-.25-1,1.37,1.37,0,0,0-1.08-.4,2,2,0,0,0-1.17.38c-.25.23-.09.5-.09.83,0,.63-.22,1-1,1-.29,0-.43-.16-.43-.58a2.26,2.26,0,0,1,1.24-1.69,4,4,0,0,1,2.2-.63,1.85,1.85,0,0,1,1.44.49,1.59,1.59,0,0,1,.4,1.28v3.82ZM110.88,142c-.65.49-2.41.85-2.41,2.34a.89.89,0,0,0,.94,1c.52,0,1.48-.63,1.48-1.12Z"/><path d="M115,145.69c-.09-.05-.09-.16-.11-.25l-.31-1.71c0-.09,0-.13.11-.14l.23-.05c.07,0,.13,0,.16.11l.45.88c.36.67.61,1.12,1.57,1.12a1.31,1.31,0,0,0,1.42-1.22c0-.81-.4-1.28-1.75-1.66-1.06-.31-2.12-.86-2.12-2.29a2.38,2.38,0,0,1,2.52-2.2,3.36,3.36,0,0,1,1.66.38c.27.13.31.22.32.32l.27,1.26a.17.17,0,0,1-.13.16l-.22.07c-.07,0-.11,0-.16-.09l-.61-.83a1.38,1.38,0,0,0-1.26-.7,1.27,1.27,0,0,0-1.39,1.19c0,1,.85,1.24,1.73,1.5,1.31.38,2.14.92,2.16,2.3a2.48,2.48,0,0,1-2.74,2.38A3.4,3.4,0,0,1,115,145.69Z"/><path d="M123.29,143.75c0,1.35.61,1.58.94,1.58a2.59,2.59,0,0,0,1.19-.23.15.15,0,0,1,.22,0l.09.16a.14.14,0,0,1,0,.2,3,3,0,0,1-2,.72,1.84,1.84,0,0,1-1.75-1.53c0-.74.05-2.32.05-2.57v-.4c0-.32,0-1.53,0-2.29h-1.1c-.16,0-.27-.07-.27-.22s.11-.2.32-.32a8.1,8.1,0,0,0,2.05-2.27.24.24,0,0,1,.25-.18c.14,0,.18.13.18.27l-.09,1.78h2.5c.11,0,.16.09.13.16l-.18.63c0,.09-.05.14-.16.14h-2.32c0,.83-.05,1.69-.05,2.52Z"/></svg>