<?xml version="1.0" encoding="utf-8"?>
<!-- Generator: Adobe Illustrator 21.0.2, SVG Export Plug-In . SVG Version: 6.00 Build 0)  -->
<svg version="1.1" id="Layer_1" xmlns="http://www.w3.org/2000/svg" xmlns:xlink="http://www.w3.org/1999/xlink" x="0px" y="0px"
	 viewBox="0 0 595.3 419.5" style="enable-background:new 0 0 595.3 419.5;" xml:space="preserve">
<style type="text/css">
	.st0{fill:#C00D0D;}
</style>
<path class="st0" d="M115.1,223.5c-1.9,0-3.2-0.4-4.4-1.7l1.3-1.2c0.9,0.9,1.9,1.2,3.2,1.2c1.6,0,2.6-0.7,2.6-1.9
	c0-0.5-0.2-1-0.5-1.3c-0.3-0.3-0.6-0.4-1.4-0.5l-1.5-0.2c-1-0.1-1.8-0.5-2.4-1c-0.6-0.6-0.9-1.4-0.9-2.4c0-2.2,1.6-3.7,4.2-3.7
	c1.7,0,2.8,0.4,3.9,1.4l-1.2,1.2c-0.8-0.7-1.7-1-2.7-1c-1.5,0-2.3,0.8-2.3,2c0,0.5,0.1,0.9,0.5,1.2c0.3,0.3,0.8,0.5,1.4,0.6l1.4,0.2
	c1.2,0.2,1.8,0.5,2.3,0.9c0.7,0.6,1,1.5,1,2.6C119.6,222.1,117.8,223.5,115.1,223.5z M125.7,223.5c-2,0-4-1.2-4-4.6s2-4.5,4-4.5
	c1.2,0,2.1,0.4,2.9,1.2l-1.2,1.2c-0.6-0.6-1-0.8-1.7-0.8c-0.7,0-1.3,0.3-1.7,0.8c-0.4,0.5-0.5,1.1-0.5,2.2c0,1,0.1,1.7,0.5,2.2
	c0.4,0.5,1,0.8,1.7,0.8c0.7,0,1.1-0.2,1.7-0.8l1.2,1.2C127.8,223.1,126.9,223.5,125.7,223.5z M136.3,223.4v-5.5c0-1.4-0.8-2-1.8-2
	c-1,0-1.8,0.6-1.8,2v5.5h-1.8v-12.5h1.8v4.5c0.6-0.7,1.4-1,2.3-1c2,0,3.1,1.3,3.1,3.3v5.7H136.3z M149.7,223.4h-1.5l-2.1-6.2
	l-2.1,6.2h-1.5l-2.8-8.9h1.9l1.7,6.3l2.1-6.3h1.4l2.1,6.3l1.7-6.3h1.9L149.7,223.4z M155.6,219.4c0,1.5,0.8,2.5,2.3,2.5
	c1,0,1.5-0.3,2.2-0.9l1.1,1.1c-0.9,0.9-1.8,1.4-3.3,1.4c-2.2,0-4-1.2-4-4.6c0-2.9,1.5-4.5,3.8-4.5c2.4,0,3.8,1.8,3.8,4.3v0.8H155.6z
	 M159.3,217c-0.3-0.7-0.9-1.1-1.8-1.1c-0.8,0-1.5,0.5-1.8,1.1c-0.2,0.4-0.2,0.7-0.2,1.2h4C159.6,217.6,159.5,217.4,159.3,217z
	 M163.9,212.7v-1.9h1.9v1.9H163.9z M163.9,223.4v-8.9h1.8v8.9H163.9z M168.1,223.4v-1.4l4.4-5.9h-4.2v-1.6h6.4v1.4l-4.5,5.9h4.5v1.6
	H168.1z M178.5,219.4c0,1.5,0.8,2.5,2.3,2.5c1,0,1.5-0.3,2.2-0.9l1.1,1.1c-0.9,0.9-1.8,1.4-3.3,1.4c-2.2,0-4-1.2-4-4.6
	c0-2.9,1.5-4.5,3.8-4.5c2.4,0,3.8,1.8,3.8,4.3v0.8H178.5z M182.3,217c-0.3-0.7-0.9-1.1-1.8-1.1c-0.8,0-1.5,0.5-1.8,1.1
	c-0.2,0.4-0.2,0.7-0.2,1.2h4C182.5,217.6,182.4,217.4,182.3,217z M191.7,216.6c-0.4-0.4-0.7-0.6-1.3-0.6c-1,0-1.8,0.8-1.8,2v5.4
	h-1.8v-8.9h1.8v1c0.5-0.6,1.4-1.1,2.4-1.1c0.9,0,1.5,0.2,2.1,0.8L191.7,216.6z M194.7,212.7v-1.9h1.9v1.9H194.7z M194.8,223.4v-8.9
	h1.8v8.9H194.8z M202.5,223.5c-1.5,0-2.7-0.2-3.7-1.3l1.2-1.2c0.7,0.7,1.7,0.9,2.6,0.9c1.1,0,1.9-0.4,1.9-1.2c0-0.6-0.3-1-1.2-1.1
	l-1.4-0.1c-1.7-0.1-2.6-0.9-2.6-2.5c0-1.7,1.5-2.7,3.4-2.7c1.3,0,2.5,0.3,3.3,1l-1.1,1.1c-0.6-0.5-1.4-0.6-2.2-0.6
	c-1.1,0-1.6,0.5-1.6,1.1c0,0.5,0.3,0.9,1.2,1l1.4,0.1c1.7,0.1,2.7,0.9,2.7,2.5C206.2,222.5,204.6,223.5,202.5,223.5z M212.1,223.5
	c-2,0-4-1.2-4-4.6s2-4.5,4-4.5c1.2,0,2.1,0.4,2.9,1.2l-1.2,1.2c-0.6-0.6-1-0.8-1.7-0.8c-0.7,0-1.3,0.3-1.7,0.8
	c-0.4,0.5-0.5,1.1-0.5,2.2c0,1,0.1,1.7,0.5,2.2c0.4,0.5,1,0.8,1.7,0.8c0.7,0,1.1-0.2,1.7-0.8l1.2,1.2
	C214.1,223.1,213.3,223.5,212.1,223.5z M222.6,223.4v-5.5c0-1.4-0.8-2-1.8-2c-1,0-1.8,0.6-1.8,2v5.5h-1.8v-12.5h1.8v4.5
	c0.6-0.7,1.4-1,2.3-1c2,0,3.1,1.3,3.1,3.3v5.7H222.6z M228.7,219.4c0,1.5,0.8,2.5,2.3,2.5c1,0,1.5-0.3,2.2-0.9l1.1,1.1
	c-0.9,0.9-1.8,1.4-3.3,1.4c-2.2,0-4-1.2-4-4.6c0-2.9,1.5-4.5,3.8-4.5c2.4,0,3.8,1.8,3.8,4.3v0.8H228.7z M232.5,217
	c-0.3-0.7-0.9-1.1-1.8-1.1c-0.8,0-1.5,0.5-1.8,1.1c-0.2,0.4-0.2,0.7-0.2,1.2h4C232.7,217.6,232.6,217.4,232.5,217z M239.9,223.5
	c-1.5,0-2.7-0.2-3.7-1.3l1.2-1.2c0.7,0.7,1.7,0.9,2.6,0.9c1.1,0,2-0.4,2-1.2c0-0.6-0.3-1-1.2-1.1l-1.4-0.1c-1.7-0.1-2.6-0.9-2.6-2.5
	c0-1.7,1.5-2.7,3.4-2.7c1.3,0,2.5,0.3,3.3,1l-1.1,1.1c-0.6-0.5-1.4-0.6-2.2-0.6c-1.1,0-1.6,0.5-1.6,1.1c0,0.5,0.3,0.9,1.2,1l1.4,0.1
	c1.7,0.1,2.7,0.9,2.7,2.5C243.6,222.5,242.1,223.5,239.9,223.5z M200.2,261.4c-4.8,0-8.2-1.1-11.2-4.2l3.2-3.2c2.3,2.3,4.8,3,8.1,3
	c4.1,0,6.5-1.8,6.5-4.8c0-1.4-0.4-2.5-1.2-3.3c-0.8-0.8-1.6-1.1-3.5-1.3l-3.7-0.5c-2.6-0.4-4.6-1.2-6-2.5c-1.6-1.5-2.3-3.5-2.3-6
	c0-5.5,4-9.3,10.6-9.3c4.2,0,7.1,1.1,9.8,3.6l-3.1,3c-2-1.9-4.2-2.4-6.9-2.4c-3.7,0-5.8,2.1-5.8,4.9c0,1.2,0.4,2.2,1.2,2.9
	c0.8,0.7,2.1,1.2,3.6,1.5l3.6,0.5c2.9,0.4,4.6,1.2,5.9,2.4c1.7,1.5,2.6,3.8,2.6,6.5C211.6,257.9,206.8,261.4,200.2,261.4z
	 M233.3,258.7c-1.5,1.5-3.7,2.7-6.8,2.7c-3.1,0-5.2-1.2-6.7-2.7c-2.1-2.2-2.7-5.1-2.7-8.9c0-3.8,0.5-6.6,2.7-8.8
	c1.5-1.5,3.6-2.7,6.7-2.7c3.1,0,5.3,1.2,6.8,2.7c2.1,2.2,2.7,5.1,2.7,8.8C235.9,253.7,235.4,256.5,233.3,258.7z M229.9,243.7
	c-0.8-0.8-2-1.3-3.3-1.3c-1.3,0-2.4,0.4-3.3,1.3c-1.4,1.4-1.6,3.7-1.6,6.2c0,2.4,0.2,4.8,1.6,6.2c0.8,0.8,2,1.3,3.3,1.3
	c1.3,0,2.5-0.5,3.3-1.3c1.4-1.4,1.6-3.7,1.6-6.2C231.4,247.4,231.2,245.1,229.9,243.7z M241.1,261.1v-3.6l11.2-14.9h-10.6v-4h16.2
	v3.6l-11.3,14.9h11.3v4H241.1z M264.2,234.2v-4.8h4.8v4.8H264.2z M264.3,261.1v-22.5h4.5v22.5H264.3z M288.9,261.1v-2
	c-1.6,1.6-3.2,2.3-6,2.3c-2.8,0-4.7-0.7-6-2c-1.2-1.2-1.8-2.9-1.8-4.8c0-3.8,2.6-6.5,7.8-6.5h6v-1.6c0-2.8-1.4-4.2-4.9-4.2
	c-2.5,0-3.7,0.6-4.9,2.2l-3-2.8c2.1-2.5,4.4-3.2,8.1-3.2c6.2,0,9.3,2.6,9.3,7.7v15.1H288.9z M288.8,251.2h-5.3c-2.7,0-4,1.2-4,3.2
	c0,2,1.3,3.2,4.1,3.2c1.7,0,3-0.1,4.2-1.3c0.7-0.7,1-1.7,1-3.3V251.2z M307.1,261.1c-4.3,0-6.2-2.9-6.2-6.2v-25.4h4.5v25.1
	c0,1.7,0.6,2.6,2.4,2.6h2v3.9H307.1z M327.7,261.1v-2c-1.6,1.6-3.2,2.3-6,2.3c-2.8,0-4.7-0.7-6-2c-1.2-1.2-1.8-2.9-1.8-4.8
	c0-3.8,2.6-6.5,7.8-6.5h6v-1.6c0-2.8-1.4-4.2-4.9-4.2c-2.5,0-3.7,0.6-4.9,2.2l-3-2.8c2.1-2.5,4.4-3.2,8.1-3.2c6.2,0,9.3,2.6,9.3,7.7
	v15.1H327.7z M327.6,251.2h-5.3c-2.7,0-4,1.2-4,3.2c0,2,1.3,3.2,4.1,3.2c1.7,0,3-0.1,4.2-1.3c0.7-0.7,1-1.7,1-3.3V251.2z
	 M352.2,243.9c-1-1-1.8-1.5-3.4-1.5c-2.4,0-4.5,2-4.5,5.1v13.7h-4.5v-22.5h4.4v2.4c1.2-1.6,3.5-2.7,6-2.7c2.2,0,3.8,0.6,5.4,2.1
	L352.2,243.9z M367.4,261.4c-5.1,0-10-3.1-10-11.6s5-11.5,10-11.5c3.1,0,5.3,0.9,7.4,3.2l-3.1,3c-1.4-1.6-2.5-2.1-4.3-2.1
	c-1.7,0-3.2,0.7-4.2,2c-1,1.2-1.3,2.8-1.3,5.5c0,2.6,0.4,4.3,1.3,5.5c1,1.3,2.4,2,4.2,2c1.8,0,2.9-0.6,4.3-2.1l3.1,3
	C372.7,260.5,370.5,261.4,367.4,261.4z M394.4,261.1v-13.8c0-3.4-2-4.9-4.5-4.9c-2.5,0-4.6,1.6-4.6,4.9v13.8h-4.5v-31.6h4.5v11.4
	c1.6-1.7,3.6-2.5,5.8-2.5c5,0,7.8,3.4,7.8,8.3v14.5H394.4z M406.5,234.2v-4.8h4.8v4.8H406.5z M406.6,261.1v-22.5h4.5v22.5H406.6z
	 M427.8,261.1h-3.7l-8.3-22.5h4.8l5.3,15.9l5.3-15.9h4.8L427.8,261.1z M452,166.3c0-13.7-11.1-24.8-24.8-24.8s-24.8,11.1-24.8,24.8
	c0,10.3,6.4,19.2,15.4,22.9l-1.5,7.3c-0.1,0.6,0.1,1.2,0.6,1.6c0.4,0.3,0.8,0.4,1.4,0.4c1.5,0,2.3-0.5,3.1-1
	c0.8-0.5,1.5-0.9,2.7-0.9c1.2,0,2.3,0.7,2.7,0.9l0.8,0c0.3-0.2,1.5-0.9,2.7-0.9c1.3,0,2,0.4,2.7,0.9c0.8,0.5,1.6,1,3.1,1
	c0.5,0,1-0.1,1.4-0.4c0.5-0.3,0.7-1,0.6-1.6l-1.5-7.3C445.6,185.5,452,176.7,452,166.3z M451,165.8h-8.8v-7.5c0-0.6-0.2-1.1-0.6-1.5
	c-0.4-0.4-1-0.6-1.5-0.6H439v-0.4c1-0.5,1.7-1.6,1.7-2.8c0-1.7-1.4-3.2-3.2-3.2s-3.2,1.4-3.2,3.2c0,1.2,0.7,2.3,1.7,2.8v0.4H435
	c-0.6,0-1.1,0.2-1.5,0.6c-0.4,0.4-0.6,1-0.6,1.5v7.5h-1v-7.5c0-0.6-0.2-1.1-0.6-1.5c-0.4-0.4-1-0.6-1.5-0.6h-1.1v-0.4
	c1-0.5,1.7-1.6,1.7-2.8c0-1.6-1.2-2.9-2.7-3.1v-7.4C440.4,142.8,450.7,153.1,451,165.8z M426.7,142.5v7.4c-1.5,0.2-2.7,1.5-2.7,3.1
	c0,1.2,0.7,2.3,1.7,2.8v0.4h-1.1c-0.6,0-1.1,0.2-1.5,0.6c-0.4,0.4-0.6,1-0.6,1.5v7.5h-1v-7.5c0-0.6-0.2-1.1-0.6-1.5
	c-0.4-0.4-1-0.6-1.5-0.6h-1.1v-0.4c1-0.5,1.7-1.6,1.7-2.8c0-1.7-1.4-3.2-3.2-3.2s-3.2,1.4-3.2,3.2c0,1.2,0.7,2.3,1.7,2.8v0.4h-1.1
	c-0.6,0-1.1,0.2-1.5,0.6c-0.4,0.4-0.6,1-0.6,1.5v7.5h-8.8C403.6,153.1,413.9,142.8,426.7,142.5z M426.7,196.3
	c-0.6-0.3-1.6-0.7-2.5-0.7c-1.6,0-2.5,0.6-3.3,1.1c-0.8,0.5-1.4,0.9-2.6,0.9c-0.3,0-0.6-0.1-0.8-0.2c-0.2-0.1-0.3-0.3-0.2-0.6
	l2.2-10.8v0c0-0.1,0.1-0.1,0.1-0.1c0,0,0.1,0,0.1,0c0,0,0,0,0.1,0c0.4,0.1,0.9,0.2,1.2,0.2c1.2,0,1.7-0.4,2.2-0.8
	c0.5-0.4,0.8-0.6,1.7-0.6c0.7,0,1.5,0.4,1.8,0.6V196.3z M424.8,183.5c-1.3,0-1.8,0.5-2.3,0.9c-0.4,0.3-0.8,0.6-1.6,0.6
	c-0.2,0-0.6,0-0.9-0.1c-0.3-0.1-0.7-0.1-1,0.1c-0.3,0.2-0.5,0.5-0.6,0.8l-0.5,2.5c-8.4-3.6-14.4-11.8-14.6-21.4h8.8v0.8l0,0
	c0,0,0,0,0,0.1c0,0.9,0.7,1.7,1.7,1.7c0,0,0,0,0.1,0l0,0h0.4l0.8,11.2l0,0c0,0,0,0,0,0c0,0.5,0.4,0.9,0.9,0.9h0.9h0.9
	c0.5,0,0.9-0.4,0.9-0.9c0,0,0,0,0,0l0,0l0.8-11.2h0.4l0,0c0,0,0,0,0.1,0c0.9,0,1.7-0.7,1.7-1.7c0,0,0,0,0-0.1l0,0v-0.8h1v0.8l0,0
	c0,0,0,0,0,0.1c0,0.9,0.7,1.7,1.7,1.7c0,0,0,0,0.1,0l0,0h0.4l0.8,11.2l0,0c0,0,0,0,0,0c0,0.5,0.4,0.9,0.9,0.9h0.4v2.6
	C426.2,183.8,425.5,183.5,424.8,183.5z M437.1,196.8c0,0.2,0,0.5-0.2,0.6c-0.2,0.1-0.5,0.2-0.8,0.2c-1.2,0-1.8-0.4-2.6-0.9
	c-0.8-0.5-1.7-1.1-3.3-1.1c-1,0-1.9,0.4-2.5,0.7v-11.2c0.4-0.2,1.1-0.6,1.8-0.6c0.9,0,1.3,0.3,1.7,0.6c0.5,0.4,1,0.8,2.2,0.8
	c0.3,0,0.8-0.1,1.2-0.2c0.1,0,0.2,0,0.2,0c0,0,0.1,0.1,0.1,0.1L437.1,196.8z M436.4,188.3l-0.5-2.5v0c-0.1-0.3-0.3-0.6-0.6-0.8
	c-0.3-0.2-0.7-0.2-1-0.1c-0.3,0.1-0.7,0.1-0.9,0.1c-0.8,0-1.2-0.3-1.6-0.6c-0.5-0.4-1.1-0.9-2.3-0.9c-0.7,0-1.3,0.2-1.8,0.5v-2.6
	h0.4c0.5,0,0.9-0.4,0.9-0.9c0,0,0,0,0,0l0,0l0.8-11.2h0.4l0,0c0,0,0,0,0.1,0c0.9,0,1.7-0.7,1.7-1.7c0,0,0,0,0-0.1l0,0v-0.8h1v0.8
	l0,0c0,0,0,0,0,0.1c0,0.9,0.7,1.7,1.7,1.7c0,0,0,0,0.1,0l0,0h0.4l0.8,11.2l0,0c0,0,0,0,0,0c0,0.5,0.4,0.9,0.9,0.9h0.9h0.9
	c0.5,0,0.9-0.4,0.9-0.9c0,0,0,0,0,0l0,0l0.8-11.2h0.4l0,0c0,0,0,0,0.1,0c0.9,0,1.7-0.7,1.7-1.7c0,0,0,0,0-0.1l0,0v-0.8h8.8
	C450.8,176.5,444.8,184.7,436.4,188.3z"/>
</svg>
